M48
; DRILL file {KiCad (5.1.5-0-10_14)} date Wednesday, 04 March 2020 at 11:47:37
; FORMAT={-:-/ absolute / inch / decimal}
; #@! TF.CreationDate,2020-03-04T11:47:37+00:00
; #@! TF.GenerationSoftware,Kicad,Pcbnew,(5.1.5-0-10_14)
; #@! TF.FileFunction,Plated,1,2,PTH
FMAT,2
INCH
T1C0.0157
T2C0.0177
T3C0.0394
T4C0.0579
%
G90
G05
T1
X4.2095Y-4.232
X4.39Y-4.04
X5.359Y-3.822
X6.4655Y-3.9975
X6.5465Y-3.9195
X6.8095Y-4.14
X6.95Y-4.18
X7.12Y-4.24
X7.17Y-4.11
X7.3Y-4.4
X7.35Y-4.37
X7.39Y-4.34
X7.44Y-4.31
X7.4825Y-3.8545
X7.4975Y-3.605
X7.5535Y-3.914
X7.5685Y-4.177
X7.57Y-3.73
X7.57Y-4.31
X7.66Y-3.86
X7.68Y-3.68
X7.72Y-3.9
X7.72Y-3.96
X7.72Y-4.02
X7.72Y-4.08
X7.73Y-4.31
X7.73Y-4.31
X7.734Y-3.728
X7.75Y-3.93
X7.75Y-3.99
X7.75Y-4.05
X7.8245Y-4.2255
X7.95Y-4.3035
X8.06Y-4.302
X8.16Y-3.8795
X8.194Y-4.3055
X11.8175Y-0.978
X11.8725Y-2.0475
X11.8725Y-3.7565
X11.936Y-1.012
X11.982Y-3.787
X11.984Y-2.037
T3
X6.81Y-3.92
X6.81Y-4.02
X4.97Y-3.88
X4.97Y-3.98
X5.07Y-3.88
X5.07Y-3.98
X5.17Y-3.88
X5.17Y-3.98
T4
X2.5688Y-3.275
X2.8188Y-3.175
X4.6312Y-1.025
X4.8812Y-0.925
X4.8187Y-3.275
X5.0687Y-3.175
X11.3812Y-4.025
X11.6312Y-3.925
X8.9437Y-2.525
X9.1937Y-2.425
X5.0062Y-1.775
X5.2562Y-1.675
X5.5687Y-3.275
X5.8187Y-3.175
X3.3188Y-3.275
X3.5688Y-3.175
X5.7562Y-1.775
X6.0062Y-1.675
X6.3187Y-3.275
X6.5687Y-3.175
X1.0687Y-1.775
X1.3187Y-1.675
X8.7562Y-1.775
X9.0062Y-1.675
X1.35Y-3.275
X1.6Y-3.175
X6.1312Y-4.025
X6.3812Y-3.925
X11.3812Y-3.275
X11.6312Y-3.175
X9.8812Y-1.025
X10.1312Y-0.925
X7.6312Y-1.025
X7.8812Y-0.925
X9.6937Y-2.525
X9.9437Y-2.425
X2.1938Y-2.525
X2.4438Y-2.425
X10.9125Y-2.525
X11.1625Y-2.425
X3.6938Y-2.525
X3.9438Y-2.425
X9.3187Y-3.275
X9.5687Y-3.175
X4.4437Y-2.525
X4.6937Y-2.425
X12.1312Y-1.775
X12.3812Y-1.675
X2.9438Y-2.525
X3.1938Y-2.425
X12.1312Y-4.025
X12.3812Y-3.925
X11.1937Y-1.775
X11.4437Y-1.675
X3.5063Y-1.775
X3.7563Y-1.675
X12.1312Y-3.275
X12.3812Y-3.175
X7.0687Y-3.275
X7.3187Y-3.175
X7.4437Y-2.525
X7.6937Y-2.425
X0.8812Y-1.025
X1.1312Y-0.925
X10.6312Y-1.025
X10.8812Y-0.925
X8.5687Y-3.275
X8.8187Y-3.175
X6.6937Y-2.525
X6.9437Y-2.425
X11.3812Y-1.025
X11.6312Y-0.925
X5.3812Y-1.025
X5.6312Y-0.925
X10.2562Y-1.775
X10.5062Y-1.675
X8.0062Y-1.775
X8.2562Y-1.675
X5.1937Y-2.525
X5.4437Y-2.425
X1.6312Y-1.025
X1.8812Y-0.925
X6.1312Y-1.025
X6.3812Y-0.925
X5.9437Y-2.525
X6.1937Y-2.425
X4.0687Y-3.275
X4.3187Y-3.175
X10.6312Y-4.025
X10.8812Y-3.925
X6.8812Y-1.025
X7.1312Y-0.925
X2.0063Y-1.775
X2.2563Y-1.675
X9.1312Y-1.025
X9.3812Y-0.925
X3.1313Y-1.025
X3.3813Y-0.925
X4.2562Y-1.775
X4.5062Y-1.675
X2.7563Y-1.775
X3.0063Y-1.675
X1.0687Y-4.025
X1.3187Y-3.925
X6.5062Y-1.775
X6.7562Y-1.675
X2.9438Y-4.025
X3.1938Y-3.925
X12.1312Y-2.525
X12.3812Y-2.425
X10.35Y-3.275
X10.6Y-3.175
X9.5062Y-1.775
X9.7562Y-1.675
X3.8813Y-1.025
X4.1312Y-0.925
X9.3187Y-4.025
X9.5687Y-3.925
X1.1625Y-2.525
X1.4125Y-2.425
X7.8187Y-3.275
X8.0687Y-3.175
X8.1937Y-2.525
X8.4437Y-2.425
X7.2562Y-1.775
X7.5062Y-1.675
X2.3813Y-1.025
X2.6313Y-0.925
X8.3812Y-1.025
X8.6312Y-0.925
T2
G00X11.7659Y-0.8219
M15
G01X11.7659Y-0.7905
M16
G05
G00X12.0474Y-0.7905
M15
G01X12.0474Y-0.8219
M16
G05
T0
M30
