M48
; DRILL file {KiCad (5.1.5-0-10_14)} date Monday, 17 February 2020 at 19:47:52
; FORMAT={-:-/ absolute / inch / decimal}
; #@! TF.CreationDate,2020-02-17T19:47:52+00:00
; #@! TF.GenerationSoftware,Kicad,Pcbnew,(5.1.5-0-10_14)
; #@! TF.FileFunction,Plated,1,2,PTH
FMAT,2
INCH
T1C0.0157
T2C0.0177
T3C0.0579
%
G90
G05
T1
X1.05Y-1.41
X1.2487Y-3.31
X1.6Y-1.35
X2.0489Y-4.2
X3.27Y-4.4
X4.34Y-3.98
X4.34Y-4.1359
X4.38Y-4.48
X4.41Y-3.58
X4.72Y-3.8996
X4.97Y-4.37
X5.0785Y-3.8615
X5.1Y-4.29
X5.13Y-4.26
X5.16Y-4.23
X5.24Y-4.14
X5.3Y-4.28
X5.33Y-4.14
X5.3333Y-4.2975
X5.36Y-4.17
X5.39Y-4.2
X5.46Y-3.9453
X5.54Y-4.08
X5.55Y-4.04
X5.6Y-1.3
X5.63Y-1.34
X6.08Y-3.68
X7.829Y-3.841
X7.829Y-3.931
X7.83Y-3.68
X7.83Y-3.72
X7.83Y-3.76
X7.83Y-3.8
X7.83Y-3.89
T3
X9.3187Y-4.025
X9.5687Y-3.925
X10.6312Y-4.025
X10.8812Y-3.925
X4.4437Y-2.525
X4.6937Y-2.425
X1.0687Y-4.025
X1.3187Y-3.925
X9.5062Y-1.775
X9.7562Y-1.675
X8.1937Y-2.525
X8.4437Y-2.425
X3.8813Y-1.025
X4.1312Y-0.925
X4.0687Y-3.275
X4.3187Y-3.175
X3.1313Y-1.025
X3.3813Y-0.925
X10.2562Y-1.775
X10.5062Y-1.675
X8.7562Y-1.775
X9.0062Y-1.675
X7.2562Y-1.775
X7.5062Y-1.675
X3.3188Y-3.275
X3.5688Y-3.175
X5.9437Y-2.525
X6.1937Y-2.425
X2.3813Y-1.025
X2.6313Y-0.925
X9.8812Y-1.025
X10.1312Y-0.925
X12.1312Y-3.275
X12.3812Y-3.175
X11.3812Y-3.275
X11.6312Y-3.175
X5.0062Y-1.775
X5.2562Y-1.675
X12.1312Y-1.775
X12.3812Y-1.675
X8.0062Y-1.775
X8.2562Y-1.675
X6.5062Y-1.775
X6.7562Y-1.675
X1.0687Y-1.775
X1.3187Y-1.675
X6.1312Y-1.025
X6.3812Y-0.925
X10.35Y-3.275
X10.6Y-3.175
X4.2562Y-1.775
X4.5062Y-1.675
X7.6312Y-1.025
X7.8812Y-0.925
X1.35Y-3.275
X1.6Y-3.175
X3.6938Y-2.525
X3.9438Y-2.425
X2.5688Y-3.275
X2.8188Y-3.175
X10.6312Y-1.025
X10.8812Y-0.925
X9.1312Y-1.025
X9.3812Y-0.925
X2.9438Y-2.525
X3.1938Y-2.425
X9.3187Y-3.275
X9.5687Y-3.175
X11.1937Y-1.775
X11.4437Y-1.675
X5.3812Y-1.025
X5.6312Y-0.925
X8.3812Y-1.025
X8.6312Y-0.925
X3.5063Y-1.775
X3.7563Y-1.675
X6.8812Y-1.025
X7.1312Y-0.925
X2.1938Y-2.525
X2.4438Y-2.425
X0.8812Y-1.025
X1.1312Y-0.925
X5.5687Y-3.275
X5.8187Y-3.175
X10.9125Y-2.525
X11.1625Y-2.425
X4.6312Y-1.025
X4.8812Y-0.925
X7.0687Y-3.275
X7.3187Y-3.175
X4.8187Y-3.275
X5.0687Y-3.175
X1.6312Y-1.025
X1.8812Y-0.925
X12.1312Y-2.525
X12.3812Y-2.425
X12.1312Y-4.025
X12.3812Y-3.925
X11.3812Y-4.025
X11.6312Y-3.925
X9.6937Y-2.525
X9.9437Y-2.425
X8.5687Y-3.275
X8.8187Y-3.175
X2.7563Y-1.775
X3.0063Y-1.675
X8.9437Y-2.525
X9.1937Y-2.425
X11.3812Y-1.025
X11.6312Y-0.925
X7.4437Y-2.525
X7.6937Y-2.425
X2.9438Y-4.025
X3.1938Y-3.925
X6.3187Y-3.275
X6.5687Y-3.175
X2.0063Y-1.775
X2.2563Y-1.675
X5.1937Y-2.525
X5.4437Y-2.425
X6.1312Y-4.025
X6.3812Y-3.925
X6.6937Y-2.525
X6.9437Y-2.425
X1.1625Y-2.525
X1.4125Y-2.425
X7.8187Y-3.275
X8.0687Y-3.175
X5.7562Y-1.775
X6.0062Y-1.675
T2
G00X1.3093Y-0.7285
M15
G01X1.3093Y-0.697
M16
G05
G00X1.5907Y-0.697
M15
G01X1.5907Y-0.7285
M16
G05
T0
M30
