G04 #@! TF.GenerationSoftware,KiCad,Pcbnew,(5.1.5)-3*
G04 #@! TF.CreationDate,2020-02-18T19:32:23+00:00*
G04 #@! TF.ProjectId,pcb,7063622e-6b69-4636-9164-5f7063625858,rev?*
G04 #@! TF.SameCoordinates,Original*
G04 #@! TF.FileFunction,Legend,Bot*
G04 #@! TF.FilePolarity,Positive*
%FSLAX46Y46*%
G04 Gerber Fmt 4.6, Leading zero omitted, Abs format (unit mm)*
G04 Created by KiCad (PCBNEW (5.1.5)-3) date 2020-02-18 19:32:23*
%MOMM*%
%LPD*%
G04 APERTURE LIST*
%ADD10C,0.120000*%
%ADD11C,0.150000*%
G04 APERTURE END LIST*
D10*
X179824748Y-106224000D02*
X180347252Y-106224000D01*
X179824748Y-107644000D02*
X180347252Y-107644000D01*
X81316000Y-34528000D02*
X85216000Y-34528000D01*
X81316000Y-32528000D02*
X85216000Y-32528000D01*
X81316000Y-34528000D02*
X81316000Y-32528000D01*
X313542000Y-32352064D02*
X313542000Y-31147936D01*
X315362000Y-32352064D02*
X315362000Y-31147936D01*
X310152000Y-24127000D02*
X310152000Y-23737000D01*
X310152000Y-24127000D02*
X310602000Y-24127000D01*
X315722000Y-23427000D02*
X315072000Y-23427000D01*
X315722000Y-21697000D02*
X315722000Y-23427000D01*
X308102000Y-19127000D02*
X308102000Y-19337000D01*
X315722000Y-19127000D02*
X315722000Y-19337000D01*
X308102000Y-21697000D02*
X308102000Y-23427000D01*
X308102000Y-23427000D02*
X308762000Y-23427000D01*
X173674000Y-99330000D02*
X172274000Y-99330000D01*
X171574000Y-100030000D02*
X171574000Y-100630000D01*
X172274000Y-101330000D02*
X173674000Y-101330000D01*
X174374000Y-100630000D02*
X174374000Y-100030000D01*
X174374000Y-100030000D02*
G75*
G03X173674000Y-99330000I-700000J0D01*
G01*
X173674000Y-101330000D02*
G75*
G03X174374000Y-100630000I0J700000D01*
G01*
X171574000Y-100630000D02*
G75*
G03X172274000Y-101330000I700000J0D01*
G01*
X172274000Y-99330000D02*
G75*
G03X171574000Y-100030000I0J-700000D01*
G01*
X179904000Y-98950000D02*
X179904000Y-104250000D01*
X176204000Y-98950000D02*
X179904000Y-98950000D01*
D11*
X197640000Y-107283000D02*
X197640000Y-108558000D01*
X198215000Y-96933000D02*
X198215000Y-97608000D01*
X187865000Y-96933000D02*
X187865000Y-97608000D01*
X187865000Y-107283000D02*
X187865000Y-106608000D01*
X198215000Y-107283000D02*
X198215000Y-106608000D01*
X187865000Y-107283000D02*
X188540000Y-107283000D01*
X187865000Y-96933000D02*
X188540000Y-96933000D01*
X198215000Y-96933000D02*
X197540000Y-96933000D01*
X198215000Y-107283000D02*
X197640000Y-107283000D01*
D10*
X311806000Y-31147936D02*
X311806000Y-32352064D01*
X309986000Y-31147936D02*
X309986000Y-32352064D01*
X204818064Y-96668000D02*
X203613936Y-96668000D01*
X204818064Y-94848000D02*
X203613936Y-94848000D01*
X171609936Y-110850000D02*
X172814064Y-110850000D01*
X171609936Y-112670000D02*
X172814064Y-112670000D01*
X171090000Y-106077936D02*
X171090000Y-107282064D01*
X169270000Y-106077936D02*
X169270000Y-107282064D01*
X309916000Y-110728000D02*
X313816000Y-110728000D01*
X309916000Y-108728000D02*
X313816000Y-108728000D01*
X309916000Y-110728000D02*
X309916000Y-108728000D01*
X309916000Y-91678000D02*
X313816000Y-91678000D01*
X309916000Y-89678000D02*
X313816000Y-89678000D01*
X309916000Y-91678000D02*
X309916000Y-89678000D01*
X309916000Y-72628000D02*
X313816000Y-72628000D01*
X309916000Y-70628000D02*
X313816000Y-70628000D01*
X309916000Y-72628000D02*
X309916000Y-70628000D01*
X309916000Y-53578000D02*
X313816000Y-53578000D01*
X309916000Y-51578000D02*
X313816000Y-51578000D01*
X309916000Y-53578000D02*
X309916000Y-51578000D01*
X290866000Y-110728000D02*
X294766000Y-110728000D01*
X290866000Y-108728000D02*
X294766000Y-108728000D01*
X290866000Y-110728000D02*
X290866000Y-108728000D01*
X290866000Y-91678000D02*
X294766000Y-91678000D01*
X290866000Y-89678000D02*
X294766000Y-89678000D01*
X290866000Y-91678000D02*
X290866000Y-89678000D01*
X286040000Y-53578000D02*
X289940000Y-53578000D01*
X286040000Y-51578000D02*
X289940000Y-51578000D01*
X286040000Y-53578000D02*
X286040000Y-51578000D01*
X290866000Y-34528000D02*
X294766000Y-34528000D01*
X290866000Y-32528000D02*
X294766000Y-32528000D01*
X290866000Y-34528000D02*
X290866000Y-32528000D01*
X271816000Y-110728000D02*
X275716000Y-110728000D01*
X271816000Y-108728000D02*
X275716000Y-108728000D01*
X271816000Y-110728000D02*
X271816000Y-108728000D01*
X264704000Y-91678000D02*
X268604000Y-91678000D01*
X264704000Y-89678000D02*
X268604000Y-89678000D01*
X264704000Y-91678000D02*
X264704000Y-89678000D01*
X278928000Y-72628000D02*
X282828000Y-72628000D01*
X278928000Y-70628000D02*
X282828000Y-70628000D01*
X278928000Y-72628000D02*
X278928000Y-70628000D01*
X262164000Y-53578000D02*
X266064000Y-53578000D01*
X262164000Y-51578000D02*
X266064000Y-51578000D01*
X262164000Y-53578000D02*
X262164000Y-51578000D01*
X271816000Y-34528000D02*
X275716000Y-34528000D01*
X271816000Y-32528000D02*
X275716000Y-32528000D01*
X271816000Y-34528000D02*
X271816000Y-32528000D01*
X247940000Y-72628000D02*
X251840000Y-72628000D01*
X247940000Y-70628000D02*
X251840000Y-70628000D01*
X247940000Y-72628000D02*
X247940000Y-70628000D01*
X243114000Y-53578000D02*
X247014000Y-53578000D01*
X243114000Y-51578000D02*
X247014000Y-51578000D01*
X243114000Y-53578000D02*
X243114000Y-51578000D01*
X252766000Y-34528000D02*
X256666000Y-34528000D01*
X252766000Y-32528000D02*
X256666000Y-32528000D01*
X252766000Y-34528000D02*
X252766000Y-32528000D01*
X238542000Y-110728000D02*
X242442000Y-110728000D01*
X238542000Y-108728000D02*
X242442000Y-108728000D01*
X238542000Y-110728000D02*
X238542000Y-108728000D01*
X238542000Y-91678000D02*
X242442000Y-91678000D01*
X238542000Y-89678000D02*
X242442000Y-89678000D01*
X238542000Y-91678000D02*
X238542000Y-89678000D01*
X228890000Y-72628000D02*
X232790000Y-72628000D01*
X228890000Y-70628000D02*
X232790000Y-70628000D01*
X228890000Y-72628000D02*
X228890000Y-70628000D01*
X224064000Y-53578000D02*
X227964000Y-53578000D01*
X224064000Y-51578000D02*
X227964000Y-51578000D01*
X224064000Y-53578000D02*
X224064000Y-51578000D01*
X233716000Y-34528000D02*
X237616000Y-34528000D01*
X233716000Y-32528000D02*
X237616000Y-32528000D01*
X233716000Y-34528000D02*
X233716000Y-32528000D01*
X219746000Y-91678000D02*
X223646000Y-91678000D01*
X219746000Y-89678000D02*
X223646000Y-89678000D01*
X219746000Y-91678000D02*
X219746000Y-89678000D01*
X209840000Y-72628000D02*
X213740000Y-72628000D01*
X209840000Y-70628000D02*
X213740000Y-70628000D01*
X209840000Y-72628000D02*
X209840000Y-70628000D01*
X205014000Y-53578000D02*
X208914000Y-53578000D01*
X205014000Y-51578000D02*
X208914000Y-51578000D01*
X205014000Y-53578000D02*
X205014000Y-51578000D01*
X214666000Y-34528000D02*
X218566000Y-34528000D01*
X214666000Y-32528000D02*
X218566000Y-32528000D01*
X214666000Y-34528000D02*
X214666000Y-32528000D01*
X200442000Y-91678000D02*
X204342000Y-91678000D01*
X200442000Y-89678000D02*
X204342000Y-89678000D01*
X200442000Y-91678000D02*
X200442000Y-89678000D01*
X190790000Y-72628000D02*
X194690000Y-72628000D01*
X190790000Y-70628000D02*
X194690000Y-70628000D01*
X190790000Y-72628000D02*
X190790000Y-70628000D01*
X185964000Y-53578000D02*
X189864000Y-53578000D01*
X185964000Y-51578000D02*
X189864000Y-51578000D01*
X185964000Y-53578000D02*
X185964000Y-51578000D01*
X195616000Y-34528000D02*
X199516000Y-34528000D01*
X195616000Y-32528000D02*
X199516000Y-32528000D01*
X195616000Y-34528000D02*
X195616000Y-32528000D01*
X181392000Y-91678000D02*
X185292000Y-91678000D01*
X181392000Y-89678000D02*
X185292000Y-89678000D01*
X181392000Y-91678000D02*
X181392000Y-89678000D01*
X171740000Y-72628000D02*
X175640000Y-72628000D01*
X171740000Y-70628000D02*
X175640000Y-70628000D01*
X171740000Y-72628000D02*
X171740000Y-70628000D01*
X166914000Y-53578000D02*
X170814000Y-53578000D01*
X166914000Y-51578000D02*
X170814000Y-51578000D01*
X166914000Y-53578000D02*
X166914000Y-51578000D01*
X176566000Y-34528000D02*
X180466000Y-34528000D01*
X176566000Y-32528000D02*
X180466000Y-32528000D01*
X176566000Y-34528000D02*
X176566000Y-32528000D01*
X157516000Y-110728000D02*
X161416000Y-110728000D01*
X157516000Y-108728000D02*
X161416000Y-108728000D01*
X157516000Y-110728000D02*
X157516000Y-108728000D01*
X162342000Y-91678000D02*
X166242000Y-91678000D01*
X162342000Y-89678000D02*
X166242000Y-89678000D01*
X162342000Y-91678000D02*
X162342000Y-89678000D01*
X152690000Y-72628000D02*
X156590000Y-72628000D01*
X152690000Y-70628000D02*
X156590000Y-70628000D01*
X152690000Y-72628000D02*
X152690000Y-70628000D01*
X147864000Y-53578000D02*
X151764000Y-53578000D01*
X147864000Y-51578000D02*
X151764000Y-51578000D01*
X147864000Y-53578000D02*
X147864000Y-51578000D01*
X157516000Y-34528000D02*
X161416000Y-34528000D01*
X157516000Y-32528000D02*
X161416000Y-32528000D01*
X157516000Y-34528000D02*
X157516000Y-32528000D01*
X143292000Y-91678000D02*
X147192000Y-91678000D01*
X143292000Y-89678000D02*
X147192000Y-89678000D01*
X143292000Y-91678000D02*
X143292000Y-89678000D01*
X133640000Y-72628000D02*
X137540000Y-72628000D01*
X133640000Y-70628000D02*
X137540000Y-70628000D01*
X133640000Y-72628000D02*
X133640000Y-70628000D01*
X128814000Y-53578000D02*
X132714000Y-53578000D01*
X128814000Y-51578000D02*
X132714000Y-51578000D01*
X128814000Y-53578000D02*
X128814000Y-51578000D01*
X138466000Y-34528000D02*
X142366000Y-34528000D01*
X138466000Y-32528000D02*
X142366000Y-32528000D01*
X138466000Y-34528000D02*
X138466000Y-32528000D01*
X124242000Y-91678000D02*
X128142000Y-91678000D01*
X124242000Y-89678000D02*
X128142000Y-89678000D01*
X124242000Y-91678000D02*
X124242000Y-89678000D01*
X114590000Y-72628000D02*
X118490000Y-72628000D01*
X114590000Y-70628000D02*
X118490000Y-70628000D01*
X114590000Y-72628000D02*
X114590000Y-70628000D01*
X109764000Y-53578000D02*
X113664000Y-53578000D01*
X109764000Y-51578000D02*
X113664000Y-51578000D01*
X109764000Y-53578000D02*
X109764000Y-51578000D01*
X119416000Y-34528000D02*
X123316000Y-34528000D01*
X119416000Y-32528000D02*
X123316000Y-32528000D01*
X119416000Y-34528000D02*
X119416000Y-32528000D01*
X105192000Y-91678000D02*
X109092000Y-91678000D01*
X105192000Y-89678000D02*
X109092000Y-89678000D01*
X105192000Y-91678000D02*
X105192000Y-89678000D01*
X95540000Y-72628000D02*
X99440000Y-72628000D01*
X95540000Y-70628000D02*
X99440000Y-70628000D01*
X95540000Y-72628000D02*
X95540000Y-70628000D01*
X90714000Y-53578000D02*
X94614000Y-53578000D01*
X90714000Y-51578000D02*
X94614000Y-51578000D01*
X90714000Y-53578000D02*
X90714000Y-51578000D01*
X100112000Y-34528000D02*
X104012000Y-34528000D01*
X100112000Y-32528000D02*
X104012000Y-32528000D01*
X100112000Y-34528000D02*
X100112000Y-32528000D01*
X76490000Y-110728000D02*
X80390000Y-110728000D01*
X76490000Y-108728000D02*
X80390000Y-108728000D01*
X76490000Y-110728000D02*
X76490000Y-108728000D01*
X86142000Y-91678000D02*
X90042000Y-91678000D01*
X86142000Y-89678000D02*
X90042000Y-89678000D01*
X86142000Y-91678000D02*
X86142000Y-89678000D01*
X76490000Y-72628000D02*
X80390000Y-72628000D01*
X76490000Y-70628000D02*
X80390000Y-70628000D01*
X76490000Y-72628000D02*
X76490000Y-70628000D01*
X71664000Y-53578000D02*
X75564000Y-53578000D01*
X71664000Y-51578000D02*
X75564000Y-51578000D01*
X71664000Y-53578000D02*
X71664000Y-51578000D01*
X67092000Y-91678000D02*
X70992000Y-91678000D01*
X67092000Y-89678000D02*
X70992000Y-89678000D01*
X67092000Y-91678000D02*
X67092000Y-89678000D01*
X57440000Y-72628000D02*
X61340000Y-72628000D01*
X57440000Y-70628000D02*
X61340000Y-70628000D01*
X57440000Y-72628000D02*
X57440000Y-70628000D01*
X52614000Y-53578000D02*
X56514000Y-53578000D01*
X52614000Y-51578000D02*
X56514000Y-51578000D01*
X52614000Y-53578000D02*
X52614000Y-51578000D01*
X62266000Y-34528000D02*
X66166000Y-34528000D01*
X62266000Y-32528000D02*
X66166000Y-32528000D01*
X62266000Y-34528000D02*
X62266000Y-32528000D01*
X36104000Y-91678000D02*
X40004000Y-91678000D01*
X36104000Y-89678000D02*
X40004000Y-89678000D01*
X36104000Y-91678000D02*
X36104000Y-89678000D01*
X43216000Y-34528000D02*
X47116000Y-34528000D01*
X43216000Y-32528000D02*
X47116000Y-32528000D01*
X43216000Y-34528000D02*
X43216000Y-32528000D01*
X28992000Y-110728000D02*
X32892000Y-110728000D01*
X28992000Y-108728000D02*
X32892000Y-108728000D01*
X28992000Y-110728000D02*
X28992000Y-108728000D01*
X31278000Y-72628000D02*
X35178000Y-72628000D01*
X31278000Y-70628000D02*
X35178000Y-70628000D01*
X31278000Y-72628000D02*
X31278000Y-70628000D01*
X28992000Y-53578000D02*
X32892000Y-53578000D01*
X28992000Y-51578000D02*
X32892000Y-51578000D01*
X28992000Y-53578000D02*
X28992000Y-51578000D01*
X24166000Y-34528000D02*
X28066000Y-34528000D01*
X24166000Y-32528000D02*
X28066000Y-32528000D01*
X24166000Y-34528000D02*
X24166000Y-32528000D01*
X204014000Y-107195252D02*
X204014000Y-106672748D01*
X205434000Y-107195252D02*
X205434000Y-106672748D01*
X190761252Y-94182000D02*
X190238748Y-94182000D01*
X190761252Y-92762000D02*
X190238748Y-92762000D01*
X203402000Y-99306748D02*
X203402000Y-99829252D01*
X201982000Y-99306748D02*
X201982000Y-99829252D01*
X201220000Y-107195252D02*
X201220000Y-106672748D01*
X202640000Y-107195252D02*
X202640000Y-106672748D01*
X178315252Y-97992000D02*
X177792748Y-97992000D01*
X178315252Y-96572000D02*
X177792748Y-96572000D01*
X205942000Y-99306748D02*
X205942000Y-99829252D01*
X204522000Y-99306748D02*
X204522000Y-99829252D01*
X192524748Y-111304000D02*
X193047252Y-111304000D01*
X192524748Y-112724000D02*
X193047252Y-112724000D01*
X175013252Y-108660000D02*
X174490748Y-108660000D01*
X175013252Y-107240000D02*
X174490748Y-107240000D01*
D11*
X180252666Y-108941142D02*
X180300285Y-108988761D01*
X180443142Y-109036380D01*
X180538380Y-109036380D01*
X180681238Y-108988761D01*
X180776476Y-108893523D01*
X180824095Y-108798285D01*
X180871714Y-108607809D01*
X180871714Y-108464952D01*
X180824095Y-108274476D01*
X180776476Y-108179238D01*
X180681238Y-108084000D01*
X180538380Y-108036380D01*
X180443142Y-108036380D01*
X180300285Y-108084000D01*
X180252666Y-108131619D01*
X179919333Y-108036380D02*
X179252666Y-108036380D01*
X179681238Y-109036380D01*
X84304095Y-35980380D02*
X84304095Y-34980380D01*
X84066000Y-34980380D01*
X83923142Y-35028000D01*
X83827904Y-35123238D01*
X83780285Y-35218476D01*
X83732666Y-35408952D01*
X83732666Y-35551809D01*
X83780285Y-35742285D01*
X83827904Y-35837523D01*
X83923142Y-35932761D01*
X84066000Y-35980380D01*
X84304095Y-35980380D01*
X82875523Y-35313714D02*
X82875523Y-35980380D01*
X83113619Y-34932761D02*
X83351714Y-35647047D01*
X82732666Y-35647047D01*
X316724380Y-31583333D02*
X316248190Y-31250000D01*
X316724380Y-31011904D02*
X315724380Y-31011904D01*
X315724380Y-31392857D01*
X315772000Y-31488095D01*
X315819619Y-31535714D01*
X315914857Y-31583333D01*
X316057714Y-31583333D01*
X316152952Y-31535714D01*
X316200571Y-31488095D01*
X316248190Y-31392857D01*
X316248190Y-31011904D01*
X315819619Y-31964285D02*
X315772000Y-32011904D01*
X315724380Y-32107142D01*
X315724380Y-32345238D01*
X315772000Y-32440476D01*
X315819619Y-32488095D01*
X315914857Y-32535714D01*
X316010095Y-32535714D01*
X316152952Y-32488095D01*
X316724380Y-31916666D01*
X316724380Y-32535714D01*
X312245333Y-24469380D02*
X312245333Y-25183666D01*
X312292952Y-25326523D01*
X312388190Y-25421761D01*
X312531047Y-25469380D01*
X312626285Y-25469380D01*
X311245333Y-25469380D02*
X311816761Y-25469380D01*
X311531047Y-25469380D02*
X311531047Y-24469380D01*
X311626285Y-24612238D01*
X311721523Y-24707476D01*
X311816761Y-24755095D01*
X173807333Y-97982380D02*
X173807333Y-98696666D01*
X173854952Y-98839523D01*
X173950190Y-98934761D01*
X174093047Y-98982380D01*
X174188285Y-98982380D01*
X173331142Y-98982380D02*
X173331142Y-97982380D01*
X172950190Y-97982380D01*
X172854952Y-98030000D01*
X172807333Y-98077619D01*
X172759714Y-98172857D01*
X172759714Y-98315714D01*
X172807333Y-98410952D01*
X172854952Y-98458571D01*
X172950190Y-98506190D01*
X173331142Y-98506190D01*
X171807333Y-98982380D02*
X172378761Y-98982380D01*
X172093047Y-98982380D02*
X172093047Y-97982380D01*
X172188285Y-98125238D01*
X172283523Y-98220476D01*
X172378761Y-98268095D01*
X175230190Y-101123809D02*
X175706380Y-101123809D01*
X174706380Y-100790476D02*
X175230190Y-101123809D01*
X174706380Y-101457142D01*
X175706380Y-102314285D02*
X175706380Y-101742857D01*
X175706380Y-102028571D02*
X174706380Y-102028571D01*
X174849238Y-101933333D01*
X174944476Y-101838095D01*
X174992095Y-101742857D01*
X199942381Y-101346095D02*
X200751905Y-101346095D01*
X200847143Y-101393714D01*
X200894762Y-101441333D01*
X200942381Y-101536571D01*
X200942381Y-101727047D01*
X200894762Y-101822285D01*
X200847143Y-101869904D01*
X200751905Y-101917523D01*
X199942381Y-101917523D01*
X200942381Y-102917523D02*
X200942381Y-102346095D01*
X200942381Y-102631809D02*
X199942381Y-102631809D01*
X200085239Y-102536571D01*
X200180477Y-102441333D01*
X200228096Y-102346095D01*
X309528380Y-31583333D02*
X309052190Y-31250000D01*
X309528380Y-31011904D02*
X308528380Y-31011904D01*
X308528380Y-31392857D01*
X308576000Y-31488095D01*
X308623619Y-31535714D01*
X308718857Y-31583333D01*
X308861714Y-31583333D01*
X308956952Y-31535714D01*
X309004571Y-31488095D01*
X309052190Y-31392857D01*
X309052190Y-31011904D01*
X308528380Y-31916666D02*
X308528380Y-32535714D01*
X308909333Y-32202380D01*
X308909333Y-32345238D01*
X308956952Y-32440476D01*
X309004571Y-32488095D01*
X309099809Y-32535714D01*
X309337904Y-32535714D01*
X309433142Y-32488095D01*
X309480761Y-32440476D01*
X309528380Y-32345238D01*
X309528380Y-32059523D01*
X309480761Y-31964285D01*
X309433142Y-31916666D01*
X204382666Y-94390380D02*
X204716000Y-93914190D01*
X204954095Y-94390380D02*
X204954095Y-93390380D01*
X204573142Y-93390380D01*
X204477904Y-93438000D01*
X204430285Y-93485619D01*
X204382666Y-93580857D01*
X204382666Y-93723714D01*
X204430285Y-93818952D01*
X204477904Y-93866571D01*
X204573142Y-93914190D01*
X204954095Y-93914190D01*
X203430285Y-94390380D02*
X204001714Y-94390380D01*
X203716000Y-94390380D02*
X203716000Y-93390380D01*
X203811238Y-93533238D01*
X203906476Y-93628476D01*
X204001714Y-93676095D01*
X172378666Y-114032380D02*
X172712000Y-113556190D01*
X172950095Y-114032380D02*
X172950095Y-113032380D01*
X172569142Y-113032380D01*
X172473904Y-113080000D01*
X172426285Y-113127619D01*
X172378666Y-113222857D01*
X172378666Y-113365714D01*
X172426285Y-113460952D01*
X172473904Y-113508571D01*
X172569142Y-113556190D01*
X172950095Y-113556190D01*
X171521523Y-113365714D02*
X171521523Y-114032380D01*
X171759619Y-112984761D02*
X171997714Y-113699047D01*
X171378666Y-113699047D01*
X168812380Y-106513333D02*
X168336190Y-106180000D01*
X168812380Y-105941904D02*
X167812380Y-105941904D01*
X167812380Y-106322857D01*
X167860000Y-106418095D01*
X167907619Y-106465714D01*
X168002857Y-106513333D01*
X168145714Y-106513333D01*
X168240952Y-106465714D01*
X168288571Y-106418095D01*
X168336190Y-106322857D01*
X168336190Y-105941904D01*
X167812380Y-107418095D02*
X167812380Y-106941904D01*
X168288571Y-106894285D01*
X168240952Y-106941904D01*
X168193333Y-107037142D01*
X168193333Y-107275238D01*
X168240952Y-107370476D01*
X168288571Y-107418095D01*
X168383809Y-107465714D01*
X168621904Y-107465714D01*
X168717142Y-107418095D01*
X168764761Y-107370476D01*
X168812380Y-107275238D01*
X168812380Y-107037142D01*
X168764761Y-106941904D01*
X168717142Y-106894285D01*
X313380285Y-112180380D02*
X313380285Y-111180380D01*
X313142190Y-111180380D01*
X312999333Y-111228000D01*
X312904095Y-111323238D01*
X312856476Y-111418476D01*
X312808857Y-111608952D01*
X312808857Y-111751809D01*
X312856476Y-111942285D01*
X312904095Y-112037523D01*
X312999333Y-112132761D01*
X313142190Y-112180380D01*
X313380285Y-112180380D01*
X311951714Y-111180380D02*
X312142190Y-111180380D01*
X312237428Y-111228000D01*
X312285047Y-111275619D01*
X312380285Y-111418476D01*
X312427904Y-111608952D01*
X312427904Y-111989904D01*
X312380285Y-112085142D01*
X312332666Y-112132761D01*
X312237428Y-112180380D01*
X312046952Y-112180380D01*
X311951714Y-112132761D01*
X311904095Y-112085142D01*
X311856476Y-111989904D01*
X311856476Y-111751809D01*
X311904095Y-111656571D01*
X311951714Y-111608952D01*
X312046952Y-111561333D01*
X312237428Y-111561333D01*
X312332666Y-111608952D01*
X312380285Y-111656571D01*
X312427904Y-111751809D01*
X310951714Y-111180380D02*
X311427904Y-111180380D01*
X311475523Y-111656571D01*
X311427904Y-111608952D01*
X311332666Y-111561333D01*
X311094571Y-111561333D01*
X310999333Y-111608952D01*
X310951714Y-111656571D01*
X310904095Y-111751809D01*
X310904095Y-111989904D01*
X310951714Y-112085142D01*
X310999333Y-112132761D01*
X311094571Y-112180380D01*
X311332666Y-112180380D01*
X311427904Y-112132761D01*
X311475523Y-112085142D01*
X313380285Y-93130380D02*
X313380285Y-92130380D01*
X313142190Y-92130380D01*
X312999333Y-92178000D01*
X312904095Y-92273238D01*
X312856476Y-92368476D01*
X312808857Y-92558952D01*
X312808857Y-92701809D01*
X312856476Y-92892285D01*
X312904095Y-92987523D01*
X312999333Y-93082761D01*
X313142190Y-93130380D01*
X313380285Y-93130380D01*
X311904095Y-92130380D02*
X312380285Y-92130380D01*
X312427904Y-92606571D01*
X312380285Y-92558952D01*
X312285047Y-92511333D01*
X312046952Y-92511333D01*
X311951714Y-92558952D01*
X311904095Y-92606571D01*
X311856476Y-92701809D01*
X311856476Y-92939904D01*
X311904095Y-93035142D01*
X311951714Y-93082761D01*
X312046952Y-93130380D01*
X312285047Y-93130380D01*
X312380285Y-93082761D01*
X312427904Y-93035142D01*
X311285047Y-92558952D02*
X311380285Y-92511333D01*
X311427904Y-92463714D01*
X311475523Y-92368476D01*
X311475523Y-92320857D01*
X311427904Y-92225619D01*
X311380285Y-92178000D01*
X311285047Y-92130380D01*
X311094571Y-92130380D01*
X310999333Y-92178000D01*
X310951714Y-92225619D01*
X310904095Y-92320857D01*
X310904095Y-92368476D01*
X310951714Y-92463714D01*
X310999333Y-92511333D01*
X311094571Y-92558952D01*
X311285047Y-92558952D01*
X311380285Y-92606571D01*
X311427904Y-92654190D01*
X311475523Y-92749428D01*
X311475523Y-92939904D01*
X311427904Y-93035142D01*
X311380285Y-93082761D01*
X311285047Y-93130380D01*
X311094571Y-93130380D01*
X310999333Y-93082761D01*
X310951714Y-93035142D01*
X310904095Y-92939904D01*
X310904095Y-92749428D01*
X310951714Y-92654190D01*
X310999333Y-92606571D01*
X311094571Y-92558952D01*
X313380285Y-74080380D02*
X313380285Y-73080380D01*
X313142190Y-73080380D01*
X312999333Y-73128000D01*
X312904095Y-73223238D01*
X312856476Y-73318476D01*
X312808857Y-73508952D01*
X312808857Y-73651809D01*
X312856476Y-73842285D01*
X312904095Y-73937523D01*
X312999333Y-74032761D01*
X313142190Y-74080380D01*
X313380285Y-74080380D01*
X311951714Y-73413714D02*
X311951714Y-74080380D01*
X312189809Y-73032761D02*
X312427904Y-73747047D01*
X311808857Y-73747047D01*
X310999333Y-73413714D02*
X310999333Y-74080380D01*
X311237428Y-73032761D02*
X311475523Y-73747047D01*
X310856476Y-73747047D01*
X313380285Y-55030380D02*
X313380285Y-54030380D01*
X313142190Y-54030380D01*
X312999333Y-54078000D01*
X312904095Y-54173238D01*
X312856476Y-54268476D01*
X312808857Y-54458952D01*
X312808857Y-54601809D01*
X312856476Y-54792285D01*
X312904095Y-54887523D01*
X312999333Y-54982761D01*
X313142190Y-55030380D01*
X313380285Y-55030380D01*
X312475523Y-54030380D02*
X311856476Y-54030380D01*
X312189809Y-54411333D01*
X312046952Y-54411333D01*
X311951714Y-54458952D01*
X311904095Y-54506571D01*
X311856476Y-54601809D01*
X311856476Y-54839904D01*
X311904095Y-54935142D01*
X311951714Y-54982761D01*
X312046952Y-55030380D01*
X312332666Y-55030380D01*
X312427904Y-54982761D01*
X312475523Y-54935142D01*
X311237428Y-54030380D02*
X311142190Y-54030380D01*
X311046952Y-54078000D01*
X310999333Y-54125619D01*
X310951714Y-54220857D01*
X310904095Y-54411333D01*
X310904095Y-54649428D01*
X310951714Y-54839904D01*
X310999333Y-54935142D01*
X311046952Y-54982761D01*
X311142190Y-55030380D01*
X311237428Y-55030380D01*
X311332666Y-54982761D01*
X311380285Y-54935142D01*
X311427904Y-54839904D01*
X311475523Y-54649428D01*
X311475523Y-54411333D01*
X311427904Y-54220857D01*
X311380285Y-54125619D01*
X311332666Y-54078000D01*
X311237428Y-54030380D01*
X294330285Y-112180380D02*
X294330285Y-111180380D01*
X294092190Y-111180380D01*
X293949333Y-111228000D01*
X293854095Y-111323238D01*
X293806476Y-111418476D01*
X293758857Y-111608952D01*
X293758857Y-111751809D01*
X293806476Y-111942285D01*
X293854095Y-112037523D01*
X293949333Y-112132761D01*
X294092190Y-112180380D01*
X294330285Y-112180380D01*
X292901714Y-111180380D02*
X293092190Y-111180380D01*
X293187428Y-111228000D01*
X293235047Y-111275619D01*
X293330285Y-111418476D01*
X293377904Y-111608952D01*
X293377904Y-111989904D01*
X293330285Y-112085142D01*
X293282666Y-112132761D01*
X293187428Y-112180380D01*
X292996952Y-112180380D01*
X292901714Y-112132761D01*
X292854095Y-112085142D01*
X292806476Y-111989904D01*
X292806476Y-111751809D01*
X292854095Y-111656571D01*
X292901714Y-111608952D01*
X292996952Y-111561333D01*
X293187428Y-111561333D01*
X293282666Y-111608952D01*
X293330285Y-111656571D01*
X293377904Y-111751809D01*
X291949333Y-111513714D02*
X291949333Y-112180380D01*
X292187428Y-111132761D02*
X292425523Y-111847047D01*
X291806476Y-111847047D01*
X294330285Y-93130380D02*
X294330285Y-92130380D01*
X294092190Y-92130380D01*
X293949333Y-92178000D01*
X293854095Y-92273238D01*
X293806476Y-92368476D01*
X293758857Y-92558952D01*
X293758857Y-92701809D01*
X293806476Y-92892285D01*
X293854095Y-92987523D01*
X293949333Y-93082761D01*
X294092190Y-93130380D01*
X294330285Y-93130380D01*
X292854095Y-92130380D02*
X293330285Y-92130380D01*
X293377904Y-92606571D01*
X293330285Y-92558952D01*
X293235047Y-92511333D01*
X292996952Y-92511333D01*
X292901714Y-92558952D01*
X292854095Y-92606571D01*
X292806476Y-92701809D01*
X292806476Y-92939904D01*
X292854095Y-93035142D01*
X292901714Y-93082761D01*
X292996952Y-93130380D01*
X293235047Y-93130380D01*
X293330285Y-93082761D01*
X293377904Y-93035142D01*
X292473142Y-92130380D02*
X291806476Y-92130380D01*
X292235047Y-93130380D01*
X289504285Y-55030380D02*
X289504285Y-54030380D01*
X289266190Y-54030380D01*
X289123333Y-54078000D01*
X289028095Y-54173238D01*
X288980476Y-54268476D01*
X288932857Y-54458952D01*
X288932857Y-54601809D01*
X288980476Y-54792285D01*
X289028095Y-54887523D01*
X289123333Y-54982761D01*
X289266190Y-55030380D01*
X289504285Y-55030380D01*
X288551904Y-54125619D02*
X288504285Y-54078000D01*
X288409047Y-54030380D01*
X288170952Y-54030380D01*
X288075714Y-54078000D01*
X288028095Y-54125619D01*
X287980476Y-54220857D01*
X287980476Y-54316095D01*
X288028095Y-54458952D01*
X288599523Y-55030380D01*
X287980476Y-55030380D01*
X287504285Y-55030380D02*
X287313809Y-55030380D01*
X287218571Y-54982761D01*
X287170952Y-54935142D01*
X287075714Y-54792285D01*
X287028095Y-54601809D01*
X287028095Y-54220857D01*
X287075714Y-54125619D01*
X287123333Y-54078000D01*
X287218571Y-54030380D01*
X287409047Y-54030380D01*
X287504285Y-54078000D01*
X287551904Y-54125619D01*
X287599523Y-54220857D01*
X287599523Y-54458952D01*
X287551904Y-54554190D01*
X287504285Y-54601809D01*
X287409047Y-54649428D01*
X287218571Y-54649428D01*
X287123333Y-54601809D01*
X287075714Y-54554190D01*
X287028095Y-54458952D01*
X294330285Y-35980380D02*
X294330285Y-34980380D01*
X294092190Y-34980380D01*
X293949333Y-35028000D01*
X293854095Y-35123238D01*
X293806476Y-35218476D01*
X293758857Y-35408952D01*
X293758857Y-35551809D01*
X293806476Y-35742285D01*
X293854095Y-35837523D01*
X293949333Y-35932761D01*
X294092190Y-35980380D01*
X294330285Y-35980380D01*
X292806476Y-35980380D02*
X293377904Y-35980380D01*
X293092190Y-35980380D02*
X293092190Y-34980380D01*
X293187428Y-35123238D01*
X293282666Y-35218476D01*
X293377904Y-35266095D01*
X291901714Y-34980380D02*
X292377904Y-34980380D01*
X292425523Y-35456571D01*
X292377904Y-35408952D01*
X292282666Y-35361333D01*
X292044571Y-35361333D01*
X291949333Y-35408952D01*
X291901714Y-35456571D01*
X291854095Y-35551809D01*
X291854095Y-35789904D01*
X291901714Y-35885142D01*
X291949333Y-35932761D01*
X292044571Y-35980380D01*
X292282666Y-35980380D01*
X292377904Y-35932761D01*
X292425523Y-35885142D01*
X275280285Y-112180380D02*
X275280285Y-111180380D01*
X275042190Y-111180380D01*
X274899333Y-111228000D01*
X274804095Y-111323238D01*
X274756476Y-111418476D01*
X274708857Y-111608952D01*
X274708857Y-111751809D01*
X274756476Y-111942285D01*
X274804095Y-112037523D01*
X274899333Y-112132761D01*
X275042190Y-112180380D01*
X275280285Y-112180380D01*
X273851714Y-111180380D02*
X274042190Y-111180380D01*
X274137428Y-111228000D01*
X274185047Y-111275619D01*
X274280285Y-111418476D01*
X274327904Y-111608952D01*
X274327904Y-111989904D01*
X274280285Y-112085142D01*
X274232666Y-112132761D01*
X274137428Y-112180380D01*
X273946952Y-112180380D01*
X273851714Y-112132761D01*
X273804095Y-112085142D01*
X273756476Y-111989904D01*
X273756476Y-111751809D01*
X273804095Y-111656571D01*
X273851714Y-111608952D01*
X273946952Y-111561333D01*
X274137428Y-111561333D01*
X274232666Y-111608952D01*
X274280285Y-111656571D01*
X274327904Y-111751809D01*
X273423142Y-111180380D02*
X272804095Y-111180380D01*
X273137428Y-111561333D01*
X272994571Y-111561333D01*
X272899333Y-111608952D01*
X272851714Y-111656571D01*
X272804095Y-111751809D01*
X272804095Y-111989904D01*
X272851714Y-112085142D01*
X272899333Y-112132761D01*
X272994571Y-112180380D01*
X273280285Y-112180380D01*
X273375523Y-112132761D01*
X273423142Y-112085142D01*
X268168285Y-93130380D02*
X268168285Y-92130380D01*
X267930190Y-92130380D01*
X267787333Y-92178000D01*
X267692095Y-92273238D01*
X267644476Y-92368476D01*
X267596857Y-92558952D01*
X267596857Y-92701809D01*
X267644476Y-92892285D01*
X267692095Y-92987523D01*
X267787333Y-93082761D01*
X267930190Y-93130380D01*
X268168285Y-93130380D01*
X266692095Y-92130380D02*
X267168285Y-92130380D01*
X267215904Y-92606571D01*
X267168285Y-92558952D01*
X267073047Y-92511333D01*
X266834952Y-92511333D01*
X266739714Y-92558952D01*
X266692095Y-92606571D01*
X266644476Y-92701809D01*
X266644476Y-92939904D01*
X266692095Y-93035142D01*
X266739714Y-93082761D01*
X266834952Y-93130380D01*
X267073047Y-93130380D01*
X267168285Y-93082761D01*
X267215904Y-93035142D01*
X265787333Y-92130380D02*
X265977809Y-92130380D01*
X266073047Y-92178000D01*
X266120666Y-92225619D01*
X266215904Y-92368476D01*
X266263523Y-92558952D01*
X266263523Y-92939904D01*
X266215904Y-93035142D01*
X266168285Y-93082761D01*
X266073047Y-93130380D01*
X265882571Y-93130380D01*
X265787333Y-93082761D01*
X265739714Y-93035142D01*
X265692095Y-92939904D01*
X265692095Y-92701809D01*
X265739714Y-92606571D01*
X265787333Y-92558952D01*
X265882571Y-92511333D01*
X266073047Y-92511333D01*
X266168285Y-92558952D01*
X266215904Y-92606571D01*
X266263523Y-92701809D01*
X282392285Y-74080380D02*
X282392285Y-73080380D01*
X282154190Y-73080380D01*
X282011333Y-73128000D01*
X281916095Y-73223238D01*
X281868476Y-73318476D01*
X281820857Y-73508952D01*
X281820857Y-73651809D01*
X281868476Y-73842285D01*
X281916095Y-73937523D01*
X282011333Y-74032761D01*
X282154190Y-74080380D01*
X282392285Y-74080380D01*
X280963714Y-73413714D02*
X280963714Y-74080380D01*
X281201809Y-73032761D02*
X281439904Y-73747047D01*
X280820857Y-73747047D01*
X280535142Y-73080380D02*
X279916095Y-73080380D01*
X280249428Y-73461333D01*
X280106571Y-73461333D01*
X280011333Y-73508952D01*
X279963714Y-73556571D01*
X279916095Y-73651809D01*
X279916095Y-73889904D01*
X279963714Y-73985142D01*
X280011333Y-74032761D01*
X280106571Y-74080380D01*
X280392285Y-74080380D01*
X280487523Y-74032761D01*
X280535142Y-73985142D01*
X265628285Y-55030380D02*
X265628285Y-54030380D01*
X265390190Y-54030380D01*
X265247333Y-54078000D01*
X265152095Y-54173238D01*
X265104476Y-54268476D01*
X265056857Y-54458952D01*
X265056857Y-54601809D01*
X265104476Y-54792285D01*
X265152095Y-54887523D01*
X265247333Y-54982761D01*
X265390190Y-55030380D01*
X265628285Y-55030380D01*
X264675904Y-54125619D02*
X264628285Y-54078000D01*
X264533047Y-54030380D01*
X264294952Y-54030380D01*
X264199714Y-54078000D01*
X264152095Y-54125619D01*
X264104476Y-54220857D01*
X264104476Y-54316095D01*
X264152095Y-54458952D01*
X264723523Y-55030380D01*
X264104476Y-55030380D01*
X263533047Y-54458952D02*
X263628285Y-54411333D01*
X263675904Y-54363714D01*
X263723523Y-54268476D01*
X263723523Y-54220857D01*
X263675904Y-54125619D01*
X263628285Y-54078000D01*
X263533047Y-54030380D01*
X263342571Y-54030380D01*
X263247333Y-54078000D01*
X263199714Y-54125619D01*
X263152095Y-54220857D01*
X263152095Y-54268476D01*
X263199714Y-54363714D01*
X263247333Y-54411333D01*
X263342571Y-54458952D01*
X263533047Y-54458952D01*
X263628285Y-54506571D01*
X263675904Y-54554190D01*
X263723523Y-54649428D01*
X263723523Y-54839904D01*
X263675904Y-54935142D01*
X263628285Y-54982761D01*
X263533047Y-55030380D01*
X263342571Y-55030380D01*
X263247333Y-54982761D01*
X263199714Y-54935142D01*
X263152095Y-54839904D01*
X263152095Y-54649428D01*
X263199714Y-54554190D01*
X263247333Y-54506571D01*
X263342571Y-54458952D01*
X275280285Y-35980380D02*
X275280285Y-34980380D01*
X275042190Y-34980380D01*
X274899333Y-35028000D01*
X274804095Y-35123238D01*
X274756476Y-35218476D01*
X274708857Y-35408952D01*
X274708857Y-35551809D01*
X274756476Y-35742285D01*
X274804095Y-35837523D01*
X274899333Y-35932761D01*
X275042190Y-35980380D01*
X275280285Y-35980380D01*
X273756476Y-35980380D02*
X274327904Y-35980380D01*
X274042190Y-35980380D02*
X274042190Y-34980380D01*
X274137428Y-35123238D01*
X274232666Y-35218476D01*
X274327904Y-35266095D01*
X272899333Y-35313714D02*
X272899333Y-35980380D01*
X273137428Y-34932761D02*
X273375523Y-35647047D01*
X272756476Y-35647047D01*
X251404285Y-74080380D02*
X251404285Y-73080380D01*
X251166190Y-73080380D01*
X251023333Y-73128000D01*
X250928095Y-73223238D01*
X250880476Y-73318476D01*
X250832857Y-73508952D01*
X250832857Y-73651809D01*
X250880476Y-73842285D01*
X250928095Y-73937523D01*
X251023333Y-74032761D01*
X251166190Y-74080380D01*
X251404285Y-74080380D01*
X249975714Y-73413714D02*
X249975714Y-74080380D01*
X250213809Y-73032761D02*
X250451904Y-73747047D01*
X249832857Y-73747047D01*
X249499523Y-73175619D02*
X249451904Y-73128000D01*
X249356666Y-73080380D01*
X249118571Y-73080380D01*
X249023333Y-73128000D01*
X248975714Y-73175619D01*
X248928095Y-73270857D01*
X248928095Y-73366095D01*
X248975714Y-73508952D01*
X249547142Y-74080380D01*
X248928095Y-74080380D01*
X246578285Y-55030380D02*
X246578285Y-54030380D01*
X246340190Y-54030380D01*
X246197333Y-54078000D01*
X246102095Y-54173238D01*
X246054476Y-54268476D01*
X246006857Y-54458952D01*
X246006857Y-54601809D01*
X246054476Y-54792285D01*
X246102095Y-54887523D01*
X246197333Y-54982761D01*
X246340190Y-55030380D01*
X246578285Y-55030380D01*
X245625904Y-54125619D02*
X245578285Y-54078000D01*
X245483047Y-54030380D01*
X245244952Y-54030380D01*
X245149714Y-54078000D01*
X245102095Y-54125619D01*
X245054476Y-54220857D01*
X245054476Y-54316095D01*
X245102095Y-54458952D01*
X245673523Y-55030380D01*
X245054476Y-55030380D01*
X244721142Y-54030380D02*
X244054476Y-54030380D01*
X244483047Y-55030380D01*
X256230285Y-35980380D02*
X256230285Y-34980380D01*
X255992190Y-34980380D01*
X255849333Y-35028000D01*
X255754095Y-35123238D01*
X255706476Y-35218476D01*
X255658857Y-35408952D01*
X255658857Y-35551809D01*
X255706476Y-35742285D01*
X255754095Y-35837523D01*
X255849333Y-35932761D01*
X255992190Y-35980380D01*
X256230285Y-35980380D01*
X254706476Y-35980380D02*
X255277904Y-35980380D01*
X254992190Y-35980380D02*
X254992190Y-34980380D01*
X255087428Y-35123238D01*
X255182666Y-35218476D01*
X255277904Y-35266095D01*
X254373142Y-34980380D02*
X253754095Y-34980380D01*
X254087428Y-35361333D01*
X253944571Y-35361333D01*
X253849333Y-35408952D01*
X253801714Y-35456571D01*
X253754095Y-35551809D01*
X253754095Y-35789904D01*
X253801714Y-35885142D01*
X253849333Y-35932761D01*
X253944571Y-35980380D01*
X254230285Y-35980380D01*
X254325523Y-35932761D01*
X254373142Y-35885142D01*
X242006285Y-112180380D02*
X242006285Y-111180380D01*
X241768190Y-111180380D01*
X241625333Y-111228000D01*
X241530095Y-111323238D01*
X241482476Y-111418476D01*
X241434857Y-111608952D01*
X241434857Y-111751809D01*
X241482476Y-111942285D01*
X241530095Y-112037523D01*
X241625333Y-112132761D01*
X241768190Y-112180380D01*
X242006285Y-112180380D01*
X240577714Y-111180380D02*
X240768190Y-111180380D01*
X240863428Y-111228000D01*
X240911047Y-111275619D01*
X241006285Y-111418476D01*
X241053904Y-111608952D01*
X241053904Y-111989904D01*
X241006285Y-112085142D01*
X240958666Y-112132761D01*
X240863428Y-112180380D01*
X240672952Y-112180380D01*
X240577714Y-112132761D01*
X240530095Y-112085142D01*
X240482476Y-111989904D01*
X240482476Y-111751809D01*
X240530095Y-111656571D01*
X240577714Y-111608952D01*
X240672952Y-111561333D01*
X240863428Y-111561333D01*
X240958666Y-111608952D01*
X241006285Y-111656571D01*
X241053904Y-111751809D01*
X240101523Y-111275619D02*
X240053904Y-111228000D01*
X239958666Y-111180380D01*
X239720571Y-111180380D01*
X239625333Y-111228000D01*
X239577714Y-111275619D01*
X239530095Y-111370857D01*
X239530095Y-111466095D01*
X239577714Y-111608952D01*
X240149142Y-112180380D01*
X239530095Y-112180380D01*
X242006285Y-93130380D02*
X242006285Y-92130380D01*
X241768190Y-92130380D01*
X241625333Y-92178000D01*
X241530095Y-92273238D01*
X241482476Y-92368476D01*
X241434857Y-92558952D01*
X241434857Y-92701809D01*
X241482476Y-92892285D01*
X241530095Y-92987523D01*
X241625333Y-93082761D01*
X241768190Y-93130380D01*
X242006285Y-93130380D01*
X240530095Y-92130380D02*
X241006285Y-92130380D01*
X241053904Y-92606571D01*
X241006285Y-92558952D01*
X240911047Y-92511333D01*
X240672952Y-92511333D01*
X240577714Y-92558952D01*
X240530095Y-92606571D01*
X240482476Y-92701809D01*
X240482476Y-92939904D01*
X240530095Y-93035142D01*
X240577714Y-93082761D01*
X240672952Y-93130380D01*
X240911047Y-93130380D01*
X241006285Y-93082761D01*
X241053904Y-93035142D01*
X239577714Y-92130380D02*
X240053904Y-92130380D01*
X240101523Y-92606571D01*
X240053904Y-92558952D01*
X239958666Y-92511333D01*
X239720571Y-92511333D01*
X239625333Y-92558952D01*
X239577714Y-92606571D01*
X239530095Y-92701809D01*
X239530095Y-92939904D01*
X239577714Y-93035142D01*
X239625333Y-93082761D01*
X239720571Y-93130380D01*
X239958666Y-93130380D01*
X240053904Y-93082761D01*
X240101523Y-93035142D01*
X232354285Y-74080380D02*
X232354285Y-73080380D01*
X232116190Y-73080380D01*
X231973333Y-73128000D01*
X231878095Y-73223238D01*
X231830476Y-73318476D01*
X231782857Y-73508952D01*
X231782857Y-73651809D01*
X231830476Y-73842285D01*
X231878095Y-73937523D01*
X231973333Y-74032761D01*
X232116190Y-74080380D01*
X232354285Y-74080380D01*
X230925714Y-73413714D02*
X230925714Y-74080380D01*
X231163809Y-73032761D02*
X231401904Y-73747047D01*
X230782857Y-73747047D01*
X229878095Y-74080380D02*
X230449523Y-74080380D01*
X230163809Y-74080380D02*
X230163809Y-73080380D01*
X230259047Y-73223238D01*
X230354285Y-73318476D01*
X230449523Y-73366095D01*
X227528285Y-55030380D02*
X227528285Y-54030380D01*
X227290190Y-54030380D01*
X227147333Y-54078000D01*
X227052095Y-54173238D01*
X227004476Y-54268476D01*
X226956857Y-54458952D01*
X226956857Y-54601809D01*
X227004476Y-54792285D01*
X227052095Y-54887523D01*
X227147333Y-54982761D01*
X227290190Y-55030380D01*
X227528285Y-55030380D01*
X226575904Y-54125619D02*
X226528285Y-54078000D01*
X226433047Y-54030380D01*
X226194952Y-54030380D01*
X226099714Y-54078000D01*
X226052095Y-54125619D01*
X226004476Y-54220857D01*
X226004476Y-54316095D01*
X226052095Y-54458952D01*
X226623523Y-55030380D01*
X226004476Y-55030380D01*
X225147333Y-54030380D02*
X225337809Y-54030380D01*
X225433047Y-54078000D01*
X225480666Y-54125619D01*
X225575904Y-54268476D01*
X225623523Y-54458952D01*
X225623523Y-54839904D01*
X225575904Y-54935142D01*
X225528285Y-54982761D01*
X225433047Y-55030380D01*
X225242571Y-55030380D01*
X225147333Y-54982761D01*
X225099714Y-54935142D01*
X225052095Y-54839904D01*
X225052095Y-54601809D01*
X225099714Y-54506571D01*
X225147333Y-54458952D01*
X225242571Y-54411333D01*
X225433047Y-54411333D01*
X225528285Y-54458952D01*
X225575904Y-54506571D01*
X225623523Y-54601809D01*
X237180285Y-35980380D02*
X237180285Y-34980380D01*
X236942190Y-34980380D01*
X236799333Y-35028000D01*
X236704095Y-35123238D01*
X236656476Y-35218476D01*
X236608857Y-35408952D01*
X236608857Y-35551809D01*
X236656476Y-35742285D01*
X236704095Y-35837523D01*
X236799333Y-35932761D01*
X236942190Y-35980380D01*
X237180285Y-35980380D01*
X235656476Y-35980380D02*
X236227904Y-35980380D01*
X235942190Y-35980380D02*
X235942190Y-34980380D01*
X236037428Y-35123238D01*
X236132666Y-35218476D01*
X236227904Y-35266095D01*
X235275523Y-35075619D02*
X235227904Y-35028000D01*
X235132666Y-34980380D01*
X234894571Y-34980380D01*
X234799333Y-35028000D01*
X234751714Y-35075619D01*
X234704095Y-35170857D01*
X234704095Y-35266095D01*
X234751714Y-35408952D01*
X235323142Y-35980380D01*
X234704095Y-35980380D01*
X223210285Y-93130380D02*
X223210285Y-92130380D01*
X222972190Y-92130380D01*
X222829333Y-92178000D01*
X222734095Y-92273238D01*
X222686476Y-92368476D01*
X222638857Y-92558952D01*
X222638857Y-92701809D01*
X222686476Y-92892285D01*
X222734095Y-92987523D01*
X222829333Y-93082761D01*
X222972190Y-93130380D01*
X223210285Y-93130380D01*
X221734095Y-92130380D02*
X222210285Y-92130380D01*
X222257904Y-92606571D01*
X222210285Y-92558952D01*
X222115047Y-92511333D01*
X221876952Y-92511333D01*
X221781714Y-92558952D01*
X221734095Y-92606571D01*
X221686476Y-92701809D01*
X221686476Y-92939904D01*
X221734095Y-93035142D01*
X221781714Y-93082761D01*
X221876952Y-93130380D01*
X222115047Y-93130380D01*
X222210285Y-93082761D01*
X222257904Y-93035142D01*
X220829333Y-92463714D02*
X220829333Y-93130380D01*
X221067428Y-92082761D02*
X221305523Y-92797047D01*
X220686476Y-92797047D01*
X213304285Y-74080380D02*
X213304285Y-73080380D01*
X213066190Y-73080380D01*
X212923333Y-73128000D01*
X212828095Y-73223238D01*
X212780476Y-73318476D01*
X212732857Y-73508952D01*
X212732857Y-73651809D01*
X212780476Y-73842285D01*
X212828095Y-73937523D01*
X212923333Y-74032761D01*
X213066190Y-74080380D01*
X213304285Y-74080380D01*
X211875714Y-73413714D02*
X211875714Y-74080380D01*
X212113809Y-73032761D02*
X212351904Y-73747047D01*
X211732857Y-73747047D01*
X211161428Y-73080380D02*
X211066190Y-73080380D01*
X210970952Y-73128000D01*
X210923333Y-73175619D01*
X210875714Y-73270857D01*
X210828095Y-73461333D01*
X210828095Y-73699428D01*
X210875714Y-73889904D01*
X210923333Y-73985142D01*
X210970952Y-74032761D01*
X211066190Y-74080380D01*
X211161428Y-74080380D01*
X211256666Y-74032761D01*
X211304285Y-73985142D01*
X211351904Y-73889904D01*
X211399523Y-73699428D01*
X211399523Y-73461333D01*
X211351904Y-73270857D01*
X211304285Y-73175619D01*
X211256666Y-73128000D01*
X211161428Y-73080380D01*
X208478285Y-55030380D02*
X208478285Y-54030380D01*
X208240190Y-54030380D01*
X208097333Y-54078000D01*
X208002095Y-54173238D01*
X207954476Y-54268476D01*
X207906857Y-54458952D01*
X207906857Y-54601809D01*
X207954476Y-54792285D01*
X208002095Y-54887523D01*
X208097333Y-54982761D01*
X208240190Y-55030380D01*
X208478285Y-55030380D01*
X207525904Y-54125619D02*
X207478285Y-54078000D01*
X207383047Y-54030380D01*
X207144952Y-54030380D01*
X207049714Y-54078000D01*
X207002095Y-54125619D01*
X206954476Y-54220857D01*
X206954476Y-54316095D01*
X207002095Y-54458952D01*
X207573523Y-55030380D01*
X206954476Y-55030380D01*
X206049714Y-54030380D02*
X206525904Y-54030380D01*
X206573523Y-54506571D01*
X206525904Y-54458952D01*
X206430666Y-54411333D01*
X206192571Y-54411333D01*
X206097333Y-54458952D01*
X206049714Y-54506571D01*
X206002095Y-54601809D01*
X206002095Y-54839904D01*
X206049714Y-54935142D01*
X206097333Y-54982761D01*
X206192571Y-55030380D01*
X206430666Y-55030380D01*
X206525904Y-54982761D01*
X206573523Y-54935142D01*
X218130285Y-35980380D02*
X218130285Y-34980380D01*
X217892190Y-34980380D01*
X217749333Y-35028000D01*
X217654095Y-35123238D01*
X217606476Y-35218476D01*
X217558857Y-35408952D01*
X217558857Y-35551809D01*
X217606476Y-35742285D01*
X217654095Y-35837523D01*
X217749333Y-35932761D01*
X217892190Y-35980380D01*
X218130285Y-35980380D01*
X216606476Y-35980380D02*
X217177904Y-35980380D01*
X216892190Y-35980380D02*
X216892190Y-34980380D01*
X216987428Y-35123238D01*
X217082666Y-35218476D01*
X217177904Y-35266095D01*
X215654095Y-35980380D02*
X216225523Y-35980380D01*
X215939809Y-35980380D02*
X215939809Y-34980380D01*
X216035047Y-35123238D01*
X216130285Y-35218476D01*
X216225523Y-35266095D01*
X203906285Y-93130380D02*
X203906285Y-92130380D01*
X203668190Y-92130380D01*
X203525333Y-92178000D01*
X203430095Y-92273238D01*
X203382476Y-92368476D01*
X203334857Y-92558952D01*
X203334857Y-92701809D01*
X203382476Y-92892285D01*
X203430095Y-92987523D01*
X203525333Y-93082761D01*
X203668190Y-93130380D01*
X203906285Y-93130380D01*
X202430095Y-92130380D02*
X202906285Y-92130380D01*
X202953904Y-92606571D01*
X202906285Y-92558952D01*
X202811047Y-92511333D01*
X202572952Y-92511333D01*
X202477714Y-92558952D01*
X202430095Y-92606571D01*
X202382476Y-92701809D01*
X202382476Y-92939904D01*
X202430095Y-93035142D01*
X202477714Y-93082761D01*
X202572952Y-93130380D01*
X202811047Y-93130380D01*
X202906285Y-93082761D01*
X202953904Y-93035142D01*
X202049142Y-92130380D02*
X201430095Y-92130380D01*
X201763428Y-92511333D01*
X201620571Y-92511333D01*
X201525333Y-92558952D01*
X201477714Y-92606571D01*
X201430095Y-92701809D01*
X201430095Y-92939904D01*
X201477714Y-93035142D01*
X201525333Y-93082761D01*
X201620571Y-93130380D01*
X201906285Y-93130380D01*
X202001523Y-93082761D01*
X202049142Y-93035142D01*
X194254285Y-74080380D02*
X194254285Y-73080380D01*
X194016190Y-73080380D01*
X193873333Y-73128000D01*
X193778095Y-73223238D01*
X193730476Y-73318476D01*
X193682857Y-73508952D01*
X193682857Y-73651809D01*
X193730476Y-73842285D01*
X193778095Y-73937523D01*
X193873333Y-74032761D01*
X194016190Y-74080380D01*
X194254285Y-74080380D01*
X193349523Y-73080380D02*
X192730476Y-73080380D01*
X193063809Y-73461333D01*
X192920952Y-73461333D01*
X192825714Y-73508952D01*
X192778095Y-73556571D01*
X192730476Y-73651809D01*
X192730476Y-73889904D01*
X192778095Y-73985142D01*
X192825714Y-74032761D01*
X192920952Y-74080380D01*
X193206666Y-74080380D01*
X193301904Y-74032761D01*
X193349523Y-73985142D01*
X192254285Y-74080380D02*
X192063809Y-74080380D01*
X191968571Y-74032761D01*
X191920952Y-73985142D01*
X191825714Y-73842285D01*
X191778095Y-73651809D01*
X191778095Y-73270857D01*
X191825714Y-73175619D01*
X191873333Y-73128000D01*
X191968571Y-73080380D01*
X192159047Y-73080380D01*
X192254285Y-73128000D01*
X192301904Y-73175619D01*
X192349523Y-73270857D01*
X192349523Y-73508952D01*
X192301904Y-73604190D01*
X192254285Y-73651809D01*
X192159047Y-73699428D01*
X191968571Y-73699428D01*
X191873333Y-73651809D01*
X191825714Y-73604190D01*
X191778095Y-73508952D01*
X189428285Y-55030380D02*
X189428285Y-54030380D01*
X189190190Y-54030380D01*
X189047333Y-54078000D01*
X188952095Y-54173238D01*
X188904476Y-54268476D01*
X188856857Y-54458952D01*
X188856857Y-54601809D01*
X188904476Y-54792285D01*
X188952095Y-54887523D01*
X189047333Y-54982761D01*
X189190190Y-55030380D01*
X189428285Y-55030380D01*
X188475904Y-54125619D02*
X188428285Y-54078000D01*
X188333047Y-54030380D01*
X188094952Y-54030380D01*
X187999714Y-54078000D01*
X187952095Y-54125619D01*
X187904476Y-54220857D01*
X187904476Y-54316095D01*
X187952095Y-54458952D01*
X188523523Y-55030380D01*
X187904476Y-55030380D01*
X187047333Y-54363714D02*
X187047333Y-55030380D01*
X187285428Y-53982761D02*
X187523523Y-54697047D01*
X186904476Y-54697047D01*
X199080285Y-35980380D02*
X199080285Y-34980380D01*
X198842190Y-34980380D01*
X198699333Y-35028000D01*
X198604095Y-35123238D01*
X198556476Y-35218476D01*
X198508857Y-35408952D01*
X198508857Y-35551809D01*
X198556476Y-35742285D01*
X198604095Y-35837523D01*
X198699333Y-35932761D01*
X198842190Y-35980380D01*
X199080285Y-35980380D01*
X197556476Y-35980380D02*
X198127904Y-35980380D01*
X197842190Y-35980380D02*
X197842190Y-34980380D01*
X197937428Y-35123238D01*
X198032666Y-35218476D01*
X198127904Y-35266095D01*
X196937428Y-34980380D02*
X196842190Y-34980380D01*
X196746952Y-35028000D01*
X196699333Y-35075619D01*
X196651714Y-35170857D01*
X196604095Y-35361333D01*
X196604095Y-35599428D01*
X196651714Y-35789904D01*
X196699333Y-35885142D01*
X196746952Y-35932761D01*
X196842190Y-35980380D01*
X196937428Y-35980380D01*
X197032666Y-35932761D01*
X197080285Y-35885142D01*
X197127904Y-35789904D01*
X197175523Y-35599428D01*
X197175523Y-35361333D01*
X197127904Y-35170857D01*
X197080285Y-35075619D01*
X197032666Y-35028000D01*
X196937428Y-34980380D01*
X184856285Y-93130380D02*
X184856285Y-92130380D01*
X184618190Y-92130380D01*
X184475333Y-92178000D01*
X184380095Y-92273238D01*
X184332476Y-92368476D01*
X184284857Y-92558952D01*
X184284857Y-92701809D01*
X184332476Y-92892285D01*
X184380095Y-92987523D01*
X184475333Y-93082761D01*
X184618190Y-93130380D01*
X184856285Y-93130380D01*
X183380095Y-92130380D02*
X183856285Y-92130380D01*
X183903904Y-92606571D01*
X183856285Y-92558952D01*
X183761047Y-92511333D01*
X183522952Y-92511333D01*
X183427714Y-92558952D01*
X183380095Y-92606571D01*
X183332476Y-92701809D01*
X183332476Y-92939904D01*
X183380095Y-93035142D01*
X183427714Y-93082761D01*
X183522952Y-93130380D01*
X183761047Y-93130380D01*
X183856285Y-93082761D01*
X183903904Y-93035142D01*
X182951523Y-92225619D02*
X182903904Y-92178000D01*
X182808666Y-92130380D01*
X182570571Y-92130380D01*
X182475333Y-92178000D01*
X182427714Y-92225619D01*
X182380095Y-92320857D01*
X182380095Y-92416095D01*
X182427714Y-92558952D01*
X182999142Y-93130380D01*
X182380095Y-93130380D01*
X175204285Y-74080380D02*
X175204285Y-73080380D01*
X174966190Y-73080380D01*
X174823333Y-73128000D01*
X174728095Y-73223238D01*
X174680476Y-73318476D01*
X174632857Y-73508952D01*
X174632857Y-73651809D01*
X174680476Y-73842285D01*
X174728095Y-73937523D01*
X174823333Y-74032761D01*
X174966190Y-74080380D01*
X175204285Y-74080380D01*
X174299523Y-73080380D02*
X173680476Y-73080380D01*
X174013809Y-73461333D01*
X173870952Y-73461333D01*
X173775714Y-73508952D01*
X173728095Y-73556571D01*
X173680476Y-73651809D01*
X173680476Y-73889904D01*
X173728095Y-73985142D01*
X173775714Y-74032761D01*
X173870952Y-74080380D01*
X174156666Y-74080380D01*
X174251904Y-74032761D01*
X174299523Y-73985142D01*
X173109047Y-73508952D02*
X173204285Y-73461333D01*
X173251904Y-73413714D01*
X173299523Y-73318476D01*
X173299523Y-73270857D01*
X173251904Y-73175619D01*
X173204285Y-73128000D01*
X173109047Y-73080380D01*
X172918571Y-73080380D01*
X172823333Y-73128000D01*
X172775714Y-73175619D01*
X172728095Y-73270857D01*
X172728095Y-73318476D01*
X172775714Y-73413714D01*
X172823333Y-73461333D01*
X172918571Y-73508952D01*
X173109047Y-73508952D01*
X173204285Y-73556571D01*
X173251904Y-73604190D01*
X173299523Y-73699428D01*
X173299523Y-73889904D01*
X173251904Y-73985142D01*
X173204285Y-74032761D01*
X173109047Y-74080380D01*
X172918571Y-74080380D01*
X172823333Y-74032761D01*
X172775714Y-73985142D01*
X172728095Y-73889904D01*
X172728095Y-73699428D01*
X172775714Y-73604190D01*
X172823333Y-73556571D01*
X172918571Y-73508952D01*
X170378285Y-55030380D02*
X170378285Y-54030380D01*
X170140190Y-54030380D01*
X169997333Y-54078000D01*
X169902095Y-54173238D01*
X169854476Y-54268476D01*
X169806857Y-54458952D01*
X169806857Y-54601809D01*
X169854476Y-54792285D01*
X169902095Y-54887523D01*
X169997333Y-54982761D01*
X170140190Y-55030380D01*
X170378285Y-55030380D01*
X169425904Y-54125619D02*
X169378285Y-54078000D01*
X169283047Y-54030380D01*
X169044952Y-54030380D01*
X168949714Y-54078000D01*
X168902095Y-54125619D01*
X168854476Y-54220857D01*
X168854476Y-54316095D01*
X168902095Y-54458952D01*
X169473523Y-55030380D01*
X168854476Y-55030380D01*
X168521142Y-54030380D02*
X167902095Y-54030380D01*
X168235428Y-54411333D01*
X168092571Y-54411333D01*
X167997333Y-54458952D01*
X167949714Y-54506571D01*
X167902095Y-54601809D01*
X167902095Y-54839904D01*
X167949714Y-54935142D01*
X167997333Y-54982761D01*
X168092571Y-55030380D01*
X168378285Y-55030380D01*
X168473523Y-54982761D01*
X168521142Y-54935142D01*
X179554095Y-35980380D02*
X179554095Y-34980380D01*
X179316000Y-34980380D01*
X179173142Y-35028000D01*
X179077904Y-35123238D01*
X179030285Y-35218476D01*
X178982666Y-35408952D01*
X178982666Y-35551809D01*
X179030285Y-35742285D01*
X179077904Y-35837523D01*
X179173142Y-35932761D01*
X179316000Y-35980380D01*
X179554095Y-35980380D01*
X178506476Y-35980380D02*
X178316000Y-35980380D01*
X178220761Y-35932761D01*
X178173142Y-35885142D01*
X178077904Y-35742285D01*
X178030285Y-35551809D01*
X178030285Y-35170857D01*
X178077904Y-35075619D01*
X178125523Y-35028000D01*
X178220761Y-34980380D01*
X178411238Y-34980380D01*
X178506476Y-35028000D01*
X178554095Y-35075619D01*
X178601714Y-35170857D01*
X178601714Y-35408952D01*
X178554095Y-35504190D01*
X178506476Y-35551809D01*
X178411238Y-35599428D01*
X178220761Y-35599428D01*
X178125523Y-35551809D01*
X178077904Y-35504190D01*
X178030285Y-35408952D01*
X160980285Y-112180380D02*
X160980285Y-111180380D01*
X160742190Y-111180380D01*
X160599333Y-111228000D01*
X160504095Y-111323238D01*
X160456476Y-111418476D01*
X160408857Y-111608952D01*
X160408857Y-111751809D01*
X160456476Y-111942285D01*
X160504095Y-112037523D01*
X160599333Y-112132761D01*
X160742190Y-112180380D01*
X160980285Y-112180380D01*
X159551714Y-111180380D02*
X159742190Y-111180380D01*
X159837428Y-111228000D01*
X159885047Y-111275619D01*
X159980285Y-111418476D01*
X160027904Y-111608952D01*
X160027904Y-111989904D01*
X159980285Y-112085142D01*
X159932666Y-112132761D01*
X159837428Y-112180380D01*
X159646952Y-112180380D01*
X159551714Y-112132761D01*
X159504095Y-112085142D01*
X159456476Y-111989904D01*
X159456476Y-111751809D01*
X159504095Y-111656571D01*
X159551714Y-111608952D01*
X159646952Y-111561333D01*
X159837428Y-111561333D01*
X159932666Y-111608952D01*
X159980285Y-111656571D01*
X160027904Y-111751809D01*
X158504095Y-112180380D02*
X159075523Y-112180380D01*
X158789809Y-112180380D02*
X158789809Y-111180380D01*
X158885047Y-111323238D01*
X158980285Y-111418476D01*
X159075523Y-111466095D01*
X165806285Y-93130380D02*
X165806285Y-92130380D01*
X165568190Y-92130380D01*
X165425333Y-92178000D01*
X165330095Y-92273238D01*
X165282476Y-92368476D01*
X165234857Y-92558952D01*
X165234857Y-92701809D01*
X165282476Y-92892285D01*
X165330095Y-92987523D01*
X165425333Y-93082761D01*
X165568190Y-93130380D01*
X165806285Y-93130380D01*
X164330095Y-92130380D02*
X164806285Y-92130380D01*
X164853904Y-92606571D01*
X164806285Y-92558952D01*
X164711047Y-92511333D01*
X164472952Y-92511333D01*
X164377714Y-92558952D01*
X164330095Y-92606571D01*
X164282476Y-92701809D01*
X164282476Y-92939904D01*
X164330095Y-93035142D01*
X164377714Y-93082761D01*
X164472952Y-93130380D01*
X164711047Y-93130380D01*
X164806285Y-93082761D01*
X164853904Y-93035142D01*
X163330095Y-93130380D02*
X163901523Y-93130380D01*
X163615809Y-93130380D02*
X163615809Y-92130380D01*
X163711047Y-92273238D01*
X163806285Y-92368476D01*
X163901523Y-92416095D01*
X156154285Y-74080380D02*
X156154285Y-73080380D01*
X155916190Y-73080380D01*
X155773333Y-73128000D01*
X155678095Y-73223238D01*
X155630476Y-73318476D01*
X155582857Y-73508952D01*
X155582857Y-73651809D01*
X155630476Y-73842285D01*
X155678095Y-73937523D01*
X155773333Y-74032761D01*
X155916190Y-74080380D01*
X156154285Y-74080380D01*
X155249523Y-73080380D02*
X154630476Y-73080380D01*
X154963809Y-73461333D01*
X154820952Y-73461333D01*
X154725714Y-73508952D01*
X154678095Y-73556571D01*
X154630476Y-73651809D01*
X154630476Y-73889904D01*
X154678095Y-73985142D01*
X154725714Y-74032761D01*
X154820952Y-74080380D01*
X155106666Y-74080380D01*
X155201904Y-74032761D01*
X155249523Y-73985142D01*
X154297142Y-73080380D02*
X153630476Y-73080380D01*
X154059047Y-74080380D01*
X151328285Y-55030380D02*
X151328285Y-54030380D01*
X151090190Y-54030380D01*
X150947333Y-54078000D01*
X150852095Y-54173238D01*
X150804476Y-54268476D01*
X150756857Y-54458952D01*
X150756857Y-54601809D01*
X150804476Y-54792285D01*
X150852095Y-54887523D01*
X150947333Y-54982761D01*
X151090190Y-55030380D01*
X151328285Y-55030380D01*
X150375904Y-54125619D02*
X150328285Y-54078000D01*
X150233047Y-54030380D01*
X149994952Y-54030380D01*
X149899714Y-54078000D01*
X149852095Y-54125619D01*
X149804476Y-54220857D01*
X149804476Y-54316095D01*
X149852095Y-54458952D01*
X150423523Y-55030380D01*
X149804476Y-55030380D01*
X149423523Y-54125619D02*
X149375904Y-54078000D01*
X149280666Y-54030380D01*
X149042571Y-54030380D01*
X148947333Y-54078000D01*
X148899714Y-54125619D01*
X148852095Y-54220857D01*
X148852095Y-54316095D01*
X148899714Y-54458952D01*
X149471142Y-55030380D01*
X148852095Y-55030380D01*
X160504095Y-35980380D02*
X160504095Y-34980380D01*
X160266000Y-34980380D01*
X160123142Y-35028000D01*
X160027904Y-35123238D01*
X159980285Y-35218476D01*
X159932666Y-35408952D01*
X159932666Y-35551809D01*
X159980285Y-35742285D01*
X160027904Y-35837523D01*
X160123142Y-35932761D01*
X160266000Y-35980380D01*
X160504095Y-35980380D01*
X159361238Y-35408952D02*
X159456476Y-35361333D01*
X159504095Y-35313714D01*
X159551714Y-35218476D01*
X159551714Y-35170857D01*
X159504095Y-35075619D01*
X159456476Y-35028000D01*
X159361238Y-34980380D01*
X159170761Y-34980380D01*
X159075523Y-35028000D01*
X159027904Y-35075619D01*
X158980285Y-35170857D01*
X158980285Y-35218476D01*
X159027904Y-35313714D01*
X159075523Y-35361333D01*
X159170761Y-35408952D01*
X159361238Y-35408952D01*
X159456476Y-35456571D01*
X159504095Y-35504190D01*
X159551714Y-35599428D01*
X159551714Y-35789904D01*
X159504095Y-35885142D01*
X159456476Y-35932761D01*
X159361238Y-35980380D01*
X159170761Y-35980380D01*
X159075523Y-35932761D01*
X159027904Y-35885142D01*
X158980285Y-35789904D01*
X158980285Y-35599428D01*
X159027904Y-35504190D01*
X159075523Y-35456571D01*
X159170761Y-35408952D01*
X146756285Y-93130380D02*
X146756285Y-92130380D01*
X146518190Y-92130380D01*
X146375333Y-92178000D01*
X146280095Y-92273238D01*
X146232476Y-92368476D01*
X146184857Y-92558952D01*
X146184857Y-92701809D01*
X146232476Y-92892285D01*
X146280095Y-92987523D01*
X146375333Y-93082761D01*
X146518190Y-93130380D01*
X146756285Y-93130380D01*
X145280095Y-92130380D02*
X145756285Y-92130380D01*
X145803904Y-92606571D01*
X145756285Y-92558952D01*
X145661047Y-92511333D01*
X145422952Y-92511333D01*
X145327714Y-92558952D01*
X145280095Y-92606571D01*
X145232476Y-92701809D01*
X145232476Y-92939904D01*
X145280095Y-93035142D01*
X145327714Y-93082761D01*
X145422952Y-93130380D01*
X145661047Y-93130380D01*
X145756285Y-93082761D01*
X145803904Y-93035142D01*
X144613428Y-92130380D02*
X144518190Y-92130380D01*
X144422952Y-92178000D01*
X144375333Y-92225619D01*
X144327714Y-92320857D01*
X144280095Y-92511333D01*
X144280095Y-92749428D01*
X144327714Y-92939904D01*
X144375333Y-93035142D01*
X144422952Y-93082761D01*
X144518190Y-93130380D01*
X144613428Y-93130380D01*
X144708666Y-93082761D01*
X144756285Y-93035142D01*
X144803904Y-92939904D01*
X144851523Y-92749428D01*
X144851523Y-92511333D01*
X144803904Y-92320857D01*
X144756285Y-92225619D01*
X144708666Y-92178000D01*
X144613428Y-92130380D01*
X137104285Y-74080380D02*
X137104285Y-73080380D01*
X136866190Y-73080380D01*
X136723333Y-73128000D01*
X136628095Y-73223238D01*
X136580476Y-73318476D01*
X136532857Y-73508952D01*
X136532857Y-73651809D01*
X136580476Y-73842285D01*
X136628095Y-73937523D01*
X136723333Y-74032761D01*
X136866190Y-74080380D01*
X137104285Y-74080380D01*
X136199523Y-73080380D02*
X135580476Y-73080380D01*
X135913809Y-73461333D01*
X135770952Y-73461333D01*
X135675714Y-73508952D01*
X135628095Y-73556571D01*
X135580476Y-73651809D01*
X135580476Y-73889904D01*
X135628095Y-73985142D01*
X135675714Y-74032761D01*
X135770952Y-74080380D01*
X136056666Y-74080380D01*
X136151904Y-74032761D01*
X136199523Y-73985142D01*
X134723333Y-73080380D02*
X134913809Y-73080380D01*
X135009047Y-73128000D01*
X135056666Y-73175619D01*
X135151904Y-73318476D01*
X135199523Y-73508952D01*
X135199523Y-73889904D01*
X135151904Y-73985142D01*
X135104285Y-74032761D01*
X135009047Y-74080380D01*
X134818571Y-74080380D01*
X134723333Y-74032761D01*
X134675714Y-73985142D01*
X134628095Y-73889904D01*
X134628095Y-73651809D01*
X134675714Y-73556571D01*
X134723333Y-73508952D01*
X134818571Y-73461333D01*
X135009047Y-73461333D01*
X135104285Y-73508952D01*
X135151904Y-73556571D01*
X135199523Y-73651809D01*
X132278285Y-55030380D02*
X132278285Y-54030380D01*
X132040190Y-54030380D01*
X131897333Y-54078000D01*
X131802095Y-54173238D01*
X131754476Y-54268476D01*
X131706857Y-54458952D01*
X131706857Y-54601809D01*
X131754476Y-54792285D01*
X131802095Y-54887523D01*
X131897333Y-54982761D01*
X132040190Y-55030380D01*
X132278285Y-55030380D01*
X131325904Y-54125619D02*
X131278285Y-54078000D01*
X131183047Y-54030380D01*
X130944952Y-54030380D01*
X130849714Y-54078000D01*
X130802095Y-54125619D01*
X130754476Y-54220857D01*
X130754476Y-54316095D01*
X130802095Y-54458952D01*
X131373523Y-55030380D01*
X130754476Y-55030380D01*
X129802095Y-55030380D02*
X130373523Y-55030380D01*
X130087809Y-55030380D02*
X130087809Y-54030380D01*
X130183047Y-54173238D01*
X130278285Y-54268476D01*
X130373523Y-54316095D01*
X141454095Y-35980380D02*
X141454095Y-34980380D01*
X141216000Y-34980380D01*
X141073142Y-35028000D01*
X140977904Y-35123238D01*
X140930285Y-35218476D01*
X140882666Y-35408952D01*
X140882666Y-35551809D01*
X140930285Y-35742285D01*
X140977904Y-35837523D01*
X141073142Y-35932761D01*
X141216000Y-35980380D01*
X141454095Y-35980380D01*
X140549333Y-34980380D02*
X139882666Y-34980380D01*
X140311238Y-35980380D01*
X127706285Y-93130380D02*
X127706285Y-92130380D01*
X127468190Y-92130380D01*
X127325333Y-92178000D01*
X127230095Y-92273238D01*
X127182476Y-92368476D01*
X127134857Y-92558952D01*
X127134857Y-92701809D01*
X127182476Y-92892285D01*
X127230095Y-92987523D01*
X127325333Y-93082761D01*
X127468190Y-93130380D01*
X127706285Y-93130380D01*
X126277714Y-92463714D02*
X126277714Y-93130380D01*
X126515809Y-92082761D02*
X126753904Y-92797047D01*
X126134857Y-92797047D01*
X125706285Y-93130380D02*
X125515809Y-93130380D01*
X125420571Y-93082761D01*
X125372952Y-93035142D01*
X125277714Y-92892285D01*
X125230095Y-92701809D01*
X125230095Y-92320857D01*
X125277714Y-92225619D01*
X125325333Y-92178000D01*
X125420571Y-92130380D01*
X125611047Y-92130380D01*
X125706285Y-92178000D01*
X125753904Y-92225619D01*
X125801523Y-92320857D01*
X125801523Y-92558952D01*
X125753904Y-92654190D01*
X125706285Y-92701809D01*
X125611047Y-92749428D01*
X125420571Y-92749428D01*
X125325333Y-92701809D01*
X125277714Y-92654190D01*
X125230095Y-92558952D01*
X118054285Y-74080380D02*
X118054285Y-73080380D01*
X117816190Y-73080380D01*
X117673333Y-73128000D01*
X117578095Y-73223238D01*
X117530476Y-73318476D01*
X117482857Y-73508952D01*
X117482857Y-73651809D01*
X117530476Y-73842285D01*
X117578095Y-73937523D01*
X117673333Y-74032761D01*
X117816190Y-74080380D01*
X118054285Y-74080380D01*
X117149523Y-73080380D02*
X116530476Y-73080380D01*
X116863809Y-73461333D01*
X116720952Y-73461333D01*
X116625714Y-73508952D01*
X116578095Y-73556571D01*
X116530476Y-73651809D01*
X116530476Y-73889904D01*
X116578095Y-73985142D01*
X116625714Y-74032761D01*
X116720952Y-74080380D01*
X117006666Y-74080380D01*
X117101904Y-74032761D01*
X117149523Y-73985142D01*
X115625714Y-73080380D02*
X116101904Y-73080380D01*
X116149523Y-73556571D01*
X116101904Y-73508952D01*
X116006666Y-73461333D01*
X115768571Y-73461333D01*
X115673333Y-73508952D01*
X115625714Y-73556571D01*
X115578095Y-73651809D01*
X115578095Y-73889904D01*
X115625714Y-73985142D01*
X115673333Y-74032761D01*
X115768571Y-74080380D01*
X116006666Y-74080380D01*
X116101904Y-74032761D01*
X116149523Y-73985142D01*
X113228285Y-55030380D02*
X113228285Y-54030380D01*
X112990190Y-54030380D01*
X112847333Y-54078000D01*
X112752095Y-54173238D01*
X112704476Y-54268476D01*
X112656857Y-54458952D01*
X112656857Y-54601809D01*
X112704476Y-54792285D01*
X112752095Y-54887523D01*
X112847333Y-54982761D01*
X112990190Y-55030380D01*
X113228285Y-55030380D01*
X112275904Y-54125619D02*
X112228285Y-54078000D01*
X112133047Y-54030380D01*
X111894952Y-54030380D01*
X111799714Y-54078000D01*
X111752095Y-54125619D01*
X111704476Y-54220857D01*
X111704476Y-54316095D01*
X111752095Y-54458952D01*
X112323523Y-55030380D01*
X111704476Y-55030380D01*
X111085428Y-54030380D02*
X110990190Y-54030380D01*
X110894952Y-54078000D01*
X110847333Y-54125619D01*
X110799714Y-54220857D01*
X110752095Y-54411333D01*
X110752095Y-54649428D01*
X110799714Y-54839904D01*
X110847333Y-54935142D01*
X110894952Y-54982761D01*
X110990190Y-55030380D01*
X111085428Y-55030380D01*
X111180666Y-54982761D01*
X111228285Y-54935142D01*
X111275904Y-54839904D01*
X111323523Y-54649428D01*
X111323523Y-54411333D01*
X111275904Y-54220857D01*
X111228285Y-54125619D01*
X111180666Y-54078000D01*
X111085428Y-54030380D01*
X122404095Y-35980380D02*
X122404095Y-34980380D01*
X122166000Y-34980380D01*
X122023142Y-35028000D01*
X121927904Y-35123238D01*
X121880285Y-35218476D01*
X121832666Y-35408952D01*
X121832666Y-35551809D01*
X121880285Y-35742285D01*
X121927904Y-35837523D01*
X122023142Y-35932761D01*
X122166000Y-35980380D01*
X122404095Y-35980380D01*
X120975523Y-34980380D02*
X121166000Y-34980380D01*
X121261238Y-35028000D01*
X121308857Y-35075619D01*
X121404095Y-35218476D01*
X121451714Y-35408952D01*
X121451714Y-35789904D01*
X121404095Y-35885142D01*
X121356476Y-35932761D01*
X121261238Y-35980380D01*
X121070761Y-35980380D01*
X120975523Y-35932761D01*
X120927904Y-35885142D01*
X120880285Y-35789904D01*
X120880285Y-35551809D01*
X120927904Y-35456571D01*
X120975523Y-35408952D01*
X121070761Y-35361333D01*
X121261238Y-35361333D01*
X121356476Y-35408952D01*
X121404095Y-35456571D01*
X121451714Y-35551809D01*
X108656285Y-93130380D02*
X108656285Y-92130380D01*
X108418190Y-92130380D01*
X108275333Y-92178000D01*
X108180095Y-92273238D01*
X108132476Y-92368476D01*
X108084857Y-92558952D01*
X108084857Y-92701809D01*
X108132476Y-92892285D01*
X108180095Y-92987523D01*
X108275333Y-93082761D01*
X108418190Y-93130380D01*
X108656285Y-93130380D01*
X107227714Y-92463714D02*
X107227714Y-93130380D01*
X107465809Y-92082761D02*
X107703904Y-92797047D01*
X107084857Y-92797047D01*
X106561047Y-92558952D02*
X106656285Y-92511333D01*
X106703904Y-92463714D01*
X106751523Y-92368476D01*
X106751523Y-92320857D01*
X106703904Y-92225619D01*
X106656285Y-92178000D01*
X106561047Y-92130380D01*
X106370571Y-92130380D01*
X106275333Y-92178000D01*
X106227714Y-92225619D01*
X106180095Y-92320857D01*
X106180095Y-92368476D01*
X106227714Y-92463714D01*
X106275333Y-92511333D01*
X106370571Y-92558952D01*
X106561047Y-92558952D01*
X106656285Y-92606571D01*
X106703904Y-92654190D01*
X106751523Y-92749428D01*
X106751523Y-92939904D01*
X106703904Y-93035142D01*
X106656285Y-93082761D01*
X106561047Y-93130380D01*
X106370571Y-93130380D01*
X106275333Y-93082761D01*
X106227714Y-93035142D01*
X106180095Y-92939904D01*
X106180095Y-92749428D01*
X106227714Y-92654190D01*
X106275333Y-92606571D01*
X106370571Y-92558952D01*
X99004285Y-74080380D02*
X99004285Y-73080380D01*
X98766190Y-73080380D01*
X98623333Y-73128000D01*
X98528095Y-73223238D01*
X98480476Y-73318476D01*
X98432857Y-73508952D01*
X98432857Y-73651809D01*
X98480476Y-73842285D01*
X98528095Y-73937523D01*
X98623333Y-74032761D01*
X98766190Y-74080380D01*
X99004285Y-74080380D01*
X98099523Y-73080380D02*
X97480476Y-73080380D01*
X97813809Y-73461333D01*
X97670952Y-73461333D01*
X97575714Y-73508952D01*
X97528095Y-73556571D01*
X97480476Y-73651809D01*
X97480476Y-73889904D01*
X97528095Y-73985142D01*
X97575714Y-74032761D01*
X97670952Y-74080380D01*
X97956666Y-74080380D01*
X98051904Y-74032761D01*
X98099523Y-73985142D01*
X96623333Y-73413714D02*
X96623333Y-74080380D01*
X96861428Y-73032761D02*
X97099523Y-73747047D01*
X96480476Y-73747047D01*
X94178285Y-55030380D02*
X94178285Y-54030380D01*
X93940190Y-54030380D01*
X93797333Y-54078000D01*
X93702095Y-54173238D01*
X93654476Y-54268476D01*
X93606857Y-54458952D01*
X93606857Y-54601809D01*
X93654476Y-54792285D01*
X93702095Y-54887523D01*
X93797333Y-54982761D01*
X93940190Y-55030380D01*
X94178285Y-55030380D01*
X92654476Y-55030380D02*
X93225904Y-55030380D01*
X92940190Y-55030380D02*
X92940190Y-54030380D01*
X93035428Y-54173238D01*
X93130666Y-54268476D01*
X93225904Y-54316095D01*
X92178285Y-55030380D02*
X91987809Y-55030380D01*
X91892571Y-54982761D01*
X91844952Y-54935142D01*
X91749714Y-54792285D01*
X91702095Y-54601809D01*
X91702095Y-54220857D01*
X91749714Y-54125619D01*
X91797333Y-54078000D01*
X91892571Y-54030380D01*
X92083047Y-54030380D01*
X92178285Y-54078000D01*
X92225904Y-54125619D01*
X92273523Y-54220857D01*
X92273523Y-54458952D01*
X92225904Y-54554190D01*
X92178285Y-54601809D01*
X92083047Y-54649428D01*
X91892571Y-54649428D01*
X91797333Y-54601809D01*
X91749714Y-54554190D01*
X91702095Y-54458952D01*
X103100095Y-35980380D02*
X103100095Y-34980380D01*
X102862000Y-34980380D01*
X102719142Y-35028000D01*
X102623904Y-35123238D01*
X102576285Y-35218476D01*
X102528666Y-35408952D01*
X102528666Y-35551809D01*
X102576285Y-35742285D01*
X102623904Y-35837523D01*
X102719142Y-35932761D01*
X102862000Y-35980380D01*
X103100095Y-35980380D01*
X101623904Y-34980380D02*
X102100095Y-34980380D01*
X102147714Y-35456571D01*
X102100095Y-35408952D01*
X102004857Y-35361333D01*
X101766761Y-35361333D01*
X101671523Y-35408952D01*
X101623904Y-35456571D01*
X101576285Y-35551809D01*
X101576285Y-35789904D01*
X101623904Y-35885142D01*
X101671523Y-35932761D01*
X101766761Y-35980380D01*
X102004857Y-35980380D01*
X102100095Y-35932761D01*
X102147714Y-35885142D01*
X79954285Y-112180380D02*
X79954285Y-111180380D01*
X79716190Y-111180380D01*
X79573333Y-111228000D01*
X79478095Y-111323238D01*
X79430476Y-111418476D01*
X79382857Y-111608952D01*
X79382857Y-111751809D01*
X79430476Y-111942285D01*
X79478095Y-112037523D01*
X79573333Y-112132761D01*
X79716190Y-112180380D01*
X79954285Y-112180380D01*
X78525714Y-111180380D02*
X78716190Y-111180380D01*
X78811428Y-111228000D01*
X78859047Y-111275619D01*
X78954285Y-111418476D01*
X79001904Y-111608952D01*
X79001904Y-111989904D01*
X78954285Y-112085142D01*
X78906666Y-112132761D01*
X78811428Y-112180380D01*
X78620952Y-112180380D01*
X78525714Y-112132761D01*
X78478095Y-112085142D01*
X78430476Y-111989904D01*
X78430476Y-111751809D01*
X78478095Y-111656571D01*
X78525714Y-111608952D01*
X78620952Y-111561333D01*
X78811428Y-111561333D01*
X78906666Y-111608952D01*
X78954285Y-111656571D01*
X79001904Y-111751809D01*
X77811428Y-111180380D02*
X77716190Y-111180380D01*
X77620952Y-111228000D01*
X77573333Y-111275619D01*
X77525714Y-111370857D01*
X77478095Y-111561333D01*
X77478095Y-111799428D01*
X77525714Y-111989904D01*
X77573333Y-112085142D01*
X77620952Y-112132761D01*
X77716190Y-112180380D01*
X77811428Y-112180380D01*
X77906666Y-112132761D01*
X77954285Y-112085142D01*
X78001904Y-111989904D01*
X78049523Y-111799428D01*
X78049523Y-111561333D01*
X78001904Y-111370857D01*
X77954285Y-111275619D01*
X77906666Y-111228000D01*
X77811428Y-111180380D01*
X89606285Y-93130380D02*
X89606285Y-92130380D01*
X89368190Y-92130380D01*
X89225333Y-92178000D01*
X89130095Y-92273238D01*
X89082476Y-92368476D01*
X89034857Y-92558952D01*
X89034857Y-92701809D01*
X89082476Y-92892285D01*
X89130095Y-92987523D01*
X89225333Y-93082761D01*
X89368190Y-93130380D01*
X89606285Y-93130380D01*
X88177714Y-92463714D02*
X88177714Y-93130380D01*
X88415809Y-92082761D02*
X88653904Y-92797047D01*
X88034857Y-92797047D01*
X87749142Y-92130380D02*
X87082476Y-92130380D01*
X87511047Y-93130380D01*
X79954285Y-74080380D02*
X79954285Y-73080380D01*
X79716190Y-73080380D01*
X79573333Y-73128000D01*
X79478095Y-73223238D01*
X79430476Y-73318476D01*
X79382857Y-73508952D01*
X79382857Y-73651809D01*
X79430476Y-73842285D01*
X79478095Y-73937523D01*
X79573333Y-74032761D01*
X79716190Y-74080380D01*
X79954285Y-74080380D01*
X79049523Y-73080380D02*
X78430476Y-73080380D01*
X78763809Y-73461333D01*
X78620952Y-73461333D01*
X78525714Y-73508952D01*
X78478095Y-73556571D01*
X78430476Y-73651809D01*
X78430476Y-73889904D01*
X78478095Y-73985142D01*
X78525714Y-74032761D01*
X78620952Y-74080380D01*
X78906666Y-74080380D01*
X79001904Y-74032761D01*
X79049523Y-73985142D01*
X78097142Y-73080380D02*
X77478095Y-73080380D01*
X77811428Y-73461333D01*
X77668571Y-73461333D01*
X77573333Y-73508952D01*
X77525714Y-73556571D01*
X77478095Y-73651809D01*
X77478095Y-73889904D01*
X77525714Y-73985142D01*
X77573333Y-74032761D01*
X77668571Y-74080380D01*
X77954285Y-74080380D01*
X78049523Y-74032761D01*
X78097142Y-73985142D01*
X75128285Y-55030380D02*
X75128285Y-54030380D01*
X74890190Y-54030380D01*
X74747333Y-54078000D01*
X74652095Y-54173238D01*
X74604476Y-54268476D01*
X74556857Y-54458952D01*
X74556857Y-54601809D01*
X74604476Y-54792285D01*
X74652095Y-54887523D01*
X74747333Y-54982761D01*
X74890190Y-55030380D01*
X75128285Y-55030380D01*
X73604476Y-55030380D02*
X74175904Y-55030380D01*
X73890190Y-55030380D02*
X73890190Y-54030380D01*
X73985428Y-54173238D01*
X74080666Y-54268476D01*
X74175904Y-54316095D01*
X73033047Y-54458952D02*
X73128285Y-54411333D01*
X73175904Y-54363714D01*
X73223523Y-54268476D01*
X73223523Y-54220857D01*
X73175904Y-54125619D01*
X73128285Y-54078000D01*
X73033047Y-54030380D01*
X72842571Y-54030380D01*
X72747333Y-54078000D01*
X72699714Y-54125619D01*
X72652095Y-54220857D01*
X72652095Y-54268476D01*
X72699714Y-54363714D01*
X72747333Y-54411333D01*
X72842571Y-54458952D01*
X73033047Y-54458952D01*
X73128285Y-54506571D01*
X73175904Y-54554190D01*
X73223523Y-54649428D01*
X73223523Y-54839904D01*
X73175904Y-54935142D01*
X73128285Y-54982761D01*
X73033047Y-55030380D01*
X72842571Y-55030380D01*
X72747333Y-54982761D01*
X72699714Y-54935142D01*
X72652095Y-54839904D01*
X72652095Y-54649428D01*
X72699714Y-54554190D01*
X72747333Y-54506571D01*
X72842571Y-54458952D01*
X70556285Y-93130380D02*
X70556285Y-92130380D01*
X70318190Y-92130380D01*
X70175333Y-92178000D01*
X70080095Y-92273238D01*
X70032476Y-92368476D01*
X69984857Y-92558952D01*
X69984857Y-92701809D01*
X70032476Y-92892285D01*
X70080095Y-92987523D01*
X70175333Y-93082761D01*
X70318190Y-93130380D01*
X70556285Y-93130380D01*
X69127714Y-92463714D02*
X69127714Y-93130380D01*
X69365809Y-92082761D02*
X69603904Y-92797047D01*
X68984857Y-92797047D01*
X68175333Y-92130380D02*
X68365809Y-92130380D01*
X68461047Y-92178000D01*
X68508666Y-92225619D01*
X68603904Y-92368476D01*
X68651523Y-92558952D01*
X68651523Y-92939904D01*
X68603904Y-93035142D01*
X68556285Y-93082761D01*
X68461047Y-93130380D01*
X68270571Y-93130380D01*
X68175333Y-93082761D01*
X68127714Y-93035142D01*
X68080095Y-92939904D01*
X68080095Y-92701809D01*
X68127714Y-92606571D01*
X68175333Y-92558952D01*
X68270571Y-92511333D01*
X68461047Y-92511333D01*
X68556285Y-92558952D01*
X68603904Y-92606571D01*
X68651523Y-92701809D01*
X60904285Y-74080380D02*
X60904285Y-73080380D01*
X60666190Y-73080380D01*
X60523333Y-73128000D01*
X60428095Y-73223238D01*
X60380476Y-73318476D01*
X60332857Y-73508952D01*
X60332857Y-73651809D01*
X60380476Y-73842285D01*
X60428095Y-73937523D01*
X60523333Y-74032761D01*
X60666190Y-74080380D01*
X60904285Y-74080380D01*
X59999523Y-73080380D02*
X59380476Y-73080380D01*
X59713809Y-73461333D01*
X59570952Y-73461333D01*
X59475714Y-73508952D01*
X59428095Y-73556571D01*
X59380476Y-73651809D01*
X59380476Y-73889904D01*
X59428095Y-73985142D01*
X59475714Y-74032761D01*
X59570952Y-74080380D01*
X59856666Y-74080380D01*
X59951904Y-74032761D01*
X59999523Y-73985142D01*
X58999523Y-73175619D02*
X58951904Y-73128000D01*
X58856666Y-73080380D01*
X58618571Y-73080380D01*
X58523333Y-73128000D01*
X58475714Y-73175619D01*
X58428095Y-73270857D01*
X58428095Y-73366095D01*
X58475714Y-73508952D01*
X59047142Y-74080380D01*
X58428095Y-74080380D01*
X56078285Y-55030380D02*
X56078285Y-54030380D01*
X55840190Y-54030380D01*
X55697333Y-54078000D01*
X55602095Y-54173238D01*
X55554476Y-54268476D01*
X55506857Y-54458952D01*
X55506857Y-54601809D01*
X55554476Y-54792285D01*
X55602095Y-54887523D01*
X55697333Y-54982761D01*
X55840190Y-55030380D01*
X56078285Y-55030380D01*
X54554476Y-55030380D02*
X55125904Y-55030380D01*
X54840190Y-55030380D02*
X54840190Y-54030380D01*
X54935428Y-54173238D01*
X55030666Y-54268476D01*
X55125904Y-54316095D01*
X54221142Y-54030380D02*
X53554476Y-54030380D01*
X53983047Y-55030380D01*
X65254095Y-35980380D02*
X65254095Y-34980380D01*
X65016000Y-34980380D01*
X64873142Y-35028000D01*
X64777904Y-35123238D01*
X64730285Y-35218476D01*
X64682666Y-35408952D01*
X64682666Y-35551809D01*
X64730285Y-35742285D01*
X64777904Y-35837523D01*
X64873142Y-35932761D01*
X65016000Y-35980380D01*
X65254095Y-35980380D01*
X64349333Y-34980380D02*
X63730285Y-34980380D01*
X64063619Y-35361333D01*
X63920761Y-35361333D01*
X63825523Y-35408952D01*
X63777904Y-35456571D01*
X63730285Y-35551809D01*
X63730285Y-35789904D01*
X63777904Y-35885142D01*
X63825523Y-35932761D01*
X63920761Y-35980380D01*
X64206476Y-35980380D01*
X64301714Y-35932761D01*
X64349333Y-35885142D01*
X39568285Y-93130380D02*
X39568285Y-92130380D01*
X39330190Y-92130380D01*
X39187333Y-92178000D01*
X39092095Y-92273238D01*
X39044476Y-92368476D01*
X38996857Y-92558952D01*
X38996857Y-92701809D01*
X39044476Y-92892285D01*
X39092095Y-92987523D01*
X39187333Y-93082761D01*
X39330190Y-93130380D01*
X39568285Y-93130380D01*
X38139714Y-92463714D02*
X38139714Y-93130380D01*
X38377809Y-92082761D02*
X38615904Y-92797047D01*
X37996857Y-92797047D01*
X37139714Y-92130380D02*
X37615904Y-92130380D01*
X37663523Y-92606571D01*
X37615904Y-92558952D01*
X37520666Y-92511333D01*
X37282571Y-92511333D01*
X37187333Y-92558952D01*
X37139714Y-92606571D01*
X37092095Y-92701809D01*
X37092095Y-92939904D01*
X37139714Y-93035142D01*
X37187333Y-93082761D01*
X37282571Y-93130380D01*
X37520666Y-93130380D01*
X37615904Y-93082761D01*
X37663523Y-93035142D01*
X46204095Y-35980380D02*
X46204095Y-34980380D01*
X45966000Y-34980380D01*
X45823142Y-35028000D01*
X45727904Y-35123238D01*
X45680285Y-35218476D01*
X45632666Y-35408952D01*
X45632666Y-35551809D01*
X45680285Y-35742285D01*
X45727904Y-35837523D01*
X45823142Y-35932761D01*
X45966000Y-35980380D01*
X46204095Y-35980380D01*
X45251714Y-35075619D02*
X45204095Y-35028000D01*
X45108857Y-34980380D01*
X44870761Y-34980380D01*
X44775523Y-35028000D01*
X44727904Y-35075619D01*
X44680285Y-35170857D01*
X44680285Y-35266095D01*
X44727904Y-35408952D01*
X45299333Y-35980380D01*
X44680285Y-35980380D01*
X32456285Y-112180380D02*
X32456285Y-111180380D01*
X32218190Y-111180380D01*
X32075333Y-111228000D01*
X31980095Y-111323238D01*
X31932476Y-111418476D01*
X31884857Y-111608952D01*
X31884857Y-111751809D01*
X31932476Y-111942285D01*
X31980095Y-112037523D01*
X32075333Y-112132761D01*
X32218190Y-112180380D01*
X32456285Y-112180380D01*
X30980095Y-111180380D02*
X31456285Y-111180380D01*
X31503904Y-111656571D01*
X31456285Y-111608952D01*
X31361047Y-111561333D01*
X31122952Y-111561333D01*
X31027714Y-111608952D01*
X30980095Y-111656571D01*
X30932476Y-111751809D01*
X30932476Y-111989904D01*
X30980095Y-112085142D01*
X31027714Y-112132761D01*
X31122952Y-112180380D01*
X31361047Y-112180380D01*
X31456285Y-112132761D01*
X31503904Y-112085142D01*
X30456285Y-112180380D02*
X30265809Y-112180380D01*
X30170571Y-112132761D01*
X30122952Y-112085142D01*
X30027714Y-111942285D01*
X29980095Y-111751809D01*
X29980095Y-111370857D01*
X30027714Y-111275619D01*
X30075333Y-111228000D01*
X30170571Y-111180380D01*
X30361047Y-111180380D01*
X30456285Y-111228000D01*
X30503904Y-111275619D01*
X30551523Y-111370857D01*
X30551523Y-111608952D01*
X30503904Y-111704190D01*
X30456285Y-111751809D01*
X30361047Y-111799428D01*
X30170571Y-111799428D01*
X30075333Y-111751809D01*
X30027714Y-111704190D01*
X29980095Y-111608952D01*
X34742285Y-74080380D02*
X34742285Y-73080380D01*
X34504190Y-73080380D01*
X34361333Y-73128000D01*
X34266095Y-73223238D01*
X34218476Y-73318476D01*
X34170857Y-73508952D01*
X34170857Y-73651809D01*
X34218476Y-73842285D01*
X34266095Y-73937523D01*
X34361333Y-74032761D01*
X34504190Y-74080380D01*
X34742285Y-74080380D01*
X33837523Y-73080380D02*
X33218476Y-73080380D01*
X33551809Y-73461333D01*
X33408952Y-73461333D01*
X33313714Y-73508952D01*
X33266095Y-73556571D01*
X33218476Y-73651809D01*
X33218476Y-73889904D01*
X33266095Y-73985142D01*
X33313714Y-74032761D01*
X33408952Y-74080380D01*
X33694666Y-74080380D01*
X33789904Y-74032761D01*
X33837523Y-73985142D01*
X32266095Y-74080380D02*
X32837523Y-74080380D01*
X32551809Y-74080380D02*
X32551809Y-73080380D01*
X32647047Y-73223238D01*
X32742285Y-73318476D01*
X32837523Y-73366095D01*
X32456285Y-55030380D02*
X32456285Y-54030380D01*
X32218190Y-54030380D01*
X32075333Y-54078000D01*
X31980095Y-54173238D01*
X31932476Y-54268476D01*
X31884857Y-54458952D01*
X31884857Y-54601809D01*
X31932476Y-54792285D01*
X31980095Y-54887523D01*
X32075333Y-54982761D01*
X32218190Y-55030380D01*
X32456285Y-55030380D01*
X30932476Y-55030380D02*
X31503904Y-55030380D01*
X31218190Y-55030380D02*
X31218190Y-54030380D01*
X31313428Y-54173238D01*
X31408666Y-54268476D01*
X31503904Y-54316095D01*
X30075333Y-54030380D02*
X30265809Y-54030380D01*
X30361047Y-54078000D01*
X30408666Y-54125619D01*
X30503904Y-54268476D01*
X30551523Y-54458952D01*
X30551523Y-54839904D01*
X30503904Y-54935142D01*
X30456285Y-54982761D01*
X30361047Y-55030380D01*
X30170571Y-55030380D01*
X30075333Y-54982761D01*
X30027714Y-54935142D01*
X29980095Y-54839904D01*
X29980095Y-54601809D01*
X30027714Y-54506571D01*
X30075333Y-54458952D01*
X30170571Y-54411333D01*
X30361047Y-54411333D01*
X30456285Y-54458952D01*
X30503904Y-54506571D01*
X30551523Y-54601809D01*
X27154095Y-35980380D02*
X27154095Y-34980380D01*
X26916000Y-34980380D01*
X26773142Y-35028000D01*
X26677904Y-35123238D01*
X26630285Y-35218476D01*
X26582666Y-35408952D01*
X26582666Y-35551809D01*
X26630285Y-35742285D01*
X26677904Y-35837523D01*
X26773142Y-35932761D01*
X26916000Y-35980380D01*
X27154095Y-35980380D01*
X25630285Y-35980380D02*
X26201714Y-35980380D01*
X25916000Y-35980380D02*
X25916000Y-34980380D01*
X26011238Y-35123238D01*
X26106476Y-35218476D01*
X26201714Y-35266095D01*
X206731142Y-106767333D02*
X206778761Y-106719714D01*
X206826380Y-106576857D01*
X206826380Y-106481619D01*
X206778761Y-106338761D01*
X206683523Y-106243523D01*
X206588285Y-106195904D01*
X206397809Y-106148285D01*
X206254952Y-106148285D01*
X206064476Y-106195904D01*
X205969238Y-106243523D01*
X205874000Y-106338761D01*
X205826380Y-106481619D01*
X205826380Y-106576857D01*
X205874000Y-106719714D01*
X205921619Y-106767333D01*
X205826380Y-107672095D02*
X205826380Y-107195904D01*
X206302571Y-107148285D01*
X206254952Y-107195904D01*
X206207333Y-107291142D01*
X206207333Y-107529238D01*
X206254952Y-107624476D01*
X206302571Y-107672095D01*
X206397809Y-107719714D01*
X206635904Y-107719714D01*
X206731142Y-107672095D01*
X206778761Y-107624476D01*
X206826380Y-107529238D01*
X206826380Y-107291142D01*
X206778761Y-107195904D01*
X206731142Y-107148285D01*
X190666666Y-92179142D02*
X190714285Y-92226761D01*
X190857142Y-92274380D01*
X190952380Y-92274380D01*
X191095238Y-92226761D01*
X191190476Y-92131523D01*
X191238095Y-92036285D01*
X191285714Y-91845809D01*
X191285714Y-91702952D01*
X191238095Y-91512476D01*
X191190476Y-91417238D01*
X191095238Y-91322000D01*
X190952380Y-91274380D01*
X190857142Y-91274380D01*
X190714285Y-91322000D01*
X190666666Y-91369619D01*
X189809523Y-91607714D02*
X189809523Y-92274380D01*
X190047619Y-91226761D02*
X190285714Y-91941047D01*
X189666666Y-91941047D01*
X201399142Y-99401333D02*
X201446761Y-99353714D01*
X201494380Y-99210857D01*
X201494380Y-99115619D01*
X201446761Y-98972761D01*
X201351523Y-98877523D01*
X201256285Y-98829904D01*
X201065809Y-98782285D01*
X200922952Y-98782285D01*
X200732476Y-98829904D01*
X200637238Y-98877523D01*
X200542000Y-98972761D01*
X200494380Y-99115619D01*
X200494380Y-99210857D01*
X200542000Y-99353714D01*
X200589619Y-99401333D01*
X200494380Y-99734666D02*
X200494380Y-100353714D01*
X200875333Y-100020380D01*
X200875333Y-100163238D01*
X200922952Y-100258476D01*
X200970571Y-100306095D01*
X201065809Y-100353714D01*
X201303904Y-100353714D01*
X201399142Y-100306095D01*
X201446761Y-100258476D01*
X201494380Y-100163238D01*
X201494380Y-99877523D01*
X201446761Y-99782285D01*
X201399142Y-99734666D01*
X203937142Y-106767333D02*
X203984761Y-106719714D01*
X204032380Y-106576857D01*
X204032380Y-106481619D01*
X203984761Y-106338761D01*
X203889523Y-106243523D01*
X203794285Y-106195904D01*
X203603809Y-106148285D01*
X203460952Y-106148285D01*
X203270476Y-106195904D01*
X203175238Y-106243523D01*
X203080000Y-106338761D01*
X203032380Y-106481619D01*
X203032380Y-106576857D01*
X203080000Y-106719714D01*
X203127619Y-106767333D01*
X203127619Y-107148285D02*
X203080000Y-107195904D01*
X203032380Y-107291142D01*
X203032380Y-107529238D01*
X203080000Y-107624476D01*
X203127619Y-107672095D01*
X203222857Y-107719714D01*
X203318095Y-107719714D01*
X203460952Y-107672095D01*
X204032380Y-107100666D01*
X204032380Y-107719714D01*
X178220666Y-95989142D02*
X178268285Y-96036761D01*
X178411142Y-96084380D01*
X178506380Y-96084380D01*
X178649238Y-96036761D01*
X178744476Y-95941523D01*
X178792095Y-95846285D01*
X178839714Y-95655809D01*
X178839714Y-95512952D01*
X178792095Y-95322476D01*
X178744476Y-95227238D01*
X178649238Y-95132000D01*
X178506380Y-95084380D01*
X178411142Y-95084380D01*
X178268285Y-95132000D01*
X178220666Y-95179619D01*
X177363523Y-95084380D02*
X177554000Y-95084380D01*
X177649238Y-95132000D01*
X177696857Y-95179619D01*
X177792095Y-95322476D01*
X177839714Y-95512952D01*
X177839714Y-95893904D01*
X177792095Y-95989142D01*
X177744476Y-96036761D01*
X177649238Y-96084380D01*
X177458761Y-96084380D01*
X177363523Y-96036761D01*
X177315904Y-95989142D01*
X177268285Y-95893904D01*
X177268285Y-95655809D01*
X177315904Y-95560571D01*
X177363523Y-95512952D01*
X177458761Y-95465333D01*
X177649238Y-95465333D01*
X177744476Y-95512952D01*
X177792095Y-95560571D01*
X177839714Y-95655809D01*
X203939142Y-99401333D02*
X203986761Y-99353714D01*
X204034380Y-99210857D01*
X204034380Y-99115619D01*
X203986761Y-98972761D01*
X203891523Y-98877523D01*
X203796285Y-98829904D01*
X203605809Y-98782285D01*
X203462952Y-98782285D01*
X203272476Y-98829904D01*
X203177238Y-98877523D01*
X203082000Y-98972761D01*
X203034380Y-99115619D01*
X203034380Y-99210857D01*
X203082000Y-99353714D01*
X203129619Y-99401333D01*
X204034380Y-100353714D02*
X204034380Y-99782285D01*
X204034380Y-100068000D02*
X203034380Y-100068000D01*
X203177238Y-99972761D01*
X203272476Y-99877523D01*
X203320095Y-99782285D01*
X192952666Y-114021142D02*
X193000285Y-114068761D01*
X193143142Y-114116380D01*
X193238380Y-114116380D01*
X193381238Y-114068761D01*
X193476476Y-113973523D01*
X193524095Y-113878285D01*
X193571714Y-113687809D01*
X193571714Y-113544952D01*
X193524095Y-113354476D01*
X193476476Y-113259238D01*
X193381238Y-113164000D01*
X193238380Y-113116380D01*
X193143142Y-113116380D01*
X193000285Y-113164000D01*
X192952666Y-113211619D01*
X192381238Y-113544952D02*
X192476476Y-113497333D01*
X192524095Y-113449714D01*
X192571714Y-113354476D01*
X192571714Y-113306857D01*
X192524095Y-113211619D01*
X192476476Y-113164000D01*
X192381238Y-113116380D01*
X192190761Y-113116380D01*
X192095523Y-113164000D01*
X192047904Y-113211619D01*
X192000285Y-113306857D01*
X192000285Y-113354476D01*
X192047904Y-113449714D01*
X192095523Y-113497333D01*
X192190761Y-113544952D01*
X192381238Y-113544952D01*
X192476476Y-113592571D01*
X192524095Y-113640190D01*
X192571714Y-113735428D01*
X192571714Y-113925904D01*
X192524095Y-114021142D01*
X192476476Y-114068761D01*
X192381238Y-114116380D01*
X192190761Y-114116380D01*
X192095523Y-114068761D01*
X192047904Y-114021142D01*
X192000285Y-113925904D01*
X192000285Y-113735428D01*
X192047904Y-113640190D01*
X192095523Y-113592571D01*
X192190761Y-113544952D01*
X174918666Y-106657142D02*
X174966285Y-106704761D01*
X175109142Y-106752380D01*
X175204380Y-106752380D01*
X175347238Y-106704761D01*
X175442476Y-106609523D01*
X175490095Y-106514285D01*
X175537714Y-106323809D01*
X175537714Y-106180952D01*
X175490095Y-105990476D01*
X175442476Y-105895238D01*
X175347238Y-105800000D01*
X175204380Y-105752380D01*
X175109142Y-105752380D01*
X174966285Y-105800000D01*
X174918666Y-105847619D01*
X174442476Y-106752380D02*
X174252000Y-106752380D01*
X174156761Y-106704761D01*
X174109142Y-106657142D01*
X174013904Y-106514285D01*
X173966285Y-106323809D01*
X173966285Y-105942857D01*
X174013904Y-105847619D01*
X174061523Y-105800000D01*
X174156761Y-105752380D01*
X174347238Y-105752380D01*
X174442476Y-105800000D01*
X174490095Y-105847619D01*
X174537714Y-105942857D01*
X174537714Y-106180952D01*
X174490095Y-106276190D01*
X174442476Y-106323809D01*
X174347238Y-106371428D01*
X174156761Y-106371428D01*
X174061523Y-106323809D01*
X174013904Y-106276190D01*
X173966285Y-106180952D01*
M02*
