G04 #@! TF.GenerationSoftware,KiCad,Pcbnew,(5.1.5)-3*
G04 #@! TF.CreationDate,2020-02-18T19:32:23+00:00*
G04 #@! TF.ProjectId,pcb,7063622e-6b69-4636-9164-5f7063625858,rev?*
G04 #@! TF.SameCoordinates,Original*
G04 #@! TF.FileFunction,Paste,Bot*
G04 #@! TF.FilePolarity,Positive*
%FSLAX46Y46*%
G04 Gerber Fmt 4.6, Leading zero omitted, Abs format (unit mm)*
G04 Created by KiCad (PCBNEW (5.1.5)-3) date 2020-02-18 19:32:23*
%MOMM*%
%LPD*%
G04 APERTURE LIST*
%ADD10C,0.100000*%
%ADD11R,0.900000X1.200000*%
%ADD12R,1.150000X1.450000*%
%ADD13R,1.750000X1.900000*%
%ADD14R,0.400000X1.400000*%
%ADD15R,1.300000X1.600000*%
%ADD16R,1.500000X0.550000*%
%ADD17R,0.550000X1.500000*%
G04 APERTURE END LIST*
D10*
G36*
X181460505Y-106235204D02*
G01*
X181484773Y-106238804D01*
X181508572Y-106244765D01*
X181531671Y-106253030D01*
X181553850Y-106263520D01*
X181574893Y-106276132D01*
X181594599Y-106290747D01*
X181612777Y-106307223D01*
X181629253Y-106325401D01*
X181643868Y-106345107D01*
X181656480Y-106366150D01*
X181666970Y-106388329D01*
X181675235Y-106411428D01*
X181681196Y-106435227D01*
X181684796Y-106459495D01*
X181686000Y-106483999D01*
X181686000Y-107384001D01*
X181684796Y-107408505D01*
X181681196Y-107432773D01*
X181675235Y-107456572D01*
X181666970Y-107479671D01*
X181656480Y-107501850D01*
X181643868Y-107522893D01*
X181629253Y-107542599D01*
X181612777Y-107560777D01*
X181594599Y-107577253D01*
X181574893Y-107591868D01*
X181553850Y-107604480D01*
X181531671Y-107614970D01*
X181508572Y-107623235D01*
X181484773Y-107629196D01*
X181460505Y-107632796D01*
X181436001Y-107634000D01*
X180785999Y-107634000D01*
X180761495Y-107632796D01*
X180737227Y-107629196D01*
X180713428Y-107623235D01*
X180690329Y-107614970D01*
X180668150Y-107604480D01*
X180647107Y-107591868D01*
X180627401Y-107577253D01*
X180609223Y-107560777D01*
X180592747Y-107542599D01*
X180578132Y-107522893D01*
X180565520Y-107501850D01*
X180555030Y-107479671D01*
X180546765Y-107456572D01*
X180540804Y-107432773D01*
X180537204Y-107408505D01*
X180536000Y-107384001D01*
X180536000Y-106483999D01*
X180537204Y-106459495D01*
X180540804Y-106435227D01*
X180546765Y-106411428D01*
X180555030Y-106388329D01*
X180565520Y-106366150D01*
X180578132Y-106345107D01*
X180592747Y-106325401D01*
X180609223Y-106307223D01*
X180627401Y-106290747D01*
X180647107Y-106276132D01*
X180668150Y-106263520D01*
X180690329Y-106253030D01*
X180713428Y-106244765D01*
X180737227Y-106238804D01*
X180761495Y-106235204D01*
X180785999Y-106234000D01*
X181436001Y-106234000D01*
X181460505Y-106235204D01*
G37*
G36*
X179410505Y-106235204D02*
G01*
X179434773Y-106238804D01*
X179458572Y-106244765D01*
X179481671Y-106253030D01*
X179503850Y-106263520D01*
X179524893Y-106276132D01*
X179544599Y-106290747D01*
X179562777Y-106307223D01*
X179579253Y-106325401D01*
X179593868Y-106345107D01*
X179606480Y-106366150D01*
X179616970Y-106388329D01*
X179625235Y-106411428D01*
X179631196Y-106435227D01*
X179634796Y-106459495D01*
X179636000Y-106483999D01*
X179636000Y-107384001D01*
X179634796Y-107408505D01*
X179631196Y-107432773D01*
X179625235Y-107456572D01*
X179616970Y-107479671D01*
X179606480Y-107501850D01*
X179593868Y-107522893D01*
X179579253Y-107542599D01*
X179562777Y-107560777D01*
X179544599Y-107577253D01*
X179524893Y-107591868D01*
X179503850Y-107604480D01*
X179481671Y-107614970D01*
X179458572Y-107623235D01*
X179434773Y-107629196D01*
X179410505Y-107632796D01*
X179386001Y-107634000D01*
X178735999Y-107634000D01*
X178711495Y-107632796D01*
X178687227Y-107629196D01*
X178663428Y-107623235D01*
X178640329Y-107614970D01*
X178618150Y-107604480D01*
X178597107Y-107591868D01*
X178577401Y-107577253D01*
X178559223Y-107560777D01*
X178542747Y-107542599D01*
X178528132Y-107522893D01*
X178515520Y-107501850D01*
X178505030Y-107479671D01*
X178496765Y-107456572D01*
X178490804Y-107432773D01*
X178487204Y-107408505D01*
X178486000Y-107384001D01*
X178486000Y-106483999D01*
X178487204Y-106459495D01*
X178490804Y-106435227D01*
X178496765Y-106411428D01*
X178505030Y-106388329D01*
X178515520Y-106366150D01*
X178528132Y-106345107D01*
X178542747Y-106325401D01*
X178559223Y-106307223D01*
X178577401Y-106290747D01*
X178597107Y-106276132D01*
X178618150Y-106263520D01*
X178640329Y-106253030D01*
X178663428Y-106244765D01*
X178687227Y-106238804D01*
X178711495Y-106235204D01*
X178735999Y-106234000D01*
X179386001Y-106234000D01*
X179410505Y-106235204D01*
G37*
D11*
X85216000Y-33528000D03*
X81916000Y-33528000D03*
D10*
G36*
X315101504Y-29551204D02*
G01*
X315125773Y-29554804D01*
X315149571Y-29560765D01*
X315172671Y-29569030D01*
X315194849Y-29579520D01*
X315215893Y-29592133D01*
X315235598Y-29606747D01*
X315253777Y-29623223D01*
X315270253Y-29641402D01*
X315284867Y-29661107D01*
X315297480Y-29682151D01*
X315307970Y-29704329D01*
X315316235Y-29727429D01*
X315322196Y-29751227D01*
X315325796Y-29775496D01*
X315327000Y-29800000D01*
X315327000Y-30725000D01*
X315325796Y-30749504D01*
X315322196Y-30773773D01*
X315316235Y-30797571D01*
X315307970Y-30820671D01*
X315297480Y-30842849D01*
X315284867Y-30863893D01*
X315270253Y-30883598D01*
X315253777Y-30901777D01*
X315235598Y-30918253D01*
X315215893Y-30932867D01*
X315194849Y-30945480D01*
X315172671Y-30955970D01*
X315149571Y-30964235D01*
X315125773Y-30970196D01*
X315101504Y-30973796D01*
X315077000Y-30975000D01*
X313827000Y-30975000D01*
X313802496Y-30973796D01*
X313778227Y-30970196D01*
X313754429Y-30964235D01*
X313731329Y-30955970D01*
X313709151Y-30945480D01*
X313688107Y-30932867D01*
X313668402Y-30918253D01*
X313650223Y-30901777D01*
X313633747Y-30883598D01*
X313619133Y-30863893D01*
X313606520Y-30842849D01*
X313596030Y-30820671D01*
X313587765Y-30797571D01*
X313581804Y-30773773D01*
X313578204Y-30749504D01*
X313577000Y-30725000D01*
X313577000Y-29800000D01*
X313578204Y-29775496D01*
X313581804Y-29751227D01*
X313587765Y-29727429D01*
X313596030Y-29704329D01*
X313606520Y-29682151D01*
X313619133Y-29661107D01*
X313633747Y-29641402D01*
X313650223Y-29623223D01*
X313668402Y-29606747D01*
X313688107Y-29592133D01*
X313709151Y-29579520D01*
X313731329Y-29569030D01*
X313754429Y-29560765D01*
X313778227Y-29554804D01*
X313802496Y-29551204D01*
X313827000Y-29550000D01*
X315077000Y-29550000D01*
X315101504Y-29551204D01*
G37*
G36*
X315101504Y-32526204D02*
G01*
X315125773Y-32529804D01*
X315149571Y-32535765D01*
X315172671Y-32544030D01*
X315194849Y-32554520D01*
X315215893Y-32567133D01*
X315235598Y-32581747D01*
X315253777Y-32598223D01*
X315270253Y-32616402D01*
X315284867Y-32636107D01*
X315297480Y-32657151D01*
X315307970Y-32679329D01*
X315316235Y-32702429D01*
X315322196Y-32726227D01*
X315325796Y-32750496D01*
X315327000Y-32775000D01*
X315327000Y-33700000D01*
X315325796Y-33724504D01*
X315322196Y-33748773D01*
X315316235Y-33772571D01*
X315307970Y-33795671D01*
X315297480Y-33817849D01*
X315284867Y-33838893D01*
X315270253Y-33858598D01*
X315253777Y-33876777D01*
X315235598Y-33893253D01*
X315215893Y-33907867D01*
X315194849Y-33920480D01*
X315172671Y-33930970D01*
X315149571Y-33939235D01*
X315125773Y-33945196D01*
X315101504Y-33948796D01*
X315077000Y-33950000D01*
X313827000Y-33950000D01*
X313802496Y-33948796D01*
X313778227Y-33945196D01*
X313754429Y-33939235D01*
X313731329Y-33930970D01*
X313709151Y-33920480D01*
X313688107Y-33907867D01*
X313668402Y-33893253D01*
X313650223Y-33876777D01*
X313633747Y-33858598D01*
X313619133Y-33838893D01*
X313606520Y-33817849D01*
X313596030Y-33795671D01*
X313587765Y-33772571D01*
X313581804Y-33748773D01*
X313578204Y-33724504D01*
X313577000Y-33700000D01*
X313577000Y-32775000D01*
X313578204Y-32750496D01*
X313581804Y-32726227D01*
X313587765Y-32702429D01*
X313596030Y-32679329D01*
X313606520Y-32657151D01*
X313619133Y-32636107D01*
X313633747Y-32616402D01*
X313650223Y-32598223D01*
X313668402Y-32581747D01*
X313688107Y-32567133D01*
X313709151Y-32554520D01*
X313731329Y-32544030D01*
X313754429Y-32535765D01*
X313778227Y-32529804D01*
X313802496Y-32526204D01*
X313827000Y-32525000D01*
X315077000Y-32525000D01*
X315101504Y-32526204D01*
G37*
D12*
X309592000Y-22747000D03*
X314232000Y-22747000D03*
D13*
X310787000Y-20517000D03*
D14*
X311912000Y-23167000D03*
X312562000Y-23167000D03*
X313212000Y-23167000D03*
X310612000Y-23167000D03*
X311262000Y-23167000D03*
D13*
X313037000Y-20517000D03*
D15*
X177054000Y-99950000D03*
X177054000Y-103250000D03*
X179054000Y-103250000D03*
X179054000Y-99950000D03*
D16*
X198740000Y-106108000D03*
X198740000Y-105308000D03*
X198740000Y-104508000D03*
X198740000Y-103708000D03*
X198740000Y-102908000D03*
X198740000Y-102108000D03*
X198740000Y-101308000D03*
X198740000Y-100508000D03*
X198740000Y-99708000D03*
X198740000Y-98908000D03*
X198740000Y-98108000D03*
D17*
X197040000Y-96408000D03*
X196240000Y-96408000D03*
X195440000Y-96408000D03*
X194640000Y-96408000D03*
X193840000Y-96408000D03*
X193040000Y-96408000D03*
X192240000Y-96408000D03*
X191440000Y-96408000D03*
X190640000Y-96408000D03*
X189840000Y-96408000D03*
X189040000Y-96408000D03*
D16*
X187340000Y-98108000D03*
X187340000Y-98908000D03*
X187340000Y-99708000D03*
X187340000Y-100508000D03*
X187340000Y-101308000D03*
X187340000Y-102108000D03*
X187340000Y-102908000D03*
X187340000Y-103708000D03*
X187340000Y-104508000D03*
X187340000Y-105308000D03*
X187340000Y-106108000D03*
D17*
X189040000Y-107808000D03*
X189840000Y-107808000D03*
X190640000Y-107808000D03*
X191440000Y-107808000D03*
X192240000Y-107808000D03*
X193040000Y-107808000D03*
X193840000Y-107808000D03*
X194640000Y-107808000D03*
X195440000Y-107808000D03*
X196240000Y-107808000D03*
X197040000Y-107808000D03*
D10*
G36*
X311545504Y-32526204D02*
G01*
X311569773Y-32529804D01*
X311593571Y-32535765D01*
X311616671Y-32544030D01*
X311638849Y-32554520D01*
X311659893Y-32567133D01*
X311679598Y-32581747D01*
X311697777Y-32598223D01*
X311714253Y-32616402D01*
X311728867Y-32636107D01*
X311741480Y-32657151D01*
X311751970Y-32679329D01*
X311760235Y-32702429D01*
X311766196Y-32726227D01*
X311769796Y-32750496D01*
X311771000Y-32775000D01*
X311771000Y-33700000D01*
X311769796Y-33724504D01*
X311766196Y-33748773D01*
X311760235Y-33772571D01*
X311751970Y-33795671D01*
X311741480Y-33817849D01*
X311728867Y-33838893D01*
X311714253Y-33858598D01*
X311697777Y-33876777D01*
X311679598Y-33893253D01*
X311659893Y-33907867D01*
X311638849Y-33920480D01*
X311616671Y-33930970D01*
X311593571Y-33939235D01*
X311569773Y-33945196D01*
X311545504Y-33948796D01*
X311521000Y-33950000D01*
X310271000Y-33950000D01*
X310246496Y-33948796D01*
X310222227Y-33945196D01*
X310198429Y-33939235D01*
X310175329Y-33930970D01*
X310153151Y-33920480D01*
X310132107Y-33907867D01*
X310112402Y-33893253D01*
X310094223Y-33876777D01*
X310077747Y-33858598D01*
X310063133Y-33838893D01*
X310050520Y-33817849D01*
X310040030Y-33795671D01*
X310031765Y-33772571D01*
X310025804Y-33748773D01*
X310022204Y-33724504D01*
X310021000Y-33700000D01*
X310021000Y-32775000D01*
X310022204Y-32750496D01*
X310025804Y-32726227D01*
X310031765Y-32702429D01*
X310040030Y-32679329D01*
X310050520Y-32657151D01*
X310063133Y-32636107D01*
X310077747Y-32616402D01*
X310094223Y-32598223D01*
X310112402Y-32581747D01*
X310132107Y-32567133D01*
X310153151Y-32554520D01*
X310175329Y-32544030D01*
X310198429Y-32535765D01*
X310222227Y-32529804D01*
X310246496Y-32526204D01*
X310271000Y-32525000D01*
X311521000Y-32525000D01*
X311545504Y-32526204D01*
G37*
G36*
X311545504Y-29551204D02*
G01*
X311569773Y-29554804D01*
X311593571Y-29560765D01*
X311616671Y-29569030D01*
X311638849Y-29579520D01*
X311659893Y-29592133D01*
X311679598Y-29606747D01*
X311697777Y-29623223D01*
X311714253Y-29641402D01*
X311728867Y-29661107D01*
X311741480Y-29682151D01*
X311751970Y-29704329D01*
X311760235Y-29727429D01*
X311766196Y-29751227D01*
X311769796Y-29775496D01*
X311771000Y-29800000D01*
X311771000Y-30725000D01*
X311769796Y-30749504D01*
X311766196Y-30773773D01*
X311760235Y-30797571D01*
X311751970Y-30820671D01*
X311741480Y-30842849D01*
X311728867Y-30863893D01*
X311714253Y-30883598D01*
X311697777Y-30901777D01*
X311679598Y-30918253D01*
X311659893Y-30932867D01*
X311638849Y-30945480D01*
X311616671Y-30955970D01*
X311593571Y-30964235D01*
X311569773Y-30970196D01*
X311545504Y-30973796D01*
X311521000Y-30975000D01*
X310271000Y-30975000D01*
X310246496Y-30973796D01*
X310222227Y-30970196D01*
X310198429Y-30964235D01*
X310175329Y-30955970D01*
X310153151Y-30945480D01*
X310132107Y-30932867D01*
X310112402Y-30918253D01*
X310094223Y-30901777D01*
X310077747Y-30883598D01*
X310063133Y-30863893D01*
X310050520Y-30842849D01*
X310040030Y-30820671D01*
X310031765Y-30797571D01*
X310025804Y-30773773D01*
X310022204Y-30749504D01*
X310021000Y-30725000D01*
X310021000Y-29800000D01*
X310022204Y-29775496D01*
X310025804Y-29751227D01*
X310031765Y-29727429D01*
X310040030Y-29704329D01*
X310050520Y-29682151D01*
X310063133Y-29661107D01*
X310077747Y-29641402D01*
X310094223Y-29623223D01*
X310112402Y-29606747D01*
X310132107Y-29592133D01*
X310153151Y-29579520D01*
X310175329Y-29569030D01*
X310198429Y-29560765D01*
X310222227Y-29554804D01*
X310246496Y-29551204D01*
X310271000Y-29550000D01*
X311521000Y-29550000D01*
X311545504Y-29551204D01*
G37*
G36*
X203215504Y-94884204D02*
G01*
X203239773Y-94887804D01*
X203263571Y-94893765D01*
X203286671Y-94902030D01*
X203308849Y-94912520D01*
X203329893Y-94925133D01*
X203349598Y-94939747D01*
X203367777Y-94956223D01*
X203384253Y-94974402D01*
X203398867Y-94994107D01*
X203411480Y-95015151D01*
X203421970Y-95037329D01*
X203430235Y-95060429D01*
X203436196Y-95084227D01*
X203439796Y-95108496D01*
X203441000Y-95133000D01*
X203441000Y-96383000D01*
X203439796Y-96407504D01*
X203436196Y-96431773D01*
X203430235Y-96455571D01*
X203421970Y-96478671D01*
X203411480Y-96500849D01*
X203398867Y-96521893D01*
X203384253Y-96541598D01*
X203367777Y-96559777D01*
X203349598Y-96576253D01*
X203329893Y-96590867D01*
X203308849Y-96603480D01*
X203286671Y-96613970D01*
X203263571Y-96622235D01*
X203239773Y-96628196D01*
X203215504Y-96631796D01*
X203191000Y-96633000D01*
X202266000Y-96633000D01*
X202241496Y-96631796D01*
X202217227Y-96628196D01*
X202193429Y-96622235D01*
X202170329Y-96613970D01*
X202148151Y-96603480D01*
X202127107Y-96590867D01*
X202107402Y-96576253D01*
X202089223Y-96559777D01*
X202072747Y-96541598D01*
X202058133Y-96521893D01*
X202045520Y-96500849D01*
X202035030Y-96478671D01*
X202026765Y-96455571D01*
X202020804Y-96431773D01*
X202017204Y-96407504D01*
X202016000Y-96383000D01*
X202016000Y-95133000D01*
X202017204Y-95108496D01*
X202020804Y-95084227D01*
X202026765Y-95060429D01*
X202035030Y-95037329D01*
X202045520Y-95015151D01*
X202058133Y-94994107D01*
X202072747Y-94974402D01*
X202089223Y-94956223D01*
X202107402Y-94939747D01*
X202127107Y-94925133D01*
X202148151Y-94912520D01*
X202170329Y-94902030D01*
X202193429Y-94893765D01*
X202217227Y-94887804D01*
X202241496Y-94884204D01*
X202266000Y-94883000D01*
X203191000Y-94883000D01*
X203215504Y-94884204D01*
G37*
G36*
X206190504Y-94884204D02*
G01*
X206214773Y-94887804D01*
X206238571Y-94893765D01*
X206261671Y-94902030D01*
X206283849Y-94912520D01*
X206304893Y-94925133D01*
X206324598Y-94939747D01*
X206342777Y-94956223D01*
X206359253Y-94974402D01*
X206373867Y-94994107D01*
X206386480Y-95015151D01*
X206396970Y-95037329D01*
X206405235Y-95060429D01*
X206411196Y-95084227D01*
X206414796Y-95108496D01*
X206416000Y-95133000D01*
X206416000Y-96383000D01*
X206414796Y-96407504D01*
X206411196Y-96431773D01*
X206405235Y-96455571D01*
X206396970Y-96478671D01*
X206386480Y-96500849D01*
X206373867Y-96521893D01*
X206359253Y-96541598D01*
X206342777Y-96559777D01*
X206324598Y-96576253D01*
X206304893Y-96590867D01*
X206283849Y-96603480D01*
X206261671Y-96613970D01*
X206238571Y-96622235D01*
X206214773Y-96628196D01*
X206190504Y-96631796D01*
X206166000Y-96633000D01*
X205241000Y-96633000D01*
X205216496Y-96631796D01*
X205192227Y-96628196D01*
X205168429Y-96622235D01*
X205145329Y-96613970D01*
X205123151Y-96603480D01*
X205102107Y-96590867D01*
X205082402Y-96576253D01*
X205064223Y-96559777D01*
X205047747Y-96541598D01*
X205033133Y-96521893D01*
X205020520Y-96500849D01*
X205010030Y-96478671D01*
X205001765Y-96455571D01*
X204995804Y-96431773D01*
X204992204Y-96407504D01*
X204991000Y-96383000D01*
X204991000Y-95133000D01*
X204992204Y-95108496D01*
X204995804Y-95084227D01*
X205001765Y-95060429D01*
X205010030Y-95037329D01*
X205020520Y-95015151D01*
X205033133Y-94994107D01*
X205047747Y-94974402D01*
X205064223Y-94956223D01*
X205082402Y-94939747D01*
X205102107Y-94925133D01*
X205123151Y-94912520D01*
X205145329Y-94902030D01*
X205168429Y-94893765D01*
X205192227Y-94887804D01*
X205216496Y-94884204D01*
X205241000Y-94883000D01*
X206166000Y-94883000D01*
X206190504Y-94884204D01*
G37*
G36*
X174186504Y-110886204D02*
G01*
X174210773Y-110889804D01*
X174234571Y-110895765D01*
X174257671Y-110904030D01*
X174279849Y-110914520D01*
X174300893Y-110927133D01*
X174320598Y-110941747D01*
X174338777Y-110958223D01*
X174355253Y-110976402D01*
X174369867Y-110996107D01*
X174382480Y-111017151D01*
X174392970Y-111039329D01*
X174401235Y-111062429D01*
X174407196Y-111086227D01*
X174410796Y-111110496D01*
X174412000Y-111135000D01*
X174412000Y-112385000D01*
X174410796Y-112409504D01*
X174407196Y-112433773D01*
X174401235Y-112457571D01*
X174392970Y-112480671D01*
X174382480Y-112502849D01*
X174369867Y-112523893D01*
X174355253Y-112543598D01*
X174338777Y-112561777D01*
X174320598Y-112578253D01*
X174300893Y-112592867D01*
X174279849Y-112605480D01*
X174257671Y-112615970D01*
X174234571Y-112624235D01*
X174210773Y-112630196D01*
X174186504Y-112633796D01*
X174162000Y-112635000D01*
X173237000Y-112635000D01*
X173212496Y-112633796D01*
X173188227Y-112630196D01*
X173164429Y-112624235D01*
X173141329Y-112615970D01*
X173119151Y-112605480D01*
X173098107Y-112592867D01*
X173078402Y-112578253D01*
X173060223Y-112561777D01*
X173043747Y-112543598D01*
X173029133Y-112523893D01*
X173016520Y-112502849D01*
X173006030Y-112480671D01*
X172997765Y-112457571D01*
X172991804Y-112433773D01*
X172988204Y-112409504D01*
X172987000Y-112385000D01*
X172987000Y-111135000D01*
X172988204Y-111110496D01*
X172991804Y-111086227D01*
X172997765Y-111062429D01*
X173006030Y-111039329D01*
X173016520Y-111017151D01*
X173029133Y-110996107D01*
X173043747Y-110976402D01*
X173060223Y-110958223D01*
X173078402Y-110941747D01*
X173098107Y-110927133D01*
X173119151Y-110914520D01*
X173141329Y-110904030D01*
X173164429Y-110895765D01*
X173188227Y-110889804D01*
X173212496Y-110886204D01*
X173237000Y-110885000D01*
X174162000Y-110885000D01*
X174186504Y-110886204D01*
G37*
G36*
X171211504Y-110886204D02*
G01*
X171235773Y-110889804D01*
X171259571Y-110895765D01*
X171282671Y-110904030D01*
X171304849Y-110914520D01*
X171325893Y-110927133D01*
X171345598Y-110941747D01*
X171363777Y-110958223D01*
X171380253Y-110976402D01*
X171394867Y-110996107D01*
X171407480Y-111017151D01*
X171417970Y-111039329D01*
X171426235Y-111062429D01*
X171432196Y-111086227D01*
X171435796Y-111110496D01*
X171437000Y-111135000D01*
X171437000Y-112385000D01*
X171435796Y-112409504D01*
X171432196Y-112433773D01*
X171426235Y-112457571D01*
X171417970Y-112480671D01*
X171407480Y-112502849D01*
X171394867Y-112523893D01*
X171380253Y-112543598D01*
X171363777Y-112561777D01*
X171345598Y-112578253D01*
X171325893Y-112592867D01*
X171304849Y-112605480D01*
X171282671Y-112615970D01*
X171259571Y-112624235D01*
X171235773Y-112630196D01*
X171211504Y-112633796D01*
X171187000Y-112635000D01*
X170262000Y-112635000D01*
X170237496Y-112633796D01*
X170213227Y-112630196D01*
X170189429Y-112624235D01*
X170166329Y-112615970D01*
X170144151Y-112605480D01*
X170123107Y-112592867D01*
X170103402Y-112578253D01*
X170085223Y-112561777D01*
X170068747Y-112543598D01*
X170054133Y-112523893D01*
X170041520Y-112502849D01*
X170031030Y-112480671D01*
X170022765Y-112457571D01*
X170016804Y-112433773D01*
X170013204Y-112409504D01*
X170012000Y-112385000D01*
X170012000Y-111135000D01*
X170013204Y-111110496D01*
X170016804Y-111086227D01*
X170022765Y-111062429D01*
X170031030Y-111039329D01*
X170041520Y-111017151D01*
X170054133Y-110996107D01*
X170068747Y-110976402D01*
X170085223Y-110958223D01*
X170103402Y-110941747D01*
X170123107Y-110927133D01*
X170144151Y-110914520D01*
X170166329Y-110904030D01*
X170189429Y-110895765D01*
X170213227Y-110889804D01*
X170237496Y-110886204D01*
X170262000Y-110885000D01*
X171187000Y-110885000D01*
X171211504Y-110886204D01*
G37*
G36*
X170829504Y-107456204D02*
G01*
X170853773Y-107459804D01*
X170877571Y-107465765D01*
X170900671Y-107474030D01*
X170922849Y-107484520D01*
X170943893Y-107497133D01*
X170963598Y-107511747D01*
X170981777Y-107528223D01*
X170998253Y-107546402D01*
X171012867Y-107566107D01*
X171025480Y-107587151D01*
X171035970Y-107609329D01*
X171044235Y-107632429D01*
X171050196Y-107656227D01*
X171053796Y-107680496D01*
X171055000Y-107705000D01*
X171055000Y-108630000D01*
X171053796Y-108654504D01*
X171050196Y-108678773D01*
X171044235Y-108702571D01*
X171035970Y-108725671D01*
X171025480Y-108747849D01*
X171012867Y-108768893D01*
X170998253Y-108788598D01*
X170981777Y-108806777D01*
X170963598Y-108823253D01*
X170943893Y-108837867D01*
X170922849Y-108850480D01*
X170900671Y-108860970D01*
X170877571Y-108869235D01*
X170853773Y-108875196D01*
X170829504Y-108878796D01*
X170805000Y-108880000D01*
X169555000Y-108880000D01*
X169530496Y-108878796D01*
X169506227Y-108875196D01*
X169482429Y-108869235D01*
X169459329Y-108860970D01*
X169437151Y-108850480D01*
X169416107Y-108837867D01*
X169396402Y-108823253D01*
X169378223Y-108806777D01*
X169361747Y-108788598D01*
X169347133Y-108768893D01*
X169334520Y-108747849D01*
X169324030Y-108725671D01*
X169315765Y-108702571D01*
X169309804Y-108678773D01*
X169306204Y-108654504D01*
X169305000Y-108630000D01*
X169305000Y-107705000D01*
X169306204Y-107680496D01*
X169309804Y-107656227D01*
X169315765Y-107632429D01*
X169324030Y-107609329D01*
X169334520Y-107587151D01*
X169347133Y-107566107D01*
X169361747Y-107546402D01*
X169378223Y-107528223D01*
X169396402Y-107511747D01*
X169416107Y-107497133D01*
X169437151Y-107484520D01*
X169459329Y-107474030D01*
X169482429Y-107465765D01*
X169506227Y-107459804D01*
X169530496Y-107456204D01*
X169555000Y-107455000D01*
X170805000Y-107455000D01*
X170829504Y-107456204D01*
G37*
G36*
X170829504Y-104481204D02*
G01*
X170853773Y-104484804D01*
X170877571Y-104490765D01*
X170900671Y-104499030D01*
X170922849Y-104509520D01*
X170943893Y-104522133D01*
X170963598Y-104536747D01*
X170981777Y-104553223D01*
X170998253Y-104571402D01*
X171012867Y-104591107D01*
X171025480Y-104612151D01*
X171035970Y-104634329D01*
X171044235Y-104657429D01*
X171050196Y-104681227D01*
X171053796Y-104705496D01*
X171055000Y-104730000D01*
X171055000Y-105655000D01*
X171053796Y-105679504D01*
X171050196Y-105703773D01*
X171044235Y-105727571D01*
X171035970Y-105750671D01*
X171025480Y-105772849D01*
X171012867Y-105793893D01*
X170998253Y-105813598D01*
X170981777Y-105831777D01*
X170963598Y-105848253D01*
X170943893Y-105862867D01*
X170922849Y-105875480D01*
X170900671Y-105885970D01*
X170877571Y-105894235D01*
X170853773Y-105900196D01*
X170829504Y-105903796D01*
X170805000Y-105905000D01*
X169555000Y-105905000D01*
X169530496Y-105903796D01*
X169506227Y-105900196D01*
X169482429Y-105894235D01*
X169459329Y-105885970D01*
X169437151Y-105875480D01*
X169416107Y-105862867D01*
X169396402Y-105848253D01*
X169378223Y-105831777D01*
X169361747Y-105813598D01*
X169347133Y-105793893D01*
X169334520Y-105772849D01*
X169324030Y-105750671D01*
X169315765Y-105727571D01*
X169309804Y-105703773D01*
X169306204Y-105679504D01*
X169305000Y-105655000D01*
X169305000Y-104730000D01*
X169306204Y-104705496D01*
X169309804Y-104681227D01*
X169315765Y-104657429D01*
X169324030Y-104634329D01*
X169334520Y-104612151D01*
X169347133Y-104591107D01*
X169361747Y-104571402D01*
X169378223Y-104553223D01*
X169396402Y-104536747D01*
X169416107Y-104522133D01*
X169437151Y-104509520D01*
X169459329Y-104499030D01*
X169482429Y-104490765D01*
X169506227Y-104484804D01*
X169530496Y-104481204D01*
X169555000Y-104480000D01*
X170805000Y-104480000D01*
X170829504Y-104481204D01*
G37*
D11*
X313816000Y-109728000D03*
X310516000Y-109728000D03*
X313816000Y-90678000D03*
X310516000Y-90678000D03*
X313816000Y-71628000D03*
X310516000Y-71628000D03*
X313816000Y-52578000D03*
X310516000Y-52578000D03*
X294766000Y-109728000D03*
X291466000Y-109728000D03*
X294766000Y-90678000D03*
X291466000Y-90678000D03*
X289940000Y-52578000D03*
X286640000Y-52578000D03*
X294766000Y-33528000D03*
X291466000Y-33528000D03*
X275716000Y-109728000D03*
X272416000Y-109728000D03*
X268604000Y-90678000D03*
X265304000Y-90678000D03*
X282828000Y-71628000D03*
X279528000Y-71628000D03*
X266064000Y-52578000D03*
X262764000Y-52578000D03*
X275716000Y-33528000D03*
X272416000Y-33528000D03*
X251840000Y-71628000D03*
X248540000Y-71628000D03*
X247014000Y-52578000D03*
X243714000Y-52578000D03*
X256666000Y-33528000D03*
X253366000Y-33528000D03*
X242442000Y-109728000D03*
X239142000Y-109728000D03*
X242442000Y-90678000D03*
X239142000Y-90678000D03*
X232790000Y-71628000D03*
X229490000Y-71628000D03*
X227964000Y-52578000D03*
X224664000Y-52578000D03*
X237616000Y-33528000D03*
X234316000Y-33528000D03*
X223646000Y-90678000D03*
X220346000Y-90678000D03*
X213740000Y-71628000D03*
X210440000Y-71628000D03*
X208914000Y-52578000D03*
X205614000Y-52578000D03*
X218566000Y-33528000D03*
X215266000Y-33528000D03*
X204342000Y-90678000D03*
X201042000Y-90678000D03*
X194690000Y-71628000D03*
X191390000Y-71628000D03*
X189864000Y-52578000D03*
X186564000Y-52578000D03*
X199516000Y-33528000D03*
X196216000Y-33528000D03*
X185292000Y-90678000D03*
X181992000Y-90678000D03*
X175640000Y-71628000D03*
X172340000Y-71628000D03*
X170814000Y-52578000D03*
X167514000Y-52578000D03*
X180466000Y-33528000D03*
X177166000Y-33528000D03*
X161416000Y-109728000D03*
X158116000Y-109728000D03*
X166242000Y-90678000D03*
X162942000Y-90678000D03*
X156590000Y-71628000D03*
X153290000Y-71628000D03*
X151764000Y-52578000D03*
X148464000Y-52578000D03*
X161416000Y-33528000D03*
X158116000Y-33528000D03*
X147192000Y-90678000D03*
X143892000Y-90678000D03*
X137540000Y-71628000D03*
X134240000Y-71628000D03*
X132714000Y-52578000D03*
X129414000Y-52578000D03*
X142366000Y-33528000D03*
X139066000Y-33528000D03*
X128142000Y-90678000D03*
X124842000Y-90678000D03*
X118490000Y-71628000D03*
X115190000Y-71628000D03*
X113664000Y-52578000D03*
X110364000Y-52578000D03*
X123316000Y-33528000D03*
X120016000Y-33528000D03*
X109092000Y-90678000D03*
X105792000Y-90678000D03*
X99440000Y-71628000D03*
X96140000Y-71628000D03*
X94614000Y-52578000D03*
X91314000Y-52578000D03*
X104012000Y-33528000D03*
X100712000Y-33528000D03*
X80390000Y-109728000D03*
X77090000Y-109728000D03*
X90042000Y-90678000D03*
X86742000Y-90678000D03*
X80390000Y-71628000D03*
X77090000Y-71628000D03*
X75564000Y-52578000D03*
X72264000Y-52578000D03*
X70992000Y-90678000D03*
X67692000Y-90678000D03*
X61340000Y-71628000D03*
X58040000Y-71628000D03*
X56514000Y-52578000D03*
X53214000Y-52578000D03*
X66166000Y-33528000D03*
X62866000Y-33528000D03*
X40004000Y-90678000D03*
X36704000Y-90678000D03*
X47116000Y-33528000D03*
X43816000Y-33528000D03*
X32892000Y-109728000D03*
X29592000Y-109728000D03*
X35178000Y-71628000D03*
X31878000Y-71628000D03*
X32892000Y-52578000D03*
X29592000Y-52578000D03*
X28066000Y-33528000D03*
X24766000Y-33528000D03*
D10*
G36*
X205198505Y-105335204D02*
G01*
X205222773Y-105338804D01*
X205246572Y-105344765D01*
X205269671Y-105353030D01*
X205291850Y-105363520D01*
X205312893Y-105376132D01*
X205332599Y-105390747D01*
X205350777Y-105407223D01*
X205367253Y-105425401D01*
X205381868Y-105445107D01*
X205394480Y-105466150D01*
X205404970Y-105488329D01*
X205413235Y-105511428D01*
X205419196Y-105535227D01*
X205422796Y-105559495D01*
X205424000Y-105583999D01*
X205424000Y-106234001D01*
X205422796Y-106258505D01*
X205419196Y-106282773D01*
X205413235Y-106306572D01*
X205404970Y-106329671D01*
X205394480Y-106351850D01*
X205381868Y-106372893D01*
X205367253Y-106392599D01*
X205350777Y-106410777D01*
X205332599Y-106427253D01*
X205312893Y-106441868D01*
X205291850Y-106454480D01*
X205269671Y-106464970D01*
X205246572Y-106473235D01*
X205222773Y-106479196D01*
X205198505Y-106482796D01*
X205174001Y-106484000D01*
X204273999Y-106484000D01*
X204249495Y-106482796D01*
X204225227Y-106479196D01*
X204201428Y-106473235D01*
X204178329Y-106464970D01*
X204156150Y-106454480D01*
X204135107Y-106441868D01*
X204115401Y-106427253D01*
X204097223Y-106410777D01*
X204080747Y-106392599D01*
X204066132Y-106372893D01*
X204053520Y-106351850D01*
X204043030Y-106329671D01*
X204034765Y-106306572D01*
X204028804Y-106282773D01*
X204025204Y-106258505D01*
X204024000Y-106234001D01*
X204024000Y-105583999D01*
X204025204Y-105559495D01*
X204028804Y-105535227D01*
X204034765Y-105511428D01*
X204043030Y-105488329D01*
X204053520Y-105466150D01*
X204066132Y-105445107D01*
X204080747Y-105425401D01*
X204097223Y-105407223D01*
X204115401Y-105390747D01*
X204135107Y-105376132D01*
X204156150Y-105363520D01*
X204178329Y-105353030D01*
X204201428Y-105344765D01*
X204225227Y-105338804D01*
X204249495Y-105335204D01*
X204273999Y-105334000D01*
X205174001Y-105334000D01*
X205198505Y-105335204D01*
G37*
G36*
X205198505Y-107385204D02*
G01*
X205222773Y-107388804D01*
X205246572Y-107394765D01*
X205269671Y-107403030D01*
X205291850Y-107413520D01*
X205312893Y-107426132D01*
X205332599Y-107440747D01*
X205350777Y-107457223D01*
X205367253Y-107475401D01*
X205381868Y-107495107D01*
X205394480Y-107516150D01*
X205404970Y-107538329D01*
X205413235Y-107561428D01*
X205419196Y-107585227D01*
X205422796Y-107609495D01*
X205424000Y-107633999D01*
X205424000Y-108284001D01*
X205422796Y-108308505D01*
X205419196Y-108332773D01*
X205413235Y-108356572D01*
X205404970Y-108379671D01*
X205394480Y-108401850D01*
X205381868Y-108422893D01*
X205367253Y-108442599D01*
X205350777Y-108460777D01*
X205332599Y-108477253D01*
X205312893Y-108491868D01*
X205291850Y-108504480D01*
X205269671Y-108514970D01*
X205246572Y-108523235D01*
X205222773Y-108529196D01*
X205198505Y-108532796D01*
X205174001Y-108534000D01*
X204273999Y-108534000D01*
X204249495Y-108532796D01*
X204225227Y-108529196D01*
X204201428Y-108523235D01*
X204178329Y-108514970D01*
X204156150Y-108504480D01*
X204135107Y-108491868D01*
X204115401Y-108477253D01*
X204097223Y-108460777D01*
X204080747Y-108442599D01*
X204066132Y-108422893D01*
X204053520Y-108401850D01*
X204043030Y-108379671D01*
X204034765Y-108356572D01*
X204028804Y-108332773D01*
X204025204Y-108308505D01*
X204024000Y-108284001D01*
X204024000Y-107633999D01*
X204025204Y-107609495D01*
X204028804Y-107585227D01*
X204034765Y-107561428D01*
X204043030Y-107538329D01*
X204053520Y-107516150D01*
X204066132Y-107495107D01*
X204080747Y-107475401D01*
X204097223Y-107457223D01*
X204115401Y-107440747D01*
X204135107Y-107426132D01*
X204156150Y-107413520D01*
X204178329Y-107403030D01*
X204201428Y-107394765D01*
X204225227Y-107388804D01*
X204249495Y-107385204D01*
X204273999Y-107384000D01*
X205174001Y-107384000D01*
X205198505Y-107385204D01*
G37*
G36*
X189824505Y-92773204D02*
G01*
X189848773Y-92776804D01*
X189872572Y-92782765D01*
X189895671Y-92791030D01*
X189917850Y-92801520D01*
X189938893Y-92814132D01*
X189958599Y-92828747D01*
X189976777Y-92845223D01*
X189993253Y-92863401D01*
X190007868Y-92883107D01*
X190020480Y-92904150D01*
X190030970Y-92926329D01*
X190039235Y-92949428D01*
X190045196Y-92973227D01*
X190048796Y-92997495D01*
X190050000Y-93021999D01*
X190050000Y-93922001D01*
X190048796Y-93946505D01*
X190045196Y-93970773D01*
X190039235Y-93994572D01*
X190030970Y-94017671D01*
X190020480Y-94039850D01*
X190007868Y-94060893D01*
X189993253Y-94080599D01*
X189976777Y-94098777D01*
X189958599Y-94115253D01*
X189938893Y-94129868D01*
X189917850Y-94142480D01*
X189895671Y-94152970D01*
X189872572Y-94161235D01*
X189848773Y-94167196D01*
X189824505Y-94170796D01*
X189800001Y-94172000D01*
X189149999Y-94172000D01*
X189125495Y-94170796D01*
X189101227Y-94167196D01*
X189077428Y-94161235D01*
X189054329Y-94152970D01*
X189032150Y-94142480D01*
X189011107Y-94129868D01*
X188991401Y-94115253D01*
X188973223Y-94098777D01*
X188956747Y-94080599D01*
X188942132Y-94060893D01*
X188929520Y-94039850D01*
X188919030Y-94017671D01*
X188910765Y-93994572D01*
X188904804Y-93970773D01*
X188901204Y-93946505D01*
X188900000Y-93922001D01*
X188900000Y-93021999D01*
X188901204Y-92997495D01*
X188904804Y-92973227D01*
X188910765Y-92949428D01*
X188919030Y-92926329D01*
X188929520Y-92904150D01*
X188942132Y-92883107D01*
X188956747Y-92863401D01*
X188973223Y-92845223D01*
X188991401Y-92828747D01*
X189011107Y-92814132D01*
X189032150Y-92801520D01*
X189054329Y-92791030D01*
X189077428Y-92782765D01*
X189101227Y-92776804D01*
X189125495Y-92773204D01*
X189149999Y-92772000D01*
X189800001Y-92772000D01*
X189824505Y-92773204D01*
G37*
G36*
X191874505Y-92773204D02*
G01*
X191898773Y-92776804D01*
X191922572Y-92782765D01*
X191945671Y-92791030D01*
X191967850Y-92801520D01*
X191988893Y-92814132D01*
X192008599Y-92828747D01*
X192026777Y-92845223D01*
X192043253Y-92863401D01*
X192057868Y-92883107D01*
X192070480Y-92904150D01*
X192080970Y-92926329D01*
X192089235Y-92949428D01*
X192095196Y-92973227D01*
X192098796Y-92997495D01*
X192100000Y-93021999D01*
X192100000Y-93922001D01*
X192098796Y-93946505D01*
X192095196Y-93970773D01*
X192089235Y-93994572D01*
X192080970Y-94017671D01*
X192070480Y-94039850D01*
X192057868Y-94060893D01*
X192043253Y-94080599D01*
X192026777Y-94098777D01*
X192008599Y-94115253D01*
X191988893Y-94129868D01*
X191967850Y-94142480D01*
X191945671Y-94152970D01*
X191922572Y-94161235D01*
X191898773Y-94167196D01*
X191874505Y-94170796D01*
X191850001Y-94172000D01*
X191199999Y-94172000D01*
X191175495Y-94170796D01*
X191151227Y-94167196D01*
X191127428Y-94161235D01*
X191104329Y-94152970D01*
X191082150Y-94142480D01*
X191061107Y-94129868D01*
X191041401Y-94115253D01*
X191023223Y-94098777D01*
X191006747Y-94080599D01*
X190992132Y-94060893D01*
X190979520Y-94039850D01*
X190969030Y-94017671D01*
X190960765Y-93994572D01*
X190954804Y-93970773D01*
X190951204Y-93946505D01*
X190950000Y-93922001D01*
X190950000Y-93021999D01*
X190951204Y-92997495D01*
X190954804Y-92973227D01*
X190960765Y-92949428D01*
X190969030Y-92926329D01*
X190979520Y-92904150D01*
X190992132Y-92883107D01*
X191006747Y-92863401D01*
X191023223Y-92845223D01*
X191041401Y-92828747D01*
X191061107Y-92814132D01*
X191082150Y-92801520D01*
X191104329Y-92791030D01*
X191127428Y-92782765D01*
X191151227Y-92776804D01*
X191175495Y-92773204D01*
X191199999Y-92772000D01*
X191850001Y-92772000D01*
X191874505Y-92773204D01*
G37*
G36*
X203166505Y-100019204D02*
G01*
X203190773Y-100022804D01*
X203214572Y-100028765D01*
X203237671Y-100037030D01*
X203259850Y-100047520D01*
X203280893Y-100060132D01*
X203300599Y-100074747D01*
X203318777Y-100091223D01*
X203335253Y-100109401D01*
X203349868Y-100129107D01*
X203362480Y-100150150D01*
X203372970Y-100172329D01*
X203381235Y-100195428D01*
X203387196Y-100219227D01*
X203390796Y-100243495D01*
X203392000Y-100267999D01*
X203392000Y-100918001D01*
X203390796Y-100942505D01*
X203387196Y-100966773D01*
X203381235Y-100990572D01*
X203372970Y-101013671D01*
X203362480Y-101035850D01*
X203349868Y-101056893D01*
X203335253Y-101076599D01*
X203318777Y-101094777D01*
X203300599Y-101111253D01*
X203280893Y-101125868D01*
X203259850Y-101138480D01*
X203237671Y-101148970D01*
X203214572Y-101157235D01*
X203190773Y-101163196D01*
X203166505Y-101166796D01*
X203142001Y-101168000D01*
X202241999Y-101168000D01*
X202217495Y-101166796D01*
X202193227Y-101163196D01*
X202169428Y-101157235D01*
X202146329Y-101148970D01*
X202124150Y-101138480D01*
X202103107Y-101125868D01*
X202083401Y-101111253D01*
X202065223Y-101094777D01*
X202048747Y-101076599D01*
X202034132Y-101056893D01*
X202021520Y-101035850D01*
X202011030Y-101013671D01*
X202002765Y-100990572D01*
X201996804Y-100966773D01*
X201993204Y-100942505D01*
X201992000Y-100918001D01*
X201992000Y-100267999D01*
X201993204Y-100243495D01*
X201996804Y-100219227D01*
X202002765Y-100195428D01*
X202011030Y-100172329D01*
X202021520Y-100150150D01*
X202034132Y-100129107D01*
X202048747Y-100109401D01*
X202065223Y-100091223D01*
X202083401Y-100074747D01*
X202103107Y-100060132D01*
X202124150Y-100047520D01*
X202146329Y-100037030D01*
X202169428Y-100028765D01*
X202193227Y-100022804D01*
X202217495Y-100019204D01*
X202241999Y-100018000D01*
X203142001Y-100018000D01*
X203166505Y-100019204D01*
G37*
G36*
X203166505Y-97969204D02*
G01*
X203190773Y-97972804D01*
X203214572Y-97978765D01*
X203237671Y-97987030D01*
X203259850Y-97997520D01*
X203280893Y-98010132D01*
X203300599Y-98024747D01*
X203318777Y-98041223D01*
X203335253Y-98059401D01*
X203349868Y-98079107D01*
X203362480Y-98100150D01*
X203372970Y-98122329D01*
X203381235Y-98145428D01*
X203387196Y-98169227D01*
X203390796Y-98193495D01*
X203392000Y-98217999D01*
X203392000Y-98868001D01*
X203390796Y-98892505D01*
X203387196Y-98916773D01*
X203381235Y-98940572D01*
X203372970Y-98963671D01*
X203362480Y-98985850D01*
X203349868Y-99006893D01*
X203335253Y-99026599D01*
X203318777Y-99044777D01*
X203300599Y-99061253D01*
X203280893Y-99075868D01*
X203259850Y-99088480D01*
X203237671Y-99098970D01*
X203214572Y-99107235D01*
X203190773Y-99113196D01*
X203166505Y-99116796D01*
X203142001Y-99118000D01*
X202241999Y-99118000D01*
X202217495Y-99116796D01*
X202193227Y-99113196D01*
X202169428Y-99107235D01*
X202146329Y-99098970D01*
X202124150Y-99088480D01*
X202103107Y-99075868D01*
X202083401Y-99061253D01*
X202065223Y-99044777D01*
X202048747Y-99026599D01*
X202034132Y-99006893D01*
X202021520Y-98985850D01*
X202011030Y-98963671D01*
X202002765Y-98940572D01*
X201996804Y-98916773D01*
X201993204Y-98892505D01*
X201992000Y-98868001D01*
X201992000Y-98217999D01*
X201993204Y-98193495D01*
X201996804Y-98169227D01*
X202002765Y-98145428D01*
X202011030Y-98122329D01*
X202021520Y-98100150D01*
X202034132Y-98079107D01*
X202048747Y-98059401D01*
X202065223Y-98041223D01*
X202083401Y-98024747D01*
X202103107Y-98010132D01*
X202124150Y-97997520D01*
X202146329Y-97987030D01*
X202169428Y-97978765D01*
X202193227Y-97972804D01*
X202217495Y-97969204D01*
X202241999Y-97968000D01*
X203142001Y-97968000D01*
X203166505Y-97969204D01*
G37*
G36*
X202404505Y-105335204D02*
G01*
X202428773Y-105338804D01*
X202452572Y-105344765D01*
X202475671Y-105353030D01*
X202497850Y-105363520D01*
X202518893Y-105376132D01*
X202538599Y-105390747D01*
X202556777Y-105407223D01*
X202573253Y-105425401D01*
X202587868Y-105445107D01*
X202600480Y-105466150D01*
X202610970Y-105488329D01*
X202619235Y-105511428D01*
X202625196Y-105535227D01*
X202628796Y-105559495D01*
X202630000Y-105583999D01*
X202630000Y-106234001D01*
X202628796Y-106258505D01*
X202625196Y-106282773D01*
X202619235Y-106306572D01*
X202610970Y-106329671D01*
X202600480Y-106351850D01*
X202587868Y-106372893D01*
X202573253Y-106392599D01*
X202556777Y-106410777D01*
X202538599Y-106427253D01*
X202518893Y-106441868D01*
X202497850Y-106454480D01*
X202475671Y-106464970D01*
X202452572Y-106473235D01*
X202428773Y-106479196D01*
X202404505Y-106482796D01*
X202380001Y-106484000D01*
X201479999Y-106484000D01*
X201455495Y-106482796D01*
X201431227Y-106479196D01*
X201407428Y-106473235D01*
X201384329Y-106464970D01*
X201362150Y-106454480D01*
X201341107Y-106441868D01*
X201321401Y-106427253D01*
X201303223Y-106410777D01*
X201286747Y-106392599D01*
X201272132Y-106372893D01*
X201259520Y-106351850D01*
X201249030Y-106329671D01*
X201240765Y-106306572D01*
X201234804Y-106282773D01*
X201231204Y-106258505D01*
X201230000Y-106234001D01*
X201230000Y-105583999D01*
X201231204Y-105559495D01*
X201234804Y-105535227D01*
X201240765Y-105511428D01*
X201249030Y-105488329D01*
X201259520Y-105466150D01*
X201272132Y-105445107D01*
X201286747Y-105425401D01*
X201303223Y-105407223D01*
X201321401Y-105390747D01*
X201341107Y-105376132D01*
X201362150Y-105363520D01*
X201384329Y-105353030D01*
X201407428Y-105344765D01*
X201431227Y-105338804D01*
X201455495Y-105335204D01*
X201479999Y-105334000D01*
X202380001Y-105334000D01*
X202404505Y-105335204D01*
G37*
G36*
X202404505Y-107385204D02*
G01*
X202428773Y-107388804D01*
X202452572Y-107394765D01*
X202475671Y-107403030D01*
X202497850Y-107413520D01*
X202518893Y-107426132D01*
X202538599Y-107440747D01*
X202556777Y-107457223D01*
X202573253Y-107475401D01*
X202587868Y-107495107D01*
X202600480Y-107516150D01*
X202610970Y-107538329D01*
X202619235Y-107561428D01*
X202625196Y-107585227D01*
X202628796Y-107609495D01*
X202630000Y-107633999D01*
X202630000Y-108284001D01*
X202628796Y-108308505D01*
X202625196Y-108332773D01*
X202619235Y-108356572D01*
X202610970Y-108379671D01*
X202600480Y-108401850D01*
X202587868Y-108422893D01*
X202573253Y-108442599D01*
X202556777Y-108460777D01*
X202538599Y-108477253D01*
X202518893Y-108491868D01*
X202497850Y-108504480D01*
X202475671Y-108514970D01*
X202452572Y-108523235D01*
X202428773Y-108529196D01*
X202404505Y-108532796D01*
X202380001Y-108534000D01*
X201479999Y-108534000D01*
X201455495Y-108532796D01*
X201431227Y-108529196D01*
X201407428Y-108523235D01*
X201384329Y-108514970D01*
X201362150Y-108504480D01*
X201341107Y-108491868D01*
X201321401Y-108477253D01*
X201303223Y-108460777D01*
X201286747Y-108442599D01*
X201272132Y-108422893D01*
X201259520Y-108401850D01*
X201249030Y-108379671D01*
X201240765Y-108356572D01*
X201234804Y-108332773D01*
X201231204Y-108308505D01*
X201230000Y-108284001D01*
X201230000Y-107633999D01*
X201231204Y-107609495D01*
X201234804Y-107585227D01*
X201240765Y-107561428D01*
X201249030Y-107538329D01*
X201259520Y-107516150D01*
X201272132Y-107495107D01*
X201286747Y-107475401D01*
X201303223Y-107457223D01*
X201321401Y-107440747D01*
X201341107Y-107426132D01*
X201362150Y-107413520D01*
X201384329Y-107403030D01*
X201407428Y-107394765D01*
X201431227Y-107388804D01*
X201455495Y-107385204D01*
X201479999Y-107384000D01*
X202380001Y-107384000D01*
X202404505Y-107385204D01*
G37*
G36*
X177378505Y-96583204D02*
G01*
X177402773Y-96586804D01*
X177426572Y-96592765D01*
X177449671Y-96601030D01*
X177471850Y-96611520D01*
X177492893Y-96624132D01*
X177512599Y-96638747D01*
X177530777Y-96655223D01*
X177547253Y-96673401D01*
X177561868Y-96693107D01*
X177574480Y-96714150D01*
X177584970Y-96736329D01*
X177593235Y-96759428D01*
X177599196Y-96783227D01*
X177602796Y-96807495D01*
X177604000Y-96831999D01*
X177604000Y-97732001D01*
X177602796Y-97756505D01*
X177599196Y-97780773D01*
X177593235Y-97804572D01*
X177584970Y-97827671D01*
X177574480Y-97849850D01*
X177561868Y-97870893D01*
X177547253Y-97890599D01*
X177530777Y-97908777D01*
X177512599Y-97925253D01*
X177492893Y-97939868D01*
X177471850Y-97952480D01*
X177449671Y-97962970D01*
X177426572Y-97971235D01*
X177402773Y-97977196D01*
X177378505Y-97980796D01*
X177354001Y-97982000D01*
X176703999Y-97982000D01*
X176679495Y-97980796D01*
X176655227Y-97977196D01*
X176631428Y-97971235D01*
X176608329Y-97962970D01*
X176586150Y-97952480D01*
X176565107Y-97939868D01*
X176545401Y-97925253D01*
X176527223Y-97908777D01*
X176510747Y-97890599D01*
X176496132Y-97870893D01*
X176483520Y-97849850D01*
X176473030Y-97827671D01*
X176464765Y-97804572D01*
X176458804Y-97780773D01*
X176455204Y-97756505D01*
X176454000Y-97732001D01*
X176454000Y-96831999D01*
X176455204Y-96807495D01*
X176458804Y-96783227D01*
X176464765Y-96759428D01*
X176473030Y-96736329D01*
X176483520Y-96714150D01*
X176496132Y-96693107D01*
X176510747Y-96673401D01*
X176527223Y-96655223D01*
X176545401Y-96638747D01*
X176565107Y-96624132D01*
X176586150Y-96611520D01*
X176608329Y-96601030D01*
X176631428Y-96592765D01*
X176655227Y-96586804D01*
X176679495Y-96583204D01*
X176703999Y-96582000D01*
X177354001Y-96582000D01*
X177378505Y-96583204D01*
G37*
G36*
X179428505Y-96583204D02*
G01*
X179452773Y-96586804D01*
X179476572Y-96592765D01*
X179499671Y-96601030D01*
X179521850Y-96611520D01*
X179542893Y-96624132D01*
X179562599Y-96638747D01*
X179580777Y-96655223D01*
X179597253Y-96673401D01*
X179611868Y-96693107D01*
X179624480Y-96714150D01*
X179634970Y-96736329D01*
X179643235Y-96759428D01*
X179649196Y-96783227D01*
X179652796Y-96807495D01*
X179654000Y-96831999D01*
X179654000Y-97732001D01*
X179652796Y-97756505D01*
X179649196Y-97780773D01*
X179643235Y-97804572D01*
X179634970Y-97827671D01*
X179624480Y-97849850D01*
X179611868Y-97870893D01*
X179597253Y-97890599D01*
X179580777Y-97908777D01*
X179562599Y-97925253D01*
X179542893Y-97939868D01*
X179521850Y-97952480D01*
X179499671Y-97962970D01*
X179476572Y-97971235D01*
X179452773Y-97977196D01*
X179428505Y-97980796D01*
X179404001Y-97982000D01*
X178753999Y-97982000D01*
X178729495Y-97980796D01*
X178705227Y-97977196D01*
X178681428Y-97971235D01*
X178658329Y-97962970D01*
X178636150Y-97952480D01*
X178615107Y-97939868D01*
X178595401Y-97925253D01*
X178577223Y-97908777D01*
X178560747Y-97890599D01*
X178546132Y-97870893D01*
X178533520Y-97849850D01*
X178523030Y-97827671D01*
X178514765Y-97804572D01*
X178508804Y-97780773D01*
X178505204Y-97756505D01*
X178504000Y-97732001D01*
X178504000Y-96831999D01*
X178505204Y-96807495D01*
X178508804Y-96783227D01*
X178514765Y-96759428D01*
X178523030Y-96736329D01*
X178533520Y-96714150D01*
X178546132Y-96693107D01*
X178560747Y-96673401D01*
X178577223Y-96655223D01*
X178595401Y-96638747D01*
X178615107Y-96624132D01*
X178636150Y-96611520D01*
X178658329Y-96601030D01*
X178681428Y-96592765D01*
X178705227Y-96586804D01*
X178729495Y-96583204D01*
X178753999Y-96582000D01*
X179404001Y-96582000D01*
X179428505Y-96583204D01*
G37*
G36*
X205706505Y-100019204D02*
G01*
X205730773Y-100022804D01*
X205754572Y-100028765D01*
X205777671Y-100037030D01*
X205799850Y-100047520D01*
X205820893Y-100060132D01*
X205840599Y-100074747D01*
X205858777Y-100091223D01*
X205875253Y-100109401D01*
X205889868Y-100129107D01*
X205902480Y-100150150D01*
X205912970Y-100172329D01*
X205921235Y-100195428D01*
X205927196Y-100219227D01*
X205930796Y-100243495D01*
X205932000Y-100267999D01*
X205932000Y-100918001D01*
X205930796Y-100942505D01*
X205927196Y-100966773D01*
X205921235Y-100990572D01*
X205912970Y-101013671D01*
X205902480Y-101035850D01*
X205889868Y-101056893D01*
X205875253Y-101076599D01*
X205858777Y-101094777D01*
X205840599Y-101111253D01*
X205820893Y-101125868D01*
X205799850Y-101138480D01*
X205777671Y-101148970D01*
X205754572Y-101157235D01*
X205730773Y-101163196D01*
X205706505Y-101166796D01*
X205682001Y-101168000D01*
X204781999Y-101168000D01*
X204757495Y-101166796D01*
X204733227Y-101163196D01*
X204709428Y-101157235D01*
X204686329Y-101148970D01*
X204664150Y-101138480D01*
X204643107Y-101125868D01*
X204623401Y-101111253D01*
X204605223Y-101094777D01*
X204588747Y-101076599D01*
X204574132Y-101056893D01*
X204561520Y-101035850D01*
X204551030Y-101013671D01*
X204542765Y-100990572D01*
X204536804Y-100966773D01*
X204533204Y-100942505D01*
X204532000Y-100918001D01*
X204532000Y-100267999D01*
X204533204Y-100243495D01*
X204536804Y-100219227D01*
X204542765Y-100195428D01*
X204551030Y-100172329D01*
X204561520Y-100150150D01*
X204574132Y-100129107D01*
X204588747Y-100109401D01*
X204605223Y-100091223D01*
X204623401Y-100074747D01*
X204643107Y-100060132D01*
X204664150Y-100047520D01*
X204686329Y-100037030D01*
X204709428Y-100028765D01*
X204733227Y-100022804D01*
X204757495Y-100019204D01*
X204781999Y-100018000D01*
X205682001Y-100018000D01*
X205706505Y-100019204D01*
G37*
G36*
X205706505Y-97969204D02*
G01*
X205730773Y-97972804D01*
X205754572Y-97978765D01*
X205777671Y-97987030D01*
X205799850Y-97997520D01*
X205820893Y-98010132D01*
X205840599Y-98024747D01*
X205858777Y-98041223D01*
X205875253Y-98059401D01*
X205889868Y-98079107D01*
X205902480Y-98100150D01*
X205912970Y-98122329D01*
X205921235Y-98145428D01*
X205927196Y-98169227D01*
X205930796Y-98193495D01*
X205932000Y-98217999D01*
X205932000Y-98868001D01*
X205930796Y-98892505D01*
X205927196Y-98916773D01*
X205921235Y-98940572D01*
X205912970Y-98963671D01*
X205902480Y-98985850D01*
X205889868Y-99006893D01*
X205875253Y-99026599D01*
X205858777Y-99044777D01*
X205840599Y-99061253D01*
X205820893Y-99075868D01*
X205799850Y-99088480D01*
X205777671Y-99098970D01*
X205754572Y-99107235D01*
X205730773Y-99113196D01*
X205706505Y-99116796D01*
X205682001Y-99118000D01*
X204781999Y-99118000D01*
X204757495Y-99116796D01*
X204733227Y-99113196D01*
X204709428Y-99107235D01*
X204686329Y-99098970D01*
X204664150Y-99088480D01*
X204643107Y-99075868D01*
X204623401Y-99061253D01*
X204605223Y-99044777D01*
X204588747Y-99026599D01*
X204574132Y-99006893D01*
X204561520Y-98985850D01*
X204551030Y-98963671D01*
X204542765Y-98940572D01*
X204536804Y-98916773D01*
X204533204Y-98892505D01*
X204532000Y-98868001D01*
X204532000Y-98217999D01*
X204533204Y-98193495D01*
X204536804Y-98169227D01*
X204542765Y-98145428D01*
X204551030Y-98122329D01*
X204561520Y-98100150D01*
X204574132Y-98079107D01*
X204588747Y-98059401D01*
X204605223Y-98041223D01*
X204623401Y-98024747D01*
X204643107Y-98010132D01*
X204664150Y-97997520D01*
X204686329Y-97987030D01*
X204709428Y-97978765D01*
X204733227Y-97972804D01*
X204757495Y-97969204D01*
X204781999Y-97968000D01*
X205682001Y-97968000D01*
X205706505Y-97969204D01*
G37*
G36*
X194160505Y-111315204D02*
G01*
X194184773Y-111318804D01*
X194208572Y-111324765D01*
X194231671Y-111333030D01*
X194253850Y-111343520D01*
X194274893Y-111356132D01*
X194294599Y-111370747D01*
X194312777Y-111387223D01*
X194329253Y-111405401D01*
X194343868Y-111425107D01*
X194356480Y-111446150D01*
X194366970Y-111468329D01*
X194375235Y-111491428D01*
X194381196Y-111515227D01*
X194384796Y-111539495D01*
X194386000Y-111563999D01*
X194386000Y-112464001D01*
X194384796Y-112488505D01*
X194381196Y-112512773D01*
X194375235Y-112536572D01*
X194366970Y-112559671D01*
X194356480Y-112581850D01*
X194343868Y-112602893D01*
X194329253Y-112622599D01*
X194312777Y-112640777D01*
X194294599Y-112657253D01*
X194274893Y-112671868D01*
X194253850Y-112684480D01*
X194231671Y-112694970D01*
X194208572Y-112703235D01*
X194184773Y-112709196D01*
X194160505Y-112712796D01*
X194136001Y-112714000D01*
X193485999Y-112714000D01*
X193461495Y-112712796D01*
X193437227Y-112709196D01*
X193413428Y-112703235D01*
X193390329Y-112694970D01*
X193368150Y-112684480D01*
X193347107Y-112671868D01*
X193327401Y-112657253D01*
X193309223Y-112640777D01*
X193292747Y-112622599D01*
X193278132Y-112602893D01*
X193265520Y-112581850D01*
X193255030Y-112559671D01*
X193246765Y-112536572D01*
X193240804Y-112512773D01*
X193237204Y-112488505D01*
X193236000Y-112464001D01*
X193236000Y-111563999D01*
X193237204Y-111539495D01*
X193240804Y-111515227D01*
X193246765Y-111491428D01*
X193255030Y-111468329D01*
X193265520Y-111446150D01*
X193278132Y-111425107D01*
X193292747Y-111405401D01*
X193309223Y-111387223D01*
X193327401Y-111370747D01*
X193347107Y-111356132D01*
X193368150Y-111343520D01*
X193390329Y-111333030D01*
X193413428Y-111324765D01*
X193437227Y-111318804D01*
X193461495Y-111315204D01*
X193485999Y-111314000D01*
X194136001Y-111314000D01*
X194160505Y-111315204D01*
G37*
G36*
X192110505Y-111315204D02*
G01*
X192134773Y-111318804D01*
X192158572Y-111324765D01*
X192181671Y-111333030D01*
X192203850Y-111343520D01*
X192224893Y-111356132D01*
X192244599Y-111370747D01*
X192262777Y-111387223D01*
X192279253Y-111405401D01*
X192293868Y-111425107D01*
X192306480Y-111446150D01*
X192316970Y-111468329D01*
X192325235Y-111491428D01*
X192331196Y-111515227D01*
X192334796Y-111539495D01*
X192336000Y-111563999D01*
X192336000Y-112464001D01*
X192334796Y-112488505D01*
X192331196Y-112512773D01*
X192325235Y-112536572D01*
X192316970Y-112559671D01*
X192306480Y-112581850D01*
X192293868Y-112602893D01*
X192279253Y-112622599D01*
X192262777Y-112640777D01*
X192244599Y-112657253D01*
X192224893Y-112671868D01*
X192203850Y-112684480D01*
X192181671Y-112694970D01*
X192158572Y-112703235D01*
X192134773Y-112709196D01*
X192110505Y-112712796D01*
X192086001Y-112714000D01*
X191435999Y-112714000D01*
X191411495Y-112712796D01*
X191387227Y-112709196D01*
X191363428Y-112703235D01*
X191340329Y-112694970D01*
X191318150Y-112684480D01*
X191297107Y-112671868D01*
X191277401Y-112657253D01*
X191259223Y-112640777D01*
X191242747Y-112622599D01*
X191228132Y-112602893D01*
X191215520Y-112581850D01*
X191205030Y-112559671D01*
X191196765Y-112536572D01*
X191190804Y-112512773D01*
X191187204Y-112488505D01*
X191186000Y-112464001D01*
X191186000Y-111563999D01*
X191187204Y-111539495D01*
X191190804Y-111515227D01*
X191196765Y-111491428D01*
X191205030Y-111468329D01*
X191215520Y-111446150D01*
X191228132Y-111425107D01*
X191242747Y-111405401D01*
X191259223Y-111387223D01*
X191277401Y-111370747D01*
X191297107Y-111356132D01*
X191318150Y-111343520D01*
X191340329Y-111333030D01*
X191363428Y-111324765D01*
X191387227Y-111318804D01*
X191411495Y-111315204D01*
X191435999Y-111314000D01*
X192086001Y-111314000D01*
X192110505Y-111315204D01*
G37*
G36*
X174076505Y-107251204D02*
G01*
X174100773Y-107254804D01*
X174124572Y-107260765D01*
X174147671Y-107269030D01*
X174169850Y-107279520D01*
X174190893Y-107292132D01*
X174210599Y-107306747D01*
X174228777Y-107323223D01*
X174245253Y-107341401D01*
X174259868Y-107361107D01*
X174272480Y-107382150D01*
X174282970Y-107404329D01*
X174291235Y-107427428D01*
X174297196Y-107451227D01*
X174300796Y-107475495D01*
X174302000Y-107499999D01*
X174302000Y-108400001D01*
X174300796Y-108424505D01*
X174297196Y-108448773D01*
X174291235Y-108472572D01*
X174282970Y-108495671D01*
X174272480Y-108517850D01*
X174259868Y-108538893D01*
X174245253Y-108558599D01*
X174228777Y-108576777D01*
X174210599Y-108593253D01*
X174190893Y-108607868D01*
X174169850Y-108620480D01*
X174147671Y-108630970D01*
X174124572Y-108639235D01*
X174100773Y-108645196D01*
X174076505Y-108648796D01*
X174052001Y-108650000D01*
X173401999Y-108650000D01*
X173377495Y-108648796D01*
X173353227Y-108645196D01*
X173329428Y-108639235D01*
X173306329Y-108630970D01*
X173284150Y-108620480D01*
X173263107Y-108607868D01*
X173243401Y-108593253D01*
X173225223Y-108576777D01*
X173208747Y-108558599D01*
X173194132Y-108538893D01*
X173181520Y-108517850D01*
X173171030Y-108495671D01*
X173162765Y-108472572D01*
X173156804Y-108448773D01*
X173153204Y-108424505D01*
X173152000Y-108400001D01*
X173152000Y-107499999D01*
X173153204Y-107475495D01*
X173156804Y-107451227D01*
X173162765Y-107427428D01*
X173171030Y-107404329D01*
X173181520Y-107382150D01*
X173194132Y-107361107D01*
X173208747Y-107341401D01*
X173225223Y-107323223D01*
X173243401Y-107306747D01*
X173263107Y-107292132D01*
X173284150Y-107279520D01*
X173306329Y-107269030D01*
X173329428Y-107260765D01*
X173353227Y-107254804D01*
X173377495Y-107251204D01*
X173401999Y-107250000D01*
X174052001Y-107250000D01*
X174076505Y-107251204D01*
G37*
G36*
X176126505Y-107251204D02*
G01*
X176150773Y-107254804D01*
X176174572Y-107260765D01*
X176197671Y-107269030D01*
X176219850Y-107279520D01*
X176240893Y-107292132D01*
X176260599Y-107306747D01*
X176278777Y-107323223D01*
X176295253Y-107341401D01*
X176309868Y-107361107D01*
X176322480Y-107382150D01*
X176332970Y-107404329D01*
X176341235Y-107427428D01*
X176347196Y-107451227D01*
X176350796Y-107475495D01*
X176352000Y-107499999D01*
X176352000Y-108400001D01*
X176350796Y-108424505D01*
X176347196Y-108448773D01*
X176341235Y-108472572D01*
X176332970Y-108495671D01*
X176322480Y-108517850D01*
X176309868Y-108538893D01*
X176295253Y-108558599D01*
X176278777Y-108576777D01*
X176260599Y-108593253D01*
X176240893Y-108607868D01*
X176219850Y-108620480D01*
X176197671Y-108630970D01*
X176174572Y-108639235D01*
X176150773Y-108645196D01*
X176126505Y-108648796D01*
X176102001Y-108650000D01*
X175451999Y-108650000D01*
X175427495Y-108648796D01*
X175403227Y-108645196D01*
X175379428Y-108639235D01*
X175356329Y-108630970D01*
X175334150Y-108620480D01*
X175313107Y-108607868D01*
X175293401Y-108593253D01*
X175275223Y-108576777D01*
X175258747Y-108558599D01*
X175244132Y-108538893D01*
X175231520Y-108517850D01*
X175221030Y-108495671D01*
X175212765Y-108472572D01*
X175206804Y-108448773D01*
X175203204Y-108424505D01*
X175202000Y-108400001D01*
X175202000Y-107499999D01*
X175203204Y-107475495D01*
X175206804Y-107451227D01*
X175212765Y-107427428D01*
X175221030Y-107404329D01*
X175231520Y-107382150D01*
X175244132Y-107361107D01*
X175258747Y-107341401D01*
X175275223Y-107323223D01*
X175293401Y-107306747D01*
X175313107Y-107292132D01*
X175334150Y-107279520D01*
X175356329Y-107269030D01*
X175379428Y-107260765D01*
X175403227Y-107254804D01*
X175427495Y-107251204D01*
X175451999Y-107250000D01*
X176102001Y-107250000D01*
X176126505Y-107251204D01*
G37*
M02*
