M48
; DRILL file {KiCad (5.1.5-0-10_14)} date Wednesday, 26 February 2020 at 21:23:35
; FORMAT={-:-/ absolute / inch / decimal}
; #@! TF.CreationDate,2020-02-26T21:23:35+00:00
; #@! TF.GenerationSoftware,Kicad,Pcbnew,(5.1.5-0-10_14)
; #@! TF.FileFunction,NonPlated,1,2,NPTH
FMAT,2
INCH
T1C0.0689
T2C0.1200
T3C0.1570
%
G90
G05
T1
X7.0187Y-3.375
X7.4188Y-3.375
X2.5187Y-3.375
X2.9187Y-3.375
X5.8937Y-2.625
X6.2938Y-2.625
X7.3937Y-2.625
X7.7938Y-2.625
X9.4562Y-1.875
X9.8562Y-1.875
X5.3312Y-1.125
X5.7313Y-1.125
X11.3312Y-4.125
X11.7312Y-4.125
X12.0812Y-2.625
X12.4812Y-2.625
X12.0812Y-4.125
X12.4812Y-4.125
X5.5187Y-3.375
X5.9188Y-3.375
X8.7062Y-1.875
X9.1062Y-1.875
X4.5812Y-1.125
X4.9813Y-1.125
X10.5812Y-4.125
X10.9812Y-4.125
X1.0188Y-1.875
X1.4187Y-1.875
X11.3312Y-3.375
X11.7312Y-3.375
X1.5813Y-1.125
X1.9812Y-1.125
X2.8937Y-4.125
X3.2937Y-4.125
X6.2687Y-3.375
X6.6688Y-3.375
X5.1437Y-2.625
X5.5438Y-2.625
X8.1437Y-2.625
X8.5437Y-2.625
X3.8312Y-1.125
X4.2313Y-1.125
X6.6437Y-2.625
X7.0438Y-2.625
X2.1437Y-2.625
X2.5437Y-2.625
X9.2687Y-4.125
X9.6687Y-4.125
X10.2062Y-1.875
X10.6062Y-1.875
X7.2062Y-1.875
X7.6063Y-1.875
X2.7062Y-1.875
X3.1062Y-1.875
X1.0188Y-4.125
X1.4187Y-4.125
X7.7687Y-3.375
X8.1687Y-3.375
X9.8312Y-1.125
X10.2312Y-1.125
X4.7687Y-3.375
X5.1688Y-3.375
X10.5812Y-1.125
X10.9812Y-1.125
X9.0812Y-1.125
X9.4812Y-1.125
X4.0187Y-3.375
X4.4188Y-3.375
X10.3Y-3.375
X10.7Y-3.375
X0.8312Y-1.125
X1.2312Y-1.125
X5.7062Y-1.875
X6.1063Y-1.875
X9.2687Y-3.375
X9.6687Y-3.375
X4.3937Y-2.625
X4.7938Y-2.625
X11.1437Y-1.875
X11.5437Y-1.875
X3.2687Y-3.375
X3.6687Y-3.375
X2.3312Y-1.125
X2.7312Y-1.125
X12.0812Y-1.875
X12.4812Y-1.875
X7.9562Y-1.875
X8.3562Y-1.875
X12.0812Y-3.375
X12.4812Y-3.375
X6.4562Y-1.875
X6.8563Y-1.875
X1.9563Y-1.875
X2.3562Y-1.875
X6.0812Y-4.125
X6.4813Y-4.125
X7.5812Y-1.125
X7.9813Y-1.125
X3.0812Y-1.125
X3.4812Y-1.125
X1.1125Y-2.625
X1.5125Y-2.625
X8.3312Y-1.125
X8.7312Y-1.125
X9.6437Y-2.625
X10.0437Y-2.625
X4.9562Y-1.875
X5.3563Y-1.875
X8.5187Y-3.375
X8.9187Y-3.375
X3.6437Y-2.625
X4.0438Y-2.625
X10.8625Y-2.625
X11.2625Y-2.625
X6.0812Y-1.125
X6.4813Y-1.125
X8.8937Y-2.625
X9.2937Y-2.625
X4.2062Y-1.875
X4.6063Y-1.875
X11.3312Y-1.125
X11.7312Y-1.125
X2.8937Y-2.625
X3.2937Y-2.625
X1.3Y-3.375
X1.7Y-3.375
X3.4562Y-1.875
X3.8562Y-1.875
X6.8312Y-1.125
X7.2313Y-1.125
T2
X4.0312Y-4.4
X8.5312Y-4.4
X10.5938Y-2.35
X11.5312Y-2.35
X1.0312Y-3.1
X1.9688Y-3.1
T3
X7.5938Y-2.625
X9.6562Y-1.875
X5.5312Y-1.125
X11.5312Y-4.125
X12.2812Y-2.625
X12.2812Y-4.125
X5.7188Y-3.375
X8.9062Y-1.875
X4.7812Y-1.125
X10.7812Y-4.125
X1.2188Y-1.875
X11.5312Y-3.375
X1.7812Y-1.125
X3.0938Y-4.125
X6.4688Y-3.375
X5.3438Y-2.625
X8.3438Y-2.625
X4.0312Y-1.125
X6.8438Y-2.625
X2.3438Y-2.625
X9.4688Y-4.125
X10.4062Y-1.875
X7.4062Y-1.875
X2.9062Y-1.875
X1.2188Y-4.125
X7.9688Y-3.375
X10.0312Y-1.125
X4.9688Y-3.375
X10.7812Y-1.125
X9.2812Y-1.125
X4.2188Y-3.375
X10.5Y-3.375
X1.0312Y-1.125
X5.9062Y-1.875
X9.4688Y-3.375
X4.5938Y-2.625
X11.3438Y-1.875
X3.4688Y-3.375
X2.5312Y-1.125
X12.2812Y-1.875
X8.1562Y-1.875
X12.2812Y-3.375
X6.6562Y-1.875
X2.1562Y-1.875
X4.0312Y-3.8
X6.2812Y-4.125
X8.5312Y-3.8
X7.7812Y-1.125
X3.2812Y-1.125
X1.3125Y-2.625
X8.5312Y-1.125
X9.8438Y-2.625
X5.1562Y-1.875
X8.7188Y-3.375
X3.8438Y-2.625
X10.5938Y-2.95
X11.0625Y-2.625
X11.5312Y-2.95
X6.2812Y-1.125
X9.0938Y-2.625
X4.4062Y-1.875
X11.5312Y-1.125
X3.0938Y-2.625
X1.0312Y-3.7
X1.5Y-3.375
X1.9688Y-3.7
X3.6562Y-1.875
X7.0312Y-1.125
X7.2188Y-3.375
X2.7188Y-3.375
X6.0938Y-2.625
T0
M30
