%TF.GenerationSoftware,KiCad,Pcbnew,(5.1.5-0-10_14)*%
%TF.CreationDate,2020-03-06T17:35:18+00:00*%
%TF.ProjectId,pcb,7063622e-6b69-4636-9164-5f7063625858,rev?*%
%TF.SameCoordinates,Original*%
%TF.FileFunction,Soldermask,Top*%
%TF.FilePolarity,Negative*%
%FSLAX46Y46*%
G04 Gerber Fmt 4.6, Leading zero omitted, Abs format (unit mm)*
G04 Created by KiCad (PCBNEW (5.1.5-0-10_14)) date 2020-03-06 17:35:18*
%MOMM*%
%LPD*%
G04 APERTURE LIST*
%ADD10C,0.150000*%
G04 APERTURE END LIST*
D10*
G36*
X217153161Y-110245526D02*
G01*
X217271887Y-110294704D01*
X217439791Y-110364252D01*
X217439792Y-110364253D01*
X217697754Y-110536617D01*
X217917133Y-110755996D01*
X218032303Y-110928361D01*
X218089498Y-111013959D01*
X218208224Y-111300590D01*
X218268750Y-111604875D01*
X218268750Y-111915125D01*
X218208224Y-112219410D01*
X218089498Y-112506041D01*
X218089497Y-112506042D01*
X217917133Y-112764004D01*
X217697754Y-112983383D01*
X217525389Y-113098553D01*
X217439791Y-113155748D01*
X217271887Y-113225296D01*
X217153161Y-113274474D01*
X217001017Y-113304737D01*
X216848875Y-113335000D01*
X216538625Y-113335000D01*
X216386483Y-113304737D01*
X216234339Y-113274474D01*
X216115613Y-113225296D01*
X215947709Y-113155748D01*
X215862111Y-113098553D01*
X215689746Y-112983383D01*
X215470367Y-112764004D01*
X215298003Y-112506042D01*
X215298002Y-112506041D01*
X215179276Y-112219410D01*
X215118750Y-111915125D01*
X215118750Y-111604875D01*
X215179276Y-111300590D01*
X215298002Y-111013959D01*
X215355197Y-110928361D01*
X215470367Y-110755996D01*
X215689746Y-110536617D01*
X215947708Y-110364253D01*
X215947709Y-110364252D01*
X216115613Y-110294704D01*
X216234339Y-110245526D01*
X216538625Y-110185000D01*
X216848875Y-110185000D01*
X217153161Y-110245526D01*
G37*
G36*
X102853161Y-110245526D02*
G01*
X102971887Y-110294704D01*
X103139791Y-110364252D01*
X103139792Y-110364253D01*
X103397754Y-110536617D01*
X103617133Y-110755996D01*
X103732303Y-110928361D01*
X103789498Y-111013959D01*
X103908224Y-111300590D01*
X103968750Y-111604875D01*
X103968750Y-111915125D01*
X103908224Y-112219410D01*
X103789498Y-112506041D01*
X103789497Y-112506042D01*
X103617133Y-112764004D01*
X103397754Y-112983383D01*
X103225389Y-113098553D01*
X103139791Y-113155748D01*
X102971887Y-113225296D01*
X102853161Y-113274474D01*
X102701017Y-113304737D01*
X102548875Y-113335000D01*
X102238625Y-113335000D01*
X102086483Y-113304737D01*
X101934339Y-113274474D01*
X101815613Y-113225296D01*
X101647709Y-113155748D01*
X101562111Y-113098553D01*
X101389746Y-112983383D01*
X101170367Y-112764004D01*
X100998003Y-112506042D01*
X100998002Y-112506041D01*
X100879276Y-112219410D01*
X100818750Y-111915125D01*
X100818750Y-111604875D01*
X100879276Y-111300590D01*
X100998002Y-111013959D01*
X101055197Y-110928361D01*
X101170367Y-110755996D01*
X101389746Y-110536617D01*
X101647708Y-110364253D01*
X101647709Y-110364252D01*
X101815613Y-110294704D01*
X101934339Y-110245526D01*
X102238625Y-110185000D01*
X102548875Y-110185000D01*
X102853161Y-110245526D01*
G37*
G36*
X274440224Y-102808684D02*
G01*
X274658224Y-102898983D01*
X274812373Y-102962833D01*
X275147298Y-103186623D01*
X275432127Y-103471452D01*
X275655917Y-103806377D01*
X275688312Y-103884586D01*
X275810066Y-104178526D01*
X275888650Y-104573594D01*
X275888650Y-104976406D01*
X275810066Y-105371474D01*
X275759201Y-105494272D01*
X275655917Y-105743623D01*
X275432127Y-106078548D01*
X275147298Y-106363377D01*
X274812373Y-106587167D01*
X274658224Y-106651017D01*
X274440224Y-106741316D01*
X274045156Y-106819900D01*
X273642344Y-106819900D01*
X273247276Y-106741316D01*
X273029276Y-106651017D01*
X272875127Y-106587167D01*
X272540202Y-106363377D01*
X272255373Y-106078548D01*
X272031583Y-105743623D01*
X271928299Y-105494272D01*
X271877434Y-105371474D01*
X271798850Y-104976406D01*
X271798850Y-104573594D01*
X271877434Y-104178526D01*
X271999188Y-103884586D01*
X272031583Y-103806377D01*
X272255373Y-103471452D01*
X272540202Y-103186623D01*
X272875127Y-102962833D01*
X273029276Y-102898983D01*
X273247276Y-102808684D01*
X273642344Y-102730100D01*
X274045156Y-102730100D01*
X274440224Y-102808684D01*
G37*
G36*
X241102724Y-102808684D02*
G01*
X241320724Y-102898983D01*
X241474873Y-102962833D01*
X241809798Y-103186623D01*
X242094627Y-103471452D01*
X242318417Y-103806377D01*
X242350812Y-103884586D01*
X242472566Y-104178526D01*
X242551150Y-104573594D01*
X242551150Y-104976406D01*
X242472566Y-105371474D01*
X242421701Y-105494272D01*
X242318417Y-105743623D01*
X242094627Y-106078548D01*
X241809798Y-106363377D01*
X241474873Y-106587167D01*
X241320724Y-106651017D01*
X241102724Y-106741316D01*
X240707656Y-106819900D01*
X240304844Y-106819900D01*
X239909776Y-106741316D01*
X239691776Y-106651017D01*
X239537627Y-106587167D01*
X239202702Y-106363377D01*
X238917873Y-106078548D01*
X238694083Y-105743623D01*
X238590799Y-105494272D01*
X238539934Y-105371474D01*
X238461350Y-104976406D01*
X238461350Y-104573594D01*
X238539934Y-104178526D01*
X238661688Y-103884586D01*
X238694083Y-103806377D01*
X238917873Y-103471452D01*
X239202702Y-103186623D01*
X239537627Y-102962833D01*
X239691776Y-102898983D01*
X239909776Y-102808684D01*
X240304844Y-102730100D01*
X240707656Y-102730100D01*
X241102724Y-102808684D01*
G37*
G36*
X160140224Y-102808684D02*
G01*
X160358224Y-102898983D01*
X160512373Y-102962833D01*
X160847298Y-103186623D01*
X161132127Y-103471452D01*
X161355917Y-103806377D01*
X161388312Y-103884586D01*
X161510066Y-104178526D01*
X161588650Y-104573594D01*
X161588650Y-104976406D01*
X161510066Y-105371474D01*
X161459201Y-105494272D01*
X161355917Y-105743623D01*
X161132127Y-106078548D01*
X160847298Y-106363377D01*
X160512373Y-106587167D01*
X160358224Y-106651017D01*
X160140224Y-106741316D01*
X159745156Y-106819900D01*
X159342344Y-106819900D01*
X158947276Y-106741316D01*
X158729276Y-106651017D01*
X158575127Y-106587167D01*
X158240202Y-106363377D01*
X157955373Y-106078548D01*
X157731583Y-105743623D01*
X157628299Y-105494272D01*
X157577434Y-105371474D01*
X157498850Y-104976406D01*
X157498850Y-104573594D01*
X157577434Y-104178526D01*
X157699188Y-103884586D01*
X157731583Y-103806377D01*
X157955373Y-103471452D01*
X158240202Y-103186623D01*
X158575127Y-102962833D01*
X158729276Y-102898983D01*
X158947276Y-102808684D01*
X159342344Y-102730100D01*
X159745156Y-102730100D01*
X160140224Y-102808684D01*
G37*
G36*
X79177724Y-102808684D02*
G01*
X79395724Y-102898983D01*
X79549873Y-102962833D01*
X79884798Y-103186623D01*
X80169627Y-103471452D01*
X80393417Y-103806377D01*
X80425812Y-103884586D01*
X80547566Y-104178526D01*
X80626150Y-104573594D01*
X80626150Y-104976406D01*
X80547566Y-105371474D01*
X80496701Y-105494272D01*
X80393417Y-105743623D01*
X80169627Y-106078548D01*
X79884798Y-106363377D01*
X79549873Y-106587167D01*
X79395724Y-106651017D01*
X79177724Y-106741316D01*
X78782656Y-106819900D01*
X78379844Y-106819900D01*
X77984776Y-106741316D01*
X77766776Y-106651017D01*
X77612627Y-106587167D01*
X77277702Y-106363377D01*
X76992873Y-106078548D01*
X76769083Y-105743623D01*
X76665799Y-105494272D01*
X76614934Y-105371474D01*
X76536350Y-104976406D01*
X76536350Y-104573594D01*
X76614934Y-104178526D01*
X76736688Y-103884586D01*
X76769083Y-103806377D01*
X76992873Y-103471452D01*
X77277702Y-103186623D01*
X77612627Y-102962833D01*
X77766776Y-102898983D01*
X77984776Y-102808684D01*
X78379844Y-102730100D01*
X78782656Y-102730100D01*
X79177724Y-102808684D01*
G37*
G36*
X31552724Y-102808684D02*
G01*
X31770724Y-102898983D01*
X31924873Y-102962833D01*
X32259798Y-103186623D01*
X32544627Y-103471452D01*
X32768417Y-103806377D01*
X32800812Y-103884586D01*
X32922566Y-104178526D01*
X33001150Y-104573594D01*
X33001150Y-104976406D01*
X32922566Y-105371474D01*
X32871701Y-105494272D01*
X32768417Y-105743623D01*
X32544627Y-106078548D01*
X32259798Y-106363377D01*
X31924873Y-106587167D01*
X31770724Y-106651017D01*
X31552724Y-106741316D01*
X31157656Y-106819900D01*
X30754844Y-106819900D01*
X30359776Y-106741316D01*
X30141776Y-106651017D01*
X29987627Y-106587167D01*
X29652702Y-106363377D01*
X29367873Y-106078548D01*
X29144083Y-105743623D01*
X29040799Y-105494272D01*
X28989934Y-105371474D01*
X28911350Y-104976406D01*
X28911350Y-104573594D01*
X28989934Y-104178526D01*
X29111688Y-103884586D01*
X29144083Y-103806377D01*
X29367873Y-103471452D01*
X29652702Y-103186623D01*
X29987627Y-102962833D01*
X30141776Y-102898983D01*
X30359776Y-102808684D01*
X30754844Y-102730100D01*
X31157656Y-102730100D01*
X31552724Y-102808684D01*
G37*
G36*
X293490224Y-102808684D02*
G01*
X293708224Y-102898983D01*
X293862373Y-102962833D01*
X294197298Y-103186623D01*
X294482127Y-103471452D01*
X294705917Y-103806377D01*
X294738312Y-103884586D01*
X294860066Y-104178526D01*
X294938650Y-104573594D01*
X294938650Y-104976406D01*
X294860066Y-105371474D01*
X294809201Y-105494272D01*
X294705917Y-105743623D01*
X294482127Y-106078548D01*
X294197298Y-106363377D01*
X293862373Y-106587167D01*
X293708224Y-106651017D01*
X293490224Y-106741316D01*
X293095156Y-106819900D01*
X292692344Y-106819900D01*
X292297276Y-106741316D01*
X292079276Y-106651017D01*
X291925127Y-106587167D01*
X291590202Y-106363377D01*
X291305373Y-106078548D01*
X291081583Y-105743623D01*
X290978299Y-105494272D01*
X290927434Y-105371474D01*
X290848850Y-104976406D01*
X290848850Y-104573594D01*
X290927434Y-104178526D01*
X291049188Y-103884586D01*
X291081583Y-103806377D01*
X291305373Y-103471452D01*
X291590202Y-103186623D01*
X291925127Y-102962833D01*
X292079276Y-102898983D01*
X292297276Y-102808684D01*
X292692344Y-102730100D01*
X293095156Y-102730100D01*
X293490224Y-102808684D01*
G37*
G36*
X312540224Y-102808684D02*
G01*
X312758224Y-102898983D01*
X312912373Y-102962833D01*
X313247298Y-103186623D01*
X313532127Y-103471452D01*
X313755917Y-103806377D01*
X313788312Y-103884586D01*
X313910066Y-104178526D01*
X313988650Y-104573594D01*
X313988650Y-104976406D01*
X313910066Y-105371474D01*
X313859201Y-105494272D01*
X313755917Y-105743623D01*
X313532127Y-106078548D01*
X313247298Y-106363377D01*
X312912373Y-106587167D01*
X312758224Y-106651017D01*
X312540224Y-106741316D01*
X312145156Y-106819900D01*
X311742344Y-106819900D01*
X311347276Y-106741316D01*
X311129276Y-106651017D01*
X310975127Y-106587167D01*
X310640202Y-106363377D01*
X310355373Y-106078548D01*
X310131583Y-105743623D01*
X310028299Y-105494272D01*
X309977434Y-105371474D01*
X309898850Y-104976406D01*
X309898850Y-104573594D01*
X309977434Y-104178526D01*
X310099188Y-103884586D01*
X310131583Y-103806377D01*
X310355373Y-103471452D01*
X310640202Y-103186623D01*
X310975127Y-102962833D01*
X311129276Y-102898983D01*
X311347276Y-102808684D01*
X311742344Y-102730100D01*
X312145156Y-102730100D01*
X312540224Y-102808684D01*
G37*
G36*
X154733854Y-103884585D02*
G01*
X154902376Y-103954389D01*
X155054041Y-104055728D01*
X155183022Y-104184709D01*
X155284361Y-104336374D01*
X155354165Y-104504896D01*
X155389750Y-104683797D01*
X155389750Y-104866203D01*
X155354165Y-105045104D01*
X155284361Y-105213626D01*
X155183022Y-105365291D01*
X155054041Y-105494272D01*
X154902376Y-105595611D01*
X154733854Y-105665415D01*
X154554953Y-105701000D01*
X154372547Y-105701000D01*
X154193646Y-105665415D01*
X154025124Y-105595611D01*
X153873459Y-105494272D01*
X153744478Y-105365291D01*
X153643139Y-105213626D01*
X153573335Y-105045104D01*
X153537750Y-104866203D01*
X153537750Y-104683797D01*
X153573335Y-104504896D01*
X153643139Y-104336374D01*
X153744478Y-104184709D01*
X153873459Y-104055728D01*
X154025124Y-103954389D01*
X154193646Y-103884585D01*
X154372547Y-103849000D01*
X154554953Y-103849000D01*
X154733854Y-103884585D01*
G37*
G36*
X83931354Y-103884585D02*
G01*
X84099876Y-103954389D01*
X84251541Y-104055728D01*
X84380522Y-104184709D01*
X84481861Y-104336374D01*
X84551665Y-104504896D01*
X84587250Y-104683797D01*
X84587250Y-104866203D01*
X84551665Y-105045104D01*
X84481861Y-105213626D01*
X84380522Y-105365291D01*
X84251541Y-105494272D01*
X84099876Y-105595611D01*
X83931354Y-105665415D01*
X83752453Y-105701000D01*
X83570047Y-105701000D01*
X83391146Y-105665415D01*
X83222624Y-105595611D01*
X83070959Y-105494272D01*
X82941978Y-105365291D01*
X82840639Y-105213626D01*
X82770835Y-105045104D01*
X82735250Y-104866203D01*
X82735250Y-104683797D01*
X82770835Y-104504896D01*
X82840639Y-104336374D01*
X82941978Y-104184709D01*
X83070959Y-104055728D01*
X83222624Y-103954389D01*
X83391146Y-103884585D01*
X83570047Y-103849000D01*
X83752453Y-103849000D01*
X83931354Y-103884585D01*
G37*
G36*
X73771354Y-103884585D02*
G01*
X73939876Y-103954389D01*
X74091541Y-104055728D01*
X74220522Y-104184709D01*
X74321861Y-104336374D01*
X74391665Y-104504896D01*
X74427250Y-104683797D01*
X74427250Y-104866203D01*
X74391665Y-105045104D01*
X74321861Y-105213626D01*
X74220522Y-105365291D01*
X74091541Y-105494272D01*
X73939876Y-105595611D01*
X73771354Y-105665415D01*
X73592453Y-105701000D01*
X73410047Y-105701000D01*
X73231146Y-105665415D01*
X73062624Y-105595611D01*
X72910959Y-105494272D01*
X72781978Y-105365291D01*
X72680639Y-105213626D01*
X72610835Y-105045104D01*
X72575250Y-104866203D01*
X72575250Y-104683797D01*
X72610835Y-104504896D01*
X72680639Y-104336374D01*
X72781978Y-104184709D01*
X72910959Y-104055728D01*
X73062624Y-103954389D01*
X73231146Y-103884585D01*
X73410047Y-103849000D01*
X73592453Y-103849000D01*
X73771354Y-103884585D01*
G37*
G36*
X36306354Y-103884585D02*
G01*
X36474876Y-103954389D01*
X36626541Y-104055728D01*
X36755522Y-104184709D01*
X36856861Y-104336374D01*
X36926665Y-104504896D01*
X36962250Y-104683797D01*
X36962250Y-104866203D01*
X36926665Y-105045104D01*
X36856861Y-105213626D01*
X36755522Y-105365291D01*
X36626541Y-105494272D01*
X36474876Y-105595611D01*
X36306354Y-105665415D01*
X36127453Y-105701000D01*
X35945047Y-105701000D01*
X35766146Y-105665415D01*
X35597624Y-105595611D01*
X35445959Y-105494272D01*
X35316978Y-105365291D01*
X35215639Y-105213626D01*
X35145835Y-105045104D01*
X35110250Y-104866203D01*
X35110250Y-104683797D01*
X35145835Y-104504896D01*
X35215639Y-104336374D01*
X35316978Y-104184709D01*
X35445959Y-104055728D01*
X35597624Y-103954389D01*
X35766146Y-103884585D01*
X35945047Y-103849000D01*
X36127453Y-103849000D01*
X36306354Y-103884585D01*
G37*
G36*
X26146354Y-103884585D02*
G01*
X26314876Y-103954389D01*
X26466541Y-104055728D01*
X26595522Y-104184709D01*
X26696861Y-104336374D01*
X26766665Y-104504896D01*
X26802250Y-104683797D01*
X26802250Y-104866203D01*
X26766665Y-105045104D01*
X26696861Y-105213626D01*
X26595522Y-105365291D01*
X26466541Y-105494272D01*
X26314876Y-105595611D01*
X26146354Y-105665415D01*
X25967453Y-105701000D01*
X25785047Y-105701000D01*
X25606146Y-105665415D01*
X25437624Y-105595611D01*
X25285959Y-105494272D01*
X25156978Y-105365291D01*
X25055639Y-105213626D01*
X24985835Y-105045104D01*
X24950250Y-104866203D01*
X24950250Y-104683797D01*
X24985835Y-104504896D01*
X25055639Y-104336374D01*
X25156978Y-104184709D01*
X25285959Y-104055728D01*
X25437624Y-103954389D01*
X25606146Y-103884585D01*
X25785047Y-103849000D01*
X25967453Y-103849000D01*
X26146354Y-103884585D01*
G37*
G36*
X164893854Y-103884585D02*
G01*
X165062376Y-103954389D01*
X165214041Y-104055728D01*
X165343022Y-104184709D01*
X165444361Y-104336374D01*
X165514165Y-104504896D01*
X165549750Y-104683797D01*
X165549750Y-104866203D01*
X165514165Y-105045104D01*
X165444361Y-105213626D01*
X165343022Y-105365291D01*
X165214041Y-105494272D01*
X165062376Y-105595611D01*
X164893854Y-105665415D01*
X164714953Y-105701000D01*
X164532547Y-105701000D01*
X164353646Y-105665415D01*
X164185124Y-105595611D01*
X164033459Y-105494272D01*
X163904478Y-105365291D01*
X163803139Y-105213626D01*
X163733335Y-105045104D01*
X163697750Y-104866203D01*
X163697750Y-104683797D01*
X163733335Y-104504896D01*
X163803139Y-104336374D01*
X163904478Y-104184709D01*
X164033459Y-104055728D01*
X164185124Y-103954389D01*
X164353646Y-103884585D01*
X164532547Y-103849000D01*
X164714953Y-103849000D01*
X164893854Y-103884585D01*
G37*
G36*
X235696354Y-103884585D02*
G01*
X235864876Y-103954389D01*
X236016541Y-104055728D01*
X236145522Y-104184709D01*
X236246861Y-104336374D01*
X236316665Y-104504896D01*
X236352250Y-104683797D01*
X236352250Y-104866203D01*
X236316665Y-105045104D01*
X236246861Y-105213626D01*
X236145522Y-105365291D01*
X236016541Y-105494272D01*
X235864876Y-105595611D01*
X235696354Y-105665415D01*
X235517453Y-105701000D01*
X235335047Y-105701000D01*
X235156146Y-105665415D01*
X234987624Y-105595611D01*
X234835959Y-105494272D01*
X234706978Y-105365291D01*
X234605639Y-105213626D01*
X234535835Y-105045104D01*
X234500250Y-104866203D01*
X234500250Y-104683797D01*
X234535835Y-104504896D01*
X234605639Y-104336374D01*
X234706978Y-104184709D01*
X234835959Y-104055728D01*
X234987624Y-103954389D01*
X235156146Y-103884585D01*
X235335047Y-103849000D01*
X235517453Y-103849000D01*
X235696354Y-103884585D01*
G37*
G36*
X245856354Y-103884585D02*
G01*
X246024876Y-103954389D01*
X246176541Y-104055728D01*
X246305522Y-104184709D01*
X246406861Y-104336374D01*
X246476665Y-104504896D01*
X246512250Y-104683797D01*
X246512250Y-104866203D01*
X246476665Y-105045104D01*
X246406861Y-105213626D01*
X246305522Y-105365291D01*
X246176541Y-105494272D01*
X246024876Y-105595611D01*
X245856354Y-105665415D01*
X245677453Y-105701000D01*
X245495047Y-105701000D01*
X245316146Y-105665415D01*
X245147624Y-105595611D01*
X244995959Y-105494272D01*
X244866978Y-105365291D01*
X244765639Y-105213626D01*
X244695835Y-105045104D01*
X244660250Y-104866203D01*
X244660250Y-104683797D01*
X244695835Y-104504896D01*
X244765639Y-104336374D01*
X244866978Y-104184709D01*
X244995959Y-104055728D01*
X245147624Y-103954389D01*
X245316146Y-103884585D01*
X245495047Y-103849000D01*
X245677453Y-103849000D01*
X245856354Y-103884585D01*
G37*
G36*
X269033854Y-103884585D02*
G01*
X269202376Y-103954389D01*
X269354041Y-104055728D01*
X269483022Y-104184709D01*
X269584361Y-104336374D01*
X269654165Y-104504896D01*
X269689750Y-104683797D01*
X269689750Y-104866203D01*
X269654165Y-105045104D01*
X269584361Y-105213626D01*
X269483022Y-105365291D01*
X269354041Y-105494272D01*
X269202376Y-105595611D01*
X269033854Y-105665415D01*
X268854953Y-105701000D01*
X268672547Y-105701000D01*
X268493646Y-105665415D01*
X268325124Y-105595611D01*
X268173459Y-105494272D01*
X268044478Y-105365291D01*
X267943139Y-105213626D01*
X267873335Y-105045104D01*
X267837750Y-104866203D01*
X267837750Y-104683797D01*
X267873335Y-104504896D01*
X267943139Y-104336374D01*
X268044478Y-104184709D01*
X268173459Y-104055728D01*
X268325124Y-103954389D01*
X268493646Y-103884585D01*
X268672547Y-103849000D01*
X268854953Y-103849000D01*
X269033854Y-103884585D01*
G37*
G36*
X279193854Y-103884585D02*
G01*
X279362376Y-103954389D01*
X279514041Y-104055728D01*
X279643022Y-104184709D01*
X279744361Y-104336374D01*
X279814165Y-104504896D01*
X279849750Y-104683797D01*
X279849750Y-104866203D01*
X279814165Y-105045104D01*
X279744361Y-105213626D01*
X279643022Y-105365291D01*
X279514041Y-105494272D01*
X279362376Y-105595611D01*
X279193854Y-105665415D01*
X279014953Y-105701000D01*
X278832547Y-105701000D01*
X278653646Y-105665415D01*
X278485124Y-105595611D01*
X278333459Y-105494272D01*
X278204478Y-105365291D01*
X278103139Y-105213626D01*
X278033335Y-105045104D01*
X277997750Y-104866203D01*
X277997750Y-104683797D01*
X278033335Y-104504896D01*
X278103139Y-104336374D01*
X278204478Y-104184709D01*
X278333459Y-104055728D01*
X278485124Y-103954389D01*
X278653646Y-103884585D01*
X278832547Y-103849000D01*
X279014953Y-103849000D01*
X279193854Y-103884585D01*
G37*
G36*
X307133854Y-103884585D02*
G01*
X307302376Y-103954389D01*
X307454041Y-104055728D01*
X307583022Y-104184709D01*
X307684361Y-104336374D01*
X307754165Y-104504896D01*
X307789750Y-104683797D01*
X307789750Y-104866203D01*
X307754165Y-105045104D01*
X307684361Y-105213626D01*
X307583022Y-105365291D01*
X307454041Y-105494272D01*
X307302376Y-105595611D01*
X307133854Y-105665415D01*
X306954953Y-105701000D01*
X306772547Y-105701000D01*
X306593646Y-105665415D01*
X306425124Y-105595611D01*
X306273459Y-105494272D01*
X306144478Y-105365291D01*
X306043139Y-105213626D01*
X305973335Y-105045104D01*
X305937750Y-104866203D01*
X305937750Y-104683797D01*
X305973335Y-104504896D01*
X306043139Y-104336374D01*
X306144478Y-104184709D01*
X306273459Y-104055728D01*
X306425124Y-103954389D01*
X306593646Y-103884585D01*
X306772547Y-103849000D01*
X306954953Y-103849000D01*
X307133854Y-103884585D01*
G37*
G36*
X317293854Y-103884585D02*
G01*
X317462376Y-103954389D01*
X317614041Y-104055728D01*
X317743022Y-104184709D01*
X317844361Y-104336374D01*
X317914165Y-104504896D01*
X317949750Y-104683797D01*
X317949750Y-104866203D01*
X317914165Y-105045104D01*
X317844361Y-105213626D01*
X317743022Y-105365291D01*
X317614041Y-105494272D01*
X317462376Y-105595611D01*
X317293854Y-105665415D01*
X317114953Y-105701000D01*
X316932547Y-105701000D01*
X316753646Y-105665415D01*
X316585124Y-105595611D01*
X316433459Y-105494272D01*
X316304478Y-105365291D01*
X316203139Y-105213626D01*
X316133335Y-105045104D01*
X316097750Y-104866203D01*
X316097750Y-104683797D01*
X316133335Y-104504896D01*
X316203139Y-104336374D01*
X316304478Y-104184709D01*
X316433459Y-104055728D01*
X316585124Y-103954389D01*
X316753646Y-103884585D01*
X316932547Y-103849000D01*
X317114953Y-103849000D01*
X317293854Y-103884585D01*
G37*
G36*
X288083854Y-103884585D02*
G01*
X288252376Y-103954389D01*
X288404041Y-104055728D01*
X288533022Y-104184709D01*
X288634361Y-104336374D01*
X288704165Y-104504896D01*
X288739750Y-104683797D01*
X288739750Y-104866203D01*
X288704165Y-105045104D01*
X288634361Y-105213626D01*
X288533022Y-105365291D01*
X288404041Y-105494272D01*
X288252376Y-105595611D01*
X288083854Y-105665415D01*
X287904953Y-105701000D01*
X287722547Y-105701000D01*
X287543646Y-105665415D01*
X287375124Y-105595611D01*
X287223459Y-105494272D01*
X287094478Y-105365291D01*
X286993139Y-105213626D01*
X286923335Y-105045104D01*
X286887750Y-104866203D01*
X286887750Y-104683797D01*
X286923335Y-104504896D01*
X286993139Y-104336374D01*
X287094478Y-104184709D01*
X287223459Y-104055728D01*
X287375124Y-103954389D01*
X287543646Y-103884585D01*
X287722547Y-103849000D01*
X287904953Y-103849000D01*
X288083854Y-103884585D01*
G37*
G36*
X298243854Y-103884585D02*
G01*
X298412376Y-103954389D01*
X298564041Y-104055728D01*
X298693022Y-104184709D01*
X298794361Y-104336374D01*
X298864165Y-104504896D01*
X298899750Y-104683797D01*
X298899750Y-104866203D01*
X298864165Y-105045104D01*
X298794361Y-105213626D01*
X298693022Y-105365291D01*
X298564041Y-105494272D01*
X298412376Y-105595611D01*
X298243854Y-105665415D01*
X298064953Y-105701000D01*
X297882547Y-105701000D01*
X297703646Y-105665415D01*
X297535124Y-105595611D01*
X297383459Y-105494272D01*
X297254478Y-105365291D01*
X297153139Y-105213626D01*
X297083335Y-105045104D01*
X297047750Y-104866203D01*
X297047750Y-104683797D01*
X297083335Y-104504896D01*
X297153139Y-104336374D01*
X297254478Y-104184709D01*
X297383459Y-104055728D01*
X297535124Y-103954389D01*
X297703646Y-103884585D01*
X297882547Y-103849000D01*
X298064953Y-103849000D01*
X298243854Y-103884585D01*
G37*
G36*
X173087512Y-101211927D02*
G01*
X173236812Y-101241624D01*
X173400784Y-101309544D01*
X173548354Y-101408147D01*
X173673853Y-101533646D01*
X173772456Y-101681216D01*
X173840376Y-101845188D01*
X173875000Y-102019259D01*
X173875000Y-102196741D01*
X173840376Y-102370812D01*
X173772456Y-102534784D01*
X173673853Y-102682354D01*
X173548354Y-102807853D01*
X173400784Y-102906456D01*
X173236812Y-102974376D01*
X173087512Y-103004073D01*
X173062742Y-103009000D01*
X172885258Y-103009000D01*
X172860488Y-103004073D01*
X172711188Y-102974376D01*
X172547216Y-102906456D01*
X172399646Y-102807853D01*
X172274147Y-102682354D01*
X172175544Y-102534784D01*
X172107624Y-102370812D01*
X172073000Y-102196741D01*
X172073000Y-102019259D01*
X172107624Y-101845188D01*
X172175544Y-101681216D01*
X172274147Y-101533646D01*
X172399646Y-101408147D01*
X172547216Y-101309544D01*
X172711188Y-101241624D01*
X172860488Y-101211927D01*
X172885258Y-101207000D01*
X173062742Y-101207000D01*
X173087512Y-101211927D01*
G37*
G36*
X131431512Y-100195927D02*
G01*
X131580812Y-100225624D01*
X131744784Y-100293544D01*
X131892354Y-100392147D01*
X132017853Y-100517646D01*
X132116456Y-100665216D01*
X132184376Y-100829188D01*
X132219000Y-101003259D01*
X132219000Y-101180741D01*
X132184376Y-101354812D01*
X132116456Y-101518784D01*
X132017853Y-101666354D01*
X131892354Y-101791853D01*
X131744784Y-101890456D01*
X131580812Y-101958376D01*
X131431512Y-101988073D01*
X131406742Y-101993000D01*
X131229258Y-101993000D01*
X131204488Y-101988073D01*
X131055188Y-101958376D01*
X130891216Y-101890456D01*
X130743646Y-101791853D01*
X130618147Y-101666354D01*
X130519544Y-101518784D01*
X130451624Y-101354812D01*
X130417000Y-101180741D01*
X130417000Y-101003259D01*
X130451624Y-100829188D01*
X130519544Y-100665216D01*
X130618147Y-100517646D01*
X130743646Y-100392147D01*
X130891216Y-100293544D01*
X131055188Y-100225624D01*
X131204488Y-100195927D01*
X131229258Y-100191000D01*
X131406742Y-100191000D01*
X131431512Y-100195927D01*
G37*
G36*
X128891512Y-100195927D02*
G01*
X129040812Y-100225624D01*
X129204784Y-100293544D01*
X129352354Y-100392147D01*
X129477853Y-100517646D01*
X129576456Y-100665216D01*
X129644376Y-100829188D01*
X129679000Y-101003259D01*
X129679000Y-101180741D01*
X129644376Y-101354812D01*
X129576456Y-101518784D01*
X129477853Y-101666354D01*
X129352354Y-101791853D01*
X129204784Y-101890456D01*
X129040812Y-101958376D01*
X128891512Y-101988073D01*
X128866742Y-101993000D01*
X128689258Y-101993000D01*
X128664488Y-101988073D01*
X128515188Y-101958376D01*
X128351216Y-101890456D01*
X128203646Y-101791853D01*
X128078147Y-101666354D01*
X127979544Y-101518784D01*
X127911624Y-101354812D01*
X127877000Y-101180741D01*
X127877000Y-101003259D01*
X127911624Y-100829188D01*
X127979544Y-100665216D01*
X128078147Y-100517646D01*
X128203646Y-100392147D01*
X128351216Y-100293544D01*
X128515188Y-100225624D01*
X128664488Y-100195927D01*
X128689258Y-100191000D01*
X128866742Y-100191000D01*
X128891512Y-100195927D01*
G37*
G36*
X126351512Y-100195927D02*
G01*
X126500812Y-100225624D01*
X126664784Y-100293544D01*
X126812354Y-100392147D01*
X126937853Y-100517646D01*
X127036456Y-100665216D01*
X127104376Y-100829188D01*
X127139000Y-101003259D01*
X127139000Y-101180741D01*
X127104376Y-101354812D01*
X127036456Y-101518784D01*
X126937853Y-101666354D01*
X126812354Y-101791853D01*
X126664784Y-101890456D01*
X126500812Y-101958376D01*
X126351512Y-101988073D01*
X126326742Y-101993000D01*
X126149258Y-101993000D01*
X126124488Y-101988073D01*
X125975188Y-101958376D01*
X125811216Y-101890456D01*
X125663646Y-101791853D01*
X125538147Y-101666354D01*
X125439544Y-101518784D01*
X125371624Y-101354812D01*
X125337000Y-101180741D01*
X125337000Y-101003259D01*
X125371624Y-100829188D01*
X125439544Y-100665216D01*
X125538147Y-100517646D01*
X125663646Y-100392147D01*
X125811216Y-100293544D01*
X125975188Y-100225624D01*
X126124488Y-100195927D01*
X126149258Y-100191000D01*
X126326742Y-100191000D01*
X126351512Y-100195927D01*
G37*
G36*
X173875000Y-100469000D02*
G01*
X172073000Y-100469000D01*
X172073000Y-98667000D01*
X173875000Y-98667000D01*
X173875000Y-100469000D01*
G37*
G36*
X132219000Y-99453000D02*
G01*
X130417000Y-99453000D01*
X130417000Y-97651000D01*
X132219000Y-97651000D01*
X132219000Y-99453000D01*
G37*
G36*
X128891512Y-97655927D02*
G01*
X129040812Y-97685624D01*
X129204784Y-97753544D01*
X129352354Y-97852147D01*
X129477853Y-97977646D01*
X129576456Y-98125216D01*
X129644376Y-98289188D01*
X129679000Y-98463259D01*
X129679000Y-98640741D01*
X129644376Y-98814812D01*
X129576456Y-98978784D01*
X129477853Y-99126354D01*
X129352354Y-99251853D01*
X129204784Y-99350456D01*
X129040812Y-99418376D01*
X128891512Y-99448073D01*
X128866742Y-99453000D01*
X128689258Y-99453000D01*
X128664488Y-99448073D01*
X128515188Y-99418376D01*
X128351216Y-99350456D01*
X128203646Y-99251853D01*
X128078147Y-99126354D01*
X127979544Y-98978784D01*
X127911624Y-98814812D01*
X127877000Y-98640741D01*
X127877000Y-98463259D01*
X127911624Y-98289188D01*
X127979544Y-98125216D01*
X128078147Y-97977646D01*
X128203646Y-97852147D01*
X128351216Y-97753544D01*
X128515188Y-97685624D01*
X128664488Y-97655927D01*
X128689258Y-97651000D01*
X128866742Y-97651000D01*
X128891512Y-97655927D01*
G37*
G36*
X126351512Y-97655927D02*
G01*
X126500812Y-97685624D01*
X126664784Y-97753544D01*
X126812354Y-97852147D01*
X126937853Y-97977646D01*
X127036456Y-98125216D01*
X127104376Y-98289188D01*
X127139000Y-98463259D01*
X127139000Y-98640741D01*
X127104376Y-98814812D01*
X127036456Y-98978784D01*
X126937853Y-99126354D01*
X126812354Y-99251853D01*
X126664784Y-99350456D01*
X126500812Y-99418376D01*
X126351512Y-99448073D01*
X126326742Y-99453000D01*
X126149258Y-99453000D01*
X126124488Y-99448073D01*
X125975188Y-99418376D01*
X125811216Y-99350456D01*
X125663646Y-99251853D01*
X125538147Y-99126354D01*
X125439544Y-98978784D01*
X125371624Y-98814812D01*
X125337000Y-98640741D01*
X125337000Y-98463259D01*
X125371624Y-98289188D01*
X125439544Y-98125216D01*
X125538147Y-97977646D01*
X125663646Y-97852147D01*
X125811216Y-97753544D01*
X125975188Y-97685624D01*
X126124488Y-97655927D01*
X126149258Y-97651000D01*
X126326742Y-97651000D01*
X126351512Y-97655927D01*
G37*
G36*
X102990224Y-94553684D02*
G01*
X103208224Y-94643983D01*
X103362373Y-94707833D01*
X103697298Y-94931623D01*
X103982127Y-95216452D01*
X104205917Y-95551377D01*
X104269767Y-95705526D01*
X104360066Y-95923526D01*
X104438650Y-96318594D01*
X104438650Y-96721406D01*
X104360066Y-97116474D01*
X104269767Y-97334474D01*
X104205917Y-97488623D01*
X103982127Y-97823548D01*
X103697298Y-98108377D01*
X103362373Y-98332167D01*
X103208224Y-98396017D01*
X102990224Y-98486316D01*
X102595156Y-98564900D01*
X102192344Y-98564900D01*
X101797276Y-98486316D01*
X101579276Y-98396017D01*
X101425127Y-98332167D01*
X101090202Y-98108377D01*
X100805373Y-97823548D01*
X100581583Y-97488623D01*
X100517733Y-97334474D01*
X100427434Y-97116474D01*
X100348850Y-96721406D01*
X100348850Y-96318594D01*
X100427434Y-95923526D01*
X100517733Y-95705526D01*
X100581583Y-95551377D01*
X100805373Y-95216452D01*
X101090202Y-94931623D01*
X101425127Y-94707833D01*
X101579276Y-94643983D01*
X101797276Y-94553684D01*
X102192344Y-94475100D01*
X102595156Y-94475100D01*
X102990224Y-94553684D01*
G37*
G36*
X217290224Y-94553684D02*
G01*
X217508224Y-94643983D01*
X217662373Y-94707833D01*
X217997298Y-94931623D01*
X218282127Y-95216452D01*
X218505917Y-95551377D01*
X218569767Y-95705526D01*
X218660066Y-95923526D01*
X218738650Y-96318594D01*
X218738650Y-96721406D01*
X218660066Y-97116474D01*
X218569767Y-97334474D01*
X218505917Y-97488623D01*
X218282127Y-97823548D01*
X217997298Y-98108377D01*
X217662373Y-98332167D01*
X217508224Y-98396017D01*
X217290224Y-98486316D01*
X216895156Y-98564900D01*
X216492344Y-98564900D01*
X216097276Y-98486316D01*
X215879276Y-98396017D01*
X215725127Y-98332167D01*
X215390202Y-98108377D01*
X215105373Y-97823548D01*
X214881583Y-97488623D01*
X214817733Y-97334474D01*
X214727434Y-97116474D01*
X214648850Y-96721406D01*
X214648850Y-96318594D01*
X214727434Y-95923526D01*
X214817733Y-95705526D01*
X214881583Y-95551377D01*
X215105373Y-95216452D01*
X215390202Y-94931623D01*
X215725127Y-94707833D01*
X215879276Y-94643983D01*
X216097276Y-94553684D01*
X216492344Y-94475100D01*
X216895156Y-94475100D01*
X217290224Y-94553684D01*
G37*
G36*
X50602724Y-92013684D02*
G01*
X50820724Y-92103983D01*
X50974873Y-92167833D01*
X51309798Y-92391623D01*
X51594627Y-92676452D01*
X51818417Y-93011377D01*
X51818417Y-93011378D01*
X51972566Y-93383526D01*
X52051150Y-93778594D01*
X52051150Y-94181406D01*
X51972566Y-94576474D01*
X51918155Y-94707833D01*
X51818417Y-94948623D01*
X51594627Y-95283548D01*
X51309798Y-95568377D01*
X50974873Y-95792167D01*
X50820724Y-95856017D01*
X50602724Y-95946316D01*
X50207656Y-96024900D01*
X49804844Y-96024900D01*
X49409776Y-95946316D01*
X49191776Y-95856017D01*
X49037627Y-95792167D01*
X48702702Y-95568377D01*
X48417873Y-95283548D01*
X48194083Y-94948623D01*
X48094345Y-94707833D01*
X48039934Y-94576474D01*
X47961350Y-94181406D01*
X47961350Y-93778594D01*
X48039934Y-93383526D01*
X48194083Y-93011378D01*
X48194083Y-93011377D01*
X48417873Y-92676452D01*
X48702702Y-92391623D01*
X49037627Y-92167833D01*
X49191776Y-92103983D01*
X49409776Y-92013684D01*
X49804844Y-91935100D01*
X50207656Y-91935100D01*
X50602724Y-92013684D01*
G37*
G36*
X26790224Y-92013684D02*
G01*
X27008224Y-92103983D01*
X27162373Y-92167833D01*
X27497298Y-92391623D01*
X27782127Y-92676452D01*
X28005917Y-93011377D01*
X28005917Y-93011378D01*
X28160066Y-93383526D01*
X28238650Y-93778594D01*
X28238650Y-94181406D01*
X28160066Y-94576474D01*
X28105655Y-94707833D01*
X28005917Y-94948623D01*
X27782127Y-95283548D01*
X27497298Y-95568377D01*
X27162373Y-95792167D01*
X27008224Y-95856017D01*
X26790224Y-95946316D01*
X26395156Y-96024900D01*
X25992344Y-96024900D01*
X25597276Y-95946316D01*
X25379276Y-95856017D01*
X25225127Y-95792167D01*
X24890202Y-95568377D01*
X24605373Y-95283548D01*
X24381583Y-94948623D01*
X24281845Y-94707833D01*
X24227434Y-94576474D01*
X24148850Y-94181406D01*
X24148850Y-93778594D01*
X24227434Y-93383526D01*
X24381583Y-93011378D01*
X24381583Y-93011377D01*
X24605373Y-92676452D01*
X24890202Y-92391623D01*
X25225127Y-92167833D01*
X25379276Y-92103983D01*
X25597276Y-92013684D01*
X25992344Y-91935100D01*
X26395156Y-91935100D01*
X26790224Y-92013684D01*
G37*
G36*
X293490224Y-83758684D02*
G01*
X293708224Y-83848983D01*
X293862373Y-83912833D01*
X294197298Y-84136623D01*
X294482127Y-84421452D01*
X294705917Y-84756377D01*
X294738312Y-84834586D01*
X294860066Y-85128526D01*
X294938650Y-85523594D01*
X294938650Y-85926406D01*
X294860066Y-86321474D01*
X294809201Y-86444272D01*
X294705917Y-86693623D01*
X294482127Y-87028548D01*
X294197298Y-87313377D01*
X293862373Y-87537167D01*
X293708224Y-87601017D01*
X293490224Y-87691316D01*
X293095156Y-87769900D01*
X292692344Y-87769900D01*
X292297276Y-87691316D01*
X292079276Y-87601017D01*
X291925127Y-87537167D01*
X291590202Y-87313377D01*
X291305373Y-87028548D01*
X291081583Y-86693623D01*
X290978299Y-86444272D01*
X290927434Y-86321474D01*
X290848850Y-85926406D01*
X290848850Y-85523594D01*
X290927434Y-85128526D01*
X291049188Y-84834586D01*
X291081583Y-84756377D01*
X291305373Y-84421452D01*
X291590202Y-84136623D01*
X291925127Y-83912833D01*
X292079276Y-83848983D01*
X292297276Y-83758684D01*
X292692344Y-83680100D01*
X293095156Y-83680100D01*
X293490224Y-83758684D01*
G37*
G36*
X88702724Y-83758684D02*
G01*
X88920724Y-83848983D01*
X89074873Y-83912833D01*
X89409798Y-84136623D01*
X89694627Y-84421452D01*
X89918417Y-84756377D01*
X89950812Y-84834586D01*
X90072566Y-85128526D01*
X90151150Y-85523594D01*
X90151150Y-85926406D01*
X90072566Y-86321474D01*
X90021701Y-86444272D01*
X89918417Y-86693623D01*
X89694627Y-87028548D01*
X89409798Y-87313377D01*
X89074873Y-87537167D01*
X88920724Y-87601017D01*
X88702724Y-87691316D01*
X88307656Y-87769900D01*
X87904844Y-87769900D01*
X87509776Y-87691316D01*
X87291776Y-87601017D01*
X87137627Y-87537167D01*
X86802702Y-87313377D01*
X86517873Y-87028548D01*
X86294083Y-86693623D01*
X86190799Y-86444272D01*
X86139934Y-86321474D01*
X86061350Y-85926406D01*
X86061350Y-85523594D01*
X86139934Y-85128526D01*
X86261688Y-84834586D01*
X86294083Y-84756377D01*
X86517873Y-84421452D01*
X86802702Y-84136623D01*
X87137627Y-83912833D01*
X87291776Y-83848983D01*
X87509776Y-83758684D01*
X87904844Y-83680100D01*
X88307656Y-83680100D01*
X88702724Y-83758684D01*
G37*
G36*
X267296474Y-83758684D02*
G01*
X267514474Y-83848983D01*
X267668623Y-83912833D01*
X268003548Y-84136623D01*
X268288377Y-84421452D01*
X268512167Y-84756377D01*
X268544562Y-84834586D01*
X268666316Y-85128526D01*
X268744900Y-85523594D01*
X268744900Y-85926406D01*
X268666316Y-86321474D01*
X268615451Y-86444272D01*
X268512167Y-86693623D01*
X268288377Y-87028548D01*
X268003548Y-87313377D01*
X267668623Y-87537167D01*
X267514474Y-87601017D01*
X267296474Y-87691316D01*
X266901406Y-87769900D01*
X266498594Y-87769900D01*
X266103526Y-87691316D01*
X265885526Y-87601017D01*
X265731377Y-87537167D01*
X265396452Y-87313377D01*
X265111623Y-87028548D01*
X264887833Y-86693623D01*
X264784549Y-86444272D01*
X264733684Y-86321474D01*
X264655100Y-85926406D01*
X264655100Y-85523594D01*
X264733684Y-85128526D01*
X264855438Y-84834586D01*
X264887833Y-84756377D01*
X265111623Y-84421452D01*
X265396452Y-84136623D01*
X265731377Y-83912833D01*
X265885526Y-83848983D01*
X266103526Y-83758684D01*
X266498594Y-83680100D01*
X266901406Y-83680100D01*
X267296474Y-83758684D01*
G37*
G36*
X312540224Y-83758684D02*
G01*
X312758224Y-83848983D01*
X312912373Y-83912833D01*
X313247298Y-84136623D01*
X313532127Y-84421452D01*
X313755917Y-84756377D01*
X313788312Y-84834586D01*
X313910066Y-85128526D01*
X313988650Y-85523594D01*
X313988650Y-85926406D01*
X313910066Y-86321474D01*
X313859201Y-86444272D01*
X313755917Y-86693623D01*
X313532127Y-87028548D01*
X313247298Y-87313377D01*
X312912373Y-87537167D01*
X312758224Y-87601017D01*
X312540224Y-87691316D01*
X312145156Y-87769900D01*
X311742344Y-87769900D01*
X311347276Y-87691316D01*
X311129276Y-87601017D01*
X310975127Y-87537167D01*
X310640202Y-87313377D01*
X310355373Y-87028548D01*
X310131583Y-86693623D01*
X310028299Y-86444272D01*
X309977434Y-86321474D01*
X309898850Y-85926406D01*
X309898850Y-85523594D01*
X309977434Y-85128526D01*
X310099188Y-84834586D01*
X310131583Y-84756377D01*
X310355373Y-84421452D01*
X310640202Y-84136623D01*
X310975127Y-83912833D01*
X311129276Y-83848983D01*
X311347276Y-83758684D01*
X311742344Y-83680100D01*
X312145156Y-83680100D01*
X312540224Y-83758684D01*
G37*
G36*
X241102724Y-83758684D02*
G01*
X241320724Y-83848983D01*
X241474873Y-83912833D01*
X241809798Y-84136623D01*
X242094627Y-84421452D01*
X242318417Y-84756377D01*
X242350812Y-84834586D01*
X242472566Y-85128526D01*
X242551150Y-85523594D01*
X242551150Y-85926406D01*
X242472566Y-86321474D01*
X242421701Y-86444272D01*
X242318417Y-86693623D01*
X242094627Y-87028548D01*
X241809798Y-87313377D01*
X241474873Y-87537167D01*
X241320724Y-87601017D01*
X241102724Y-87691316D01*
X240707656Y-87769900D01*
X240304844Y-87769900D01*
X239909776Y-87691316D01*
X239691776Y-87601017D01*
X239537627Y-87537167D01*
X239202702Y-87313377D01*
X238917873Y-87028548D01*
X238694083Y-86693623D01*
X238590799Y-86444272D01*
X238539934Y-86321474D01*
X238461350Y-85926406D01*
X238461350Y-85523594D01*
X238539934Y-85128526D01*
X238661688Y-84834586D01*
X238694083Y-84756377D01*
X238917873Y-84421452D01*
X239202702Y-84136623D01*
X239537627Y-83912833D01*
X239691776Y-83848983D01*
X239909776Y-83758684D01*
X240304844Y-83680100D01*
X240707656Y-83680100D01*
X241102724Y-83758684D01*
G37*
G36*
X222052724Y-83758684D02*
G01*
X222270724Y-83848983D01*
X222424873Y-83912833D01*
X222759798Y-84136623D01*
X223044627Y-84421452D01*
X223268417Y-84756377D01*
X223300812Y-84834586D01*
X223422566Y-85128526D01*
X223501150Y-85523594D01*
X223501150Y-85926406D01*
X223422566Y-86321474D01*
X223371701Y-86444272D01*
X223268417Y-86693623D01*
X223044627Y-87028548D01*
X222759798Y-87313377D01*
X222424873Y-87537167D01*
X222270724Y-87601017D01*
X222052724Y-87691316D01*
X221657656Y-87769900D01*
X221254844Y-87769900D01*
X220859776Y-87691316D01*
X220641776Y-87601017D01*
X220487627Y-87537167D01*
X220152702Y-87313377D01*
X219867873Y-87028548D01*
X219644083Y-86693623D01*
X219540799Y-86444272D01*
X219489934Y-86321474D01*
X219411350Y-85926406D01*
X219411350Y-85523594D01*
X219489934Y-85128526D01*
X219611688Y-84834586D01*
X219644083Y-84756377D01*
X219867873Y-84421452D01*
X220152702Y-84136623D01*
X220487627Y-83912833D01*
X220641776Y-83848983D01*
X220859776Y-83758684D01*
X221254844Y-83680100D01*
X221657656Y-83680100D01*
X222052724Y-83758684D01*
G37*
G36*
X203002724Y-83758684D02*
G01*
X203220724Y-83848983D01*
X203374873Y-83912833D01*
X203709798Y-84136623D01*
X203994627Y-84421452D01*
X204218417Y-84756377D01*
X204250812Y-84834586D01*
X204372566Y-85128526D01*
X204451150Y-85523594D01*
X204451150Y-85926406D01*
X204372566Y-86321474D01*
X204321701Y-86444272D01*
X204218417Y-86693623D01*
X203994627Y-87028548D01*
X203709798Y-87313377D01*
X203374873Y-87537167D01*
X203220724Y-87601017D01*
X203002724Y-87691316D01*
X202607656Y-87769900D01*
X202204844Y-87769900D01*
X201809776Y-87691316D01*
X201591776Y-87601017D01*
X201437627Y-87537167D01*
X201102702Y-87313377D01*
X200817873Y-87028548D01*
X200594083Y-86693623D01*
X200490799Y-86444272D01*
X200439934Y-86321474D01*
X200361350Y-85926406D01*
X200361350Y-85523594D01*
X200439934Y-85128526D01*
X200561688Y-84834586D01*
X200594083Y-84756377D01*
X200817873Y-84421452D01*
X201102702Y-84136623D01*
X201437627Y-83912833D01*
X201591776Y-83848983D01*
X201809776Y-83758684D01*
X202204844Y-83680100D01*
X202607656Y-83680100D01*
X203002724Y-83758684D01*
G37*
G36*
X183952724Y-83758684D02*
G01*
X184170724Y-83848983D01*
X184324873Y-83912833D01*
X184659798Y-84136623D01*
X184944627Y-84421452D01*
X185168417Y-84756377D01*
X185200812Y-84834586D01*
X185322566Y-85128526D01*
X185401150Y-85523594D01*
X185401150Y-85926406D01*
X185322566Y-86321474D01*
X185271701Y-86444272D01*
X185168417Y-86693623D01*
X184944627Y-87028548D01*
X184659798Y-87313377D01*
X184324873Y-87537167D01*
X184170724Y-87601017D01*
X183952724Y-87691316D01*
X183557656Y-87769900D01*
X183154844Y-87769900D01*
X182759776Y-87691316D01*
X182541776Y-87601017D01*
X182387627Y-87537167D01*
X182052702Y-87313377D01*
X181767873Y-87028548D01*
X181544083Y-86693623D01*
X181440799Y-86444272D01*
X181389934Y-86321474D01*
X181311350Y-85926406D01*
X181311350Y-85523594D01*
X181389934Y-85128526D01*
X181511688Y-84834586D01*
X181544083Y-84756377D01*
X181767873Y-84421452D01*
X182052702Y-84136623D01*
X182387627Y-83912833D01*
X182541776Y-83848983D01*
X182759776Y-83758684D01*
X183154844Y-83680100D01*
X183557656Y-83680100D01*
X183952724Y-83758684D01*
G37*
G36*
X164902724Y-83758684D02*
G01*
X165120724Y-83848983D01*
X165274873Y-83912833D01*
X165609798Y-84136623D01*
X165894627Y-84421452D01*
X166118417Y-84756377D01*
X166150812Y-84834586D01*
X166272566Y-85128526D01*
X166351150Y-85523594D01*
X166351150Y-85926406D01*
X166272566Y-86321474D01*
X166221701Y-86444272D01*
X166118417Y-86693623D01*
X165894627Y-87028548D01*
X165609798Y-87313377D01*
X165274873Y-87537167D01*
X165120724Y-87601017D01*
X164902724Y-87691316D01*
X164507656Y-87769900D01*
X164104844Y-87769900D01*
X163709776Y-87691316D01*
X163491776Y-87601017D01*
X163337627Y-87537167D01*
X163002702Y-87313377D01*
X162717873Y-87028548D01*
X162494083Y-86693623D01*
X162390799Y-86444272D01*
X162339934Y-86321474D01*
X162261350Y-85926406D01*
X162261350Y-85523594D01*
X162339934Y-85128526D01*
X162461688Y-84834586D01*
X162494083Y-84756377D01*
X162717873Y-84421452D01*
X163002702Y-84136623D01*
X163337627Y-83912833D01*
X163491776Y-83848983D01*
X163709776Y-83758684D01*
X164104844Y-83680100D01*
X164507656Y-83680100D01*
X164902724Y-83758684D01*
G37*
G36*
X145852724Y-83758684D02*
G01*
X146070724Y-83848983D01*
X146224873Y-83912833D01*
X146559798Y-84136623D01*
X146844627Y-84421452D01*
X147068417Y-84756377D01*
X147100812Y-84834586D01*
X147222566Y-85128526D01*
X147301150Y-85523594D01*
X147301150Y-85926406D01*
X147222566Y-86321474D01*
X147171701Y-86444272D01*
X147068417Y-86693623D01*
X146844627Y-87028548D01*
X146559798Y-87313377D01*
X146224873Y-87537167D01*
X146070724Y-87601017D01*
X145852724Y-87691316D01*
X145457656Y-87769900D01*
X145054844Y-87769900D01*
X144659776Y-87691316D01*
X144441776Y-87601017D01*
X144287627Y-87537167D01*
X143952702Y-87313377D01*
X143667873Y-87028548D01*
X143444083Y-86693623D01*
X143340799Y-86444272D01*
X143289934Y-86321474D01*
X143211350Y-85926406D01*
X143211350Y-85523594D01*
X143289934Y-85128526D01*
X143411688Y-84834586D01*
X143444083Y-84756377D01*
X143667873Y-84421452D01*
X143952702Y-84136623D01*
X144287627Y-83912833D01*
X144441776Y-83848983D01*
X144659776Y-83758684D01*
X145054844Y-83680100D01*
X145457656Y-83680100D01*
X145852724Y-83758684D01*
G37*
G36*
X126802724Y-83758684D02*
G01*
X127020724Y-83848983D01*
X127174873Y-83912833D01*
X127509798Y-84136623D01*
X127794627Y-84421452D01*
X128018417Y-84756377D01*
X128050812Y-84834586D01*
X128172566Y-85128526D01*
X128251150Y-85523594D01*
X128251150Y-85926406D01*
X128172566Y-86321474D01*
X128121701Y-86444272D01*
X128018417Y-86693623D01*
X127794627Y-87028548D01*
X127509798Y-87313377D01*
X127174873Y-87537167D01*
X127020724Y-87601017D01*
X126802724Y-87691316D01*
X126407656Y-87769900D01*
X126004844Y-87769900D01*
X125609776Y-87691316D01*
X125391776Y-87601017D01*
X125237627Y-87537167D01*
X124902702Y-87313377D01*
X124617873Y-87028548D01*
X124394083Y-86693623D01*
X124290799Y-86444272D01*
X124239934Y-86321474D01*
X124161350Y-85926406D01*
X124161350Y-85523594D01*
X124239934Y-85128526D01*
X124361688Y-84834586D01*
X124394083Y-84756377D01*
X124617873Y-84421452D01*
X124902702Y-84136623D01*
X125237627Y-83912833D01*
X125391776Y-83848983D01*
X125609776Y-83758684D01*
X126004844Y-83680100D01*
X126407656Y-83680100D01*
X126802724Y-83758684D01*
G37*
G36*
X69652724Y-83758684D02*
G01*
X69870724Y-83848983D01*
X70024873Y-83912833D01*
X70359798Y-84136623D01*
X70644627Y-84421452D01*
X70868417Y-84756377D01*
X70900812Y-84834586D01*
X71022566Y-85128526D01*
X71101150Y-85523594D01*
X71101150Y-85926406D01*
X71022566Y-86321474D01*
X70971701Y-86444272D01*
X70868417Y-86693623D01*
X70644627Y-87028548D01*
X70359798Y-87313377D01*
X70024873Y-87537167D01*
X69870724Y-87601017D01*
X69652724Y-87691316D01*
X69257656Y-87769900D01*
X68854844Y-87769900D01*
X68459776Y-87691316D01*
X68241776Y-87601017D01*
X68087627Y-87537167D01*
X67752702Y-87313377D01*
X67467873Y-87028548D01*
X67244083Y-86693623D01*
X67140799Y-86444272D01*
X67089934Y-86321474D01*
X67011350Y-85926406D01*
X67011350Y-85523594D01*
X67089934Y-85128526D01*
X67211688Y-84834586D01*
X67244083Y-84756377D01*
X67467873Y-84421452D01*
X67752702Y-84136623D01*
X68087627Y-83912833D01*
X68241776Y-83848983D01*
X68459776Y-83758684D01*
X68854844Y-83680100D01*
X69257656Y-83680100D01*
X69652724Y-83758684D01*
G37*
G36*
X107752724Y-83758684D02*
G01*
X107970724Y-83848983D01*
X108124873Y-83912833D01*
X108459798Y-84136623D01*
X108744627Y-84421452D01*
X108968417Y-84756377D01*
X109000812Y-84834586D01*
X109122566Y-85128526D01*
X109201150Y-85523594D01*
X109201150Y-85926406D01*
X109122566Y-86321474D01*
X109071701Y-86444272D01*
X108968417Y-86693623D01*
X108744627Y-87028548D01*
X108459798Y-87313377D01*
X108124873Y-87537167D01*
X107970724Y-87601017D01*
X107752724Y-87691316D01*
X107357656Y-87769900D01*
X106954844Y-87769900D01*
X106559776Y-87691316D01*
X106341776Y-87601017D01*
X106187627Y-87537167D01*
X105852702Y-87313377D01*
X105567873Y-87028548D01*
X105344083Y-86693623D01*
X105240799Y-86444272D01*
X105189934Y-86321474D01*
X105111350Y-85926406D01*
X105111350Y-85523594D01*
X105189934Y-85128526D01*
X105311688Y-84834586D01*
X105344083Y-84756377D01*
X105567873Y-84421452D01*
X105852702Y-84136623D01*
X106187627Y-83912833D01*
X106341776Y-83848983D01*
X106559776Y-83758684D01*
X106954844Y-83680100D01*
X107357656Y-83680100D01*
X107752724Y-83758684D01*
G37*
G36*
X38696474Y-83758684D02*
G01*
X38914474Y-83848983D01*
X39068623Y-83912833D01*
X39403548Y-84136623D01*
X39688377Y-84421452D01*
X39912167Y-84756377D01*
X39944562Y-84834586D01*
X40066316Y-85128526D01*
X40144900Y-85523594D01*
X40144900Y-85926406D01*
X40066316Y-86321474D01*
X40015451Y-86444272D01*
X39912167Y-86693623D01*
X39688377Y-87028548D01*
X39403548Y-87313377D01*
X39068623Y-87537167D01*
X38914474Y-87601017D01*
X38696474Y-87691316D01*
X38301406Y-87769900D01*
X37898594Y-87769900D01*
X37503526Y-87691316D01*
X37285526Y-87601017D01*
X37131377Y-87537167D01*
X36796452Y-87313377D01*
X36511623Y-87028548D01*
X36287833Y-86693623D01*
X36184549Y-86444272D01*
X36133684Y-86321474D01*
X36055100Y-85926406D01*
X36055100Y-85523594D01*
X36133684Y-85128526D01*
X36255438Y-84834586D01*
X36287833Y-84756377D01*
X36511623Y-84421452D01*
X36796452Y-84136623D01*
X37131377Y-83912833D01*
X37285526Y-83848983D01*
X37503526Y-83758684D01*
X37898594Y-83680100D01*
X38301406Y-83680100D01*
X38696474Y-83758684D01*
G37*
G36*
X112506354Y-84834585D02*
G01*
X112674876Y-84904389D01*
X112826541Y-85005728D01*
X112955522Y-85134709D01*
X113056861Y-85286374D01*
X113126665Y-85454896D01*
X113162250Y-85633797D01*
X113162250Y-85816203D01*
X113126665Y-85995104D01*
X113056861Y-86163626D01*
X112955522Y-86315291D01*
X112826541Y-86444272D01*
X112674876Y-86545611D01*
X112506354Y-86615415D01*
X112327453Y-86651000D01*
X112145047Y-86651000D01*
X111966146Y-86615415D01*
X111797624Y-86545611D01*
X111645959Y-86444272D01*
X111516978Y-86315291D01*
X111415639Y-86163626D01*
X111345835Y-85995104D01*
X111310250Y-85816203D01*
X111310250Y-85633797D01*
X111345835Y-85454896D01*
X111415639Y-85286374D01*
X111516978Y-85134709D01*
X111645959Y-85005728D01*
X111797624Y-84904389D01*
X111966146Y-84834585D01*
X112145047Y-84799000D01*
X112327453Y-84799000D01*
X112506354Y-84834585D01*
G37*
G36*
X317293854Y-84834585D02*
G01*
X317462376Y-84904389D01*
X317614041Y-85005728D01*
X317743022Y-85134709D01*
X317844361Y-85286374D01*
X317914165Y-85454896D01*
X317949750Y-85633797D01*
X317949750Y-85816203D01*
X317914165Y-85995104D01*
X317844361Y-86163626D01*
X317743022Y-86315291D01*
X317614041Y-86444272D01*
X317462376Y-86545611D01*
X317293854Y-86615415D01*
X317114953Y-86651000D01*
X316932547Y-86651000D01*
X316753646Y-86615415D01*
X316585124Y-86545611D01*
X316433459Y-86444272D01*
X316304478Y-86315291D01*
X316203139Y-86163626D01*
X316133335Y-85995104D01*
X316097750Y-85816203D01*
X316097750Y-85633797D01*
X316133335Y-85454896D01*
X316203139Y-85286374D01*
X316304478Y-85134709D01*
X316433459Y-85005728D01*
X316585124Y-84904389D01*
X316753646Y-84834585D01*
X316932547Y-84799000D01*
X317114953Y-84799000D01*
X317293854Y-84834585D01*
G37*
G36*
X150606354Y-84834585D02*
G01*
X150774876Y-84904389D01*
X150926541Y-85005728D01*
X151055522Y-85134709D01*
X151156861Y-85286374D01*
X151226665Y-85454896D01*
X151262250Y-85633797D01*
X151262250Y-85816203D01*
X151226665Y-85995104D01*
X151156861Y-86163626D01*
X151055522Y-86315291D01*
X150926541Y-86444272D01*
X150774876Y-86545611D01*
X150606354Y-86615415D01*
X150427453Y-86651000D01*
X150245047Y-86651000D01*
X150066146Y-86615415D01*
X149897624Y-86545611D01*
X149745959Y-86444272D01*
X149616978Y-86315291D01*
X149515639Y-86163626D01*
X149445835Y-85995104D01*
X149410250Y-85816203D01*
X149410250Y-85633797D01*
X149445835Y-85454896D01*
X149515639Y-85286374D01*
X149616978Y-85134709D01*
X149745959Y-85005728D01*
X149897624Y-84904389D01*
X150066146Y-84834585D01*
X150245047Y-84799000D01*
X150427453Y-84799000D01*
X150606354Y-84834585D01*
G37*
G36*
X235696354Y-84834585D02*
G01*
X235864876Y-84904389D01*
X236016541Y-85005728D01*
X236145522Y-85134709D01*
X236246861Y-85286374D01*
X236316665Y-85454896D01*
X236352250Y-85633797D01*
X236352250Y-85816203D01*
X236316665Y-85995104D01*
X236246861Y-86163626D01*
X236145522Y-86315291D01*
X236016541Y-86444272D01*
X235864876Y-86545611D01*
X235696354Y-86615415D01*
X235517453Y-86651000D01*
X235335047Y-86651000D01*
X235156146Y-86615415D01*
X234987624Y-86545611D01*
X234835959Y-86444272D01*
X234706978Y-86315291D01*
X234605639Y-86163626D01*
X234535835Y-85995104D01*
X234500250Y-85816203D01*
X234500250Y-85633797D01*
X234535835Y-85454896D01*
X234605639Y-85286374D01*
X234706978Y-85134709D01*
X234835959Y-85005728D01*
X234987624Y-84904389D01*
X235156146Y-84834585D01*
X235335047Y-84799000D01*
X235517453Y-84799000D01*
X235696354Y-84834585D01*
G37*
G36*
X245856354Y-84834585D02*
G01*
X246024876Y-84904389D01*
X246176541Y-85005728D01*
X246305522Y-85134709D01*
X246406861Y-85286374D01*
X246476665Y-85454896D01*
X246512250Y-85633797D01*
X246512250Y-85816203D01*
X246476665Y-85995104D01*
X246406861Y-86163626D01*
X246305522Y-86315291D01*
X246176541Y-86444272D01*
X246024876Y-86545611D01*
X245856354Y-86615415D01*
X245677453Y-86651000D01*
X245495047Y-86651000D01*
X245316146Y-86615415D01*
X245147624Y-86545611D01*
X244995959Y-86444272D01*
X244866978Y-86315291D01*
X244765639Y-86163626D01*
X244695835Y-85995104D01*
X244660250Y-85816203D01*
X244660250Y-85633797D01*
X244695835Y-85454896D01*
X244765639Y-85286374D01*
X244866978Y-85134709D01*
X244995959Y-85005728D01*
X245147624Y-84904389D01*
X245316146Y-84834585D01*
X245495047Y-84799000D01*
X245677453Y-84799000D01*
X245856354Y-84834585D01*
G37*
G36*
X188706354Y-84834585D02*
G01*
X188874876Y-84904389D01*
X189026541Y-85005728D01*
X189155522Y-85134709D01*
X189256861Y-85286374D01*
X189326665Y-85454896D01*
X189362250Y-85633797D01*
X189362250Y-85816203D01*
X189326665Y-85995104D01*
X189256861Y-86163626D01*
X189155522Y-86315291D01*
X189026541Y-86444272D01*
X188874876Y-86545611D01*
X188706354Y-86615415D01*
X188527453Y-86651000D01*
X188345047Y-86651000D01*
X188166146Y-86615415D01*
X187997624Y-86545611D01*
X187845959Y-86444272D01*
X187716978Y-86315291D01*
X187615639Y-86163626D01*
X187545835Y-85995104D01*
X187510250Y-85816203D01*
X187510250Y-85633797D01*
X187545835Y-85454896D01*
X187615639Y-85286374D01*
X187716978Y-85134709D01*
X187845959Y-85005728D01*
X187997624Y-84904389D01*
X188166146Y-84834585D01*
X188345047Y-84799000D01*
X188527453Y-84799000D01*
X188706354Y-84834585D01*
G37*
G36*
X207756354Y-84834585D02*
G01*
X207924876Y-84904389D01*
X208076541Y-85005728D01*
X208205522Y-85134709D01*
X208306861Y-85286374D01*
X208376665Y-85454896D01*
X208412250Y-85633797D01*
X208412250Y-85816203D01*
X208376665Y-85995104D01*
X208306861Y-86163626D01*
X208205522Y-86315291D01*
X208076541Y-86444272D01*
X207924876Y-86545611D01*
X207756354Y-86615415D01*
X207577453Y-86651000D01*
X207395047Y-86651000D01*
X207216146Y-86615415D01*
X207047624Y-86545611D01*
X206895959Y-86444272D01*
X206766978Y-86315291D01*
X206665639Y-86163626D01*
X206595835Y-85995104D01*
X206560250Y-85816203D01*
X206560250Y-85633797D01*
X206595835Y-85454896D01*
X206665639Y-85286374D01*
X206766978Y-85134709D01*
X206895959Y-85005728D01*
X207047624Y-84904389D01*
X207216146Y-84834585D01*
X207395047Y-84799000D01*
X207577453Y-84799000D01*
X207756354Y-84834585D01*
G37*
G36*
X197596354Y-84834585D02*
G01*
X197764876Y-84904389D01*
X197916541Y-85005728D01*
X198045522Y-85134709D01*
X198146861Y-85286374D01*
X198216665Y-85454896D01*
X198252250Y-85633797D01*
X198252250Y-85816203D01*
X198216665Y-85995104D01*
X198146861Y-86163626D01*
X198045522Y-86315291D01*
X197916541Y-86444272D01*
X197764876Y-86545611D01*
X197596354Y-86615415D01*
X197417453Y-86651000D01*
X197235047Y-86651000D01*
X197056146Y-86615415D01*
X196887624Y-86545611D01*
X196735959Y-86444272D01*
X196606978Y-86315291D01*
X196505639Y-86163626D01*
X196435835Y-85995104D01*
X196400250Y-85816203D01*
X196400250Y-85633797D01*
X196435835Y-85454896D01*
X196505639Y-85286374D01*
X196606978Y-85134709D01*
X196735959Y-85005728D01*
X196887624Y-84904389D01*
X197056146Y-84834585D01*
X197235047Y-84799000D01*
X197417453Y-84799000D01*
X197596354Y-84834585D01*
G37*
G36*
X140446354Y-84834585D02*
G01*
X140614876Y-84904389D01*
X140766541Y-85005728D01*
X140895522Y-85134709D01*
X140996861Y-85286374D01*
X141066665Y-85454896D01*
X141102250Y-85633797D01*
X141102250Y-85816203D01*
X141066665Y-85995104D01*
X140996861Y-86163626D01*
X140895522Y-86315291D01*
X140766541Y-86444272D01*
X140614876Y-86545611D01*
X140446354Y-86615415D01*
X140267453Y-86651000D01*
X140085047Y-86651000D01*
X139906146Y-86615415D01*
X139737624Y-86545611D01*
X139585959Y-86444272D01*
X139456978Y-86315291D01*
X139355639Y-86163626D01*
X139285835Y-85995104D01*
X139250250Y-85816203D01*
X139250250Y-85633797D01*
X139285835Y-85454896D01*
X139355639Y-85286374D01*
X139456978Y-85134709D01*
X139585959Y-85005728D01*
X139737624Y-84904389D01*
X139906146Y-84834585D01*
X140085047Y-84799000D01*
X140267453Y-84799000D01*
X140446354Y-84834585D01*
G37*
G36*
X169656354Y-84834585D02*
G01*
X169824876Y-84904389D01*
X169976541Y-85005728D01*
X170105522Y-85134709D01*
X170206861Y-85286374D01*
X170276665Y-85454896D01*
X170312250Y-85633797D01*
X170312250Y-85816203D01*
X170276665Y-85995104D01*
X170206861Y-86163626D01*
X170105522Y-86315291D01*
X169976541Y-86444272D01*
X169824876Y-86545611D01*
X169656354Y-86615415D01*
X169477453Y-86651000D01*
X169295047Y-86651000D01*
X169116146Y-86615415D01*
X168947624Y-86545611D01*
X168795959Y-86444272D01*
X168666978Y-86315291D01*
X168565639Y-86163626D01*
X168495835Y-85995104D01*
X168460250Y-85816203D01*
X168460250Y-85633797D01*
X168495835Y-85454896D01*
X168565639Y-85286374D01*
X168666978Y-85134709D01*
X168795959Y-85005728D01*
X168947624Y-84904389D01*
X169116146Y-84834585D01*
X169295047Y-84799000D01*
X169477453Y-84799000D01*
X169656354Y-84834585D01*
G37*
G36*
X121396354Y-84834585D02*
G01*
X121564876Y-84904389D01*
X121716541Y-85005728D01*
X121845522Y-85134709D01*
X121946861Y-85286374D01*
X122016665Y-85454896D01*
X122052250Y-85633797D01*
X122052250Y-85816203D01*
X122016665Y-85995104D01*
X121946861Y-86163626D01*
X121845522Y-86315291D01*
X121716541Y-86444272D01*
X121564876Y-86545611D01*
X121396354Y-86615415D01*
X121217453Y-86651000D01*
X121035047Y-86651000D01*
X120856146Y-86615415D01*
X120687624Y-86545611D01*
X120535959Y-86444272D01*
X120406978Y-86315291D01*
X120305639Y-86163626D01*
X120235835Y-85995104D01*
X120200250Y-85816203D01*
X120200250Y-85633797D01*
X120235835Y-85454896D01*
X120305639Y-85286374D01*
X120406978Y-85134709D01*
X120535959Y-85005728D01*
X120687624Y-84904389D01*
X120856146Y-84834585D01*
X121035047Y-84799000D01*
X121217453Y-84799000D01*
X121396354Y-84834585D01*
G37*
G36*
X131556354Y-84834585D02*
G01*
X131724876Y-84904389D01*
X131876541Y-85005728D01*
X132005522Y-85134709D01*
X132106861Y-85286374D01*
X132176665Y-85454896D01*
X132212250Y-85633797D01*
X132212250Y-85816203D01*
X132176665Y-85995104D01*
X132106861Y-86163626D01*
X132005522Y-86315291D01*
X131876541Y-86444272D01*
X131724876Y-86545611D01*
X131556354Y-86615415D01*
X131377453Y-86651000D01*
X131195047Y-86651000D01*
X131016146Y-86615415D01*
X130847624Y-86545611D01*
X130695959Y-86444272D01*
X130566978Y-86315291D01*
X130465639Y-86163626D01*
X130395835Y-85995104D01*
X130360250Y-85816203D01*
X130360250Y-85633797D01*
X130395835Y-85454896D01*
X130465639Y-85286374D01*
X130566978Y-85134709D01*
X130695959Y-85005728D01*
X130847624Y-84904389D01*
X131016146Y-84834585D01*
X131195047Y-84799000D01*
X131377453Y-84799000D01*
X131556354Y-84834585D01*
G37*
G36*
X159496354Y-84834585D02*
G01*
X159664876Y-84904389D01*
X159816541Y-85005728D01*
X159945522Y-85134709D01*
X160046861Y-85286374D01*
X160116665Y-85454896D01*
X160152250Y-85633797D01*
X160152250Y-85816203D01*
X160116665Y-85995104D01*
X160046861Y-86163626D01*
X159945522Y-86315291D01*
X159816541Y-86444272D01*
X159664876Y-86545611D01*
X159496354Y-86615415D01*
X159317453Y-86651000D01*
X159135047Y-86651000D01*
X158956146Y-86615415D01*
X158787624Y-86545611D01*
X158635959Y-86444272D01*
X158506978Y-86315291D01*
X158405639Y-86163626D01*
X158335835Y-85995104D01*
X158300250Y-85816203D01*
X158300250Y-85633797D01*
X158335835Y-85454896D01*
X158405639Y-85286374D01*
X158506978Y-85134709D01*
X158635959Y-85005728D01*
X158787624Y-84904389D01*
X158956146Y-84834585D01*
X159135047Y-84799000D01*
X159317453Y-84799000D01*
X159496354Y-84834585D01*
G37*
G36*
X178546354Y-84834585D02*
G01*
X178714876Y-84904389D01*
X178866541Y-85005728D01*
X178995522Y-85134709D01*
X179096861Y-85286374D01*
X179166665Y-85454896D01*
X179202250Y-85633797D01*
X179202250Y-85816203D01*
X179166665Y-85995104D01*
X179096861Y-86163626D01*
X178995522Y-86315291D01*
X178866541Y-86444272D01*
X178714876Y-86545611D01*
X178546354Y-86615415D01*
X178367453Y-86651000D01*
X178185047Y-86651000D01*
X178006146Y-86615415D01*
X177837624Y-86545611D01*
X177685959Y-86444272D01*
X177556978Y-86315291D01*
X177455639Y-86163626D01*
X177385835Y-85995104D01*
X177350250Y-85816203D01*
X177350250Y-85633797D01*
X177385835Y-85454896D01*
X177455639Y-85286374D01*
X177556978Y-85134709D01*
X177685959Y-85005728D01*
X177837624Y-84904389D01*
X178006146Y-84834585D01*
X178185047Y-84799000D01*
X178367453Y-84799000D01*
X178546354Y-84834585D01*
G37*
G36*
X307133854Y-84834585D02*
G01*
X307302376Y-84904389D01*
X307454041Y-85005728D01*
X307583022Y-85134709D01*
X307684361Y-85286374D01*
X307754165Y-85454896D01*
X307789750Y-85633797D01*
X307789750Y-85816203D01*
X307754165Y-85995104D01*
X307684361Y-86163626D01*
X307583022Y-86315291D01*
X307454041Y-86444272D01*
X307302376Y-86545611D01*
X307133854Y-86615415D01*
X306954953Y-86651000D01*
X306772547Y-86651000D01*
X306593646Y-86615415D01*
X306425124Y-86545611D01*
X306273459Y-86444272D01*
X306144478Y-86315291D01*
X306043139Y-86163626D01*
X305973335Y-85995104D01*
X305937750Y-85816203D01*
X305937750Y-85633797D01*
X305973335Y-85454896D01*
X306043139Y-85286374D01*
X306144478Y-85134709D01*
X306273459Y-85005728D01*
X306425124Y-84904389D01*
X306593646Y-84834585D01*
X306772547Y-84799000D01*
X306954953Y-84799000D01*
X307133854Y-84834585D01*
G37*
G36*
X102346354Y-84834585D02*
G01*
X102514876Y-84904389D01*
X102666541Y-85005728D01*
X102795522Y-85134709D01*
X102896861Y-85286374D01*
X102966665Y-85454896D01*
X103002250Y-85633797D01*
X103002250Y-85816203D01*
X102966665Y-85995104D01*
X102896861Y-86163626D01*
X102795522Y-86315291D01*
X102666541Y-86444272D01*
X102514876Y-86545611D01*
X102346354Y-86615415D01*
X102167453Y-86651000D01*
X101985047Y-86651000D01*
X101806146Y-86615415D01*
X101637624Y-86545611D01*
X101485959Y-86444272D01*
X101356978Y-86315291D01*
X101255639Y-86163626D01*
X101185835Y-85995104D01*
X101150250Y-85816203D01*
X101150250Y-85633797D01*
X101185835Y-85454896D01*
X101255639Y-85286374D01*
X101356978Y-85134709D01*
X101485959Y-85005728D01*
X101637624Y-84904389D01*
X101806146Y-84834585D01*
X101985047Y-84799000D01*
X102167453Y-84799000D01*
X102346354Y-84834585D01*
G37*
G36*
X216646354Y-84834585D02*
G01*
X216814876Y-84904389D01*
X216966541Y-85005728D01*
X217095522Y-85134709D01*
X217196861Y-85286374D01*
X217266665Y-85454896D01*
X217302250Y-85633797D01*
X217302250Y-85816203D01*
X217266665Y-85995104D01*
X217196861Y-86163626D01*
X217095522Y-86315291D01*
X216966541Y-86444272D01*
X216814876Y-86545611D01*
X216646354Y-86615415D01*
X216467453Y-86651000D01*
X216285047Y-86651000D01*
X216106146Y-86615415D01*
X215937624Y-86545611D01*
X215785959Y-86444272D01*
X215656978Y-86315291D01*
X215555639Y-86163626D01*
X215485835Y-85995104D01*
X215450250Y-85816203D01*
X215450250Y-85633797D01*
X215485835Y-85454896D01*
X215555639Y-85286374D01*
X215656978Y-85134709D01*
X215785959Y-85005728D01*
X215937624Y-84904389D01*
X216106146Y-84834585D01*
X216285047Y-84799000D01*
X216467453Y-84799000D01*
X216646354Y-84834585D01*
G37*
G36*
X226806354Y-84834585D02*
G01*
X226974876Y-84904389D01*
X227126541Y-85005728D01*
X227255522Y-85134709D01*
X227356861Y-85286374D01*
X227426665Y-85454896D01*
X227462250Y-85633797D01*
X227462250Y-85816203D01*
X227426665Y-85995104D01*
X227356861Y-86163626D01*
X227255522Y-86315291D01*
X227126541Y-86444272D01*
X226974876Y-86545611D01*
X226806354Y-86615415D01*
X226627453Y-86651000D01*
X226445047Y-86651000D01*
X226266146Y-86615415D01*
X226097624Y-86545611D01*
X225945959Y-86444272D01*
X225816978Y-86315291D01*
X225715639Y-86163626D01*
X225645835Y-85995104D01*
X225610250Y-85816203D01*
X225610250Y-85633797D01*
X225645835Y-85454896D01*
X225715639Y-85286374D01*
X225816978Y-85134709D01*
X225945959Y-85005728D01*
X226097624Y-84904389D01*
X226266146Y-84834585D01*
X226445047Y-84799000D01*
X226627453Y-84799000D01*
X226806354Y-84834585D01*
G37*
G36*
X83296354Y-84834585D02*
G01*
X83464876Y-84904389D01*
X83616541Y-85005728D01*
X83745522Y-85134709D01*
X83846861Y-85286374D01*
X83916665Y-85454896D01*
X83952250Y-85633797D01*
X83952250Y-85816203D01*
X83916665Y-85995104D01*
X83846861Y-86163626D01*
X83745522Y-86315291D01*
X83616541Y-86444272D01*
X83464876Y-86545611D01*
X83296354Y-86615415D01*
X83117453Y-86651000D01*
X82935047Y-86651000D01*
X82756146Y-86615415D01*
X82587624Y-86545611D01*
X82435959Y-86444272D01*
X82306978Y-86315291D01*
X82205639Y-86163626D01*
X82135835Y-85995104D01*
X82100250Y-85816203D01*
X82100250Y-85633797D01*
X82135835Y-85454896D01*
X82205639Y-85286374D01*
X82306978Y-85134709D01*
X82435959Y-85005728D01*
X82587624Y-84904389D01*
X82756146Y-84834585D01*
X82935047Y-84799000D01*
X83117453Y-84799000D01*
X83296354Y-84834585D01*
G37*
G36*
X93456354Y-84834585D02*
G01*
X93624876Y-84904389D01*
X93776541Y-85005728D01*
X93905522Y-85134709D01*
X94006861Y-85286374D01*
X94076665Y-85454896D01*
X94112250Y-85633797D01*
X94112250Y-85816203D01*
X94076665Y-85995104D01*
X94006861Y-86163626D01*
X93905522Y-86315291D01*
X93776541Y-86444272D01*
X93624876Y-86545611D01*
X93456354Y-86615415D01*
X93277453Y-86651000D01*
X93095047Y-86651000D01*
X92916146Y-86615415D01*
X92747624Y-86545611D01*
X92595959Y-86444272D01*
X92466978Y-86315291D01*
X92365639Y-86163626D01*
X92295835Y-85995104D01*
X92260250Y-85816203D01*
X92260250Y-85633797D01*
X92295835Y-85454896D01*
X92365639Y-85286374D01*
X92466978Y-85134709D01*
X92595959Y-85005728D01*
X92747624Y-84904389D01*
X92916146Y-84834585D01*
X93095047Y-84799000D01*
X93277453Y-84799000D01*
X93456354Y-84834585D01*
G37*
G36*
X33290104Y-84834585D02*
G01*
X33458626Y-84904389D01*
X33610291Y-85005728D01*
X33739272Y-85134709D01*
X33840611Y-85286374D01*
X33910415Y-85454896D01*
X33946000Y-85633797D01*
X33946000Y-85816203D01*
X33910415Y-85995104D01*
X33840611Y-86163626D01*
X33739272Y-86315291D01*
X33610291Y-86444272D01*
X33458626Y-86545611D01*
X33290104Y-86615415D01*
X33111203Y-86651000D01*
X32928797Y-86651000D01*
X32749896Y-86615415D01*
X32581374Y-86545611D01*
X32429709Y-86444272D01*
X32300728Y-86315291D01*
X32199389Y-86163626D01*
X32129585Y-85995104D01*
X32094000Y-85816203D01*
X32094000Y-85633797D01*
X32129585Y-85454896D01*
X32199389Y-85286374D01*
X32300728Y-85134709D01*
X32429709Y-85005728D01*
X32581374Y-84904389D01*
X32749896Y-84834585D01*
X32928797Y-84799000D01*
X33111203Y-84799000D01*
X33290104Y-84834585D01*
G37*
G36*
X272050104Y-84834585D02*
G01*
X272218626Y-84904389D01*
X272370291Y-85005728D01*
X272499272Y-85134709D01*
X272600611Y-85286374D01*
X272670415Y-85454896D01*
X272706000Y-85633797D01*
X272706000Y-85816203D01*
X272670415Y-85995104D01*
X272600611Y-86163626D01*
X272499272Y-86315291D01*
X272370291Y-86444272D01*
X272218626Y-86545611D01*
X272050104Y-86615415D01*
X271871203Y-86651000D01*
X271688797Y-86651000D01*
X271509896Y-86615415D01*
X271341374Y-86545611D01*
X271189709Y-86444272D01*
X271060728Y-86315291D01*
X270959389Y-86163626D01*
X270889585Y-85995104D01*
X270854000Y-85816203D01*
X270854000Y-85633797D01*
X270889585Y-85454896D01*
X270959389Y-85286374D01*
X271060728Y-85134709D01*
X271189709Y-85005728D01*
X271341374Y-84904389D01*
X271509896Y-84834585D01*
X271688797Y-84799000D01*
X271871203Y-84799000D01*
X272050104Y-84834585D01*
G37*
G36*
X261890104Y-84834585D02*
G01*
X262058626Y-84904389D01*
X262210291Y-85005728D01*
X262339272Y-85134709D01*
X262440611Y-85286374D01*
X262510415Y-85454896D01*
X262546000Y-85633797D01*
X262546000Y-85816203D01*
X262510415Y-85995104D01*
X262440611Y-86163626D01*
X262339272Y-86315291D01*
X262210291Y-86444272D01*
X262058626Y-86545611D01*
X261890104Y-86615415D01*
X261711203Y-86651000D01*
X261528797Y-86651000D01*
X261349896Y-86615415D01*
X261181374Y-86545611D01*
X261029709Y-86444272D01*
X260900728Y-86315291D01*
X260799389Y-86163626D01*
X260729585Y-85995104D01*
X260694000Y-85816203D01*
X260694000Y-85633797D01*
X260729585Y-85454896D01*
X260799389Y-85286374D01*
X260900728Y-85134709D01*
X261029709Y-85005728D01*
X261181374Y-84904389D01*
X261349896Y-84834585D01*
X261528797Y-84799000D01*
X261711203Y-84799000D01*
X261890104Y-84834585D01*
G37*
G36*
X64246354Y-84834585D02*
G01*
X64414876Y-84904389D01*
X64566541Y-85005728D01*
X64695522Y-85134709D01*
X64796861Y-85286374D01*
X64866665Y-85454896D01*
X64902250Y-85633797D01*
X64902250Y-85816203D01*
X64866665Y-85995104D01*
X64796861Y-86163626D01*
X64695522Y-86315291D01*
X64566541Y-86444272D01*
X64414876Y-86545611D01*
X64246354Y-86615415D01*
X64067453Y-86651000D01*
X63885047Y-86651000D01*
X63706146Y-86615415D01*
X63537624Y-86545611D01*
X63385959Y-86444272D01*
X63256978Y-86315291D01*
X63155639Y-86163626D01*
X63085835Y-85995104D01*
X63050250Y-85816203D01*
X63050250Y-85633797D01*
X63085835Y-85454896D01*
X63155639Y-85286374D01*
X63256978Y-85134709D01*
X63385959Y-85005728D01*
X63537624Y-84904389D01*
X63706146Y-84834585D01*
X63885047Y-84799000D01*
X64067453Y-84799000D01*
X64246354Y-84834585D01*
G37*
G36*
X298243854Y-84834585D02*
G01*
X298412376Y-84904389D01*
X298564041Y-85005728D01*
X298693022Y-85134709D01*
X298794361Y-85286374D01*
X298864165Y-85454896D01*
X298899750Y-85633797D01*
X298899750Y-85816203D01*
X298864165Y-85995104D01*
X298794361Y-86163626D01*
X298693022Y-86315291D01*
X298564041Y-86444272D01*
X298412376Y-86545611D01*
X298243854Y-86615415D01*
X298064953Y-86651000D01*
X297882547Y-86651000D01*
X297703646Y-86615415D01*
X297535124Y-86545611D01*
X297383459Y-86444272D01*
X297254478Y-86315291D01*
X297153139Y-86163626D01*
X297083335Y-85995104D01*
X297047750Y-85816203D01*
X297047750Y-85633797D01*
X297083335Y-85454896D01*
X297153139Y-85286374D01*
X297254478Y-85134709D01*
X297383459Y-85005728D01*
X297535124Y-84904389D01*
X297703646Y-84834585D01*
X297882547Y-84799000D01*
X298064953Y-84799000D01*
X298243854Y-84834585D01*
G37*
G36*
X288083854Y-84834585D02*
G01*
X288252376Y-84904389D01*
X288404041Y-85005728D01*
X288533022Y-85134709D01*
X288634361Y-85286374D01*
X288704165Y-85454896D01*
X288739750Y-85633797D01*
X288739750Y-85816203D01*
X288704165Y-85995104D01*
X288634361Y-86163626D01*
X288533022Y-86315291D01*
X288404041Y-86444272D01*
X288252376Y-86545611D01*
X288083854Y-86615415D01*
X287904953Y-86651000D01*
X287722547Y-86651000D01*
X287543646Y-86615415D01*
X287375124Y-86545611D01*
X287223459Y-86444272D01*
X287094478Y-86315291D01*
X286993139Y-86163626D01*
X286923335Y-85995104D01*
X286887750Y-85816203D01*
X286887750Y-85633797D01*
X286923335Y-85454896D01*
X286993139Y-85286374D01*
X287094478Y-85134709D01*
X287223459Y-85005728D01*
X287375124Y-84904389D01*
X287543646Y-84834585D01*
X287722547Y-84799000D01*
X287904953Y-84799000D01*
X288083854Y-84834585D01*
G37*
G36*
X74406354Y-84834585D02*
G01*
X74574876Y-84904389D01*
X74726541Y-85005728D01*
X74855522Y-85134709D01*
X74956861Y-85286374D01*
X75026665Y-85454896D01*
X75062250Y-85633797D01*
X75062250Y-85816203D01*
X75026665Y-85995104D01*
X74956861Y-86163626D01*
X74855522Y-86315291D01*
X74726541Y-86444272D01*
X74574876Y-86545611D01*
X74406354Y-86615415D01*
X74227453Y-86651000D01*
X74045047Y-86651000D01*
X73866146Y-86615415D01*
X73697624Y-86545611D01*
X73545959Y-86444272D01*
X73416978Y-86315291D01*
X73315639Y-86163626D01*
X73245835Y-85995104D01*
X73210250Y-85816203D01*
X73210250Y-85633797D01*
X73245835Y-85454896D01*
X73315639Y-85286374D01*
X73416978Y-85134709D01*
X73545959Y-85005728D01*
X73697624Y-84904389D01*
X73866146Y-84834585D01*
X74045047Y-84799000D01*
X74227453Y-84799000D01*
X74406354Y-84834585D01*
G37*
G36*
X43450104Y-84834585D02*
G01*
X43618626Y-84904389D01*
X43770291Y-85005728D01*
X43899272Y-85134709D01*
X44000611Y-85286374D01*
X44070415Y-85454896D01*
X44106000Y-85633797D01*
X44106000Y-85816203D01*
X44070415Y-85995104D01*
X44000611Y-86163626D01*
X43899272Y-86315291D01*
X43770291Y-86444272D01*
X43618626Y-86545611D01*
X43450104Y-86615415D01*
X43271203Y-86651000D01*
X43088797Y-86651000D01*
X42909896Y-86615415D01*
X42741374Y-86545611D01*
X42589709Y-86444272D01*
X42460728Y-86315291D01*
X42359389Y-86163626D01*
X42289585Y-85995104D01*
X42254000Y-85816203D01*
X42254000Y-85633797D01*
X42289585Y-85454896D01*
X42359389Y-85286374D01*
X42460728Y-85134709D01*
X42589709Y-85005728D01*
X42741374Y-84904389D01*
X42909896Y-84834585D01*
X43088797Y-84799000D01*
X43271203Y-84799000D01*
X43450104Y-84834585D01*
G37*
G36*
X26653161Y-77225526D02*
G01*
X26771887Y-77274704D01*
X26939791Y-77344252D01*
X26939792Y-77344253D01*
X27197754Y-77516617D01*
X27417133Y-77735996D01*
X27532303Y-77908361D01*
X27589498Y-77993959D01*
X27708224Y-78280590D01*
X27768750Y-78584875D01*
X27768750Y-78895125D01*
X27708224Y-79199410D01*
X27589498Y-79486041D01*
X27589497Y-79486042D01*
X27417133Y-79744004D01*
X27197754Y-79963383D01*
X27025389Y-80078553D01*
X26939791Y-80135748D01*
X26771887Y-80205296D01*
X26653161Y-80254474D01*
X26501017Y-80284737D01*
X26348875Y-80315000D01*
X26038625Y-80315000D01*
X25886483Y-80284737D01*
X25734339Y-80254474D01*
X25615613Y-80205296D01*
X25447709Y-80135748D01*
X25362111Y-80078553D01*
X25189746Y-79963383D01*
X24970367Y-79744004D01*
X24798003Y-79486042D01*
X24798002Y-79486041D01*
X24679276Y-79199410D01*
X24618750Y-78895125D01*
X24618750Y-78584875D01*
X24679276Y-78280590D01*
X24798002Y-77993959D01*
X24855197Y-77908361D01*
X24970367Y-77735996D01*
X25189746Y-77516617D01*
X25447708Y-77344253D01*
X25447709Y-77344252D01*
X25615613Y-77274704D01*
X25734339Y-77225526D01*
X26038625Y-77165000D01*
X26348875Y-77165000D01*
X26653161Y-77225526D01*
G37*
G36*
X50465661Y-77225526D02*
G01*
X50584387Y-77274704D01*
X50752291Y-77344252D01*
X50752292Y-77344253D01*
X51010254Y-77516617D01*
X51229633Y-77735996D01*
X51344803Y-77908361D01*
X51401998Y-77993959D01*
X51520724Y-78280590D01*
X51581250Y-78584875D01*
X51581250Y-78895125D01*
X51520724Y-79199410D01*
X51401998Y-79486041D01*
X51401997Y-79486042D01*
X51229633Y-79744004D01*
X51010254Y-79963383D01*
X50837889Y-80078553D01*
X50752291Y-80135748D01*
X50584387Y-80205296D01*
X50465661Y-80254474D01*
X50313517Y-80284737D01*
X50161375Y-80315000D01*
X49851125Y-80315000D01*
X49698983Y-80284737D01*
X49546839Y-80254474D01*
X49428113Y-80205296D01*
X49260209Y-80135748D01*
X49174611Y-80078553D01*
X49002246Y-79963383D01*
X48782867Y-79744004D01*
X48610503Y-79486042D01*
X48610502Y-79486041D01*
X48491776Y-79199410D01*
X48431250Y-78895125D01*
X48431250Y-78584875D01*
X48491776Y-78280590D01*
X48610502Y-77993959D01*
X48667697Y-77908361D01*
X48782867Y-77735996D01*
X49002246Y-77516617D01*
X49260208Y-77344253D01*
X49260209Y-77344252D01*
X49428113Y-77274704D01*
X49546839Y-77225526D01*
X49851125Y-77165000D01*
X50161375Y-77165000D01*
X50465661Y-77225526D01*
G37*
G36*
X293490224Y-72963684D02*
G01*
X293708224Y-73053983D01*
X293862373Y-73117833D01*
X294197298Y-73341623D01*
X294482127Y-73626452D01*
X294705917Y-73961377D01*
X294705917Y-73961378D01*
X294860066Y-74333526D01*
X294938650Y-74728594D01*
X294938650Y-75131406D01*
X294860066Y-75526474D01*
X294769767Y-75744474D01*
X294705917Y-75898623D01*
X294482127Y-76233548D01*
X294197298Y-76518377D01*
X293862373Y-76742167D01*
X293708224Y-76806017D01*
X293490224Y-76896316D01*
X293095156Y-76974900D01*
X292692344Y-76974900D01*
X292297276Y-76896316D01*
X292079276Y-76806017D01*
X291925127Y-76742167D01*
X291590202Y-76518377D01*
X291305373Y-76233548D01*
X291081583Y-75898623D01*
X291017733Y-75744474D01*
X290927434Y-75526474D01*
X290848850Y-75131406D01*
X290848850Y-74728594D01*
X290927434Y-74333526D01*
X291081583Y-73961378D01*
X291081583Y-73961377D01*
X291305373Y-73626452D01*
X291590202Y-73341623D01*
X291925127Y-73117833D01*
X292079276Y-73053983D01*
X292297276Y-72963684D01*
X292692344Y-72885100D01*
X293095156Y-72885100D01*
X293490224Y-72963684D01*
G37*
G36*
X269677724Y-72963684D02*
G01*
X269895724Y-73053983D01*
X270049873Y-73117833D01*
X270384798Y-73341623D01*
X270669627Y-73626452D01*
X270893417Y-73961377D01*
X270893417Y-73961378D01*
X271047566Y-74333526D01*
X271126150Y-74728594D01*
X271126150Y-75131406D01*
X271047566Y-75526474D01*
X270957267Y-75744474D01*
X270893417Y-75898623D01*
X270669627Y-76233548D01*
X270384798Y-76518377D01*
X270049873Y-76742167D01*
X269895724Y-76806017D01*
X269677724Y-76896316D01*
X269282656Y-76974900D01*
X268879844Y-76974900D01*
X268484776Y-76896316D01*
X268266776Y-76806017D01*
X268112627Y-76742167D01*
X267777702Y-76518377D01*
X267492873Y-76233548D01*
X267269083Y-75898623D01*
X267205233Y-75744474D01*
X267114934Y-75526474D01*
X267036350Y-75131406D01*
X267036350Y-74728594D01*
X267114934Y-74333526D01*
X267269083Y-73961378D01*
X267269083Y-73961377D01*
X267492873Y-73626452D01*
X267777702Y-73341623D01*
X268112627Y-73117833D01*
X268266776Y-73053983D01*
X268484776Y-72963684D01*
X268879844Y-72885100D01*
X269282656Y-72885100D01*
X269677724Y-72963684D01*
G37*
G36*
X193477724Y-64708684D02*
G01*
X193695724Y-64798983D01*
X193849873Y-64862833D01*
X194184798Y-65086623D01*
X194469627Y-65371452D01*
X194693417Y-65706377D01*
X194725812Y-65784586D01*
X194847566Y-66078526D01*
X194926150Y-66473594D01*
X194926150Y-66876406D01*
X194847566Y-67271474D01*
X194796701Y-67394272D01*
X194693417Y-67643623D01*
X194469627Y-67978548D01*
X194184798Y-68263377D01*
X193849873Y-68487167D01*
X193695724Y-68551017D01*
X193477724Y-68641316D01*
X193082656Y-68719900D01*
X192679844Y-68719900D01*
X192284776Y-68641316D01*
X192066776Y-68551017D01*
X191912627Y-68487167D01*
X191577702Y-68263377D01*
X191292873Y-67978548D01*
X191069083Y-67643623D01*
X190965799Y-67394272D01*
X190914934Y-67271474D01*
X190836350Y-66876406D01*
X190836350Y-66473594D01*
X190914934Y-66078526D01*
X191036688Y-65784586D01*
X191069083Y-65706377D01*
X191292873Y-65371452D01*
X191577702Y-65086623D01*
X191912627Y-64862833D01*
X192066776Y-64798983D01*
X192284776Y-64708684D01*
X192679844Y-64630100D01*
X193082656Y-64630100D01*
X193477724Y-64708684D01*
G37*
G36*
X281583974Y-64708684D02*
G01*
X281801974Y-64798983D01*
X281956123Y-64862833D01*
X282291048Y-65086623D01*
X282575877Y-65371452D01*
X282799667Y-65706377D01*
X282832062Y-65784586D01*
X282953816Y-66078526D01*
X283032400Y-66473594D01*
X283032400Y-66876406D01*
X282953816Y-67271474D01*
X282902951Y-67394272D01*
X282799667Y-67643623D01*
X282575877Y-67978548D01*
X282291048Y-68263377D01*
X281956123Y-68487167D01*
X281801974Y-68551017D01*
X281583974Y-68641316D01*
X281188906Y-68719900D01*
X280786094Y-68719900D01*
X280391026Y-68641316D01*
X280173026Y-68551017D01*
X280018877Y-68487167D01*
X279683952Y-68263377D01*
X279399123Y-67978548D01*
X279175333Y-67643623D01*
X279072049Y-67394272D01*
X279021184Y-67271474D01*
X278942600Y-66876406D01*
X278942600Y-66473594D01*
X279021184Y-66078526D01*
X279142938Y-65784586D01*
X279175333Y-65706377D01*
X279399123Y-65371452D01*
X279683952Y-65086623D01*
X280018877Y-64862833D01*
X280173026Y-64798983D01*
X280391026Y-64708684D01*
X280786094Y-64630100D01*
X281188906Y-64630100D01*
X281583974Y-64708684D01*
G37*
G36*
X79177724Y-64708684D02*
G01*
X79395724Y-64798983D01*
X79549873Y-64862833D01*
X79884798Y-65086623D01*
X80169627Y-65371452D01*
X80393417Y-65706377D01*
X80425812Y-65784586D01*
X80547566Y-66078526D01*
X80626150Y-66473594D01*
X80626150Y-66876406D01*
X80547566Y-67271474D01*
X80496701Y-67394272D01*
X80393417Y-67643623D01*
X80169627Y-67978548D01*
X79884798Y-68263377D01*
X79549873Y-68487167D01*
X79395724Y-68551017D01*
X79177724Y-68641316D01*
X78782656Y-68719900D01*
X78379844Y-68719900D01*
X77984776Y-68641316D01*
X77766776Y-68551017D01*
X77612627Y-68487167D01*
X77277702Y-68263377D01*
X76992873Y-67978548D01*
X76769083Y-67643623D01*
X76665799Y-67394272D01*
X76614934Y-67271474D01*
X76536350Y-66876406D01*
X76536350Y-66473594D01*
X76614934Y-66078526D01*
X76736688Y-65784586D01*
X76769083Y-65706377D01*
X76992873Y-65371452D01*
X77277702Y-65086623D01*
X77612627Y-64862833D01*
X77766776Y-64798983D01*
X77984776Y-64708684D01*
X78379844Y-64630100D01*
X78782656Y-64630100D01*
X79177724Y-64708684D01*
G37*
G36*
X33933974Y-64708684D02*
G01*
X34151974Y-64798983D01*
X34306123Y-64862833D01*
X34641048Y-65086623D01*
X34925877Y-65371452D01*
X35149667Y-65706377D01*
X35182062Y-65784586D01*
X35303816Y-66078526D01*
X35382400Y-66473594D01*
X35382400Y-66876406D01*
X35303816Y-67271474D01*
X35252951Y-67394272D01*
X35149667Y-67643623D01*
X34925877Y-67978548D01*
X34641048Y-68263377D01*
X34306123Y-68487167D01*
X34151974Y-68551017D01*
X33933974Y-68641316D01*
X33538906Y-68719900D01*
X33136094Y-68719900D01*
X32741026Y-68641316D01*
X32523026Y-68551017D01*
X32368877Y-68487167D01*
X32033952Y-68263377D01*
X31749123Y-67978548D01*
X31525333Y-67643623D01*
X31422049Y-67394272D01*
X31371184Y-67271474D01*
X31292600Y-66876406D01*
X31292600Y-66473594D01*
X31371184Y-66078526D01*
X31492938Y-65784586D01*
X31525333Y-65706377D01*
X31749123Y-65371452D01*
X32033952Y-65086623D01*
X32368877Y-64862833D01*
X32523026Y-64798983D01*
X32741026Y-64708684D01*
X33136094Y-64630100D01*
X33538906Y-64630100D01*
X33933974Y-64708684D01*
G37*
G36*
X60127724Y-64708684D02*
G01*
X60345724Y-64798983D01*
X60499873Y-64862833D01*
X60834798Y-65086623D01*
X61119627Y-65371452D01*
X61343417Y-65706377D01*
X61375812Y-65784586D01*
X61497566Y-66078526D01*
X61576150Y-66473594D01*
X61576150Y-66876406D01*
X61497566Y-67271474D01*
X61446701Y-67394272D01*
X61343417Y-67643623D01*
X61119627Y-67978548D01*
X60834798Y-68263377D01*
X60499873Y-68487167D01*
X60345724Y-68551017D01*
X60127724Y-68641316D01*
X59732656Y-68719900D01*
X59329844Y-68719900D01*
X58934776Y-68641316D01*
X58716776Y-68551017D01*
X58562627Y-68487167D01*
X58227702Y-68263377D01*
X57942873Y-67978548D01*
X57719083Y-67643623D01*
X57615799Y-67394272D01*
X57564934Y-67271474D01*
X57486350Y-66876406D01*
X57486350Y-66473594D01*
X57564934Y-66078526D01*
X57686688Y-65784586D01*
X57719083Y-65706377D01*
X57942873Y-65371452D01*
X58227702Y-65086623D01*
X58562627Y-64862833D01*
X58716776Y-64798983D01*
X58934776Y-64708684D01*
X59329844Y-64630100D01*
X59732656Y-64630100D01*
X60127724Y-64708684D01*
G37*
G36*
X98227724Y-64708684D02*
G01*
X98445724Y-64798983D01*
X98599873Y-64862833D01*
X98934798Y-65086623D01*
X99219627Y-65371452D01*
X99443417Y-65706377D01*
X99475812Y-65784586D01*
X99597566Y-66078526D01*
X99676150Y-66473594D01*
X99676150Y-66876406D01*
X99597566Y-67271474D01*
X99546701Y-67394272D01*
X99443417Y-67643623D01*
X99219627Y-67978548D01*
X98934798Y-68263377D01*
X98599873Y-68487167D01*
X98445724Y-68551017D01*
X98227724Y-68641316D01*
X97832656Y-68719900D01*
X97429844Y-68719900D01*
X97034776Y-68641316D01*
X96816776Y-68551017D01*
X96662627Y-68487167D01*
X96327702Y-68263377D01*
X96042873Y-67978548D01*
X95819083Y-67643623D01*
X95715799Y-67394272D01*
X95664934Y-67271474D01*
X95586350Y-66876406D01*
X95586350Y-66473594D01*
X95664934Y-66078526D01*
X95786688Y-65784586D01*
X95819083Y-65706377D01*
X96042873Y-65371452D01*
X96327702Y-65086623D01*
X96662627Y-64862833D01*
X96816776Y-64798983D01*
X97034776Y-64708684D01*
X97429844Y-64630100D01*
X97832656Y-64630100D01*
X98227724Y-64708684D01*
G37*
G36*
X117277724Y-64708684D02*
G01*
X117495724Y-64798983D01*
X117649873Y-64862833D01*
X117984798Y-65086623D01*
X118269627Y-65371452D01*
X118493417Y-65706377D01*
X118525812Y-65784586D01*
X118647566Y-66078526D01*
X118726150Y-66473594D01*
X118726150Y-66876406D01*
X118647566Y-67271474D01*
X118596701Y-67394272D01*
X118493417Y-67643623D01*
X118269627Y-67978548D01*
X117984798Y-68263377D01*
X117649873Y-68487167D01*
X117495724Y-68551017D01*
X117277724Y-68641316D01*
X116882656Y-68719900D01*
X116479844Y-68719900D01*
X116084776Y-68641316D01*
X115866776Y-68551017D01*
X115712627Y-68487167D01*
X115377702Y-68263377D01*
X115092873Y-67978548D01*
X114869083Y-67643623D01*
X114765799Y-67394272D01*
X114714934Y-67271474D01*
X114636350Y-66876406D01*
X114636350Y-66473594D01*
X114714934Y-66078526D01*
X114836688Y-65784586D01*
X114869083Y-65706377D01*
X115092873Y-65371452D01*
X115377702Y-65086623D01*
X115712627Y-64862833D01*
X115866776Y-64798983D01*
X116084776Y-64708684D01*
X116479844Y-64630100D01*
X116882656Y-64630100D01*
X117277724Y-64708684D01*
G37*
G36*
X136327724Y-64708684D02*
G01*
X136545724Y-64798983D01*
X136699873Y-64862833D01*
X137034798Y-65086623D01*
X137319627Y-65371452D01*
X137543417Y-65706377D01*
X137575812Y-65784586D01*
X137697566Y-66078526D01*
X137776150Y-66473594D01*
X137776150Y-66876406D01*
X137697566Y-67271474D01*
X137646701Y-67394272D01*
X137543417Y-67643623D01*
X137319627Y-67978548D01*
X137034798Y-68263377D01*
X136699873Y-68487167D01*
X136545724Y-68551017D01*
X136327724Y-68641316D01*
X135932656Y-68719900D01*
X135529844Y-68719900D01*
X135134776Y-68641316D01*
X134916776Y-68551017D01*
X134762627Y-68487167D01*
X134427702Y-68263377D01*
X134142873Y-67978548D01*
X133919083Y-67643623D01*
X133815799Y-67394272D01*
X133764934Y-67271474D01*
X133686350Y-66876406D01*
X133686350Y-66473594D01*
X133764934Y-66078526D01*
X133886688Y-65784586D01*
X133919083Y-65706377D01*
X134142873Y-65371452D01*
X134427702Y-65086623D01*
X134762627Y-64862833D01*
X134916776Y-64798983D01*
X135134776Y-64708684D01*
X135529844Y-64630100D01*
X135932656Y-64630100D01*
X136327724Y-64708684D01*
G37*
G36*
X155377724Y-64708684D02*
G01*
X155595724Y-64798983D01*
X155749873Y-64862833D01*
X156084798Y-65086623D01*
X156369627Y-65371452D01*
X156593417Y-65706377D01*
X156625812Y-65784586D01*
X156747566Y-66078526D01*
X156826150Y-66473594D01*
X156826150Y-66876406D01*
X156747566Y-67271474D01*
X156696701Y-67394272D01*
X156593417Y-67643623D01*
X156369627Y-67978548D01*
X156084798Y-68263377D01*
X155749873Y-68487167D01*
X155595724Y-68551017D01*
X155377724Y-68641316D01*
X154982656Y-68719900D01*
X154579844Y-68719900D01*
X154184776Y-68641316D01*
X153966776Y-68551017D01*
X153812627Y-68487167D01*
X153477702Y-68263377D01*
X153192873Y-67978548D01*
X152969083Y-67643623D01*
X152865799Y-67394272D01*
X152814934Y-67271474D01*
X152736350Y-66876406D01*
X152736350Y-66473594D01*
X152814934Y-66078526D01*
X152936688Y-65784586D01*
X152969083Y-65706377D01*
X153192873Y-65371452D01*
X153477702Y-65086623D01*
X153812627Y-64862833D01*
X153966776Y-64798983D01*
X154184776Y-64708684D01*
X154579844Y-64630100D01*
X154982656Y-64630100D01*
X155377724Y-64708684D01*
G37*
G36*
X174427724Y-64708684D02*
G01*
X174645724Y-64798983D01*
X174799873Y-64862833D01*
X175134798Y-65086623D01*
X175419627Y-65371452D01*
X175643417Y-65706377D01*
X175675812Y-65784586D01*
X175797566Y-66078526D01*
X175876150Y-66473594D01*
X175876150Y-66876406D01*
X175797566Y-67271474D01*
X175746701Y-67394272D01*
X175643417Y-67643623D01*
X175419627Y-67978548D01*
X175134798Y-68263377D01*
X174799873Y-68487167D01*
X174645724Y-68551017D01*
X174427724Y-68641316D01*
X174032656Y-68719900D01*
X173629844Y-68719900D01*
X173234776Y-68641316D01*
X173016776Y-68551017D01*
X172862627Y-68487167D01*
X172527702Y-68263377D01*
X172242873Y-67978548D01*
X172019083Y-67643623D01*
X171915799Y-67394272D01*
X171864934Y-67271474D01*
X171786350Y-66876406D01*
X171786350Y-66473594D01*
X171864934Y-66078526D01*
X171986688Y-65784586D01*
X172019083Y-65706377D01*
X172242873Y-65371452D01*
X172527702Y-65086623D01*
X172862627Y-64862833D01*
X173016776Y-64798983D01*
X173234776Y-64708684D01*
X173629844Y-64630100D01*
X174032656Y-64630100D01*
X174427724Y-64708684D01*
G37*
G36*
X212527724Y-64708684D02*
G01*
X212745724Y-64798983D01*
X212899873Y-64862833D01*
X213234798Y-65086623D01*
X213519627Y-65371452D01*
X213743417Y-65706377D01*
X213775812Y-65784586D01*
X213897566Y-66078526D01*
X213976150Y-66473594D01*
X213976150Y-66876406D01*
X213897566Y-67271474D01*
X213846701Y-67394272D01*
X213743417Y-67643623D01*
X213519627Y-67978548D01*
X213234798Y-68263377D01*
X212899873Y-68487167D01*
X212745724Y-68551017D01*
X212527724Y-68641316D01*
X212132656Y-68719900D01*
X211729844Y-68719900D01*
X211334776Y-68641316D01*
X211116776Y-68551017D01*
X210962627Y-68487167D01*
X210627702Y-68263377D01*
X210342873Y-67978548D01*
X210119083Y-67643623D01*
X210015799Y-67394272D01*
X209964934Y-67271474D01*
X209886350Y-66876406D01*
X209886350Y-66473594D01*
X209964934Y-66078526D01*
X210086688Y-65784586D01*
X210119083Y-65706377D01*
X210342873Y-65371452D01*
X210627702Y-65086623D01*
X210962627Y-64862833D01*
X211116776Y-64798983D01*
X211334776Y-64708684D01*
X211729844Y-64630100D01*
X212132656Y-64630100D01*
X212527724Y-64708684D01*
G37*
G36*
X231577724Y-64708684D02*
G01*
X231795724Y-64798983D01*
X231949873Y-64862833D01*
X232284798Y-65086623D01*
X232569627Y-65371452D01*
X232793417Y-65706377D01*
X232825812Y-65784586D01*
X232947566Y-66078526D01*
X233026150Y-66473594D01*
X233026150Y-66876406D01*
X232947566Y-67271474D01*
X232896701Y-67394272D01*
X232793417Y-67643623D01*
X232569627Y-67978548D01*
X232284798Y-68263377D01*
X231949873Y-68487167D01*
X231795724Y-68551017D01*
X231577724Y-68641316D01*
X231182656Y-68719900D01*
X230779844Y-68719900D01*
X230384776Y-68641316D01*
X230166776Y-68551017D01*
X230012627Y-68487167D01*
X229677702Y-68263377D01*
X229392873Y-67978548D01*
X229169083Y-67643623D01*
X229065799Y-67394272D01*
X229014934Y-67271474D01*
X228936350Y-66876406D01*
X228936350Y-66473594D01*
X229014934Y-66078526D01*
X229136688Y-65784586D01*
X229169083Y-65706377D01*
X229392873Y-65371452D01*
X229677702Y-65086623D01*
X230012627Y-64862833D01*
X230166776Y-64798983D01*
X230384776Y-64708684D01*
X230779844Y-64630100D01*
X231182656Y-64630100D01*
X231577724Y-64708684D01*
G37*
G36*
X250627724Y-64708684D02*
G01*
X250845724Y-64798983D01*
X250999873Y-64862833D01*
X251334798Y-65086623D01*
X251619627Y-65371452D01*
X251843417Y-65706377D01*
X251875812Y-65784586D01*
X251997566Y-66078526D01*
X252076150Y-66473594D01*
X252076150Y-66876406D01*
X251997566Y-67271474D01*
X251946701Y-67394272D01*
X251843417Y-67643623D01*
X251619627Y-67978548D01*
X251334798Y-68263377D01*
X250999873Y-68487167D01*
X250845724Y-68551017D01*
X250627724Y-68641316D01*
X250232656Y-68719900D01*
X249829844Y-68719900D01*
X249434776Y-68641316D01*
X249216776Y-68551017D01*
X249062627Y-68487167D01*
X248727702Y-68263377D01*
X248442873Y-67978548D01*
X248219083Y-67643623D01*
X248115799Y-67394272D01*
X248064934Y-67271474D01*
X247986350Y-66876406D01*
X247986350Y-66473594D01*
X248064934Y-66078526D01*
X248186688Y-65784586D01*
X248219083Y-65706377D01*
X248442873Y-65371452D01*
X248727702Y-65086623D01*
X249062627Y-64862833D01*
X249216776Y-64798983D01*
X249434776Y-64708684D01*
X249829844Y-64630100D01*
X250232656Y-64630100D01*
X250627724Y-64708684D01*
G37*
G36*
X312540224Y-64708684D02*
G01*
X312758224Y-64798983D01*
X312912373Y-64862833D01*
X313247298Y-65086623D01*
X313532127Y-65371452D01*
X313755917Y-65706377D01*
X313788312Y-65784586D01*
X313910066Y-66078526D01*
X313988650Y-66473594D01*
X313988650Y-66876406D01*
X313910066Y-67271474D01*
X313859201Y-67394272D01*
X313755917Y-67643623D01*
X313532127Y-67978548D01*
X313247298Y-68263377D01*
X312912373Y-68487167D01*
X312758224Y-68551017D01*
X312540224Y-68641316D01*
X312145156Y-68719900D01*
X311742344Y-68719900D01*
X311347276Y-68641316D01*
X311129276Y-68551017D01*
X310975127Y-68487167D01*
X310640202Y-68263377D01*
X310355373Y-67978548D01*
X310131583Y-67643623D01*
X310028299Y-67394272D01*
X309977434Y-67271474D01*
X309898850Y-66876406D01*
X309898850Y-66473594D01*
X309977434Y-66078526D01*
X310099188Y-65784586D01*
X310131583Y-65706377D01*
X310355373Y-65371452D01*
X310640202Y-65086623D01*
X310975127Y-64862833D01*
X311129276Y-64798983D01*
X311347276Y-64708684D01*
X311742344Y-64630100D01*
X312145156Y-64630100D01*
X312540224Y-64708684D01*
G37*
G36*
X160131354Y-65784585D02*
G01*
X160299876Y-65854389D01*
X160451541Y-65955728D01*
X160580522Y-66084709D01*
X160681861Y-66236374D01*
X160751665Y-66404896D01*
X160787250Y-66583797D01*
X160787250Y-66766203D01*
X160751665Y-66945104D01*
X160681861Y-67113626D01*
X160580522Y-67265291D01*
X160451541Y-67394272D01*
X160299876Y-67495611D01*
X160131354Y-67565415D01*
X159952453Y-67601000D01*
X159770047Y-67601000D01*
X159591146Y-67565415D01*
X159422624Y-67495611D01*
X159270959Y-67394272D01*
X159141978Y-67265291D01*
X159040639Y-67113626D01*
X158970835Y-66945104D01*
X158935250Y-66766203D01*
X158935250Y-66583797D01*
X158970835Y-66404896D01*
X159040639Y-66236374D01*
X159141978Y-66084709D01*
X159270959Y-65955728D01*
X159422624Y-65854389D01*
X159591146Y-65784585D01*
X159770047Y-65749000D01*
X159952453Y-65749000D01*
X160131354Y-65784585D01*
G37*
G36*
X149971354Y-65784585D02*
G01*
X150139876Y-65854389D01*
X150291541Y-65955728D01*
X150420522Y-66084709D01*
X150521861Y-66236374D01*
X150591665Y-66404896D01*
X150627250Y-66583797D01*
X150627250Y-66766203D01*
X150591665Y-66945104D01*
X150521861Y-67113626D01*
X150420522Y-67265291D01*
X150291541Y-67394272D01*
X150139876Y-67495611D01*
X149971354Y-67565415D01*
X149792453Y-67601000D01*
X149610047Y-67601000D01*
X149431146Y-67565415D01*
X149262624Y-67495611D01*
X149110959Y-67394272D01*
X148981978Y-67265291D01*
X148880639Y-67113626D01*
X148810835Y-66945104D01*
X148775250Y-66766203D01*
X148775250Y-66583797D01*
X148810835Y-66404896D01*
X148880639Y-66236374D01*
X148981978Y-66084709D01*
X149110959Y-65955728D01*
X149262624Y-65854389D01*
X149431146Y-65784585D01*
X149610047Y-65749000D01*
X149792453Y-65749000D01*
X149971354Y-65784585D01*
G37*
G36*
X130921354Y-65784585D02*
G01*
X131089876Y-65854389D01*
X131241541Y-65955728D01*
X131370522Y-66084709D01*
X131471861Y-66236374D01*
X131541665Y-66404896D01*
X131577250Y-66583797D01*
X131577250Y-66766203D01*
X131541665Y-66945104D01*
X131471861Y-67113626D01*
X131370522Y-67265291D01*
X131241541Y-67394272D01*
X131089876Y-67495611D01*
X130921354Y-67565415D01*
X130742453Y-67601000D01*
X130560047Y-67601000D01*
X130381146Y-67565415D01*
X130212624Y-67495611D01*
X130060959Y-67394272D01*
X129931978Y-67265291D01*
X129830639Y-67113626D01*
X129760835Y-66945104D01*
X129725250Y-66766203D01*
X129725250Y-66583797D01*
X129760835Y-66404896D01*
X129830639Y-66236374D01*
X129931978Y-66084709D01*
X130060959Y-65955728D01*
X130212624Y-65854389D01*
X130381146Y-65784585D01*
X130560047Y-65749000D01*
X130742453Y-65749000D01*
X130921354Y-65784585D01*
G37*
G36*
X141081354Y-65784585D02*
G01*
X141249876Y-65854389D01*
X141401541Y-65955728D01*
X141530522Y-66084709D01*
X141631861Y-66236374D01*
X141701665Y-66404896D01*
X141737250Y-66583797D01*
X141737250Y-66766203D01*
X141701665Y-66945104D01*
X141631861Y-67113626D01*
X141530522Y-67265291D01*
X141401541Y-67394272D01*
X141249876Y-67495611D01*
X141081354Y-67565415D01*
X140902453Y-67601000D01*
X140720047Y-67601000D01*
X140541146Y-67565415D01*
X140372624Y-67495611D01*
X140220959Y-67394272D01*
X140091978Y-67265291D01*
X139990639Y-67113626D01*
X139920835Y-66945104D01*
X139885250Y-66766203D01*
X139885250Y-66583797D01*
X139920835Y-66404896D01*
X139990639Y-66236374D01*
X140091978Y-66084709D01*
X140220959Y-65955728D01*
X140372624Y-65854389D01*
X140541146Y-65784585D01*
X140720047Y-65749000D01*
X140902453Y-65749000D01*
X141081354Y-65784585D01*
G37*
G36*
X111871354Y-65784585D02*
G01*
X112039876Y-65854389D01*
X112191541Y-65955728D01*
X112320522Y-66084709D01*
X112421861Y-66236374D01*
X112491665Y-66404896D01*
X112527250Y-66583797D01*
X112527250Y-66766203D01*
X112491665Y-66945104D01*
X112421861Y-67113626D01*
X112320522Y-67265291D01*
X112191541Y-67394272D01*
X112039876Y-67495611D01*
X111871354Y-67565415D01*
X111692453Y-67601000D01*
X111510047Y-67601000D01*
X111331146Y-67565415D01*
X111162624Y-67495611D01*
X111010959Y-67394272D01*
X110881978Y-67265291D01*
X110780639Y-67113626D01*
X110710835Y-66945104D01*
X110675250Y-66766203D01*
X110675250Y-66583797D01*
X110710835Y-66404896D01*
X110780639Y-66236374D01*
X110881978Y-66084709D01*
X111010959Y-65955728D01*
X111162624Y-65854389D01*
X111331146Y-65784585D01*
X111510047Y-65749000D01*
X111692453Y-65749000D01*
X111871354Y-65784585D01*
G37*
G36*
X122031354Y-65784585D02*
G01*
X122199876Y-65854389D01*
X122351541Y-65955728D01*
X122480522Y-66084709D01*
X122581861Y-66236374D01*
X122651665Y-66404896D01*
X122687250Y-66583797D01*
X122687250Y-66766203D01*
X122651665Y-66945104D01*
X122581861Y-67113626D01*
X122480522Y-67265291D01*
X122351541Y-67394272D01*
X122199876Y-67495611D01*
X122031354Y-67565415D01*
X121852453Y-67601000D01*
X121670047Y-67601000D01*
X121491146Y-67565415D01*
X121322624Y-67495611D01*
X121170959Y-67394272D01*
X121041978Y-67265291D01*
X120940639Y-67113626D01*
X120870835Y-66945104D01*
X120835250Y-66766203D01*
X120835250Y-66583797D01*
X120870835Y-66404896D01*
X120940639Y-66236374D01*
X121041978Y-66084709D01*
X121170959Y-65955728D01*
X121322624Y-65854389D01*
X121491146Y-65784585D01*
X121670047Y-65749000D01*
X121852453Y-65749000D01*
X122031354Y-65784585D01*
G37*
G36*
X307133854Y-65784585D02*
G01*
X307302376Y-65854389D01*
X307454041Y-65955728D01*
X307583022Y-66084709D01*
X307684361Y-66236374D01*
X307754165Y-66404896D01*
X307789750Y-66583797D01*
X307789750Y-66766203D01*
X307754165Y-66945104D01*
X307684361Y-67113626D01*
X307583022Y-67265291D01*
X307454041Y-67394272D01*
X307302376Y-67495611D01*
X307133854Y-67565415D01*
X306954953Y-67601000D01*
X306772547Y-67601000D01*
X306593646Y-67565415D01*
X306425124Y-67495611D01*
X306273459Y-67394272D01*
X306144478Y-67265291D01*
X306043139Y-67113626D01*
X305973335Y-66945104D01*
X305937750Y-66766203D01*
X305937750Y-66583797D01*
X305973335Y-66404896D01*
X306043139Y-66236374D01*
X306144478Y-66084709D01*
X306273459Y-65955728D01*
X306425124Y-65854389D01*
X306593646Y-65784585D01*
X306772547Y-65749000D01*
X306954953Y-65749000D01*
X307133854Y-65784585D01*
G37*
G36*
X179181354Y-65784585D02*
G01*
X179349876Y-65854389D01*
X179501541Y-65955728D01*
X179630522Y-66084709D01*
X179731861Y-66236374D01*
X179801665Y-66404896D01*
X179837250Y-66583797D01*
X179837250Y-66766203D01*
X179801665Y-66945104D01*
X179731861Y-67113626D01*
X179630522Y-67265291D01*
X179501541Y-67394272D01*
X179349876Y-67495611D01*
X179181354Y-67565415D01*
X179002453Y-67601000D01*
X178820047Y-67601000D01*
X178641146Y-67565415D01*
X178472624Y-67495611D01*
X178320959Y-67394272D01*
X178191978Y-67265291D01*
X178090639Y-67113626D01*
X178020835Y-66945104D01*
X177985250Y-66766203D01*
X177985250Y-66583797D01*
X178020835Y-66404896D01*
X178090639Y-66236374D01*
X178191978Y-66084709D01*
X178320959Y-65955728D01*
X178472624Y-65854389D01*
X178641146Y-65784585D01*
X178820047Y-65749000D01*
X179002453Y-65749000D01*
X179181354Y-65784585D01*
G37*
G36*
X169021354Y-65784585D02*
G01*
X169189876Y-65854389D01*
X169341541Y-65955728D01*
X169470522Y-66084709D01*
X169571861Y-66236374D01*
X169641665Y-66404896D01*
X169677250Y-66583797D01*
X169677250Y-66766203D01*
X169641665Y-66945104D01*
X169571861Y-67113626D01*
X169470522Y-67265291D01*
X169341541Y-67394272D01*
X169189876Y-67495611D01*
X169021354Y-67565415D01*
X168842453Y-67601000D01*
X168660047Y-67601000D01*
X168481146Y-67565415D01*
X168312624Y-67495611D01*
X168160959Y-67394272D01*
X168031978Y-67265291D01*
X167930639Y-67113626D01*
X167860835Y-66945104D01*
X167825250Y-66766203D01*
X167825250Y-66583797D01*
X167860835Y-66404896D01*
X167930639Y-66236374D01*
X168031978Y-66084709D01*
X168160959Y-65955728D01*
X168312624Y-65854389D01*
X168481146Y-65784585D01*
X168660047Y-65749000D01*
X168842453Y-65749000D01*
X169021354Y-65784585D01*
G37*
G36*
X92821354Y-65784585D02*
G01*
X92989876Y-65854389D01*
X93141541Y-65955728D01*
X93270522Y-66084709D01*
X93371861Y-66236374D01*
X93441665Y-66404896D01*
X93477250Y-66583797D01*
X93477250Y-66766203D01*
X93441665Y-66945104D01*
X93371861Y-67113626D01*
X93270522Y-67265291D01*
X93141541Y-67394272D01*
X92989876Y-67495611D01*
X92821354Y-67565415D01*
X92642453Y-67601000D01*
X92460047Y-67601000D01*
X92281146Y-67565415D01*
X92112624Y-67495611D01*
X91960959Y-67394272D01*
X91831978Y-67265291D01*
X91730639Y-67113626D01*
X91660835Y-66945104D01*
X91625250Y-66766203D01*
X91625250Y-66583797D01*
X91660835Y-66404896D01*
X91730639Y-66236374D01*
X91831978Y-66084709D01*
X91960959Y-65955728D01*
X92112624Y-65854389D01*
X92281146Y-65784585D01*
X92460047Y-65749000D01*
X92642453Y-65749000D01*
X92821354Y-65784585D01*
G37*
G36*
X255381354Y-65784585D02*
G01*
X255549876Y-65854389D01*
X255701541Y-65955728D01*
X255830522Y-66084709D01*
X255931861Y-66236374D01*
X256001665Y-66404896D01*
X256037250Y-66583797D01*
X256037250Y-66766203D01*
X256001665Y-66945104D01*
X255931861Y-67113626D01*
X255830522Y-67265291D01*
X255701541Y-67394272D01*
X255549876Y-67495611D01*
X255381354Y-67565415D01*
X255202453Y-67601000D01*
X255020047Y-67601000D01*
X254841146Y-67565415D01*
X254672624Y-67495611D01*
X254520959Y-67394272D01*
X254391978Y-67265291D01*
X254290639Y-67113626D01*
X254220835Y-66945104D01*
X254185250Y-66766203D01*
X254185250Y-66583797D01*
X254220835Y-66404896D01*
X254290639Y-66236374D01*
X254391978Y-66084709D01*
X254520959Y-65955728D01*
X254672624Y-65854389D01*
X254841146Y-65784585D01*
X255020047Y-65749000D01*
X255202453Y-65749000D01*
X255381354Y-65784585D01*
G37*
G36*
X317293854Y-65784585D02*
G01*
X317462376Y-65854389D01*
X317614041Y-65955728D01*
X317743022Y-66084709D01*
X317844361Y-66236374D01*
X317914165Y-66404896D01*
X317949750Y-66583797D01*
X317949750Y-66766203D01*
X317914165Y-66945104D01*
X317844361Y-67113626D01*
X317743022Y-67265291D01*
X317614041Y-67394272D01*
X317462376Y-67495611D01*
X317293854Y-67565415D01*
X317114953Y-67601000D01*
X316932547Y-67601000D01*
X316753646Y-67565415D01*
X316585124Y-67495611D01*
X316433459Y-67394272D01*
X316304478Y-67265291D01*
X316203139Y-67113626D01*
X316133335Y-66945104D01*
X316097750Y-66766203D01*
X316097750Y-66583797D01*
X316133335Y-66404896D01*
X316203139Y-66236374D01*
X316304478Y-66084709D01*
X316433459Y-65955728D01*
X316585124Y-65854389D01*
X316753646Y-65784585D01*
X316932547Y-65749000D01*
X317114953Y-65749000D01*
X317293854Y-65784585D01*
G37*
G36*
X73771354Y-65784585D02*
G01*
X73939876Y-65854389D01*
X74091541Y-65955728D01*
X74220522Y-66084709D01*
X74321861Y-66236374D01*
X74391665Y-66404896D01*
X74427250Y-66583797D01*
X74427250Y-66766203D01*
X74391665Y-66945104D01*
X74321861Y-67113626D01*
X74220522Y-67265291D01*
X74091541Y-67394272D01*
X73939876Y-67495611D01*
X73771354Y-67565415D01*
X73592453Y-67601000D01*
X73410047Y-67601000D01*
X73231146Y-67565415D01*
X73062624Y-67495611D01*
X72910959Y-67394272D01*
X72781978Y-67265291D01*
X72680639Y-67113626D01*
X72610835Y-66945104D01*
X72575250Y-66766203D01*
X72575250Y-66583797D01*
X72610835Y-66404896D01*
X72680639Y-66236374D01*
X72781978Y-66084709D01*
X72910959Y-65955728D01*
X73062624Y-65854389D01*
X73231146Y-65784585D01*
X73410047Y-65749000D01*
X73592453Y-65749000D01*
X73771354Y-65784585D01*
G37*
G36*
X83931354Y-65784585D02*
G01*
X84099876Y-65854389D01*
X84251541Y-65955728D01*
X84380522Y-66084709D01*
X84481861Y-66236374D01*
X84551665Y-66404896D01*
X84587250Y-66583797D01*
X84587250Y-66766203D01*
X84551665Y-66945104D01*
X84481861Y-67113626D01*
X84380522Y-67265291D01*
X84251541Y-67394272D01*
X84099876Y-67495611D01*
X83931354Y-67565415D01*
X83752453Y-67601000D01*
X83570047Y-67601000D01*
X83391146Y-67565415D01*
X83222624Y-67495611D01*
X83070959Y-67394272D01*
X82941978Y-67265291D01*
X82840639Y-67113626D01*
X82770835Y-66945104D01*
X82735250Y-66766203D01*
X82735250Y-66583797D01*
X82770835Y-66404896D01*
X82840639Y-66236374D01*
X82941978Y-66084709D01*
X83070959Y-65955728D01*
X83222624Y-65854389D01*
X83391146Y-65784585D01*
X83570047Y-65749000D01*
X83752453Y-65749000D01*
X83931354Y-65784585D01*
G37*
G36*
X198231354Y-65784585D02*
G01*
X198399876Y-65854389D01*
X198551541Y-65955728D01*
X198680522Y-66084709D01*
X198781861Y-66236374D01*
X198851665Y-66404896D01*
X198887250Y-66583797D01*
X198887250Y-66766203D01*
X198851665Y-66945104D01*
X198781861Y-67113626D01*
X198680522Y-67265291D01*
X198551541Y-67394272D01*
X198399876Y-67495611D01*
X198231354Y-67565415D01*
X198052453Y-67601000D01*
X197870047Y-67601000D01*
X197691146Y-67565415D01*
X197522624Y-67495611D01*
X197370959Y-67394272D01*
X197241978Y-67265291D01*
X197140639Y-67113626D01*
X197070835Y-66945104D01*
X197035250Y-66766203D01*
X197035250Y-66583797D01*
X197070835Y-66404896D01*
X197140639Y-66236374D01*
X197241978Y-66084709D01*
X197370959Y-65955728D01*
X197522624Y-65854389D01*
X197691146Y-65784585D01*
X197870047Y-65749000D01*
X198052453Y-65749000D01*
X198231354Y-65784585D01*
G37*
G36*
X188071354Y-65784585D02*
G01*
X188239876Y-65854389D01*
X188391541Y-65955728D01*
X188520522Y-66084709D01*
X188621861Y-66236374D01*
X188691665Y-66404896D01*
X188727250Y-66583797D01*
X188727250Y-66766203D01*
X188691665Y-66945104D01*
X188621861Y-67113626D01*
X188520522Y-67265291D01*
X188391541Y-67394272D01*
X188239876Y-67495611D01*
X188071354Y-67565415D01*
X187892453Y-67601000D01*
X187710047Y-67601000D01*
X187531146Y-67565415D01*
X187362624Y-67495611D01*
X187210959Y-67394272D01*
X187081978Y-67265291D01*
X186980639Y-67113626D01*
X186910835Y-66945104D01*
X186875250Y-66766203D01*
X186875250Y-66583797D01*
X186910835Y-66404896D01*
X186980639Y-66236374D01*
X187081978Y-66084709D01*
X187210959Y-65955728D01*
X187362624Y-65854389D01*
X187531146Y-65784585D01*
X187710047Y-65749000D01*
X187892453Y-65749000D01*
X188071354Y-65784585D01*
G37*
G36*
X54721354Y-65784585D02*
G01*
X54889876Y-65854389D01*
X55041541Y-65955728D01*
X55170522Y-66084709D01*
X55271861Y-66236374D01*
X55341665Y-66404896D01*
X55377250Y-66583797D01*
X55377250Y-66766203D01*
X55341665Y-66945104D01*
X55271861Y-67113626D01*
X55170522Y-67265291D01*
X55041541Y-67394272D01*
X54889876Y-67495611D01*
X54721354Y-67565415D01*
X54542453Y-67601000D01*
X54360047Y-67601000D01*
X54181146Y-67565415D01*
X54012624Y-67495611D01*
X53860959Y-67394272D01*
X53731978Y-67265291D01*
X53630639Y-67113626D01*
X53560835Y-66945104D01*
X53525250Y-66766203D01*
X53525250Y-66583797D01*
X53560835Y-66404896D01*
X53630639Y-66236374D01*
X53731978Y-66084709D01*
X53860959Y-65955728D01*
X54012624Y-65854389D01*
X54181146Y-65784585D01*
X54360047Y-65749000D01*
X54542453Y-65749000D01*
X54721354Y-65784585D01*
G37*
G36*
X217281354Y-65784585D02*
G01*
X217449876Y-65854389D01*
X217601541Y-65955728D01*
X217730522Y-66084709D01*
X217831861Y-66236374D01*
X217901665Y-66404896D01*
X217937250Y-66583797D01*
X217937250Y-66766203D01*
X217901665Y-66945104D01*
X217831861Y-67113626D01*
X217730522Y-67265291D01*
X217601541Y-67394272D01*
X217449876Y-67495611D01*
X217281354Y-67565415D01*
X217102453Y-67601000D01*
X216920047Y-67601000D01*
X216741146Y-67565415D01*
X216572624Y-67495611D01*
X216420959Y-67394272D01*
X216291978Y-67265291D01*
X216190639Y-67113626D01*
X216120835Y-66945104D01*
X216085250Y-66766203D01*
X216085250Y-66583797D01*
X216120835Y-66404896D01*
X216190639Y-66236374D01*
X216291978Y-66084709D01*
X216420959Y-65955728D01*
X216572624Y-65854389D01*
X216741146Y-65784585D01*
X216920047Y-65749000D01*
X217102453Y-65749000D01*
X217281354Y-65784585D01*
G37*
G36*
X207121354Y-65784585D02*
G01*
X207289876Y-65854389D01*
X207441541Y-65955728D01*
X207570522Y-66084709D01*
X207671861Y-66236374D01*
X207741665Y-66404896D01*
X207777250Y-66583797D01*
X207777250Y-66766203D01*
X207741665Y-66945104D01*
X207671861Y-67113626D01*
X207570522Y-67265291D01*
X207441541Y-67394272D01*
X207289876Y-67495611D01*
X207121354Y-67565415D01*
X206942453Y-67601000D01*
X206760047Y-67601000D01*
X206581146Y-67565415D01*
X206412624Y-67495611D01*
X206260959Y-67394272D01*
X206131978Y-67265291D01*
X206030639Y-67113626D01*
X205960835Y-66945104D01*
X205925250Y-66766203D01*
X205925250Y-66583797D01*
X205960835Y-66404896D01*
X206030639Y-66236374D01*
X206131978Y-66084709D01*
X206260959Y-65955728D01*
X206412624Y-65854389D01*
X206581146Y-65784585D01*
X206760047Y-65749000D01*
X206942453Y-65749000D01*
X207121354Y-65784585D01*
G37*
G36*
X64881354Y-65784585D02*
G01*
X65049876Y-65854389D01*
X65201541Y-65955728D01*
X65330522Y-66084709D01*
X65431861Y-66236374D01*
X65501665Y-66404896D01*
X65537250Y-66583797D01*
X65537250Y-66766203D01*
X65501665Y-66945104D01*
X65431861Y-67113626D01*
X65330522Y-67265291D01*
X65201541Y-67394272D01*
X65049876Y-67495611D01*
X64881354Y-67565415D01*
X64702453Y-67601000D01*
X64520047Y-67601000D01*
X64341146Y-67565415D01*
X64172624Y-67495611D01*
X64020959Y-67394272D01*
X63891978Y-67265291D01*
X63790639Y-67113626D01*
X63720835Y-66945104D01*
X63685250Y-66766203D01*
X63685250Y-66583797D01*
X63720835Y-66404896D01*
X63790639Y-66236374D01*
X63891978Y-66084709D01*
X64020959Y-65955728D01*
X64172624Y-65854389D01*
X64341146Y-65784585D01*
X64520047Y-65749000D01*
X64702453Y-65749000D01*
X64881354Y-65784585D01*
G37*
G36*
X245221354Y-65784585D02*
G01*
X245389876Y-65854389D01*
X245541541Y-65955728D01*
X245670522Y-66084709D01*
X245771861Y-66236374D01*
X245841665Y-66404896D01*
X245877250Y-66583797D01*
X245877250Y-66766203D01*
X245841665Y-66945104D01*
X245771861Y-67113626D01*
X245670522Y-67265291D01*
X245541541Y-67394272D01*
X245389876Y-67495611D01*
X245221354Y-67565415D01*
X245042453Y-67601000D01*
X244860047Y-67601000D01*
X244681146Y-67565415D01*
X244512624Y-67495611D01*
X244360959Y-67394272D01*
X244231978Y-67265291D01*
X244130639Y-67113626D01*
X244060835Y-66945104D01*
X244025250Y-66766203D01*
X244025250Y-66583797D01*
X244060835Y-66404896D01*
X244130639Y-66236374D01*
X244231978Y-66084709D01*
X244360959Y-65955728D01*
X244512624Y-65854389D01*
X244681146Y-65784585D01*
X244860047Y-65749000D01*
X245042453Y-65749000D01*
X245221354Y-65784585D01*
G37*
G36*
X28527604Y-65784585D02*
G01*
X28696126Y-65854389D01*
X28847791Y-65955728D01*
X28976772Y-66084709D01*
X29078111Y-66236374D01*
X29147915Y-66404896D01*
X29183500Y-66583797D01*
X29183500Y-66766203D01*
X29147915Y-66945104D01*
X29078111Y-67113626D01*
X28976772Y-67265291D01*
X28847791Y-67394272D01*
X28696126Y-67495611D01*
X28527604Y-67565415D01*
X28348703Y-67601000D01*
X28166297Y-67601000D01*
X27987396Y-67565415D01*
X27818874Y-67495611D01*
X27667209Y-67394272D01*
X27538228Y-67265291D01*
X27436889Y-67113626D01*
X27367085Y-66945104D01*
X27331500Y-66766203D01*
X27331500Y-66583797D01*
X27367085Y-66404896D01*
X27436889Y-66236374D01*
X27538228Y-66084709D01*
X27667209Y-65955728D01*
X27818874Y-65854389D01*
X27987396Y-65784585D01*
X28166297Y-65749000D01*
X28348703Y-65749000D01*
X28527604Y-65784585D01*
G37*
G36*
X38687604Y-65784585D02*
G01*
X38856126Y-65854389D01*
X39007791Y-65955728D01*
X39136772Y-66084709D01*
X39238111Y-66236374D01*
X39307915Y-66404896D01*
X39343500Y-66583797D01*
X39343500Y-66766203D01*
X39307915Y-66945104D01*
X39238111Y-67113626D01*
X39136772Y-67265291D01*
X39007791Y-67394272D01*
X38856126Y-67495611D01*
X38687604Y-67565415D01*
X38508703Y-67601000D01*
X38326297Y-67601000D01*
X38147396Y-67565415D01*
X37978874Y-67495611D01*
X37827209Y-67394272D01*
X37698228Y-67265291D01*
X37596889Y-67113626D01*
X37527085Y-66945104D01*
X37491500Y-66766203D01*
X37491500Y-66583797D01*
X37527085Y-66404896D01*
X37596889Y-66236374D01*
X37698228Y-66084709D01*
X37827209Y-65955728D01*
X37978874Y-65854389D01*
X38147396Y-65784585D01*
X38326297Y-65749000D01*
X38508703Y-65749000D01*
X38687604Y-65784585D01*
G37*
G36*
X276177604Y-65784585D02*
G01*
X276346126Y-65854389D01*
X276497791Y-65955728D01*
X276626772Y-66084709D01*
X276728111Y-66236374D01*
X276797915Y-66404896D01*
X276833500Y-66583797D01*
X276833500Y-66766203D01*
X276797915Y-66945104D01*
X276728111Y-67113626D01*
X276626772Y-67265291D01*
X276497791Y-67394272D01*
X276346126Y-67495611D01*
X276177604Y-67565415D01*
X275998703Y-67601000D01*
X275816297Y-67601000D01*
X275637396Y-67565415D01*
X275468874Y-67495611D01*
X275317209Y-67394272D01*
X275188228Y-67265291D01*
X275086889Y-67113626D01*
X275017085Y-66945104D01*
X274981500Y-66766203D01*
X274981500Y-66583797D01*
X275017085Y-66404896D01*
X275086889Y-66236374D01*
X275188228Y-66084709D01*
X275317209Y-65955728D01*
X275468874Y-65854389D01*
X275637396Y-65784585D01*
X275816297Y-65749000D01*
X275998703Y-65749000D01*
X276177604Y-65784585D01*
G37*
G36*
X236331354Y-65784585D02*
G01*
X236499876Y-65854389D01*
X236651541Y-65955728D01*
X236780522Y-66084709D01*
X236881861Y-66236374D01*
X236951665Y-66404896D01*
X236987250Y-66583797D01*
X236987250Y-66766203D01*
X236951665Y-66945104D01*
X236881861Y-67113626D01*
X236780522Y-67265291D01*
X236651541Y-67394272D01*
X236499876Y-67495611D01*
X236331354Y-67565415D01*
X236152453Y-67601000D01*
X235970047Y-67601000D01*
X235791146Y-67565415D01*
X235622624Y-67495611D01*
X235470959Y-67394272D01*
X235341978Y-67265291D01*
X235240639Y-67113626D01*
X235170835Y-66945104D01*
X235135250Y-66766203D01*
X235135250Y-66583797D01*
X235170835Y-66404896D01*
X235240639Y-66236374D01*
X235341978Y-66084709D01*
X235470959Y-65955728D01*
X235622624Y-65854389D01*
X235791146Y-65784585D01*
X235970047Y-65749000D01*
X236152453Y-65749000D01*
X236331354Y-65784585D01*
G37*
G36*
X226171354Y-65784585D02*
G01*
X226339876Y-65854389D01*
X226491541Y-65955728D01*
X226620522Y-66084709D01*
X226721861Y-66236374D01*
X226791665Y-66404896D01*
X226827250Y-66583797D01*
X226827250Y-66766203D01*
X226791665Y-66945104D01*
X226721861Y-67113626D01*
X226620522Y-67265291D01*
X226491541Y-67394272D01*
X226339876Y-67495611D01*
X226171354Y-67565415D01*
X225992453Y-67601000D01*
X225810047Y-67601000D01*
X225631146Y-67565415D01*
X225462624Y-67495611D01*
X225310959Y-67394272D01*
X225181978Y-67265291D01*
X225080639Y-67113626D01*
X225010835Y-66945104D01*
X224975250Y-66766203D01*
X224975250Y-66583797D01*
X225010835Y-66404896D01*
X225080639Y-66236374D01*
X225181978Y-66084709D01*
X225310959Y-65955728D01*
X225462624Y-65854389D01*
X225631146Y-65784585D01*
X225810047Y-65749000D01*
X225992453Y-65749000D01*
X226171354Y-65784585D01*
G37*
G36*
X286337604Y-65784585D02*
G01*
X286506126Y-65854389D01*
X286657791Y-65955728D01*
X286786772Y-66084709D01*
X286888111Y-66236374D01*
X286957915Y-66404896D01*
X286993500Y-66583797D01*
X286993500Y-66766203D01*
X286957915Y-66945104D01*
X286888111Y-67113626D01*
X286786772Y-67265291D01*
X286657791Y-67394272D01*
X286506126Y-67495611D01*
X286337604Y-67565415D01*
X286158703Y-67601000D01*
X285976297Y-67601000D01*
X285797396Y-67565415D01*
X285628874Y-67495611D01*
X285477209Y-67394272D01*
X285348228Y-67265291D01*
X285246889Y-67113626D01*
X285177085Y-66945104D01*
X285141500Y-66766203D01*
X285141500Y-66583797D01*
X285177085Y-66404896D01*
X285246889Y-66236374D01*
X285348228Y-66084709D01*
X285477209Y-65955728D01*
X285628874Y-65854389D01*
X285797396Y-65784585D01*
X285976297Y-65749000D01*
X286158703Y-65749000D01*
X286337604Y-65784585D01*
G37*
G36*
X102981354Y-65784585D02*
G01*
X103149876Y-65854389D01*
X103301541Y-65955728D01*
X103430522Y-66084709D01*
X103531861Y-66236374D01*
X103601665Y-66404896D01*
X103637250Y-66583797D01*
X103637250Y-66766203D01*
X103601665Y-66945104D01*
X103531861Y-67113626D01*
X103430522Y-67265291D01*
X103301541Y-67394272D01*
X103149876Y-67495611D01*
X102981354Y-67565415D01*
X102802453Y-67601000D01*
X102620047Y-67601000D01*
X102441146Y-67565415D01*
X102272624Y-67495611D01*
X102120959Y-67394272D01*
X101991978Y-67265291D01*
X101890639Y-67113626D01*
X101820835Y-66945104D01*
X101785250Y-66766203D01*
X101785250Y-66583797D01*
X101820835Y-66404896D01*
X101890639Y-66236374D01*
X101991978Y-66084709D01*
X102120959Y-65955728D01*
X102272624Y-65854389D01*
X102441146Y-65784585D01*
X102620047Y-65749000D01*
X102802453Y-65749000D01*
X102981354Y-65784585D01*
G37*
G36*
X269540661Y-58175526D02*
G01*
X269659387Y-58224704D01*
X269827291Y-58294252D01*
X269827292Y-58294253D01*
X270085254Y-58466617D01*
X270304633Y-58685996D01*
X270419803Y-58858361D01*
X270476998Y-58943959D01*
X270595724Y-59230590D01*
X270656250Y-59534875D01*
X270656250Y-59845125D01*
X270595724Y-60149410D01*
X270476998Y-60436041D01*
X270476997Y-60436042D01*
X270304633Y-60694004D01*
X270085254Y-60913383D01*
X269912889Y-61028553D01*
X269827291Y-61085748D01*
X269659387Y-61155296D01*
X269540661Y-61204474D01*
X269388517Y-61234737D01*
X269236375Y-61265000D01*
X268926125Y-61265000D01*
X268773983Y-61234737D01*
X268621839Y-61204474D01*
X268503113Y-61155296D01*
X268335209Y-61085748D01*
X268249611Y-61028553D01*
X268077246Y-60913383D01*
X267857867Y-60694004D01*
X267685503Y-60436042D01*
X267685502Y-60436041D01*
X267566776Y-60149410D01*
X267506250Y-59845125D01*
X267506250Y-59534875D01*
X267566776Y-59230590D01*
X267685502Y-58943959D01*
X267742697Y-58858361D01*
X267857867Y-58685996D01*
X268077246Y-58466617D01*
X268335208Y-58294253D01*
X268335209Y-58294252D01*
X268503113Y-58224704D01*
X268621839Y-58175526D01*
X268926125Y-58115000D01*
X269236375Y-58115000D01*
X269540661Y-58175526D01*
G37*
G36*
X293353161Y-58175526D02*
G01*
X293471887Y-58224704D01*
X293639791Y-58294252D01*
X293639792Y-58294253D01*
X293897754Y-58466617D01*
X294117133Y-58685996D01*
X294232303Y-58858361D01*
X294289498Y-58943959D01*
X294408224Y-59230590D01*
X294468750Y-59534875D01*
X294468750Y-59845125D01*
X294408224Y-60149410D01*
X294289498Y-60436041D01*
X294289497Y-60436042D01*
X294117133Y-60694004D01*
X293897754Y-60913383D01*
X293725389Y-61028553D01*
X293639791Y-61085748D01*
X293471887Y-61155296D01*
X293353161Y-61204474D01*
X293201017Y-61234737D01*
X293048875Y-61265000D01*
X292738625Y-61265000D01*
X292586483Y-61234737D01*
X292434339Y-61204474D01*
X292315613Y-61155296D01*
X292147709Y-61085748D01*
X292062111Y-61028553D01*
X291889746Y-60913383D01*
X291670367Y-60694004D01*
X291498003Y-60436042D01*
X291498002Y-60436041D01*
X291379276Y-60149410D01*
X291318750Y-59845125D01*
X291318750Y-59534875D01*
X291379276Y-59230590D01*
X291498002Y-58943959D01*
X291555197Y-58858361D01*
X291670367Y-58685996D01*
X291889746Y-58466617D01*
X292147708Y-58294253D01*
X292147709Y-58294252D01*
X292315613Y-58224704D01*
X292434339Y-58175526D01*
X292738625Y-58115000D01*
X293048875Y-58115000D01*
X293353161Y-58175526D01*
G37*
G36*
X169665224Y-45658684D02*
G01*
X169883224Y-45748983D01*
X170037373Y-45812833D01*
X170372298Y-46036623D01*
X170657127Y-46321452D01*
X170880917Y-46656377D01*
X170913312Y-46734586D01*
X171035066Y-47028526D01*
X171113650Y-47423594D01*
X171113650Y-47826406D01*
X171035066Y-48221474D01*
X170984201Y-48344272D01*
X170880917Y-48593623D01*
X170657127Y-48928548D01*
X170372298Y-49213377D01*
X170037373Y-49437167D01*
X169883224Y-49501017D01*
X169665224Y-49591316D01*
X169270156Y-49669900D01*
X168867344Y-49669900D01*
X168472276Y-49591316D01*
X168254276Y-49501017D01*
X168100127Y-49437167D01*
X167765202Y-49213377D01*
X167480373Y-48928548D01*
X167256583Y-48593623D01*
X167153299Y-48344272D01*
X167102434Y-48221474D01*
X167023850Y-47826406D01*
X167023850Y-47423594D01*
X167102434Y-47028526D01*
X167224188Y-46734586D01*
X167256583Y-46656377D01*
X167480373Y-46321452D01*
X167765202Y-46036623D01*
X168100127Y-45812833D01*
X168254276Y-45748983D01*
X168472276Y-45658684D01*
X168867344Y-45580100D01*
X169270156Y-45580100D01*
X169665224Y-45658684D01*
G37*
G36*
X245865224Y-45658684D02*
G01*
X246083224Y-45748983D01*
X246237373Y-45812833D01*
X246572298Y-46036623D01*
X246857127Y-46321452D01*
X247080917Y-46656377D01*
X247113312Y-46734586D01*
X247235066Y-47028526D01*
X247313650Y-47423594D01*
X247313650Y-47826406D01*
X247235066Y-48221474D01*
X247184201Y-48344272D01*
X247080917Y-48593623D01*
X246857127Y-48928548D01*
X246572298Y-49213377D01*
X246237373Y-49437167D01*
X246083224Y-49501017D01*
X245865224Y-49591316D01*
X245470156Y-49669900D01*
X245067344Y-49669900D01*
X244672276Y-49591316D01*
X244454276Y-49501017D01*
X244300127Y-49437167D01*
X243965202Y-49213377D01*
X243680373Y-48928548D01*
X243456583Y-48593623D01*
X243353299Y-48344272D01*
X243302434Y-48221474D01*
X243223850Y-47826406D01*
X243223850Y-47423594D01*
X243302434Y-47028526D01*
X243424188Y-46734586D01*
X243456583Y-46656377D01*
X243680373Y-46321452D01*
X243965202Y-46036623D01*
X244300127Y-45812833D01*
X244454276Y-45748983D01*
X244672276Y-45658684D01*
X245067344Y-45580100D01*
X245470156Y-45580100D01*
X245865224Y-45658684D01*
G37*
G36*
X131565224Y-45658684D02*
G01*
X131783224Y-45748983D01*
X131937373Y-45812833D01*
X132272298Y-46036623D01*
X132557127Y-46321452D01*
X132780917Y-46656377D01*
X132813312Y-46734586D01*
X132935066Y-47028526D01*
X133013650Y-47423594D01*
X133013650Y-47826406D01*
X132935066Y-48221474D01*
X132884201Y-48344272D01*
X132780917Y-48593623D01*
X132557127Y-48928548D01*
X132272298Y-49213377D01*
X131937373Y-49437167D01*
X131783224Y-49501017D01*
X131565224Y-49591316D01*
X131170156Y-49669900D01*
X130767344Y-49669900D01*
X130372276Y-49591316D01*
X130154276Y-49501017D01*
X130000127Y-49437167D01*
X129665202Y-49213377D01*
X129380373Y-48928548D01*
X129156583Y-48593623D01*
X129053299Y-48344272D01*
X129002434Y-48221474D01*
X128923850Y-47826406D01*
X128923850Y-47423594D01*
X129002434Y-47028526D01*
X129124188Y-46734586D01*
X129156583Y-46656377D01*
X129380373Y-46321452D01*
X129665202Y-46036623D01*
X130000127Y-45812833D01*
X130154276Y-45748983D01*
X130372276Y-45658684D01*
X130767344Y-45580100D01*
X131170156Y-45580100D01*
X131565224Y-45658684D01*
G37*
G36*
X112515224Y-45658684D02*
G01*
X112733224Y-45748983D01*
X112887373Y-45812833D01*
X113222298Y-46036623D01*
X113507127Y-46321452D01*
X113730917Y-46656377D01*
X113763312Y-46734586D01*
X113885066Y-47028526D01*
X113963650Y-47423594D01*
X113963650Y-47826406D01*
X113885066Y-48221474D01*
X113834201Y-48344272D01*
X113730917Y-48593623D01*
X113507127Y-48928548D01*
X113222298Y-49213377D01*
X112887373Y-49437167D01*
X112733224Y-49501017D01*
X112515224Y-49591316D01*
X112120156Y-49669900D01*
X111717344Y-49669900D01*
X111322276Y-49591316D01*
X111104276Y-49501017D01*
X110950127Y-49437167D01*
X110615202Y-49213377D01*
X110330373Y-48928548D01*
X110106583Y-48593623D01*
X110003299Y-48344272D01*
X109952434Y-48221474D01*
X109873850Y-47826406D01*
X109873850Y-47423594D01*
X109952434Y-47028526D01*
X110074188Y-46734586D01*
X110106583Y-46656377D01*
X110330373Y-46321452D01*
X110615202Y-46036623D01*
X110950127Y-45812833D01*
X111104276Y-45748983D01*
X111322276Y-45658684D01*
X111717344Y-45580100D01*
X112120156Y-45580100D01*
X112515224Y-45658684D01*
G37*
G36*
X93465224Y-45658684D02*
G01*
X93683224Y-45748983D01*
X93837373Y-45812833D01*
X94172298Y-46036623D01*
X94457127Y-46321452D01*
X94680917Y-46656377D01*
X94713312Y-46734586D01*
X94835066Y-47028526D01*
X94913650Y-47423594D01*
X94913650Y-47826406D01*
X94835066Y-48221474D01*
X94784201Y-48344272D01*
X94680917Y-48593623D01*
X94457127Y-48928548D01*
X94172298Y-49213377D01*
X93837373Y-49437167D01*
X93683224Y-49501017D01*
X93465224Y-49591316D01*
X93070156Y-49669900D01*
X92667344Y-49669900D01*
X92272276Y-49591316D01*
X92054276Y-49501017D01*
X91900127Y-49437167D01*
X91565202Y-49213377D01*
X91280373Y-48928548D01*
X91056583Y-48593623D01*
X90953299Y-48344272D01*
X90902434Y-48221474D01*
X90823850Y-47826406D01*
X90823850Y-47423594D01*
X90902434Y-47028526D01*
X91024188Y-46734586D01*
X91056583Y-46656377D01*
X91280373Y-46321452D01*
X91565202Y-46036623D01*
X91900127Y-45812833D01*
X92054276Y-45748983D01*
X92272276Y-45658684D01*
X92667344Y-45580100D01*
X93070156Y-45580100D01*
X93465224Y-45658684D01*
G37*
G36*
X312540224Y-45658684D02*
G01*
X312758224Y-45748983D01*
X312912373Y-45812833D01*
X313247298Y-46036623D01*
X313532127Y-46321452D01*
X313755917Y-46656377D01*
X313788312Y-46734586D01*
X313910066Y-47028526D01*
X313988650Y-47423594D01*
X313988650Y-47826406D01*
X313910066Y-48221474D01*
X313859201Y-48344272D01*
X313755917Y-48593623D01*
X313532127Y-48928548D01*
X313247298Y-49213377D01*
X312912373Y-49437167D01*
X312758224Y-49501017D01*
X312540224Y-49591316D01*
X312145156Y-49669900D01*
X311742344Y-49669900D01*
X311347276Y-49591316D01*
X311129276Y-49501017D01*
X310975127Y-49437167D01*
X310640202Y-49213377D01*
X310355373Y-48928548D01*
X310131583Y-48593623D01*
X310028299Y-48344272D01*
X309977434Y-48221474D01*
X309898850Y-47826406D01*
X309898850Y-47423594D01*
X309977434Y-47028526D01*
X310099188Y-46734586D01*
X310131583Y-46656377D01*
X310355373Y-46321452D01*
X310640202Y-46036623D01*
X310975127Y-45812833D01*
X311129276Y-45748983D01*
X311347276Y-45658684D01*
X311742344Y-45580100D01*
X312145156Y-45580100D01*
X312540224Y-45658684D01*
G37*
G36*
X74415224Y-45658684D02*
G01*
X74633224Y-45748983D01*
X74787373Y-45812833D01*
X75122298Y-46036623D01*
X75407127Y-46321452D01*
X75630917Y-46656377D01*
X75663312Y-46734586D01*
X75785066Y-47028526D01*
X75863650Y-47423594D01*
X75863650Y-47826406D01*
X75785066Y-48221474D01*
X75734201Y-48344272D01*
X75630917Y-48593623D01*
X75407127Y-48928548D01*
X75122298Y-49213377D01*
X74787373Y-49437167D01*
X74633224Y-49501017D01*
X74415224Y-49591316D01*
X74020156Y-49669900D01*
X73617344Y-49669900D01*
X73222276Y-49591316D01*
X73004276Y-49501017D01*
X72850127Y-49437167D01*
X72515202Y-49213377D01*
X72230373Y-48928548D01*
X72006583Y-48593623D01*
X71903299Y-48344272D01*
X71852434Y-48221474D01*
X71773850Y-47826406D01*
X71773850Y-47423594D01*
X71852434Y-47028526D01*
X71974188Y-46734586D01*
X72006583Y-46656377D01*
X72230373Y-46321452D01*
X72515202Y-46036623D01*
X72850127Y-45812833D01*
X73004276Y-45748983D01*
X73222276Y-45658684D01*
X73617344Y-45580100D01*
X74020156Y-45580100D01*
X74415224Y-45658684D01*
G37*
G36*
X55365224Y-45658684D02*
G01*
X55583224Y-45748983D01*
X55737373Y-45812833D01*
X56072298Y-46036623D01*
X56357127Y-46321452D01*
X56580917Y-46656377D01*
X56613312Y-46734586D01*
X56735066Y-47028526D01*
X56813650Y-47423594D01*
X56813650Y-47826406D01*
X56735066Y-48221474D01*
X56684201Y-48344272D01*
X56580917Y-48593623D01*
X56357127Y-48928548D01*
X56072298Y-49213377D01*
X55737373Y-49437167D01*
X55583224Y-49501017D01*
X55365224Y-49591316D01*
X54970156Y-49669900D01*
X54567344Y-49669900D01*
X54172276Y-49591316D01*
X53954276Y-49501017D01*
X53800127Y-49437167D01*
X53465202Y-49213377D01*
X53180373Y-48928548D01*
X52956583Y-48593623D01*
X52853299Y-48344272D01*
X52802434Y-48221474D01*
X52723850Y-47826406D01*
X52723850Y-47423594D01*
X52802434Y-47028526D01*
X52924188Y-46734586D01*
X52956583Y-46656377D01*
X53180373Y-46321452D01*
X53465202Y-46036623D01*
X53800127Y-45812833D01*
X53954276Y-45748983D01*
X54172276Y-45658684D01*
X54567344Y-45580100D01*
X54970156Y-45580100D01*
X55365224Y-45658684D01*
G37*
G36*
X31552724Y-45658684D02*
G01*
X31770724Y-45748983D01*
X31924873Y-45812833D01*
X32259798Y-46036623D01*
X32544627Y-46321452D01*
X32768417Y-46656377D01*
X32800812Y-46734586D01*
X32922566Y-47028526D01*
X33001150Y-47423594D01*
X33001150Y-47826406D01*
X32922566Y-48221474D01*
X32871701Y-48344272D01*
X32768417Y-48593623D01*
X32544627Y-48928548D01*
X32259798Y-49213377D01*
X31924873Y-49437167D01*
X31770724Y-49501017D01*
X31552724Y-49591316D01*
X31157656Y-49669900D01*
X30754844Y-49669900D01*
X30359776Y-49591316D01*
X30141776Y-49501017D01*
X29987627Y-49437167D01*
X29652702Y-49213377D01*
X29367873Y-48928548D01*
X29144083Y-48593623D01*
X29040799Y-48344272D01*
X28989934Y-48221474D01*
X28911350Y-47826406D01*
X28911350Y-47423594D01*
X28989934Y-47028526D01*
X29111688Y-46734586D01*
X29144083Y-46656377D01*
X29367873Y-46321452D01*
X29652702Y-46036623D01*
X29987627Y-45812833D01*
X30141776Y-45748983D01*
X30359776Y-45658684D01*
X30754844Y-45580100D01*
X31157656Y-45580100D01*
X31552724Y-45658684D01*
G37*
G36*
X288727724Y-45658684D02*
G01*
X288945724Y-45748983D01*
X289099873Y-45812833D01*
X289434798Y-46036623D01*
X289719627Y-46321452D01*
X289943417Y-46656377D01*
X289975812Y-46734586D01*
X290097566Y-47028526D01*
X290176150Y-47423594D01*
X290176150Y-47826406D01*
X290097566Y-48221474D01*
X290046701Y-48344272D01*
X289943417Y-48593623D01*
X289719627Y-48928548D01*
X289434798Y-49213377D01*
X289099873Y-49437167D01*
X288945724Y-49501017D01*
X288727724Y-49591316D01*
X288332656Y-49669900D01*
X287929844Y-49669900D01*
X287534776Y-49591316D01*
X287316776Y-49501017D01*
X287162627Y-49437167D01*
X286827702Y-49213377D01*
X286542873Y-48928548D01*
X286319083Y-48593623D01*
X286215799Y-48344272D01*
X286164934Y-48221474D01*
X286086350Y-47826406D01*
X286086350Y-47423594D01*
X286164934Y-47028526D01*
X286286688Y-46734586D01*
X286319083Y-46656377D01*
X286542873Y-46321452D01*
X286827702Y-46036623D01*
X287162627Y-45812833D01*
X287316776Y-45748983D01*
X287534776Y-45658684D01*
X287929844Y-45580100D01*
X288332656Y-45580100D01*
X288727724Y-45658684D01*
G37*
G36*
X264915224Y-45658684D02*
G01*
X265133224Y-45748983D01*
X265287373Y-45812833D01*
X265622298Y-46036623D01*
X265907127Y-46321452D01*
X266130917Y-46656377D01*
X266163312Y-46734586D01*
X266285066Y-47028526D01*
X266363650Y-47423594D01*
X266363650Y-47826406D01*
X266285066Y-48221474D01*
X266234201Y-48344272D01*
X266130917Y-48593623D01*
X265907127Y-48928548D01*
X265622298Y-49213377D01*
X265287373Y-49437167D01*
X265133224Y-49501017D01*
X264915224Y-49591316D01*
X264520156Y-49669900D01*
X264117344Y-49669900D01*
X263722276Y-49591316D01*
X263504276Y-49501017D01*
X263350127Y-49437167D01*
X263015202Y-49213377D01*
X262730373Y-48928548D01*
X262506583Y-48593623D01*
X262403299Y-48344272D01*
X262352434Y-48221474D01*
X262273850Y-47826406D01*
X262273850Y-47423594D01*
X262352434Y-47028526D01*
X262474188Y-46734586D01*
X262506583Y-46656377D01*
X262730373Y-46321452D01*
X263015202Y-46036623D01*
X263350127Y-45812833D01*
X263504276Y-45748983D01*
X263722276Y-45658684D01*
X264117344Y-45580100D01*
X264520156Y-45580100D01*
X264915224Y-45658684D01*
G37*
G36*
X150615224Y-45658684D02*
G01*
X150833224Y-45748983D01*
X150987373Y-45812833D01*
X151322298Y-46036623D01*
X151607127Y-46321452D01*
X151830917Y-46656377D01*
X151863312Y-46734586D01*
X151985066Y-47028526D01*
X152063650Y-47423594D01*
X152063650Y-47826406D01*
X151985066Y-48221474D01*
X151934201Y-48344272D01*
X151830917Y-48593623D01*
X151607127Y-48928548D01*
X151322298Y-49213377D01*
X150987373Y-49437167D01*
X150833224Y-49501017D01*
X150615224Y-49591316D01*
X150220156Y-49669900D01*
X149817344Y-49669900D01*
X149422276Y-49591316D01*
X149204276Y-49501017D01*
X149050127Y-49437167D01*
X148715202Y-49213377D01*
X148430373Y-48928548D01*
X148206583Y-48593623D01*
X148103299Y-48344272D01*
X148052434Y-48221474D01*
X147973850Y-47826406D01*
X147973850Y-47423594D01*
X148052434Y-47028526D01*
X148174188Y-46734586D01*
X148206583Y-46656377D01*
X148430373Y-46321452D01*
X148715202Y-46036623D01*
X149050127Y-45812833D01*
X149204276Y-45748983D01*
X149422276Y-45658684D01*
X149817344Y-45580100D01*
X150220156Y-45580100D01*
X150615224Y-45658684D01*
G37*
G36*
X188715224Y-45658684D02*
G01*
X188933224Y-45748983D01*
X189087373Y-45812833D01*
X189422298Y-46036623D01*
X189707127Y-46321452D01*
X189930917Y-46656377D01*
X189963312Y-46734586D01*
X190085066Y-47028526D01*
X190163650Y-47423594D01*
X190163650Y-47826406D01*
X190085066Y-48221474D01*
X190034201Y-48344272D01*
X189930917Y-48593623D01*
X189707127Y-48928548D01*
X189422298Y-49213377D01*
X189087373Y-49437167D01*
X188933224Y-49501017D01*
X188715224Y-49591316D01*
X188320156Y-49669900D01*
X187917344Y-49669900D01*
X187522276Y-49591316D01*
X187304276Y-49501017D01*
X187150127Y-49437167D01*
X186815202Y-49213377D01*
X186530373Y-48928548D01*
X186306583Y-48593623D01*
X186203299Y-48344272D01*
X186152434Y-48221474D01*
X186073850Y-47826406D01*
X186073850Y-47423594D01*
X186152434Y-47028526D01*
X186274188Y-46734586D01*
X186306583Y-46656377D01*
X186530373Y-46321452D01*
X186815202Y-46036623D01*
X187150127Y-45812833D01*
X187304276Y-45748983D01*
X187522276Y-45658684D01*
X187917344Y-45580100D01*
X188320156Y-45580100D01*
X188715224Y-45658684D01*
G37*
G36*
X207765224Y-45658684D02*
G01*
X207983224Y-45748983D01*
X208137373Y-45812833D01*
X208472298Y-46036623D01*
X208757127Y-46321452D01*
X208980917Y-46656377D01*
X209013312Y-46734586D01*
X209135066Y-47028526D01*
X209213650Y-47423594D01*
X209213650Y-47826406D01*
X209135066Y-48221474D01*
X209084201Y-48344272D01*
X208980917Y-48593623D01*
X208757127Y-48928548D01*
X208472298Y-49213377D01*
X208137373Y-49437167D01*
X207983224Y-49501017D01*
X207765224Y-49591316D01*
X207370156Y-49669900D01*
X206967344Y-49669900D01*
X206572276Y-49591316D01*
X206354276Y-49501017D01*
X206200127Y-49437167D01*
X205865202Y-49213377D01*
X205580373Y-48928548D01*
X205356583Y-48593623D01*
X205253299Y-48344272D01*
X205202434Y-48221474D01*
X205123850Y-47826406D01*
X205123850Y-47423594D01*
X205202434Y-47028526D01*
X205324188Y-46734586D01*
X205356583Y-46656377D01*
X205580373Y-46321452D01*
X205865202Y-46036623D01*
X206200127Y-45812833D01*
X206354276Y-45748983D01*
X206572276Y-45658684D01*
X206967344Y-45580100D01*
X207370156Y-45580100D01*
X207765224Y-45658684D01*
G37*
G36*
X226815224Y-45658684D02*
G01*
X227033224Y-45748983D01*
X227187373Y-45812833D01*
X227522298Y-46036623D01*
X227807127Y-46321452D01*
X228030917Y-46656377D01*
X228063312Y-46734586D01*
X228185066Y-47028526D01*
X228263650Y-47423594D01*
X228263650Y-47826406D01*
X228185066Y-48221474D01*
X228134201Y-48344272D01*
X228030917Y-48593623D01*
X227807127Y-48928548D01*
X227522298Y-49213377D01*
X227187373Y-49437167D01*
X227033224Y-49501017D01*
X226815224Y-49591316D01*
X226420156Y-49669900D01*
X226017344Y-49669900D01*
X225622276Y-49591316D01*
X225404276Y-49501017D01*
X225250127Y-49437167D01*
X224915202Y-49213377D01*
X224630373Y-48928548D01*
X224406583Y-48593623D01*
X224303299Y-48344272D01*
X224252434Y-48221474D01*
X224173850Y-47826406D01*
X224173850Y-47423594D01*
X224252434Y-47028526D01*
X224374188Y-46734586D01*
X224406583Y-46656377D01*
X224630373Y-46321452D01*
X224915202Y-46036623D01*
X225250127Y-45812833D01*
X225404276Y-45748983D01*
X225622276Y-45658684D01*
X226017344Y-45580100D01*
X226420156Y-45580100D01*
X226815224Y-45658684D01*
G37*
G36*
X293481354Y-46734585D02*
G01*
X293649876Y-46804389D01*
X293801541Y-46905728D01*
X293930522Y-47034709D01*
X294031861Y-47186374D01*
X294101665Y-47354896D01*
X294137250Y-47533797D01*
X294137250Y-47716203D01*
X294101665Y-47895104D01*
X294031861Y-48063626D01*
X293930522Y-48215291D01*
X293801541Y-48344272D01*
X293649876Y-48445611D01*
X293481354Y-48515415D01*
X293302453Y-48551000D01*
X293120047Y-48551000D01*
X292941146Y-48515415D01*
X292772624Y-48445611D01*
X292620959Y-48344272D01*
X292491978Y-48215291D01*
X292390639Y-48063626D01*
X292320835Y-47895104D01*
X292285250Y-47716203D01*
X292285250Y-47533797D01*
X292320835Y-47354896D01*
X292390639Y-47186374D01*
X292491978Y-47034709D01*
X292620959Y-46905728D01*
X292772624Y-46804389D01*
X292941146Y-46734585D01*
X293120047Y-46699000D01*
X293302453Y-46699000D01*
X293481354Y-46734585D01*
G37*
G36*
X117268854Y-46734585D02*
G01*
X117437376Y-46804389D01*
X117589041Y-46905728D01*
X117718022Y-47034709D01*
X117819361Y-47186374D01*
X117889165Y-47354896D01*
X117924750Y-47533797D01*
X117924750Y-47716203D01*
X117889165Y-47895104D01*
X117819361Y-48063626D01*
X117718022Y-48215291D01*
X117589041Y-48344272D01*
X117437376Y-48445611D01*
X117268854Y-48515415D01*
X117089953Y-48551000D01*
X116907547Y-48551000D01*
X116728646Y-48515415D01*
X116560124Y-48445611D01*
X116408459Y-48344272D01*
X116279478Y-48215291D01*
X116178139Y-48063626D01*
X116108335Y-47895104D01*
X116072750Y-47716203D01*
X116072750Y-47533797D01*
X116108335Y-47354896D01*
X116178139Y-47186374D01*
X116279478Y-47034709D01*
X116408459Y-46905728D01*
X116560124Y-46804389D01*
X116728646Y-46734585D01*
X116907547Y-46699000D01*
X117089953Y-46699000D01*
X117268854Y-46734585D01*
G37*
G36*
X136318854Y-46734585D02*
G01*
X136487376Y-46804389D01*
X136639041Y-46905728D01*
X136768022Y-47034709D01*
X136869361Y-47186374D01*
X136939165Y-47354896D01*
X136974750Y-47533797D01*
X136974750Y-47716203D01*
X136939165Y-47895104D01*
X136869361Y-48063626D01*
X136768022Y-48215291D01*
X136639041Y-48344272D01*
X136487376Y-48445611D01*
X136318854Y-48515415D01*
X136139953Y-48551000D01*
X135957547Y-48551000D01*
X135778646Y-48515415D01*
X135610124Y-48445611D01*
X135458459Y-48344272D01*
X135329478Y-48215291D01*
X135228139Y-48063626D01*
X135158335Y-47895104D01*
X135122750Y-47716203D01*
X135122750Y-47533797D01*
X135158335Y-47354896D01*
X135228139Y-47186374D01*
X135329478Y-47034709D01*
X135458459Y-46905728D01*
X135610124Y-46804389D01*
X135778646Y-46734585D01*
X135957547Y-46699000D01*
X136139953Y-46699000D01*
X136318854Y-46734585D01*
G37*
G36*
X36306354Y-46734585D02*
G01*
X36474876Y-46804389D01*
X36626541Y-46905728D01*
X36755522Y-47034709D01*
X36856861Y-47186374D01*
X36926665Y-47354896D01*
X36962250Y-47533797D01*
X36962250Y-47716203D01*
X36926665Y-47895104D01*
X36856861Y-48063626D01*
X36755522Y-48215291D01*
X36626541Y-48344272D01*
X36474876Y-48445611D01*
X36306354Y-48515415D01*
X36127453Y-48551000D01*
X35945047Y-48551000D01*
X35766146Y-48515415D01*
X35597624Y-48445611D01*
X35445959Y-48344272D01*
X35316978Y-48215291D01*
X35215639Y-48063626D01*
X35145835Y-47895104D01*
X35110250Y-47716203D01*
X35110250Y-47533797D01*
X35145835Y-47354896D01*
X35215639Y-47186374D01*
X35316978Y-47034709D01*
X35445959Y-46905728D01*
X35597624Y-46804389D01*
X35766146Y-46734585D01*
X35945047Y-46699000D01*
X36127453Y-46699000D01*
X36306354Y-46734585D01*
G37*
G36*
X259508854Y-46734585D02*
G01*
X259677376Y-46804389D01*
X259829041Y-46905728D01*
X259958022Y-47034709D01*
X260059361Y-47186374D01*
X260129165Y-47354896D01*
X260164750Y-47533797D01*
X260164750Y-47716203D01*
X260129165Y-47895104D01*
X260059361Y-48063626D01*
X259958022Y-48215291D01*
X259829041Y-48344272D01*
X259677376Y-48445611D01*
X259508854Y-48515415D01*
X259329953Y-48551000D01*
X259147547Y-48551000D01*
X258968646Y-48515415D01*
X258800124Y-48445611D01*
X258648459Y-48344272D01*
X258519478Y-48215291D01*
X258418139Y-48063626D01*
X258348335Y-47895104D01*
X258312750Y-47716203D01*
X258312750Y-47533797D01*
X258348335Y-47354896D01*
X258418139Y-47186374D01*
X258519478Y-47034709D01*
X258648459Y-46905728D01*
X258800124Y-46804389D01*
X258968646Y-46734585D01*
X259147547Y-46699000D01*
X259329953Y-46699000D01*
X259508854Y-46734585D01*
G37*
G36*
X269668854Y-46734585D02*
G01*
X269837376Y-46804389D01*
X269989041Y-46905728D01*
X270118022Y-47034709D01*
X270219361Y-47186374D01*
X270289165Y-47354896D01*
X270324750Y-47533797D01*
X270324750Y-47716203D01*
X270289165Y-47895104D01*
X270219361Y-48063626D01*
X270118022Y-48215291D01*
X269989041Y-48344272D01*
X269837376Y-48445611D01*
X269668854Y-48515415D01*
X269489953Y-48551000D01*
X269307547Y-48551000D01*
X269128646Y-48515415D01*
X268960124Y-48445611D01*
X268808459Y-48344272D01*
X268679478Y-48215291D01*
X268578139Y-48063626D01*
X268508335Y-47895104D01*
X268472750Y-47716203D01*
X268472750Y-47533797D01*
X268508335Y-47354896D01*
X268578139Y-47186374D01*
X268679478Y-47034709D01*
X268808459Y-46905728D01*
X268960124Y-46804389D01*
X269128646Y-46734585D01*
X269307547Y-46699000D01*
X269489953Y-46699000D01*
X269668854Y-46734585D01*
G37*
G36*
X126158854Y-46734585D02*
G01*
X126327376Y-46804389D01*
X126479041Y-46905728D01*
X126608022Y-47034709D01*
X126709361Y-47186374D01*
X126779165Y-47354896D01*
X126814750Y-47533797D01*
X126814750Y-47716203D01*
X126779165Y-47895104D01*
X126709361Y-48063626D01*
X126608022Y-48215291D01*
X126479041Y-48344272D01*
X126327376Y-48445611D01*
X126158854Y-48515415D01*
X125979953Y-48551000D01*
X125797547Y-48551000D01*
X125618646Y-48515415D01*
X125450124Y-48445611D01*
X125298459Y-48344272D01*
X125169478Y-48215291D01*
X125068139Y-48063626D01*
X124998335Y-47895104D01*
X124962750Y-47716203D01*
X124962750Y-47533797D01*
X124998335Y-47354896D01*
X125068139Y-47186374D01*
X125169478Y-47034709D01*
X125298459Y-46905728D01*
X125450124Y-46804389D01*
X125618646Y-46734585D01*
X125797547Y-46699000D01*
X125979953Y-46699000D01*
X126158854Y-46734585D01*
G37*
G36*
X26146354Y-46734585D02*
G01*
X26314876Y-46804389D01*
X26466541Y-46905728D01*
X26595522Y-47034709D01*
X26696861Y-47186374D01*
X26766665Y-47354896D01*
X26802250Y-47533797D01*
X26802250Y-47716203D01*
X26766665Y-47895104D01*
X26696861Y-48063626D01*
X26595522Y-48215291D01*
X26466541Y-48344272D01*
X26314876Y-48445611D01*
X26146354Y-48515415D01*
X25967453Y-48551000D01*
X25785047Y-48551000D01*
X25606146Y-48515415D01*
X25437624Y-48445611D01*
X25285959Y-48344272D01*
X25156978Y-48215291D01*
X25055639Y-48063626D01*
X24985835Y-47895104D01*
X24950250Y-47716203D01*
X24950250Y-47533797D01*
X24985835Y-47354896D01*
X25055639Y-47186374D01*
X25156978Y-47034709D01*
X25285959Y-46905728D01*
X25437624Y-46804389D01*
X25606146Y-46734585D01*
X25785047Y-46699000D01*
X25967453Y-46699000D01*
X26146354Y-46734585D01*
G37*
G36*
X317293854Y-46734585D02*
G01*
X317462376Y-46804389D01*
X317614041Y-46905728D01*
X317743022Y-47034709D01*
X317844361Y-47186374D01*
X317914165Y-47354896D01*
X317949750Y-47533797D01*
X317949750Y-47716203D01*
X317914165Y-47895104D01*
X317844361Y-48063626D01*
X317743022Y-48215291D01*
X317614041Y-48344272D01*
X317462376Y-48445611D01*
X317293854Y-48515415D01*
X317114953Y-48551000D01*
X316932547Y-48551000D01*
X316753646Y-48515415D01*
X316585124Y-48445611D01*
X316433459Y-48344272D01*
X316304478Y-48215291D01*
X316203139Y-48063626D01*
X316133335Y-47895104D01*
X316097750Y-47716203D01*
X316097750Y-47533797D01*
X316133335Y-47354896D01*
X316203139Y-47186374D01*
X316304478Y-47034709D01*
X316433459Y-46905728D01*
X316585124Y-46804389D01*
X316753646Y-46734585D01*
X316932547Y-46699000D01*
X317114953Y-46699000D01*
X317293854Y-46734585D01*
G37*
G36*
X283321354Y-46734585D02*
G01*
X283489876Y-46804389D01*
X283641541Y-46905728D01*
X283770522Y-47034709D01*
X283871861Y-47186374D01*
X283941665Y-47354896D01*
X283977250Y-47533797D01*
X283977250Y-47716203D01*
X283941665Y-47895104D01*
X283871861Y-48063626D01*
X283770522Y-48215291D01*
X283641541Y-48344272D01*
X283489876Y-48445611D01*
X283321354Y-48515415D01*
X283142453Y-48551000D01*
X282960047Y-48551000D01*
X282781146Y-48515415D01*
X282612624Y-48445611D01*
X282460959Y-48344272D01*
X282331978Y-48215291D01*
X282230639Y-48063626D01*
X282160835Y-47895104D01*
X282125250Y-47716203D01*
X282125250Y-47533797D01*
X282160835Y-47354896D01*
X282230639Y-47186374D01*
X282331978Y-47034709D01*
X282460959Y-46905728D01*
X282612624Y-46804389D01*
X282781146Y-46734585D01*
X282960047Y-46699000D01*
X283142453Y-46699000D01*
X283321354Y-46734585D01*
G37*
G36*
X307133854Y-46734585D02*
G01*
X307302376Y-46804389D01*
X307454041Y-46905728D01*
X307583022Y-47034709D01*
X307684361Y-47186374D01*
X307754165Y-47354896D01*
X307789750Y-47533797D01*
X307789750Y-47716203D01*
X307754165Y-47895104D01*
X307684361Y-48063626D01*
X307583022Y-48215291D01*
X307454041Y-48344272D01*
X307302376Y-48445611D01*
X307133854Y-48515415D01*
X306954953Y-48551000D01*
X306772547Y-48551000D01*
X306593646Y-48515415D01*
X306425124Y-48445611D01*
X306273459Y-48344272D01*
X306144478Y-48215291D01*
X306043139Y-48063626D01*
X305973335Y-47895104D01*
X305937750Y-47716203D01*
X305937750Y-47533797D01*
X305973335Y-47354896D01*
X306043139Y-47186374D01*
X306144478Y-47034709D01*
X306273459Y-46905728D01*
X306425124Y-46804389D01*
X306593646Y-46734585D01*
X306772547Y-46699000D01*
X306954953Y-46699000D01*
X307133854Y-46734585D01*
G37*
G36*
X240458854Y-46734585D02*
G01*
X240627376Y-46804389D01*
X240779041Y-46905728D01*
X240908022Y-47034709D01*
X241009361Y-47186374D01*
X241079165Y-47354896D01*
X241114750Y-47533797D01*
X241114750Y-47716203D01*
X241079165Y-47895104D01*
X241009361Y-48063626D01*
X240908022Y-48215291D01*
X240779041Y-48344272D01*
X240627376Y-48445611D01*
X240458854Y-48515415D01*
X240279953Y-48551000D01*
X240097547Y-48551000D01*
X239918646Y-48515415D01*
X239750124Y-48445611D01*
X239598459Y-48344272D01*
X239469478Y-48215291D01*
X239368139Y-48063626D01*
X239298335Y-47895104D01*
X239262750Y-47716203D01*
X239262750Y-47533797D01*
X239298335Y-47354896D01*
X239368139Y-47186374D01*
X239469478Y-47034709D01*
X239598459Y-46905728D01*
X239750124Y-46804389D01*
X239918646Y-46734585D01*
X240097547Y-46699000D01*
X240279953Y-46699000D01*
X240458854Y-46734585D01*
G37*
G36*
X250618854Y-46734585D02*
G01*
X250787376Y-46804389D01*
X250939041Y-46905728D01*
X251068022Y-47034709D01*
X251169361Y-47186374D01*
X251239165Y-47354896D01*
X251274750Y-47533797D01*
X251274750Y-47716203D01*
X251239165Y-47895104D01*
X251169361Y-48063626D01*
X251068022Y-48215291D01*
X250939041Y-48344272D01*
X250787376Y-48445611D01*
X250618854Y-48515415D01*
X250439953Y-48551000D01*
X250257547Y-48551000D01*
X250078646Y-48515415D01*
X249910124Y-48445611D01*
X249758459Y-48344272D01*
X249629478Y-48215291D01*
X249528139Y-48063626D01*
X249458335Y-47895104D01*
X249422750Y-47716203D01*
X249422750Y-47533797D01*
X249458335Y-47354896D01*
X249528139Y-47186374D01*
X249629478Y-47034709D01*
X249758459Y-46905728D01*
X249910124Y-46804389D01*
X250078646Y-46734585D01*
X250257547Y-46699000D01*
X250439953Y-46699000D01*
X250618854Y-46734585D01*
G37*
G36*
X107108854Y-46734585D02*
G01*
X107277376Y-46804389D01*
X107429041Y-46905728D01*
X107558022Y-47034709D01*
X107659361Y-47186374D01*
X107729165Y-47354896D01*
X107764750Y-47533797D01*
X107764750Y-47716203D01*
X107729165Y-47895104D01*
X107659361Y-48063626D01*
X107558022Y-48215291D01*
X107429041Y-48344272D01*
X107277376Y-48445611D01*
X107108854Y-48515415D01*
X106929953Y-48551000D01*
X106747547Y-48551000D01*
X106568646Y-48515415D01*
X106400124Y-48445611D01*
X106248459Y-48344272D01*
X106119478Y-48215291D01*
X106018139Y-48063626D01*
X105948335Y-47895104D01*
X105912750Y-47716203D01*
X105912750Y-47533797D01*
X105948335Y-47354896D01*
X106018139Y-47186374D01*
X106119478Y-47034709D01*
X106248459Y-46905728D01*
X106400124Y-46804389D01*
X106568646Y-46734585D01*
X106747547Y-46699000D01*
X106929953Y-46699000D01*
X107108854Y-46734585D01*
G37*
G36*
X155368854Y-46734585D02*
G01*
X155537376Y-46804389D01*
X155689041Y-46905728D01*
X155818022Y-47034709D01*
X155919361Y-47186374D01*
X155989165Y-47354896D01*
X156024750Y-47533797D01*
X156024750Y-47716203D01*
X155989165Y-47895104D01*
X155919361Y-48063626D01*
X155818022Y-48215291D01*
X155689041Y-48344272D01*
X155537376Y-48445611D01*
X155368854Y-48515415D01*
X155189953Y-48551000D01*
X155007547Y-48551000D01*
X154828646Y-48515415D01*
X154660124Y-48445611D01*
X154508459Y-48344272D01*
X154379478Y-48215291D01*
X154278139Y-48063626D01*
X154208335Y-47895104D01*
X154172750Y-47716203D01*
X154172750Y-47533797D01*
X154208335Y-47354896D01*
X154278139Y-47186374D01*
X154379478Y-47034709D01*
X154508459Y-46905728D01*
X154660124Y-46804389D01*
X154828646Y-46734585D01*
X155007547Y-46699000D01*
X155189953Y-46699000D01*
X155368854Y-46734585D01*
G37*
G36*
X231568854Y-46734585D02*
G01*
X231737376Y-46804389D01*
X231889041Y-46905728D01*
X232018022Y-47034709D01*
X232119361Y-47186374D01*
X232189165Y-47354896D01*
X232224750Y-47533797D01*
X232224750Y-47716203D01*
X232189165Y-47895104D01*
X232119361Y-48063626D01*
X232018022Y-48215291D01*
X231889041Y-48344272D01*
X231737376Y-48445611D01*
X231568854Y-48515415D01*
X231389953Y-48551000D01*
X231207547Y-48551000D01*
X231028646Y-48515415D01*
X230860124Y-48445611D01*
X230708459Y-48344272D01*
X230579478Y-48215291D01*
X230478139Y-48063626D01*
X230408335Y-47895104D01*
X230372750Y-47716203D01*
X230372750Y-47533797D01*
X230408335Y-47354896D01*
X230478139Y-47186374D01*
X230579478Y-47034709D01*
X230708459Y-46905728D01*
X230860124Y-46804389D01*
X231028646Y-46734585D01*
X231207547Y-46699000D01*
X231389953Y-46699000D01*
X231568854Y-46734585D01*
G37*
G36*
X221408854Y-46734585D02*
G01*
X221577376Y-46804389D01*
X221729041Y-46905728D01*
X221858022Y-47034709D01*
X221959361Y-47186374D01*
X222029165Y-47354896D01*
X222064750Y-47533797D01*
X222064750Y-47716203D01*
X222029165Y-47895104D01*
X221959361Y-48063626D01*
X221858022Y-48215291D01*
X221729041Y-48344272D01*
X221577376Y-48445611D01*
X221408854Y-48515415D01*
X221229953Y-48551000D01*
X221047547Y-48551000D01*
X220868646Y-48515415D01*
X220700124Y-48445611D01*
X220548459Y-48344272D01*
X220419478Y-48215291D01*
X220318139Y-48063626D01*
X220248335Y-47895104D01*
X220212750Y-47716203D01*
X220212750Y-47533797D01*
X220248335Y-47354896D01*
X220318139Y-47186374D01*
X220419478Y-47034709D01*
X220548459Y-46905728D01*
X220700124Y-46804389D01*
X220868646Y-46734585D01*
X221047547Y-46699000D01*
X221229953Y-46699000D01*
X221408854Y-46734585D01*
G37*
G36*
X145208854Y-46734585D02*
G01*
X145377376Y-46804389D01*
X145529041Y-46905728D01*
X145658022Y-47034709D01*
X145759361Y-47186374D01*
X145829165Y-47354896D01*
X145864750Y-47533797D01*
X145864750Y-47716203D01*
X145829165Y-47895104D01*
X145759361Y-48063626D01*
X145658022Y-48215291D01*
X145529041Y-48344272D01*
X145377376Y-48445611D01*
X145208854Y-48515415D01*
X145029953Y-48551000D01*
X144847547Y-48551000D01*
X144668646Y-48515415D01*
X144500124Y-48445611D01*
X144348459Y-48344272D01*
X144219478Y-48215291D01*
X144118139Y-48063626D01*
X144048335Y-47895104D01*
X144012750Y-47716203D01*
X144012750Y-47533797D01*
X144048335Y-47354896D01*
X144118139Y-47186374D01*
X144219478Y-47034709D01*
X144348459Y-46905728D01*
X144500124Y-46804389D01*
X144668646Y-46734585D01*
X144847547Y-46699000D01*
X145029953Y-46699000D01*
X145208854Y-46734585D01*
G37*
G36*
X212518854Y-46734585D02*
G01*
X212687376Y-46804389D01*
X212839041Y-46905728D01*
X212968022Y-47034709D01*
X213069361Y-47186374D01*
X213139165Y-47354896D01*
X213174750Y-47533797D01*
X213174750Y-47716203D01*
X213139165Y-47895104D01*
X213069361Y-48063626D01*
X212968022Y-48215291D01*
X212839041Y-48344272D01*
X212687376Y-48445611D01*
X212518854Y-48515415D01*
X212339953Y-48551000D01*
X212157547Y-48551000D01*
X211978646Y-48515415D01*
X211810124Y-48445611D01*
X211658459Y-48344272D01*
X211529478Y-48215291D01*
X211428139Y-48063626D01*
X211358335Y-47895104D01*
X211322750Y-47716203D01*
X211322750Y-47533797D01*
X211358335Y-47354896D01*
X211428139Y-47186374D01*
X211529478Y-47034709D01*
X211658459Y-46905728D01*
X211810124Y-46804389D01*
X211978646Y-46734585D01*
X212157547Y-46699000D01*
X212339953Y-46699000D01*
X212518854Y-46734585D01*
G37*
G36*
X202358854Y-46734585D02*
G01*
X202527376Y-46804389D01*
X202679041Y-46905728D01*
X202808022Y-47034709D01*
X202909361Y-47186374D01*
X202979165Y-47354896D01*
X203014750Y-47533797D01*
X203014750Y-47716203D01*
X202979165Y-47895104D01*
X202909361Y-48063626D01*
X202808022Y-48215291D01*
X202679041Y-48344272D01*
X202527376Y-48445611D01*
X202358854Y-48515415D01*
X202179953Y-48551000D01*
X201997547Y-48551000D01*
X201818646Y-48515415D01*
X201650124Y-48445611D01*
X201498459Y-48344272D01*
X201369478Y-48215291D01*
X201268139Y-48063626D01*
X201198335Y-47895104D01*
X201162750Y-47716203D01*
X201162750Y-47533797D01*
X201198335Y-47354896D01*
X201268139Y-47186374D01*
X201369478Y-47034709D01*
X201498459Y-46905728D01*
X201650124Y-46804389D01*
X201818646Y-46734585D01*
X201997547Y-46699000D01*
X202179953Y-46699000D01*
X202358854Y-46734585D01*
G37*
G36*
X193468854Y-46734585D02*
G01*
X193637376Y-46804389D01*
X193789041Y-46905728D01*
X193918022Y-47034709D01*
X194019361Y-47186374D01*
X194089165Y-47354896D01*
X194124750Y-47533797D01*
X194124750Y-47716203D01*
X194089165Y-47895104D01*
X194019361Y-48063626D01*
X193918022Y-48215291D01*
X193789041Y-48344272D01*
X193637376Y-48445611D01*
X193468854Y-48515415D01*
X193289953Y-48551000D01*
X193107547Y-48551000D01*
X192928646Y-48515415D01*
X192760124Y-48445611D01*
X192608459Y-48344272D01*
X192479478Y-48215291D01*
X192378139Y-48063626D01*
X192308335Y-47895104D01*
X192272750Y-47716203D01*
X192272750Y-47533797D01*
X192308335Y-47354896D01*
X192378139Y-47186374D01*
X192479478Y-47034709D01*
X192608459Y-46905728D01*
X192760124Y-46804389D01*
X192928646Y-46734585D01*
X193107547Y-46699000D01*
X193289953Y-46699000D01*
X193468854Y-46734585D01*
G37*
G36*
X183308854Y-46734585D02*
G01*
X183477376Y-46804389D01*
X183629041Y-46905728D01*
X183758022Y-47034709D01*
X183859361Y-47186374D01*
X183929165Y-47354896D01*
X183964750Y-47533797D01*
X183964750Y-47716203D01*
X183929165Y-47895104D01*
X183859361Y-48063626D01*
X183758022Y-48215291D01*
X183629041Y-48344272D01*
X183477376Y-48445611D01*
X183308854Y-48515415D01*
X183129953Y-48551000D01*
X182947547Y-48551000D01*
X182768646Y-48515415D01*
X182600124Y-48445611D01*
X182448459Y-48344272D01*
X182319478Y-48215291D01*
X182218139Y-48063626D01*
X182148335Y-47895104D01*
X182112750Y-47716203D01*
X182112750Y-47533797D01*
X182148335Y-47354896D01*
X182218139Y-47186374D01*
X182319478Y-47034709D01*
X182448459Y-46905728D01*
X182600124Y-46804389D01*
X182768646Y-46734585D01*
X182947547Y-46699000D01*
X183129953Y-46699000D01*
X183308854Y-46734585D01*
G37*
G36*
X88058854Y-46734585D02*
G01*
X88227376Y-46804389D01*
X88379041Y-46905728D01*
X88508022Y-47034709D01*
X88609361Y-47186374D01*
X88679165Y-47354896D01*
X88714750Y-47533797D01*
X88714750Y-47716203D01*
X88679165Y-47895104D01*
X88609361Y-48063626D01*
X88508022Y-48215291D01*
X88379041Y-48344272D01*
X88227376Y-48445611D01*
X88058854Y-48515415D01*
X87879953Y-48551000D01*
X87697547Y-48551000D01*
X87518646Y-48515415D01*
X87350124Y-48445611D01*
X87198459Y-48344272D01*
X87069478Y-48215291D01*
X86968139Y-48063626D01*
X86898335Y-47895104D01*
X86862750Y-47716203D01*
X86862750Y-47533797D01*
X86898335Y-47354896D01*
X86968139Y-47186374D01*
X87069478Y-47034709D01*
X87198459Y-46905728D01*
X87350124Y-46804389D01*
X87518646Y-46734585D01*
X87697547Y-46699000D01*
X87879953Y-46699000D01*
X88058854Y-46734585D01*
G37*
G36*
X60118854Y-46734585D02*
G01*
X60287376Y-46804389D01*
X60439041Y-46905728D01*
X60568022Y-47034709D01*
X60669361Y-47186374D01*
X60739165Y-47354896D01*
X60774750Y-47533797D01*
X60774750Y-47716203D01*
X60739165Y-47895104D01*
X60669361Y-48063626D01*
X60568022Y-48215291D01*
X60439041Y-48344272D01*
X60287376Y-48445611D01*
X60118854Y-48515415D01*
X59939953Y-48551000D01*
X59757547Y-48551000D01*
X59578646Y-48515415D01*
X59410124Y-48445611D01*
X59258459Y-48344272D01*
X59129478Y-48215291D01*
X59028139Y-48063626D01*
X58958335Y-47895104D01*
X58922750Y-47716203D01*
X58922750Y-47533797D01*
X58958335Y-47354896D01*
X59028139Y-47186374D01*
X59129478Y-47034709D01*
X59258459Y-46905728D01*
X59410124Y-46804389D01*
X59578646Y-46734585D01*
X59757547Y-46699000D01*
X59939953Y-46699000D01*
X60118854Y-46734585D01*
G37*
G36*
X49958854Y-46734585D02*
G01*
X50127376Y-46804389D01*
X50279041Y-46905728D01*
X50408022Y-47034709D01*
X50509361Y-47186374D01*
X50579165Y-47354896D01*
X50614750Y-47533797D01*
X50614750Y-47716203D01*
X50579165Y-47895104D01*
X50509361Y-48063626D01*
X50408022Y-48215291D01*
X50279041Y-48344272D01*
X50127376Y-48445611D01*
X49958854Y-48515415D01*
X49779953Y-48551000D01*
X49597547Y-48551000D01*
X49418646Y-48515415D01*
X49250124Y-48445611D01*
X49098459Y-48344272D01*
X48969478Y-48215291D01*
X48868139Y-48063626D01*
X48798335Y-47895104D01*
X48762750Y-47716203D01*
X48762750Y-47533797D01*
X48798335Y-47354896D01*
X48868139Y-47186374D01*
X48969478Y-47034709D01*
X49098459Y-46905728D01*
X49250124Y-46804389D01*
X49418646Y-46734585D01*
X49597547Y-46699000D01*
X49779953Y-46699000D01*
X49958854Y-46734585D01*
G37*
G36*
X174418854Y-46734585D02*
G01*
X174587376Y-46804389D01*
X174739041Y-46905728D01*
X174868022Y-47034709D01*
X174969361Y-47186374D01*
X175039165Y-47354896D01*
X175074750Y-47533797D01*
X175074750Y-47716203D01*
X175039165Y-47895104D01*
X174969361Y-48063626D01*
X174868022Y-48215291D01*
X174739041Y-48344272D01*
X174587376Y-48445611D01*
X174418854Y-48515415D01*
X174239953Y-48551000D01*
X174057547Y-48551000D01*
X173878646Y-48515415D01*
X173710124Y-48445611D01*
X173558459Y-48344272D01*
X173429478Y-48215291D01*
X173328139Y-48063626D01*
X173258335Y-47895104D01*
X173222750Y-47716203D01*
X173222750Y-47533797D01*
X173258335Y-47354896D01*
X173328139Y-47186374D01*
X173429478Y-47034709D01*
X173558459Y-46905728D01*
X173710124Y-46804389D01*
X173878646Y-46734585D01*
X174057547Y-46699000D01*
X174239953Y-46699000D01*
X174418854Y-46734585D01*
G37*
G36*
X98218854Y-46734585D02*
G01*
X98387376Y-46804389D01*
X98539041Y-46905728D01*
X98668022Y-47034709D01*
X98769361Y-47186374D01*
X98839165Y-47354896D01*
X98874750Y-47533797D01*
X98874750Y-47716203D01*
X98839165Y-47895104D01*
X98769361Y-48063626D01*
X98668022Y-48215291D01*
X98539041Y-48344272D01*
X98387376Y-48445611D01*
X98218854Y-48515415D01*
X98039953Y-48551000D01*
X97857547Y-48551000D01*
X97678646Y-48515415D01*
X97510124Y-48445611D01*
X97358459Y-48344272D01*
X97229478Y-48215291D01*
X97128139Y-48063626D01*
X97058335Y-47895104D01*
X97022750Y-47716203D01*
X97022750Y-47533797D01*
X97058335Y-47354896D01*
X97128139Y-47186374D01*
X97229478Y-47034709D01*
X97358459Y-46905728D01*
X97510124Y-46804389D01*
X97678646Y-46734585D01*
X97857547Y-46699000D01*
X98039953Y-46699000D01*
X98218854Y-46734585D01*
G37*
G36*
X164258854Y-46734585D02*
G01*
X164427376Y-46804389D01*
X164579041Y-46905728D01*
X164708022Y-47034709D01*
X164809361Y-47186374D01*
X164879165Y-47354896D01*
X164914750Y-47533797D01*
X164914750Y-47716203D01*
X164879165Y-47895104D01*
X164809361Y-48063626D01*
X164708022Y-48215291D01*
X164579041Y-48344272D01*
X164427376Y-48445611D01*
X164258854Y-48515415D01*
X164079953Y-48551000D01*
X163897547Y-48551000D01*
X163718646Y-48515415D01*
X163550124Y-48445611D01*
X163398459Y-48344272D01*
X163269478Y-48215291D01*
X163168139Y-48063626D01*
X163098335Y-47895104D01*
X163062750Y-47716203D01*
X163062750Y-47533797D01*
X163098335Y-47354896D01*
X163168139Y-47186374D01*
X163269478Y-47034709D01*
X163398459Y-46905728D01*
X163550124Y-46804389D01*
X163718646Y-46734585D01*
X163897547Y-46699000D01*
X164079953Y-46699000D01*
X164258854Y-46734585D01*
G37*
G36*
X79168854Y-46734585D02*
G01*
X79337376Y-46804389D01*
X79489041Y-46905728D01*
X79618022Y-47034709D01*
X79719361Y-47186374D01*
X79789165Y-47354896D01*
X79824750Y-47533797D01*
X79824750Y-47716203D01*
X79789165Y-47895104D01*
X79719361Y-48063626D01*
X79618022Y-48215291D01*
X79489041Y-48344272D01*
X79337376Y-48445611D01*
X79168854Y-48515415D01*
X78989953Y-48551000D01*
X78807547Y-48551000D01*
X78628646Y-48515415D01*
X78460124Y-48445611D01*
X78308459Y-48344272D01*
X78179478Y-48215291D01*
X78078139Y-48063626D01*
X78008335Y-47895104D01*
X77972750Y-47716203D01*
X77972750Y-47533797D01*
X78008335Y-47354896D01*
X78078139Y-47186374D01*
X78179478Y-47034709D01*
X78308459Y-46905728D01*
X78460124Y-46804389D01*
X78628646Y-46734585D01*
X78807547Y-46699000D01*
X78989953Y-46699000D01*
X79168854Y-46734585D01*
G37*
G36*
X69008854Y-46734585D02*
G01*
X69177376Y-46804389D01*
X69329041Y-46905728D01*
X69458022Y-47034709D01*
X69559361Y-47186374D01*
X69629165Y-47354896D01*
X69664750Y-47533797D01*
X69664750Y-47716203D01*
X69629165Y-47895104D01*
X69559361Y-48063626D01*
X69458022Y-48215291D01*
X69329041Y-48344272D01*
X69177376Y-48445611D01*
X69008854Y-48515415D01*
X68829953Y-48551000D01*
X68647547Y-48551000D01*
X68468646Y-48515415D01*
X68300124Y-48445611D01*
X68148459Y-48344272D01*
X68019478Y-48215291D01*
X67918139Y-48063626D01*
X67848335Y-47895104D01*
X67812750Y-47716203D01*
X67812750Y-47533797D01*
X67848335Y-47354896D01*
X67918139Y-47186374D01*
X68019478Y-47034709D01*
X68148459Y-46905728D01*
X68300124Y-46804389D01*
X68468646Y-46734585D01*
X68647547Y-46699000D01*
X68829953Y-46699000D01*
X69008854Y-46734585D01*
G37*
G36*
X179190224Y-26608684D02*
G01*
X179408224Y-26698983D01*
X179562373Y-26762833D01*
X179897298Y-26986623D01*
X180182127Y-27271452D01*
X180405917Y-27606377D01*
X180438312Y-27684586D01*
X180560066Y-27978526D01*
X180638650Y-28373594D01*
X180638650Y-28776406D01*
X180560066Y-29171474D01*
X180509201Y-29294272D01*
X180405917Y-29543623D01*
X180182127Y-29878548D01*
X179897298Y-30163377D01*
X179562373Y-30387167D01*
X179408224Y-30451017D01*
X179190224Y-30541316D01*
X178795156Y-30619900D01*
X178392344Y-30619900D01*
X177997276Y-30541316D01*
X177779276Y-30451017D01*
X177625127Y-30387167D01*
X177290202Y-30163377D01*
X177005373Y-29878548D01*
X176781583Y-29543623D01*
X176678299Y-29294272D01*
X176627434Y-29171474D01*
X176548850Y-28776406D01*
X176548850Y-28373594D01*
X176627434Y-27978526D01*
X176749188Y-27684586D01*
X176781583Y-27606377D01*
X177005373Y-27271452D01*
X177290202Y-26986623D01*
X177625127Y-26762833D01*
X177779276Y-26698983D01*
X177997276Y-26608684D01*
X178392344Y-26530100D01*
X178795156Y-26530100D01*
X179190224Y-26608684D01*
G37*
G36*
X83940224Y-26608684D02*
G01*
X84158224Y-26698983D01*
X84312373Y-26762833D01*
X84647298Y-26986623D01*
X84932127Y-27271452D01*
X85155917Y-27606377D01*
X85188312Y-27684586D01*
X85310066Y-27978526D01*
X85388650Y-28373594D01*
X85388650Y-28776406D01*
X85310066Y-29171474D01*
X85259201Y-29294272D01*
X85155917Y-29543623D01*
X84932127Y-29878548D01*
X84647298Y-30163377D01*
X84312373Y-30387167D01*
X84158224Y-30451017D01*
X83940224Y-30541316D01*
X83545156Y-30619900D01*
X83142344Y-30619900D01*
X82747276Y-30541316D01*
X82529276Y-30451017D01*
X82375127Y-30387167D01*
X82040202Y-30163377D01*
X81755373Y-29878548D01*
X81531583Y-29543623D01*
X81428299Y-29294272D01*
X81377434Y-29171474D01*
X81298850Y-28776406D01*
X81298850Y-28373594D01*
X81377434Y-27978526D01*
X81499188Y-27684586D01*
X81531583Y-27606377D01*
X81755373Y-27271452D01*
X82040202Y-26986623D01*
X82375127Y-26762833D01*
X82529276Y-26698983D01*
X82747276Y-26608684D01*
X83142344Y-26530100D01*
X83545156Y-26530100D01*
X83940224Y-26608684D01*
G37*
G36*
X198240224Y-26608684D02*
G01*
X198458224Y-26698983D01*
X198612373Y-26762833D01*
X198947298Y-26986623D01*
X199232127Y-27271452D01*
X199455917Y-27606377D01*
X199488312Y-27684586D01*
X199610066Y-27978526D01*
X199688650Y-28373594D01*
X199688650Y-28776406D01*
X199610066Y-29171474D01*
X199559201Y-29294272D01*
X199455917Y-29543623D01*
X199232127Y-29878548D01*
X198947298Y-30163377D01*
X198612373Y-30387167D01*
X198458224Y-30451017D01*
X198240224Y-30541316D01*
X197845156Y-30619900D01*
X197442344Y-30619900D01*
X197047276Y-30541316D01*
X196829276Y-30451017D01*
X196675127Y-30387167D01*
X196340202Y-30163377D01*
X196055373Y-29878548D01*
X195831583Y-29543623D01*
X195728299Y-29294272D01*
X195677434Y-29171474D01*
X195598850Y-28776406D01*
X195598850Y-28373594D01*
X195677434Y-27978526D01*
X195799188Y-27684586D01*
X195831583Y-27606377D01*
X196055373Y-27271452D01*
X196340202Y-26986623D01*
X196675127Y-26762833D01*
X196829276Y-26698983D01*
X197047276Y-26608684D01*
X197442344Y-26530100D01*
X197845156Y-26530100D01*
X198240224Y-26608684D01*
G37*
G36*
X26790224Y-26608684D02*
G01*
X27008224Y-26698983D01*
X27162373Y-26762833D01*
X27497298Y-26986623D01*
X27782127Y-27271452D01*
X28005917Y-27606377D01*
X28038312Y-27684586D01*
X28160066Y-27978526D01*
X28238650Y-28373594D01*
X28238650Y-28776406D01*
X28160066Y-29171474D01*
X28109201Y-29294272D01*
X28005917Y-29543623D01*
X27782127Y-29878548D01*
X27497298Y-30163377D01*
X27162373Y-30387167D01*
X27008224Y-30451017D01*
X26790224Y-30541316D01*
X26395156Y-30619900D01*
X25992344Y-30619900D01*
X25597276Y-30541316D01*
X25379276Y-30451017D01*
X25225127Y-30387167D01*
X24890202Y-30163377D01*
X24605373Y-29878548D01*
X24381583Y-29543623D01*
X24278299Y-29294272D01*
X24227434Y-29171474D01*
X24148850Y-28776406D01*
X24148850Y-28373594D01*
X24227434Y-27978526D01*
X24349188Y-27684586D01*
X24381583Y-27606377D01*
X24605373Y-27271452D01*
X24890202Y-26986623D01*
X25225127Y-26762833D01*
X25379276Y-26698983D01*
X25597276Y-26608684D01*
X25992344Y-26530100D01*
X26395156Y-26530100D01*
X26790224Y-26608684D01*
G37*
G36*
X293490224Y-26608684D02*
G01*
X293708224Y-26698983D01*
X293862373Y-26762833D01*
X294197298Y-26986623D01*
X294482127Y-27271452D01*
X294705917Y-27606377D01*
X294738312Y-27684586D01*
X294860066Y-27978526D01*
X294938650Y-28373594D01*
X294938650Y-28776406D01*
X294860066Y-29171474D01*
X294809201Y-29294272D01*
X294705917Y-29543623D01*
X294482127Y-29878548D01*
X294197298Y-30163377D01*
X293862373Y-30387167D01*
X293708224Y-30451017D01*
X293490224Y-30541316D01*
X293095156Y-30619900D01*
X292692344Y-30619900D01*
X292297276Y-30541316D01*
X292079276Y-30451017D01*
X291925127Y-30387167D01*
X291590202Y-30163377D01*
X291305373Y-29878548D01*
X291081583Y-29543623D01*
X290978299Y-29294272D01*
X290927434Y-29171474D01*
X290848850Y-28776406D01*
X290848850Y-28373594D01*
X290927434Y-27978526D01*
X291049188Y-27684586D01*
X291081583Y-27606377D01*
X291305373Y-27271452D01*
X291590202Y-26986623D01*
X291925127Y-26762833D01*
X292079276Y-26698983D01*
X292297276Y-26608684D01*
X292692344Y-26530100D01*
X293095156Y-26530100D01*
X293490224Y-26608684D01*
G37*
G36*
X217290224Y-26608684D02*
G01*
X217508224Y-26698983D01*
X217662373Y-26762833D01*
X217997298Y-26986623D01*
X218282127Y-27271452D01*
X218505917Y-27606377D01*
X218538312Y-27684586D01*
X218660066Y-27978526D01*
X218738650Y-28373594D01*
X218738650Y-28776406D01*
X218660066Y-29171474D01*
X218609201Y-29294272D01*
X218505917Y-29543623D01*
X218282127Y-29878548D01*
X217997298Y-30163377D01*
X217662373Y-30387167D01*
X217508224Y-30451017D01*
X217290224Y-30541316D01*
X216895156Y-30619900D01*
X216492344Y-30619900D01*
X216097276Y-30541316D01*
X215879276Y-30451017D01*
X215725127Y-30387167D01*
X215390202Y-30163377D01*
X215105373Y-29878548D01*
X214881583Y-29543623D01*
X214778299Y-29294272D01*
X214727434Y-29171474D01*
X214648850Y-28776406D01*
X214648850Y-28373594D01*
X214727434Y-27978526D01*
X214849188Y-27684586D01*
X214881583Y-27606377D01*
X215105373Y-27271452D01*
X215390202Y-26986623D01*
X215725127Y-26762833D01*
X215879276Y-26698983D01*
X216097276Y-26608684D01*
X216492344Y-26530100D01*
X216895156Y-26530100D01*
X217290224Y-26608684D01*
G37*
G36*
X64890224Y-26608684D02*
G01*
X65108224Y-26698983D01*
X65262373Y-26762833D01*
X65597298Y-26986623D01*
X65882127Y-27271452D01*
X66105917Y-27606377D01*
X66138312Y-27684586D01*
X66260066Y-27978526D01*
X66338650Y-28373594D01*
X66338650Y-28776406D01*
X66260066Y-29171474D01*
X66209201Y-29294272D01*
X66105917Y-29543623D01*
X65882127Y-29878548D01*
X65597298Y-30163377D01*
X65262373Y-30387167D01*
X65108224Y-30451017D01*
X64890224Y-30541316D01*
X64495156Y-30619900D01*
X64092344Y-30619900D01*
X63697276Y-30541316D01*
X63479276Y-30451017D01*
X63325127Y-30387167D01*
X62990202Y-30163377D01*
X62705373Y-29878548D01*
X62481583Y-29543623D01*
X62378299Y-29294272D01*
X62327434Y-29171474D01*
X62248850Y-28776406D01*
X62248850Y-28373594D01*
X62327434Y-27978526D01*
X62449188Y-27684586D01*
X62481583Y-27606377D01*
X62705373Y-27271452D01*
X62990202Y-26986623D01*
X63325127Y-26762833D01*
X63479276Y-26698983D01*
X63697276Y-26608684D01*
X64092344Y-26530100D01*
X64495156Y-26530100D01*
X64890224Y-26608684D01*
G37*
G36*
X274440224Y-26608684D02*
G01*
X274658224Y-26698983D01*
X274812373Y-26762833D01*
X275147298Y-26986623D01*
X275432127Y-27271452D01*
X275655917Y-27606377D01*
X275688312Y-27684586D01*
X275810066Y-27978526D01*
X275888650Y-28373594D01*
X275888650Y-28776406D01*
X275810066Y-29171474D01*
X275759201Y-29294272D01*
X275655917Y-29543623D01*
X275432127Y-29878548D01*
X275147298Y-30163377D01*
X274812373Y-30387167D01*
X274658224Y-30451017D01*
X274440224Y-30541316D01*
X274045156Y-30619900D01*
X273642344Y-30619900D01*
X273247276Y-30541316D01*
X273029276Y-30451017D01*
X272875127Y-30387167D01*
X272540202Y-30163377D01*
X272255373Y-29878548D01*
X272031583Y-29543623D01*
X271928299Y-29294272D01*
X271877434Y-29171474D01*
X271798850Y-28776406D01*
X271798850Y-28373594D01*
X271877434Y-27978526D01*
X271999188Y-27684586D01*
X272031583Y-27606377D01*
X272255373Y-27271452D01*
X272540202Y-26986623D01*
X272875127Y-26762833D01*
X273029276Y-26698983D01*
X273247276Y-26608684D01*
X273642344Y-26530100D01*
X274045156Y-26530100D01*
X274440224Y-26608684D01*
G37*
G36*
X255390224Y-26608684D02*
G01*
X255608224Y-26698983D01*
X255762373Y-26762833D01*
X256097298Y-26986623D01*
X256382127Y-27271452D01*
X256605917Y-27606377D01*
X256638312Y-27684586D01*
X256760066Y-27978526D01*
X256838650Y-28373594D01*
X256838650Y-28776406D01*
X256760066Y-29171474D01*
X256709201Y-29294272D01*
X256605917Y-29543623D01*
X256382127Y-29878548D01*
X256097298Y-30163377D01*
X255762373Y-30387167D01*
X255608224Y-30451017D01*
X255390224Y-30541316D01*
X254995156Y-30619900D01*
X254592344Y-30619900D01*
X254197276Y-30541316D01*
X253979276Y-30451017D01*
X253825127Y-30387167D01*
X253490202Y-30163377D01*
X253205373Y-29878548D01*
X252981583Y-29543623D01*
X252878299Y-29294272D01*
X252827434Y-29171474D01*
X252748850Y-28776406D01*
X252748850Y-28373594D01*
X252827434Y-27978526D01*
X252949188Y-27684586D01*
X252981583Y-27606377D01*
X253205373Y-27271452D01*
X253490202Y-26986623D01*
X253825127Y-26762833D01*
X253979276Y-26698983D01*
X254197276Y-26608684D01*
X254592344Y-26530100D01*
X254995156Y-26530100D01*
X255390224Y-26608684D01*
G37*
G36*
X236340224Y-26608684D02*
G01*
X236558224Y-26698983D01*
X236712373Y-26762833D01*
X237047298Y-26986623D01*
X237332127Y-27271452D01*
X237555917Y-27606377D01*
X237588312Y-27684586D01*
X237710066Y-27978526D01*
X237788650Y-28373594D01*
X237788650Y-28776406D01*
X237710066Y-29171474D01*
X237659201Y-29294272D01*
X237555917Y-29543623D01*
X237332127Y-29878548D01*
X237047298Y-30163377D01*
X236712373Y-30387167D01*
X236558224Y-30451017D01*
X236340224Y-30541316D01*
X235945156Y-30619900D01*
X235542344Y-30619900D01*
X235147276Y-30541316D01*
X234929276Y-30451017D01*
X234775127Y-30387167D01*
X234440202Y-30163377D01*
X234155373Y-29878548D01*
X233931583Y-29543623D01*
X233828299Y-29294272D01*
X233777434Y-29171474D01*
X233698850Y-28776406D01*
X233698850Y-28373594D01*
X233777434Y-27978526D01*
X233899188Y-27684586D01*
X233931583Y-27606377D01*
X234155373Y-27271452D01*
X234440202Y-26986623D01*
X234775127Y-26762833D01*
X234929276Y-26698983D01*
X235147276Y-26608684D01*
X235542344Y-26530100D01*
X235945156Y-26530100D01*
X236340224Y-26608684D01*
G37*
G36*
X45840224Y-26608684D02*
G01*
X46058224Y-26698983D01*
X46212373Y-26762833D01*
X46547298Y-26986623D01*
X46832127Y-27271452D01*
X47055917Y-27606377D01*
X47088312Y-27684586D01*
X47210066Y-27978526D01*
X47288650Y-28373594D01*
X47288650Y-28776406D01*
X47210066Y-29171474D01*
X47159201Y-29294272D01*
X47055917Y-29543623D01*
X46832127Y-29878548D01*
X46547298Y-30163377D01*
X46212373Y-30387167D01*
X46058224Y-30451017D01*
X45840224Y-30541316D01*
X45445156Y-30619900D01*
X45042344Y-30619900D01*
X44647276Y-30541316D01*
X44429276Y-30451017D01*
X44275127Y-30387167D01*
X43940202Y-30163377D01*
X43655373Y-29878548D01*
X43431583Y-29543623D01*
X43328299Y-29294272D01*
X43277434Y-29171474D01*
X43198850Y-28776406D01*
X43198850Y-28373594D01*
X43277434Y-27978526D01*
X43399188Y-27684586D01*
X43431583Y-27606377D01*
X43655373Y-27271452D01*
X43940202Y-26986623D01*
X44275127Y-26762833D01*
X44429276Y-26698983D01*
X44647276Y-26608684D01*
X45042344Y-26530100D01*
X45445156Y-26530100D01*
X45840224Y-26608684D01*
G37*
G36*
X160140224Y-26608684D02*
G01*
X160358224Y-26698983D01*
X160512373Y-26762833D01*
X160847298Y-26986623D01*
X161132127Y-27271452D01*
X161355917Y-27606377D01*
X161388312Y-27684586D01*
X161510066Y-27978526D01*
X161588650Y-28373594D01*
X161588650Y-28776406D01*
X161510066Y-29171474D01*
X161459201Y-29294272D01*
X161355917Y-29543623D01*
X161132127Y-29878548D01*
X160847298Y-30163377D01*
X160512373Y-30387167D01*
X160358224Y-30451017D01*
X160140224Y-30541316D01*
X159745156Y-30619900D01*
X159342344Y-30619900D01*
X158947276Y-30541316D01*
X158729276Y-30451017D01*
X158575127Y-30387167D01*
X158240202Y-30163377D01*
X157955373Y-29878548D01*
X157731583Y-29543623D01*
X157628299Y-29294272D01*
X157577434Y-29171474D01*
X157498850Y-28776406D01*
X157498850Y-28373594D01*
X157577434Y-27978526D01*
X157699188Y-27684586D01*
X157731583Y-27606377D01*
X157955373Y-27271452D01*
X158240202Y-26986623D01*
X158575127Y-26762833D01*
X158729276Y-26698983D01*
X158947276Y-26608684D01*
X159342344Y-26530100D01*
X159745156Y-26530100D01*
X160140224Y-26608684D01*
G37*
G36*
X122040224Y-26608684D02*
G01*
X122258224Y-26698983D01*
X122412373Y-26762833D01*
X122747298Y-26986623D01*
X123032127Y-27271452D01*
X123255917Y-27606377D01*
X123288312Y-27684586D01*
X123410066Y-27978526D01*
X123488650Y-28373594D01*
X123488650Y-28776406D01*
X123410066Y-29171474D01*
X123359201Y-29294272D01*
X123255917Y-29543623D01*
X123032127Y-29878548D01*
X122747298Y-30163377D01*
X122412373Y-30387167D01*
X122258224Y-30451017D01*
X122040224Y-30541316D01*
X121645156Y-30619900D01*
X121242344Y-30619900D01*
X120847276Y-30541316D01*
X120629276Y-30451017D01*
X120475127Y-30387167D01*
X120140202Y-30163377D01*
X119855373Y-29878548D01*
X119631583Y-29543623D01*
X119528299Y-29294272D01*
X119477434Y-29171474D01*
X119398850Y-28776406D01*
X119398850Y-28373594D01*
X119477434Y-27978526D01*
X119599188Y-27684586D01*
X119631583Y-27606377D01*
X119855373Y-27271452D01*
X120140202Y-26986623D01*
X120475127Y-26762833D01*
X120629276Y-26698983D01*
X120847276Y-26608684D01*
X121242344Y-26530100D01*
X121645156Y-26530100D01*
X122040224Y-26608684D01*
G37*
G36*
X102990224Y-26608684D02*
G01*
X103208224Y-26698983D01*
X103362373Y-26762833D01*
X103697298Y-26986623D01*
X103982127Y-27271452D01*
X104205917Y-27606377D01*
X104238312Y-27684586D01*
X104360066Y-27978526D01*
X104438650Y-28373594D01*
X104438650Y-28776406D01*
X104360066Y-29171474D01*
X104309201Y-29294272D01*
X104205917Y-29543623D01*
X103982127Y-29878548D01*
X103697298Y-30163377D01*
X103362373Y-30387167D01*
X103208224Y-30451017D01*
X102990224Y-30541316D01*
X102595156Y-30619900D01*
X102192344Y-30619900D01*
X101797276Y-30541316D01*
X101579276Y-30451017D01*
X101425127Y-30387167D01*
X101090202Y-30163377D01*
X100805373Y-29878548D01*
X100581583Y-29543623D01*
X100478299Y-29294272D01*
X100427434Y-29171474D01*
X100348850Y-28776406D01*
X100348850Y-28373594D01*
X100427434Y-27978526D01*
X100549188Y-27684586D01*
X100581583Y-27606377D01*
X100805373Y-27271452D01*
X101090202Y-26986623D01*
X101425127Y-26762833D01*
X101579276Y-26698983D01*
X101797276Y-26608684D01*
X102192344Y-26530100D01*
X102595156Y-26530100D01*
X102990224Y-26608684D01*
G37*
G36*
X141090224Y-26608684D02*
G01*
X141308224Y-26698983D01*
X141462373Y-26762833D01*
X141797298Y-26986623D01*
X142082127Y-27271452D01*
X142305917Y-27606377D01*
X142338312Y-27684586D01*
X142460066Y-27978526D01*
X142538650Y-28373594D01*
X142538650Y-28776406D01*
X142460066Y-29171474D01*
X142409201Y-29294272D01*
X142305917Y-29543623D01*
X142082127Y-29878548D01*
X141797298Y-30163377D01*
X141462373Y-30387167D01*
X141308224Y-30451017D01*
X141090224Y-30541316D01*
X140695156Y-30619900D01*
X140292344Y-30619900D01*
X139897276Y-30541316D01*
X139679276Y-30451017D01*
X139525127Y-30387167D01*
X139190202Y-30163377D01*
X138905373Y-29878548D01*
X138681583Y-29543623D01*
X138578299Y-29294272D01*
X138527434Y-29171474D01*
X138448850Y-28776406D01*
X138448850Y-28373594D01*
X138527434Y-27978526D01*
X138649188Y-27684586D01*
X138681583Y-27606377D01*
X138905373Y-27271452D01*
X139190202Y-26986623D01*
X139525127Y-26762833D01*
X139679276Y-26698983D01*
X139897276Y-26608684D01*
X140292344Y-26530100D01*
X140695156Y-26530100D01*
X141090224Y-26608684D01*
G37*
G36*
X145843854Y-27684585D02*
G01*
X146012376Y-27754389D01*
X146164041Y-27855728D01*
X146293022Y-27984709D01*
X146394361Y-28136374D01*
X146464165Y-28304896D01*
X146499750Y-28483797D01*
X146499750Y-28666203D01*
X146464165Y-28845104D01*
X146394361Y-29013626D01*
X146293022Y-29165291D01*
X146164041Y-29294272D01*
X146012376Y-29395611D01*
X145843854Y-29465415D01*
X145664953Y-29501000D01*
X145482547Y-29501000D01*
X145303646Y-29465415D01*
X145135124Y-29395611D01*
X144983459Y-29294272D01*
X144854478Y-29165291D01*
X144753139Y-29013626D01*
X144683335Y-28845104D01*
X144647750Y-28666203D01*
X144647750Y-28483797D01*
X144683335Y-28304896D01*
X144753139Y-28136374D01*
X144854478Y-27984709D01*
X144983459Y-27855728D01*
X145135124Y-27754389D01*
X145303646Y-27684585D01*
X145482547Y-27649000D01*
X145664953Y-27649000D01*
X145843854Y-27684585D01*
G37*
G36*
X135683854Y-27684585D02*
G01*
X135852376Y-27754389D01*
X136004041Y-27855728D01*
X136133022Y-27984709D01*
X136234361Y-28136374D01*
X136304165Y-28304896D01*
X136339750Y-28483797D01*
X136339750Y-28666203D01*
X136304165Y-28845104D01*
X136234361Y-29013626D01*
X136133022Y-29165291D01*
X136004041Y-29294272D01*
X135852376Y-29395611D01*
X135683854Y-29465415D01*
X135504953Y-29501000D01*
X135322547Y-29501000D01*
X135143646Y-29465415D01*
X134975124Y-29395611D01*
X134823459Y-29294272D01*
X134694478Y-29165291D01*
X134593139Y-29013626D01*
X134523335Y-28845104D01*
X134487750Y-28666203D01*
X134487750Y-28483797D01*
X134523335Y-28304896D01*
X134593139Y-28136374D01*
X134694478Y-27984709D01*
X134823459Y-27855728D01*
X134975124Y-27754389D01*
X135143646Y-27684585D01*
X135322547Y-27649000D01*
X135504953Y-27649000D01*
X135683854Y-27684585D01*
G37*
G36*
X298243854Y-27684585D02*
G01*
X298412376Y-27754389D01*
X298564041Y-27855728D01*
X298693022Y-27984709D01*
X298794361Y-28136374D01*
X298864165Y-28304896D01*
X298899750Y-28483797D01*
X298899750Y-28666203D01*
X298864165Y-28845104D01*
X298794361Y-29013626D01*
X298693022Y-29165291D01*
X298564041Y-29294272D01*
X298412376Y-29395611D01*
X298243854Y-29465415D01*
X298064953Y-29501000D01*
X297882547Y-29501000D01*
X297703646Y-29465415D01*
X297535124Y-29395611D01*
X297383459Y-29294272D01*
X297254478Y-29165291D01*
X297153139Y-29013626D01*
X297083335Y-28845104D01*
X297047750Y-28666203D01*
X297047750Y-28483797D01*
X297083335Y-28304896D01*
X297153139Y-28136374D01*
X297254478Y-27984709D01*
X297383459Y-27855728D01*
X297535124Y-27754389D01*
X297703646Y-27684585D01*
X297882547Y-27649000D01*
X298064953Y-27649000D01*
X298243854Y-27684585D01*
G37*
G36*
X288083854Y-27684585D02*
G01*
X288252376Y-27754389D01*
X288404041Y-27855728D01*
X288533022Y-27984709D01*
X288634361Y-28136374D01*
X288704165Y-28304896D01*
X288739750Y-28483797D01*
X288739750Y-28666203D01*
X288704165Y-28845104D01*
X288634361Y-29013626D01*
X288533022Y-29165291D01*
X288404041Y-29294272D01*
X288252376Y-29395611D01*
X288083854Y-29465415D01*
X287904953Y-29501000D01*
X287722547Y-29501000D01*
X287543646Y-29465415D01*
X287375124Y-29395611D01*
X287223459Y-29294272D01*
X287094478Y-29165291D01*
X286993139Y-29013626D01*
X286923335Y-28845104D01*
X286887750Y-28666203D01*
X286887750Y-28483797D01*
X286923335Y-28304896D01*
X286993139Y-28136374D01*
X287094478Y-27984709D01*
X287223459Y-27855728D01*
X287375124Y-27754389D01*
X287543646Y-27684585D01*
X287722547Y-27649000D01*
X287904953Y-27649000D01*
X288083854Y-27684585D01*
G37*
G36*
X279193854Y-27684585D02*
G01*
X279362376Y-27754389D01*
X279514041Y-27855728D01*
X279643022Y-27984709D01*
X279744361Y-28136374D01*
X279814165Y-28304896D01*
X279849750Y-28483797D01*
X279849750Y-28666203D01*
X279814165Y-28845104D01*
X279744361Y-29013626D01*
X279643022Y-29165291D01*
X279514041Y-29294272D01*
X279362376Y-29395611D01*
X279193854Y-29465415D01*
X279014953Y-29501000D01*
X278832547Y-29501000D01*
X278653646Y-29465415D01*
X278485124Y-29395611D01*
X278333459Y-29294272D01*
X278204478Y-29165291D01*
X278103139Y-29013626D01*
X278033335Y-28845104D01*
X277997750Y-28666203D01*
X277997750Y-28483797D01*
X278033335Y-28304896D01*
X278103139Y-28136374D01*
X278204478Y-27984709D01*
X278333459Y-27855728D01*
X278485124Y-27754389D01*
X278653646Y-27684585D01*
X278832547Y-27649000D01*
X279014953Y-27649000D01*
X279193854Y-27684585D01*
G37*
G36*
X269033854Y-27684585D02*
G01*
X269202376Y-27754389D01*
X269354041Y-27855728D01*
X269483022Y-27984709D01*
X269584361Y-28136374D01*
X269654165Y-28304896D01*
X269689750Y-28483797D01*
X269689750Y-28666203D01*
X269654165Y-28845104D01*
X269584361Y-29013626D01*
X269483022Y-29165291D01*
X269354041Y-29294272D01*
X269202376Y-29395611D01*
X269033854Y-29465415D01*
X268854953Y-29501000D01*
X268672547Y-29501000D01*
X268493646Y-29465415D01*
X268325124Y-29395611D01*
X268173459Y-29294272D01*
X268044478Y-29165291D01*
X267943139Y-29013626D01*
X267873335Y-28845104D01*
X267837750Y-28666203D01*
X267837750Y-28483797D01*
X267873335Y-28304896D01*
X267943139Y-28136374D01*
X268044478Y-27984709D01*
X268173459Y-27855728D01*
X268325124Y-27754389D01*
X268493646Y-27684585D01*
X268672547Y-27649000D01*
X268854953Y-27649000D01*
X269033854Y-27684585D01*
G37*
G36*
X164893854Y-27684585D02*
G01*
X165062376Y-27754389D01*
X165214041Y-27855728D01*
X165343022Y-27984709D01*
X165444361Y-28136374D01*
X165514165Y-28304896D01*
X165549750Y-28483797D01*
X165549750Y-28666203D01*
X165514165Y-28845104D01*
X165444361Y-29013626D01*
X165343022Y-29165291D01*
X165214041Y-29294272D01*
X165062376Y-29395611D01*
X164893854Y-29465415D01*
X164714953Y-29501000D01*
X164532547Y-29501000D01*
X164353646Y-29465415D01*
X164185124Y-29395611D01*
X164033459Y-29294272D01*
X163904478Y-29165291D01*
X163803139Y-29013626D01*
X163733335Y-28845104D01*
X163697750Y-28666203D01*
X163697750Y-28483797D01*
X163733335Y-28304896D01*
X163803139Y-28136374D01*
X163904478Y-27984709D01*
X164033459Y-27855728D01*
X164185124Y-27754389D01*
X164353646Y-27684585D01*
X164532547Y-27649000D01*
X164714953Y-27649000D01*
X164893854Y-27684585D01*
G37*
G36*
X116633854Y-27684585D02*
G01*
X116802376Y-27754389D01*
X116954041Y-27855728D01*
X117083022Y-27984709D01*
X117184361Y-28136374D01*
X117254165Y-28304896D01*
X117289750Y-28483797D01*
X117289750Y-28666203D01*
X117254165Y-28845104D01*
X117184361Y-29013626D01*
X117083022Y-29165291D01*
X116954041Y-29294272D01*
X116802376Y-29395611D01*
X116633854Y-29465415D01*
X116454953Y-29501000D01*
X116272547Y-29501000D01*
X116093646Y-29465415D01*
X115925124Y-29395611D01*
X115773459Y-29294272D01*
X115644478Y-29165291D01*
X115543139Y-29013626D01*
X115473335Y-28845104D01*
X115437750Y-28666203D01*
X115437750Y-28483797D01*
X115473335Y-28304896D01*
X115543139Y-28136374D01*
X115644478Y-27984709D01*
X115773459Y-27855728D01*
X115925124Y-27754389D01*
X116093646Y-27684585D01*
X116272547Y-27649000D01*
X116454953Y-27649000D01*
X116633854Y-27684585D01*
G37*
G36*
X126793854Y-27684585D02*
G01*
X126962376Y-27754389D01*
X127114041Y-27855728D01*
X127243022Y-27984709D01*
X127344361Y-28136374D01*
X127414165Y-28304896D01*
X127449750Y-28483797D01*
X127449750Y-28666203D01*
X127414165Y-28845104D01*
X127344361Y-29013626D01*
X127243022Y-29165291D01*
X127114041Y-29294272D01*
X126962376Y-29395611D01*
X126793854Y-29465415D01*
X126614953Y-29501000D01*
X126432547Y-29501000D01*
X126253646Y-29465415D01*
X126085124Y-29395611D01*
X125933459Y-29294272D01*
X125804478Y-29165291D01*
X125703139Y-29013626D01*
X125633335Y-28845104D01*
X125597750Y-28666203D01*
X125597750Y-28483797D01*
X125633335Y-28304896D01*
X125703139Y-28136374D01*
X125804478Y-27984709D01*
X125933459Y-27855728D01*
X126085124Y-27754389D01*
X126253646Y-27684585D01*
X126432547Y-27649000D01*
X126614953Y-27649000D01*
X126793854Y-27684585D01*
G37*
G36*
X154733854Y-27684585D02*
G01*
X154902376Y-27754389D01*
X155054041Y-27855728D01*
X155183022Y-27984709D01*
X155284361Y-28136374D01*
X155354165Y-28304896D01*
X155389750Y-28483797D01*
X155389750Y-28666203D01*
X155354165Y-28845104D01*
X155284361Y-29013626D01*
X155183022Y-29165291D01*
X155054041Y-29294272D01*
X154902376Y-29395611D01*
X154733854Y-29465415D01*
X154554953Y-29501000D01*
X154372547Y-29501000D01*
X154193646Y-29465415D01*
X154025124Y-29395611D01*
X153873459Y-29294272D01*
X153744478Y-29165291D01*
X153643139Y-29013626D01*
X153573335Y-28845104D01*
X153537750Y-28666203D01*
X153537750Y-28483797D01*
X153573335Y-28304896D01*
X153643139Y-28136374D01*
X153744478Y-27984709D01*
X153873459Y-27855728D01*
X154025124Y-27754389D01*
X154193646Y-27684585D01*
X154372547Y-27649000D01*
X154554953Y-27649000D01*
X154733854Y-27684585D01*
G37*
G36*
X260143854Y-27684585D02*
G01*
X260312376Y-27754389D01*
X260464041Y-27855728D01*
X260593022Y-27984709D01*
X260694361Y-28136374D01*
X260764165Y-28304896D01*
X260799750Y-28483797D01*
X260799750Y-28666203D01*
X260764165Y-28845104D01*
X260694361Y-29013626D01*
X260593022Y-29165291D01*
X260464041Y-29294272D01*
X260312376Y-29395611D01*
X260143854Y-29465415D01*
X259964953Y-29501000D01*
X259782547Y-29501000D01*
X259603646Y-29465415D01*
X259435124Y-29395611D01*
X259283459Y-29294272D01*
X259154478Y-29165291D01*
X259053139Y-29013626D01*
X258983335Y-28845104D01*
X258947750Y-28666203D01*
X258947750Y-28483797D01*
X258983335Y-28304896D01*
X259053139Y-28136374D01*
X259154478Y-27984709D01*
X259283459Y-27855728D01*
X259435124Y-27754389D01*
X259603646Y-27684585D01*
X259782547Y-27649000D01*
X259964953Y-27649000D01*
X260143854Y-27684585D01*
G37*
G36*
X249983854Y-27684585D02*
G01*
X250152376Y-27754389D01*
X250304041Y-27855728D01*
X250433022Y-27984709D01*
X250534361Y-28136374D01*
X250604165Y-28304896D01*
X250639750Y-28483797D01*
X250639750Y-28666203D01*
X250604165Y-28845104D01*
X250534361Y-29013626D01*
X250433022Y-29165291D01*
X250304041Y-29294272D01*
X250152376Y-29395611D01*
X249983854Y-29465415D01*
X249804953Y-29501000D01*
X249622547Y-29501000D01*
X249443646Y-29465415D01*
X249275124Y-29395611D01*
X249123459Y-29294272D01*
X248994478Y-29165291D01*
X248893139Y-29013626D01*
X248823335Y-28845104D01*
X248787750Y-28666203D01*
X248787750Y-28483797D01*
X248823335Y-28304896D01*
X248893139Y-28136374D01*
X248994478Y-27984709D01*
X249123459Y-27855728D01*
X249275124Y-27754389D01*
X249443646Y-27684585D01*
X249622547Y-27649000D01*
X249804953Y-27649000D01*
X249983854Y-27684585D01*
G37*
G36*
X241093854Y-27684585D02*
G01*
X241262376Y-27754389D01*
X241414041Y-27855728D01*
X241543022Y-27984709D01*
X241644361Y-28136374D01*
X241714165Y-28304896D01*
X241749750Y-28483797D01*
X241749750Y-28666203D01*
X241714165Y-28845104D01*
X241644361Y-29013626D01*
X241543022Y-29165291D01*
X241414041Y-29294272D01*
X241262376Y-29395611D01*
X241093854Y-29465415D01*
X240914953Y-29501000D01*
X240732547Y-29501000D01*
X240553646Y-29465415D01*
X240385124Y-29395611D01*
X240233459Y-29294272D01*
X240104478Y-29165291D01*
X240003139Y-29013626D01*
X239933335Y-28845104D01*
X239897750Y-28666203D01*
X239897750Y-28483797D01*
X239933335Y-28304896D01*
X240003139Y-28136374D01*
X240104478Y-27984709D01*
X240233459Y-27855728D01*
X240385124Y-27754389D01*
X240553646Y-27684585D01*
X240732547Y-27649000D01*
X240914953Y-27649000D01*
X241093854Y-27684585D01*
G37*
G36*
X230933854Y-27684585D02*
G01*
X231102376Y-27754389D01*
X231254041Y-27855728D01*
X231383022Y-27984709D01*
X231484361Y-28136374D01*
X231554165Y-28304896D01*
X231589750Y-28483797D01*
X231589750Y-28666203D01*
X231554165Y-28845104D01*
X231484361Y-29013626D01*
X231383022Y-29165291D01*
X231254041Y-29294272D01*
X231102376Y-29395611D01*
X230933854Y-29465415D01*
X230754953Y-29501000D01*
X230572547Y-29501000D01*
X230393646Y-29465415D01*
X230225124Y-29395611D01*
X230073459Y-29294272D01*
X229944478Y-29165291D01*
X229843139Y-29013626D01*
X229773335Y-28845104D01*
X229737750Y-28666203D01*
X229737750Y-28483797D01*
X229773335Y-28304896D01*
X229843139Y-28136374D01*
X229944478Y-27984709D01*
X230073459Y-27855728D01*
X230225124Y-27754389D01*
X230393646Y-27684585D01*
X230572547Y-27649000D01*
X230754953Y-27649000D01*
X230933854Y-27684585D01*
G37*
G36*
X222043854Y-27684585D02*
G01*
X222212376Y-27754389D01*
X222364041Y-27855728D01*
X222493022Y-27984709D01*
X222594361Y-28136374D01*
X222664165Y-28304896D01*
X222699750Y-28483797D01*
X222699750Y-28666203D01*
X222664165Y-28845104D01*
X222594361Y-29013626D01*
X222493022Y-29165291D01*
X222364041Y-29294272D01*
X222212376Y-29395611D01*
X222043854Y-29465415D01*
X221864953Y-29501000D01*
X221682547Y-29501000D01*
X221503646Y-29465415D01*
X221335124Y-29395611D01*
X221183459Y-29294272D01*
X221054478Y-29165291D01*
X220953139Y-29013626D01*
X220883335Y-28845104D01*
X220847750Y-28666203D01*
X220847750Y-28483797D01*
X220883335Y-28304896D01*
X220953139Y-28136374D01*
X221054478Y-27984709D01*
X221183459Y-27855728D01*
X221335124Y-27754389D01*
X221503646Y-27684585D01*
X221682547Y-27649000D01*
X221864953Y-27649000D01*
X222043854Y-27684585D01*
G37*
G36*
X211883854Y-27684585D02*
G01*
X212052376Y-27754389D01*
X212204041Y-27855728D01*
X212333022Y-27984709D01*
X212434361Y-28136374D01*
X212504165Y-28304896D01*
X212539750Y-28483797D01*
X212539750Y-28666203D01*
X212504165Y-28845104D01*
X212434361Y-29013626D01*
X212333022Y-29165291D01*
X212204041Y-29294272D01*
X212052376Y-29395611D01*
X211883854Y-29465415D01*
X211704953Y-29501000D01*
X211522547Y-29501000D01*
X211343646Y-29465415D01*
X211175124Y-29395611D01*
X211023459Y-29294272D01*
X210894478Y-29165291D01*
X210793139Y-29013626D01*
X210723335Y-28845104D01*
X210687750Y-28666203D01*
X210687750Y-28483797D01*
X210723335Y-28304896D01*
X210793139Y-28136374D01*
X210894478Y-27984709D01*
X211023459Y-27855728D01*
X211175124Y-27754389D01*
X211343646Y-27684585D01*
X211522547Y-27649000D01*
X211704953Y-27649000D01*
X211883854Y-27684585D01*
G37*
G36*
X202993854Y-27684585D02*
G01*
X203162376Y-27754389D01*
X203314041Y-27855728D01*
X203443022Y-27984709D01*
X203544361Y-28136374D01*
X203614165Y-28304896D01*
X203649750Y-28483797D01*
X203649750Y-28666203D01*
X203614165Y-28845104D01*
X203544361Y-29013626D01*
X203443022Y-29165291D01*
X203314041Y-29294272D01*
X203162376Y-29395611D01*
X202993854Y-29465415D01*
X202814953Y-29501000D01*
X202632547Y-29501000D01*
X202453646Y-29465415D01*
X202285124Y-29395611D01*
X202133459Y-29294272D01*
X202004478Y-29165291D01*
X201903139Y-29013626D01*
X201833335Y-28845104D01*
X201797750Y-28666203D01*
X201797750Y-28483797D01*
X201833335Y-28304896D01*
X201903139Y-28136374D01*
X202004478Y-27984709D01*
X202133459Y-27855728D01*
X202285124Y-27754389D01*
X202453646Y-27684585D01*
X202632547Y-27649000D01*
X202814953Y-27649000D01*
X202993854Y-27684585D01*
G37*
G36*
X183943854Y-27684585D02*
G01*
X184112376Y-27754389D01*
X184264041Y-27855728D01*
X184393022Y-27984709D01*
X184494361Y-28136374D01*
X184564165Y-28304896D01*
X184599750Y-28483797D01*
X184599750Y-28666203D01*
X184564165Y-28845104D01*
X184494361Y-29013626D01*
X184393022Y-29165291D01*
X184264041Y-29294272D01*
X184112376Y-29395611D01*
X183943854Y-29465415D01*
X183764953Y-29501000D01*
X183582547Y-29501000D01*
X183403646Y-29465415D01*
X183235124Y-29395611D01*
X183083459Y-29294272D01*
X182954478Y-29165291D01*
X182853139Y-29013626D01*
X182783335Y-28845104D01*
X182747750Y-28666203D01*
X182747750Y-28483797D01*
X182783335Y-28304896D01*
X182853139Y-28136374D01*
X182954478Y-27984709D01*
X183083459Y-27855728D01*
X183235124Y-27754389D01*
X183403646Y-27684585D01*
X183582547Y-27649000D01*
X183764953Y-27649000D01*
X183943854Y-27684585D01*
G37*
G36*
X173783854Y-27684585D02*
G01*
X173952376Y-27754389D01*
X174104041Y-27855728D01*
X174233022Y-27984709D01*
X174334361Y-28136374D01*
X174404165Y-28304896D01*
X174439750Y-28483797D01*
X174439750Y-28666203D01*
X174404165Y-28845104D01*
X174334361Y-29013626D01*
X174233022Y-29165291D01*
X174104041Y-29294272D01*
X173952376Y-29395611D01*
X173783854Y-29465415D01*
X173604953Y-29501000D01*
X173422547Y-29501000D01*
X173243646Y-29465415D01*
X173075124Y-29395611D01*
X172923459Y-29294272D01*
X172794478Y-29165291D01*
X172693139Y-29013626D01*
X172623335Y-28845104D01*
X172587750Y-28666203D01*
X172587750Y-28483797D01*
X172623335Y-28304896D01*
X172693139Y-28136374D01*
X172794478Y-27984709D01*
X172923459Y-27855728D01*
X173075124Y-27754389D01*
X173243646Y-27684585D01*
X173422547Y-27649000D01*
X173604953Y-27649000D01*
X173783854Y-27684585D01*
G37*
G36*
X192833854Y-27684585D02*
G01*
X193002376Y-27754389D01*
X193154041Y-27855728D01*
X193283022Y-27984709D01*
X193384361Y-28136374D01*
X193454165Y-28304896D01*
X193489750Y-28483797D01*
X193489750Y-28666203D01*
X193454165Y-28845104D01*
X193384361Y-29013626D01*
X193283022Y-29165291D01*
X193154041Y-29294272D01*
X193002376Y-29395611D01*
X192833854Y-29465415D01*
X192654953Y-29501000D01*
X192472547Y-29501000D01*
X192293646Y-29465415D01*
X192125124Y-29395611D01*
X191973459Y-29294272D01*
X191844478Y-29165291D01*
X191743139Y-29013626D01*
X191673335Y-28845104D01*
X191637750Y-28666203D01*
X191637750Y-28483797D01*
X191673335Y-28304896D01*
X191743139Y-28136374D01*
X191844478Y-27984709D01*
X191973459Y-27855728D01*
X192125124Y-27754389D01*
X192293646Y-27684585D01*
X192472547Y-27649000D01*
X192654953Y-27649000D01*
X192833854Y-27684585D01*
G37*
G36*
X78533854Y-27684585D02*
G01*
X78702376Y-27754389D01*
X78854041Y-27855728D01*
X78983022Y-27984709D01*
X79084361Y-28136374D01*
X79154165Y-28304896D01*
X79189750Y-28483797D01*
X79189750Y-28666203D01*
X79154165Y-28845104D01*
X79084361Y-29013626D01*
X78983022Y-29165291D01*
X78854041Y-29294272D01*
X78702376Y-29395611D01*
X78533854Y-29465415D01*
X78354953Y-29501000D01*
X78172547Y-29501000D01*
X77993646Y-29465415D01*
X77825124Y-29395611D01*
X77673459Y-29294272D01*
X77544478Y-29165291D01*
X77443139Y-29013626D01*
X77373335Y-28845104D01*
X77337750Y-28666203D01*
X77337750Y-28483797D01*
X77373335Y-28304896D01*
X77443139Y-28136374D01*
X77544478Y-27984709D01*
X77673459Y-27855728D01*
X77825124Y-27754389D01*
X77993646Y-27684585D01*
X78172547Y-27649000D01*
X78354953Y-27649000D01*
X78533854Y-27684585D01*
G37*
G36*
X88693854Y-27684585D02*
G01*
X88862376Y-27754389D01*
X89014041Y-27855728D01*
X89143022Y-27984709D01*
X89244361Y-28136374D01*
X89314165Y-28304896D01*
X89349750Y-28483797D01*
X89349750Y-28666203D01*
X89314165Y-28845104D01*
X89244361Y-29013626D01*
X89143022Y-29165291D01*
X89014041Y-29294272D01*
X88862376Y-29395611D01*
X88693854Y-29465415D01*
X88514953Y-29501000D01*
X88332547Y-29501000D01*
X88153646Y-29465415D01*
X87985124Y-29395611D01*
X87833459Y-29294272D01*
X87704478Y-29165291D01*
X87603139Y-29013626D01*
X87533335Y-28845104D01*
X87497750Y-28666203D01*
X87497750Y-28483797D01*
X87533335Y-28304896D01*
X87603139Y-28136374D01*
X87704478Y-27984709D01*
X87833459Y-27855728D01*
X87985124Y-27754389D01*
X88153646Y-27684585D01*
X88332547Y-27649000D01*
X88514953Y-27649000D01*
X88693854Y-27684585D01*
G37*
G36*
X107743854Y-27684585D02*
G01*
X107912376Y-27754389D01*
X108064041Y-27855728D01*
X108193022Y-27984709D01*
X108294361Y-28136374D01*
X108364165Y-28304896D01*
X108399750Y-28483797D01*
X108399750Y-28666203D01*
X108364165Y-28845104D01*
X108294361Y-29013626D01*
X108193022Y-29165291D01*
X108064041Y-29294272D01*
X107912376Y-29395611D01*
X107743854Y-29465415D01*
X107564953Y-29501000D01*
X107382547Y-29501000D01*
X107203646Y-29465415D01*
X107035124Y-29395611D01*
X106883459Y-29294272D01*
X106754478Y-29165291D01*
X106653139Y-29013626D01*
X106583335Y-28845104D01*
X106547750Y-28666203D01*
X106547750Y-28483797D01*
X106583335Y-28304896D01*
X106653139Y-28136374D01*
X106754478Y-27984709D01*
X106883459Y-27855728D01*
X107035124Y-27754389D01*
X107203646Y-27684585D01*
X107382547Y-27649000D01*
X107564953Y-27649000D01*
X107743854Y-27684585D01*
G37*
G36*
X97583854Y-27684585D02*
G01*
X97752376Y-27754389D01*
X97904041Y-27855728D01*
X98033022Y-27984709D01*
X98134361Y-28136374D01*
X98204165Y-28304896D01*
X98239750Y-28483797D01*
X98239750Y-28666203D01*
X98204165Y-28845104D01*
X98134361Y-29013626D01*
X98033022Y-29165291D01*
X97904041Y-29294272D01*
X97752376Y-29395611D01*
X97583854Y-29465415D01*
X97404953Y-29501000D01*
X97222547Y-29501000D01*
X97043646Y-29465415D01*
X96875124Y-29395611D01*
X96723459Y-29294272D01*
X96594478Y-29165291D01*
X96493139Y-29013626D01*
X96423335Y-28845104D01*
X96387750Y-28666203D01*
X96387750Y-28483797D01*
X96423335Y-28304896D01*
X96493139Y-28136374D01*
X96594478Y-27984709D01*
X96723459Y-27855728D01*
X96875124Y-27754389D01*
X97043646Y-27684585D01*
X97222547Y-27649000D01*
X97404953Y-27649000D01*
X97583854Y-27684585D01*
G37*
G36*
X69643854Y-27684585D02*
G01*
X69812376Y-27754389D01*
X69964041Y-27855728D01*
X70093022Y-27984709D01*
X70194361Y-28136374D01*
X70264165Y-28304896D01*
X70299750Y-28483797D01*
X70299750Y-28666203D01*
X70264165Y-28845104D01*
X70194361Y-29013626D01*
X70093022Y-29165291D01*
X69964041Y-29294272D01*
X69812376Y-29395611D01*
X69643854Y-29465415D01*
X69464953Y-29501000D01*
X69282547Y-29501000D01*
X69103646Y-29465415D01*
X68935124Y-29395611D01*
X68783459Y-29294272D01*
X68654478Y-29165291D01*
X68553139Y-29013626D01*
X68483335Y-28845104D01*
X68447750Y-28666203D01*
X68447750Y-28483797D01*
X68483335Y-28304896D01*
X68553139Y-28136374D01*
X68654478Y-27984709D01*
X68783459Y-27855728D01*
X68935124Y-27754389D01*
X69103646Y-27684585D01*
X69282547Y-27649000D01*
X69464953Y-27649000D01*
X69643854Y-27684585D01*
G37*
G36*
X59483854Y-27684585D02*
G01*
X59652376Y-27754389D01*
X59804041Y-27855728D01*
X59933022Y-27984709D01*
X60034361Y-28136374D01*
X60104165Y-28304896D01*
X60139750Y-28483797D01*
X60139750Y-28666203D01*
X60104165Y-28845104D01*
X60034361Y-29013626D01*
X59933022Y-29165291D01*
X59804041Y-29294272D01*
X59652376Y-29395611D01*
X59483854Y-29465415D01*
X59304953Y-29501000D01*
X59122547Y-29501000D01*
X58943646Y-29465415D01*
X58775124Y-29395611D01*
X58623459Y-29294272D01*
X58494478Y-29165291D01*
X58393139Y-29013626D01*
X58323335Y-28845104D01*
X58287750Y-28666203D01*
X58287750Y-28483797D01*
X58323335Y-28304896D01*
X58393139Y-28136374D01*
X58494478Y-27984709D01*
X58623459Y-27855728D01*
X58775124Y-27754389D01*
X58943646Y-27684585D01*
X59122547Y-27649000D01*
X59304953Y-27649000D01*
X59483854Y-27684585D01*
G37*
G36*
X50593854Y-27684585D02*
G01*
X50762376Y-27754389D01*
X50914041Y-27855728D01*
X51043022Y-27984709D01*
X51144361Y-28136374D01*
X51214165Y-28304896D01*
X51249750Y-28483797D01*
X51249750Y-28666203D01*
X51214165Y-28845104D01*
X51144361Y-29013626D01*
X51043022Y-29165291D01*
X50914041Y-29294272D01*
X50762376Y-29395611D01*
X50593854Y-29465415D01*
X50414953Y-29501000D01*
X50232547Y-29501000D01*
X50053646Y-29465415D01*
X49885124Y-29395611D01*
X49733459Y-29294272D01*
X49604478Y-29165291D01*
X49503139Y-29013626D01*
X49433335Y-28845104D01*
X49397750Y-28666203D01*
X49397750Y-28483797D01*
X49433335Y-28304896D01*
X49503139Y-28136374D01*
X49604478Y-27984709D01*
X49733459Y-27855728D01*
X49885124Y-27754389D01*
X50053646Y-27684585D01*
X50232547Y-27649000D01*
X50414953Y-27649000D01*
X50593854Y-27684585D01*
G37*
G36*
X40433854Y-27684585D02*
G01*
X40602376Y-27754389D01*
X40754041Y-27855728D01*
X40883022Y-27984709D01*
X40984361Y-28136374D01*
X41054165Y-28304896D01*
X41089750Y-28483797D01*
X41089750Y-28666203D01*
X41054165Y-28845104D01*
X40984361Y-29013626D01*
X40883022Y-29165291D01*
X40754041Y-29294272D01*
X40602376Y-29395611D01*
X40433854Y-29465415D01*
X40254953Y-29501000D01*
X40072547Y-29501000D01*
X39893646Y-29465415D01*
X39725124Y-29395611D01*
X39573459Y-29294272D01*
X39444478Y-29165291D01*
X39343139Y-29013626D01*
X39273335Y-28845104D01*
X39237750Y-28666203D01*
X39237750Y-28483797D01*
X39273335Y-28304896D01*
X39343139Y-28136374D01*
X39444478Y-27984709D01*
X39573459Y-27855728D01*
X39725124Y-27754389D01*
X39893646Y-27684585D01*
X40072547Y-27649000D01*
X40254953Y-27649000D01*
X40433854Y-27684585D01*
G37*
G36*
X31543854Y-27684585D02*
G01*
X31712376Y-27754389D01*
X31864041Y-27855728D01*
X31993022Y-27984709D01*
X32094361Y-28136374D01*
X32164165Y-28304896D01*
X32199750Y-28483797D01*
X32199750Y-28666203D01*
X32164165Y-28845104D01*
X32094361Y-29013626D01*
X31993022Y-29165291D01*
X31864041Y-29294272D01*
X31712376Y-29395611D01*
X31543854Y-29465415D01*
X31364953Y-29501000D01*
X31182547Y-29501000D01*
X31003646Y-29465415D01*
X30835124Y-29395611D01*
X30683459Y-29294272D01*
X30554478Y-29165291D01*
X30453139Y-29013626D01*
X30383335Y-28845104D01*
X30347750Y-28666203D01*
X30347750Y-28483797D01*
X30383335Y-28304896D01*
X30453139Y-28136374D01*
X30554478Y-27984709D01*
X30683459Y-27855728D01*
X30835124Y-27754389D01*
X31003646Y-27684585D01*
X31182547Y-27649000D01*
X31364953Y-27649000D01*
X31543854Y-27684585D01*
G37*
G36*
X21383854Y-27684585D02*
G01*
X21552376Y-27754389D01*
X21704041Y-27855728D01*
X21833022Y-27984709D01*
X21934361Y-28136374D01*
X22004165Y-28304896D01*
X22039750Y-28483797D01*
X22039750Y-28666203D01*
X22004165Y-28845104D01*
X21934361Y-29013626D01*
X21833022Y-29165291D01*
X21704041Y-29294272D01*
X21552376Y-29395611D01*
X21383854Y-29465415D01*
X21204953Y-29501000D01*
X21022547Y-29501000D01*
X20843646Y-29465415D01*
X20675124Y-29395611D01*
X20523459Y-29294272D01*
X20394478Y-29165291D01*
X20293139Y-29013626D01*
X20223335Y-28845104D01*
X20187750Y-28666203D01*
X20187750Y-28483797D01*
X20223335Y-28304896D01*
X20293139Y-28136374D01*
X20394478Y-27984709D01*
X20523459Y-27855728D01*
X20675124Y-27754389D01*
X20843646Y-27684585D01*
X21022547Y-27649000D01*
X21204953Y-27649000D01*
X21383854Y-27684585D01*
G37*
G36*
X298966876Y-19484814D02*
G01*
X299075452Y-19517751D01*
X299075455Y-19517752D01*
X299111561Y-19537051D01*
X299175517Y-19571236D01*
X299263224Y-19643216D01*
X299335204Y-19730923D01*
X299369389Y-19794879D01*
X299388688Y-19830985D01*
X299388688Y-19830986D01*
X299388689Y-19830988D01*
X299421626Y-19939564D01*
X299429960Y-20024182D01*
X299429960Y-20930778D01*
X299421626Y-21015396D01*
X299388689Y-21123971D01*
X299388688Y-21123975D01*
X299369389Y-21160081D01*
X299335204Y-21224037D01*
X299263224Y-21311744D01*
X299175516Y-21383724D01*
X299111560Y-21417909D01*
X299075454Y-21437208D01*
X299075451Y-21437209D01*
X298966875Y-21470146D01*
X298853960Y-21481267D01*
X298741044Y-21470146D01*
X298632468Y-21437209D01*
X298632465Y-21437208D01*
X298596359Y-21417909D01*
X298532403Y-21383724D01*
X298444696Y-21311744D01*
X298372716Y-21224036D01*
X298319233Y-21123975D01*
X298319232Y-21123974D01*
X298319231Y-21123971D01*
X298286294Y-21015395D01*
X298277960Y-20930777D01*
X298277960Y-20024182D01*
X298286295Y-19939564D01*
X298319232Y-19830988D01*
X298319233Y-19830986D01*
X298319233Y-19830985D01*
X298338532Y-19794879D01*
X298372717Y-19730923D01*
X298444697Y-19643216D01*
X298532404Y-19571236D01*
X298596360Y-19537051D01*
X298632466Y-19517752D01*
X298632469Y-19517751D01*
X298741045Y-19484814D01*
X298853960Y-19473693D01*
X298966876Y-19484814D01*
G37*
G36*
X306116875Y-19484814D02*
G01*
X306225451Y-19517751D01*
X306225454Y-19517752D01*
X306261560Y-19537051D01*
X306325516Y-19571236D01*
X306413224Y-19643216D01*
X306485204Y-19730923D01*
X306519389Y-19794879D01*
X306538688Y-19830985D01*
X306538688Y-19830986D01*
X306538689Y-19830988D01*
X306571626Y-19939564D01*
X306579960Y-20024182D01*
X306579960Y-20930778D01*
X306571626Y-21015396D01*
X306538689Y-21123971D01*
X306538688Y-21123975D01*
X306519389Y-21160081D01*
X306485204Y-21224037D01*
X306413224Y-21311744D01*
X306325517Y-21383724D01*
X306261561Y-21417909D01*
X306225455Y-21437208D01*
X306225452Y-21437209D01*
X306116876Y-21470146D01*
X306003960Y-21481267D01*
X305891045Y-21470146D01*
X305782469Y-21437209D01*
X305782466Y-21437208D01*
X305746360Y-21417909D01*
X305682404Y-21383724D01*
X305594697Y-21311744D01*
X305522717Y-21224037D01*
X305488532Y-21160081D01*
X305469233Y-21123975D01*
X305469232Y-21123971D01*
X305436295Y-21015396D01*
X305427960Y-20930778D01*
X305427960Y-20024183D01*
X305436294Y-19939565D01*
X305469231Y-19830989D01*
X305469232Y-19830986D01*
X305488531Y-19794880D01*
X305522716Y-19730924D01*
X305594696Y-19643216D01*
X305682403Y-19571236D01*
X305746359Y-19537051D01*
X305782465Y-19517752D01*
X305782468Y-19517751D01*
X305891044Y-19484814D01*
X306003960Y-19473693D01*
X306116875Y-19484814D01*
G37*
M02*
