G04 #@! TF.GenerationSoftware,KiCad,Pcbnew,(5.1.5-0-10_14)*
G04 #@! TF.CreationDate,2020-02-17T19:49:38+00:00*
G04 #@! TF.ProjectId,pcb,7063622e-6b69-4636-9164-5f7063625858,rev?*
G04 #@! TF.SameCoordinates,Original*
G04 #@! TF.FileFunction,Copper,L1,Top*
G04 #@! TF.FilePolarity,Positive*
%FSLAX46Y46*%
G04 Gerber Fmt 4.6, Leading zero omitted, Abs format (unit mm)*
G04 Created by KiCad (PCBNEW (5.1.5-0-10_14)) date 2020-02-17 19:49:38*
%MOMM*%
%LPD*%
G04 APERTURE LIST*
%ADD10C,2.250000*%
%ADD11O,1.050000X1.900000*%
%ADD12C,0.800000*%
%ADD13C,0.609600*%
%ADD14C,0.304800*%
%ADD15C,0.406400*%
%ADD16C,0.457200*%
%ADD17C,0.250000*%
G04 APERTURE END LIST*
D10*
X204946250Y-80645000D03*
X198596250Y-83185000D03*
D11*
X40405000Y-18104000D03*
X33255000Y-18104000D03*
D10*
X162083750Y-99695000D03*
X155733750Y-102235000D03*
X104933750Y-23495000D03*
X98583750Y-26035000D03*
X243046250Y-99695000D03*
X236696250Y-102235000D03*
X314483750Y-99695000D03*
X308133750Y-102235000D03*
X314483750Y-80645000D03*
X308133750Y-83185000D03*
X314483750Y-61595000D03*
X308133750Y-64135000D03*
X314483750Y-42545000D03*
X308133750Y-45085000D03*
X295433750Y-99695000D03*
X289083750Y-102235000D03*
X295433750Y-80645000D03*
X289083750Y-83185000D03*
X290671250Y-42545000D03*
X284321250Y-45085000D03*
X295433750Y-23495000D03*
X289083750Y-26035000D03*
X276383750Y-99695000D03*
X270033750Y-102235000D03*
X269240000Y-80645000D03*
X262890000Y-83185000D03*
X283527500Y-61595000D03*
X277177500Y-64135000D03*
X266858750Y-42545000D03*
X260508750Y-45085000D03*
X276383750Y-23495000D03*
X270033750Y-26035000D03*
X252571250Y-61595000D03*
X246221250Y-64135000D03*
X247808750Y-42545000D03*
X241458750Y-45085000D03*
X257333750Y-23495000D03*
X250983750Y-26035000D03*
X243046250Y-80645000D03*
X236696250Y-83185000D03*
X233521250Y-61595000D03*
X227171250Y-64135000D03*
X228758750Y-42545000D03*
X222408750Y-45085000D03*
X238283750Y-23495000D03*
X231933750Y-26035000D03*
X223996250Y-80645000D03*
X217646250Y-83185000D03*
X214471250Y-61595000D03*
X208121250Y-64135000D03*
X209708750Y-42545000D03*
X203358750Y-45085000D03*
X219233750Y-23495000D03*
X212883750Y-26035000D03*
X195421250Y-61595000D03*
X189071250Y-64135000D03*
X190658750Y-42545000D03*
X184308750Y-45085000D03*
X200183750Y-23495000D03*
X193833750Y-26035000D03*
X185896250Y-80645000D03*
X179546250Y-83185000D03*
X176371250Y-61595000D03*
X170021250Y-64135000D03*
X171608750Y-42545000D03*
X165258750Y-45085000D03*
X181133750Y-23495000D03*
X174783750Y-26035000D03*
X166846250Y-80645000D03*
X160496250Y-83185000D03*
X157321250Y-61595000D03*
X150971250Y-64135000D03*
X152558750Y-42545000D03*
X146208750Y-45085000D03*
X162083750Y-23495000D03*
X155733750Y-26035000D03*
X147796250Y-80645000D03*
X141446250Y-83185000D03*
X138271250Y-61595000D03*
X131921250Y-64135000D03*
X133508750Y-42545000D03*
X127158750Y-45085000D03*
X143033750Y-23495000D03*
X136683750Y-26035000D03*
X128746250Y-80645000D03*
X122396250Y-83185000D03*
X119221250Y-61595000D03*
X112871250Y-64135000D03*
X114458750Y-42545000D03*
X108108750Y-45085000D03*
X123983750Y-23495000D03*
X117633750Y-26035000D03*
X109696250Y-80645000D03*
X103346250Y-83185000D03*
X100171250Y-61595000D03*
X93821250Y-64135000D03*
X95408750Y-42545000D03*
X89058750Y-45085000D03*
X81121250Y-99695000D03*
X74771250Y-102235000D03*
X90646250Y-80645000D03*
X84296250Y-83185000D03*
X81121250Y-61595000D03*
X74771250Y-64135000D03*
X76358750Y-42545000D03*
X70008750Y-45085000D03*
X85883750Y-23495000D03*
X79533750Y-26035000D03*
X71596250Y-80645000D03*
X65246250Y-83185000D03*
X62071250Y-61595000D03*
X55721250Y-64135000D03*
X57308750Y-42545000D03*
X50958750Y-45085000D03*
X66833750Y-23495000D03*
X60483750Y-26035000D03*
X40640000Y-80645000D03*
X34290000Y-83185000D03*
X47783750Y-23495000D03*
X41433750Y-26035000D03*
X33496250Y-99695000D03*
X27146250Y-102235000D03*
X35877500Y-61595000D03*
X29527500Y-64135000D03*
X33496250Y-42545000D03*
X27146250Y-45085000D03*
X28733750Y-23495000D03*
X22383750Y-26035000D03*
D12*
X110236000Y-101092000D03*
X110236028Y-105051936D03*
X26670000Y-35814000D03*
X52040934Y-106680000D03*
X83058000Y-111760000D03*
X111252000Y-113792000D03*
X128994961Y-98081039D03*
X138684000Y-100211600D03*
X133096000Y-105156000D03*
X40640000Y-34290000D03*
X31718210Y-84074000D03*
X112014000Y-90932000D03*
X119888000Y-99051000D03*
X126238000Y-110998000D03*
X129540000Y-108966000D03*
X130302000Y-108204000D03*
X131064000Y-107442000D03*
X136906000Y-106680000D03*
X136144000Y-105918000D03*
X135382000Y-105156000D03*
X140716000Y-103632000D03*
X198882000Y-93472000D03*
X140970000Y-102616000D03*
X154432000Y-93472000D03*
X198882000Y-94488000D03*
X198882000Y-95504000D03*
X198882000Y-96520000D03*
X198855710Y-97562290D03*
X198882000Y-98806000D03*
X198855710Y-99848290D03*
X134620000Y-108712000D03*
X142240000Y-33020000D03*
X135466220Y-109156000D03*
X143002000Y-34036000D03*
D13*
X110236000Y-105051908D02*
X110236028Y-105051936D01*
X110236000Y-101092000D02*
X110236000Y-105051908D01*
X30886410Y-85525476D02*
X52040934Y-106680000D01*
X30886410Y-65080156D02*
X30886410Y-85525476D01*
X31084301Y-64882265D02*
X30886410Y-65080156D01*
X28346410Y-60649844D02*
X31084301Y-63387735D01*
X28346410Y-46188906D02*
X28346410Y-60649844D01*
X31084301Y-63387735D02*
X31084301Y-64882265D01*
X28703051Y-45832265D02*
X28346410Y-46188906D01*
X28703051Y-37847051D02*
X28703051Y-45832265D01*
X26670000Y-35814000D02*
X28703051Y-37847051D01*
X85090000Y-113792000D02*
X111252000Y-113792000D01*
X83058000Y-111760000D02*
X85090000Y-113792000D01*
D14*
X129394960Y-97681040D02*
X136289040Y-97681040D01*
X128994961Y-98081039D02*
X129394960Y-97681040D01*
X138684000Y-100076000D02*
X138684000Y-100211600D01*
X136289040Y-97681040D02*
X138684000Y-100076000D01*
X138040400Y-100211600D02*
X133096000Y-105156000D01*
X138684000Y-100211600D02*
X138040400Y-100211600D01*
D15*
X40640000Y-34290000D02*
X41148000Y-34798000D01*
X41148000Y-72136000D02*
X31521420Y-81762580D01*
X41148000Y-34798000D02*
X41148000Y-72136000D01*
X31521420Y-83877210D02*
X31718210Y-84074000D01*
X31521420Y-81762580D02*
X31521420Y-83877210D01*
X119888000Y-98806000D02*
X119888000Y-99051000D01*
X112014000Y-90932000D02*
X119888000Y-98806000D01*
X76485750Y-43211750D02*
X77216000Y-43942000D01*
D14*
X76485750Y-42799000D02*
X76485750Y-43465750D01*
D15*
X76485750Y-42799000D02*
X76485750Y-43211750D01*
D16*
X30226000Y-65024000D02*
X30226000Y-99155250D01*
X30226000Y-99155250D02*
X27146250Y-102235000D01*
X29527500Y-64325500D02*
X30226000Y-65024000D01*
X29527500Y-64135000D02*
X29527500Y-64325500D01*
X29527500Y-64135000D02*
X29527500Y-64833500D01*
X27686000Y-45974000D02*
X27686000Y-62293500D01*
X27686000Y-62293500D02*
X29527500Y-64135000D01*
X27146250Y-45434250D02*
X27686000Y-45974000D01*
X27146250Y-45085000D02*
X27146250Y-45434250D01*
X23114000Y-27178000D02*
X23114000Y-41052750D01*
X23114000Y-41052750D02*
X27146250Y-45085000D01*
X22383750Y-26447750D02*
X23114000Y-27178000D01*
D15*
X22383750Y-26035000D02*
X22383750Y-26447750D01*
X22383750Y-26035000D02*
X22383750Y-26701750D01*
D17*
X22479000Y-26035000D02*
X22860000Y-26416000D01*
X22383750Y-26035000D02*
X22479000Y-26035000D01*
D16*
X104394000Y-110998000D02*
X103276399Y-109880399D01*
X31893512Y-102235000D02*
X27146250Y-102235000D01*
X33305751Y-103647239D02*
X31893512Y-102235000D01*
X103276399Y-109880399D02*
X39320359Y-109880399D01*
X33305751Y-103865791D02*
X33305751Y-103647239D01*
X39320359Y-109880399D02*
X33305751Y-103865791D01*
X104394000Y-110998000D02*
X126238000Y-110998000D01*
X42164000Y-72390000D02*
X34290000Y-80264000D01*
X34290000Y-80264000D02*
X34290000Y-83185000D01*
X42164000Y-27432000D02*
X42164000Y-72390000D01*
X41433750Y-26701750D02*
X42164000Y-27432000D01*
X41433750Y-26035000D02*
X41433750Y-26701750D01*
X41433750Y-26035000D02*
X41433750Y-26447750D01*
X34290000Y-85392262D02*
X57863738Y-108966000D01*
X34290000Y-83185000D02*
X34290000Y-85392262D01*
X57863738Y-108966000D02*
X129540000Y-108966000D01*
X55721250Y-64135000D02*
X56908749Y-65322499D01*
X56908749Y-74847499D02*
X64121251Y-82060001D01*
X56908749Y-65322499D02*
X56908749Y-74847499D01*
X64121251Y-82060001D02*
X65246250Y-83185000D01*
X50958750Y-45085000D02*
X50958750Y-46675990D01*
X52146249Y-47863489D02*
X52146249Y-60559999D01*
X50958750Y-46675990D02*
X52146249Y-47863489D01*
X52146249Y-60559999D02*
X54596251Y-63010001D01*
X54596251Y-63010001D02*
X55721250Y-64135000D01*
X60483750Y-26035000D02*
X58892760Y-26035000D01*
X50958750Y-43494010D02*
X50958750Y-45085000D01*
X58892760Y-26035000D02*
X50958750Y-33969010D01*
X50958750Y-33969010D02*
X50958750Y-43494010D01*
X65246250Y-98341290D02*
X75108960Y-108204000D01*
X65246250Y-83185000D02*
X65246250Y-98341290D01*
X75108960Y-108204000D02*
X130302000Y-108204000D01*
X84296250Y-83185000D02*
X82705260Y-83185000D01*
X82705260Y-83185000D02*
X74771250Y-91119010D01*
X74771250Y-91119010D02*
X74771250Y-100644010D01*
X74771250Y-100644010D02*
X74771250Y-102235000D01*
X74771250Y-64135000D02*
X75958749Y-65322499D01*
X75958749Y-65322499D02*
X75958749Y-74847499D01*
X75958749Y-74847499D02*
X83171251Y-82060001D01*
X83171251Y-82060001D02*
X84296250Y-83185000D01*
X70008750Y-45085000D02*
X71196249Y-46272499D01*
X71196249Y-46272499D02*
X71196249Y-60559999D01*
X71196249Y-60559999D02*
X73646251Y-63010001D01*
X73646251Y-63010001D02*
X74771250Y-64135000D01*
X79533750Y-26035000D02*
X77942760Y-26035000D01*
X77942760Y-26035000D02*
X70008750Y-33969010D01*
X70008750Y-43494010D02*
X70008750Y-45085000D01*
X70008750Y-33969010D02*
X70008750Y-43494010D01*
X84296250Y-85392262D02*
X106345988Y-107442000D01*
X84296250Y-83185000D02*
X84296250Y-85392262D01*
X106345988Y-107442000D02*
X131064000Y-107442000D01*
X93821250Y-64135000D02*
X94946249Y-65259999D01*
X94946249Y-65259999D02*
X94946249Y-74784999D01*
X94946249Y-74784999D02*
X102221251Y-82060001D01*
X102221251Y-82060001D02*
X103346250Y-83185000D01*
X89058750Y-45085000D02*
X89058750Y-46675990D01*
X89058750Y-46675990D02*
X90246249Y-47863489D01*
X90246249Y-47863489D02*
X90246249Y-60559999D01*
X92696251Y-63010001D02*
X93821250Y-64135000D01*
X90246249Y-60559999D02*
X92696251Y-63010001D01*
X98583750Y-26035000D02*
X96992760Y-26035000D01*
X96992760Y-26035000D02*
X89058750Y-33969010D01*
X89058750Y-33969010D02*
X89058750Y-43494010D01*
X89058750Y-43494010D02*
X89058750Y-45085000D01*
X103346250Y-85392262D02*
X124633988Y-106680000D01*
X103346250Y-83185000D02*
X103346250Y-85392262D01*
X124633988Y-106680000D02*
X136906000Y-106680000D01*
X112871250Y-64135000D02*
X114058749Y-65322499D01*
X114058749Y-65322499D02*
X114058749Y-74847499D01*
X114058749Y-74847499D02*
X121271251Y-82060001D01*
X121271251Y-82060001D02*
X122396250Y-83185000D01*
X108108750Y-45085000D02*
X109296249Y-46272499D01*
X109296249Y-46272499D02*
X109296249Y-60559999D01*
X111746251Y-63010001D02*
X112871250Y-64135000D01*
X109296249Y-60559999D02*
X111746251Y-63010001D01*
X117633750Y-26035000D02*
X116508751Y-27159999D01*
X116508751Y-27159999D02*
X115849421Y-27159999D01*
X115849421Y-27159999D02*
X108108750Y-34900670D01*
X108108750Y-34900670D02*
X108108750Y-43494010D01*
X108108750Y-43494010D02*
X108108750Y-45085000D01*
X122396250Y-83185000D02*
X122396250Y-100044250D01*
X128270000Y-105918000D02*
X136144000Y-105918000D01*
X122396250Y-100044250D02*
X128270000Y-105918000D01*
X131921250Y-64135000D02*
X133108749Y-65322499D01*
X133108749Y-65322499D02*
X133108749Y-74847499D01*
X133108749Y-74847499D02*
X140321251Y-82060001D01*
X140321251Y-82060001D02*
X141446250Y-83185000D01*
X127158750Y-45085000D02*
X128346249Y-46272499D01*
X128346249Y-46272499D02*
X128346249Y-60559999D01*
X128346249Y-60559999D02*
X130796251Y-63010001D01*
X130796251Y-63010001D02*
X131921250Y-64135000D01*
X136683750Y-26035000D02*
X135558751Y-27159999D01*
X135558751Y-27159999D02*
X134899421Y-27159999D01*
X134899421Y-27159999D02*
X127158750Y-34900670D01*
X127158750Y-34900670D02*
X127158750Y-43494010D01*
X127158750Y-43494010D02*
X127158750Y-45085000D01*
X141446250Y-83185000D02*
X141446250Y-99091750D01*
X141446250Y-99091750D02*
X135382000Y-105156000D01*
X150971250Y-64135000D02*
X152158749Y-65322499D01*
X152158749Y-65322499D02*
X152158749Y-74847499D01*
X152158749Y-74847499D02*
X159371251Y-82060001D01*
X159371251Y-82060001D02*
X160496250Y-83185000D01*
X146208750Y-45085000D02*
X147396249Y-46272499D01*
X147396249Y-46272499D02*
X147396249Y-60559999D01*
X147396249Y-60559999D02*
X149846251Y-63010001D01*
X149846251Y-63010001D02*
X150971250Y-64135000D01*
X155733750Y-26035000D02*
X154142760Y-26035000D01*
X146208750Y-33969010D02*
X146208750Y-43494010D01*
X154142760Y-26035000D02*
X146208750Y-33969010D01*
X146208750Y-43494010D02*
X146208750Y-45085000D01*
X160496250Y-83185000D02*
X161956749Y-84645499D01*
X161956749Y-96012001D02*
X155733750Y-102235000D01*
X161956749Y-84645499D02*
X161956749Y-96012001D01*
X170021250Y-64135000D02*
X171208749Y-65322499D01*
X171208749Y-65322499D02*
X171208749Y-74847499D01*
X171208749Y-74847499D02*
X178421251Y-82060001D01*
X178421251Y-82060001D02*
X179546250Y-83185000D01*
X165258750Y-45085000D02*
X166446249Y-46272499D01*
X166446249Y-46272499D02*
X166446249Y-60559999D01*
X166446249Y-60559999D02*
X168896251Y-63010001D01*
X168896251Y-63010001D02*
X170021250Y-64135000D01*
X174783750Y-26035000D02*
X173192760Y-26035000D01*
X165258750Y-43494010D02*
X165258750Y-45085000D01*
X173192760Y-26035000D02*
X165258750Y-33969010D01*
X165258750Y-33969010D02*
X165258750Y-43494010D01*
X164095539Y-107124501D02*
X144208501Y-107124501D01*
X180671249Y-90548791D02*
X164095539Y-107124501D01*
X180671249Y-84309999D02*
X180671249Y-90548791D01*
X179546250Y-83185000D02*
X180671249Y-84309999D01*
X144208501Y-107124501D02*
X140716000Y-103632000D01*
X189071250Y-64135000D02*
X190258749Y-65322499D01*
X190258749Y-74847499D02*
X197471251Y-82060001D01*
X197471251Y-82060001D02*
X198596250Y-83185000D01*
X190258749Y-65322499D02*
X190258749Y-74847499D01*
X184308750Y-45085000D02*
X185496249Y-46272499D01*
X185496249Y-46272499D02*
X185496249Y-60559999D01*
X185496249Y-60559999D02*
X187946251Y-63010001D01*
X187946251Y-63010001D02*
X189071250Y-64135000D01*
X193833750Y-26035000D02*
X192242760Y-26035000D01*
X192242760Y-26035000D02*
X184308750Y-33969010D01*
X184308750Y-33969010D02*
X184308750Y-43494010D01*
X184308750Y-43494010D02*
X184308750Y-45085000D01*
D14*
X145288000Y-102616000D02*
X140970000Y-102616000D01*
X154432000Y-93472000D02*
X145288000Y-102616000D01*
X198596250Y-83185000D02*
X200025000Y-84613750D01*
X200025000Y-92329000D02*
X198882000Y-93472000D01*
X200025000Y-84613750D02*
X200025000Y-92329000D01*
D16*
X208121250Y-64135000D02*
X209246249Y-65259999D01*
X203358750Y-45085000D02*
X204546249Y-46272499D01*
X204546249Y-60559999D02*
X206996251Y-63010001D01*
X206996251Y-63010001D02*
X208121250Y-64135000D01*
X204546249Y-46272499D02*
X204546249Y-60559999D01*
X212883750Y-26035000D02*
X211292760Y-26035000D01*
X211292760Y-26035000D02*
X203358750Y-33969010D01*
X203358750Y-33969010D02*
X203358750Y-43494010D01*
X203358750Y-43494010D02*
X203358750Y-45085000D01*
D15*
X209246249Y-74784999D02*
X217646250Y-83185000D01*
X209246249Y-65259999D02*
X209246249Y-74784999D01*
X212852000Y-94488000D02*
X198882000Y-94488000D01*
X218948000Y-88392000D02*
X212852000Y-94488000D01*
X218948000Y-84486750D02*
X218948000Y-88392000D01*
X217646250Y-83185000D02*
X218948000Y-84486750D01*
D16*
X236696250Y-83185000D02*
X237821249Y-84309999D01*
X237821249Y-84309999D02*
X237821249Y-101110001D01*
X237821249Y-101110001D02*
X236696250Y-102235000D01*
X227171250Y-64135000D02*
X228358749Y-65322499D01*
X228358749Y-65322499D02*
X228358749Y-74847499D01*
X235571251Y-82060001D02*
X236696250Y-83185000D01*
X228358749Y-74847499D02*
X235571251Y-82060001D01*
X222408750Y-45085000D02*
X222408750Y-45561250D01*
X223596249Y-46748749D02*
X223596249Y-60559999D01*
X222408750Y-45561250D02*
X223596249Y-46748749D01*
X223596249Y-60559999D02*
X226046251Y-63010001D01*
X226046251Y-63010001D02*
X227171250Y-64135000D01*
X231933750Y-26035000D02*
X230342760Y-26035000D01*
X222408750Y-43494010D02*
X222408750Y-45085000D01*
X230342760Y-26035000D02*
X222408750Y-33969010D01*
X222408750Y-33969010D02*
X222408750Y-43494010D01*
X199447685Y-95504000D02*
X206051685Y-102108000D01*
X206051685Y-102108000D02*
X207010000Y-102108000D01*
X198882000Y-95504000D02*
X199447685Y-95504000D01*
X236696250Y-102235000D02*
X207010000Y-102108000D01*
X241458750Y-45085000D02*
X242646249Y-46272499D01*
X245096251Y-63010001D02*
X246221250Y-64135000D01*
X242646249Y-46272499D02*
X242646249Y-60559999D01*
X242646249Y-60559999D02*
X245096251Y-63010001D01*
X250983750Y-26035000D02*
X249392760Y-26035000D01*
X249392760Y-26035000D02*
X241458750Y-33969010D01*
X241458750Y-33969010D02*
X241458750Y-43494010D01*
X241458750Y-43494010D02*
X241458750Y-45085000D01*
X208367601Y-106005601D02*
X198882000Y-96520000D01*
X236016939Y-106005601D02*
X208367601Y-106005601D01*
X242855751Y-86852761D02*
X238405459Y-91303053D01*
X238405459Y-91303053D02*
X238405459Y-103617081D01*
X242855751Y-84597239D02*
X242855751Y-86852761D01*
X246221250Y-81231740D02*
X242855751Y-84597239D01*
X238405459Y-103617081D02*
X236016939Y-106005601D01*
X246221250Y-64135000D02*
X246221250Y-81231740D01*
X262890000Y-83185000D02*
X261299010Y-83185000D01*
X261299010Y-83185000D02*
X260116399Y-84367611D01*
X268908751Y-101110001D02*
X270033750Y-102235000D01*
X260116399Y-84367611D02*
X260116399Y-92317649D01*
X260116399Y-92317649D02*
X268908751Y-101110001D01*
X273050000Y-78740000D02*
X267335000Y-78740000D01*
X267335000Y-78740000D02*
X262890000Y-83185000D01*
X278302499Y-73487501D02*
X273050000Y-78740000D01*
X277177500Y-64135000D02*
X278302499Y-65259999D01*
X278302499Y-65259999D02*
X278302499Y-73487501D01*
X277177500Y-64135000D02*
X275586510Y-64135000D01*
X262890000Y-81594010D02*
X262890000Y-83185000D01*
X260508750Y-45085000D02*
X261696249Y-46272499D01*
X276052501Y-63010001D02*
X277177500Y-64135000D01*
X261696249Y-46272499D02*
X261696249Y-48883801D01*
X261696249Y-48883801D02*
X275822449Y-63010001D01*
X275822449Y-63010001D02*
X276052501Y-63010001D01*
X270033750Y-26035000D02*
X268442760Y-26035000D01*
X268442760Y-26035000D02*
X260508750Y-33969010D01*
X260508750Y-33969010D02*
X260508750Y-43494010D01*
X260508750Y-43494010D02*
X260508750Y-45085000D01*
X270033750Y-105632250D02*
X265938000Y-109728000D01*
X270033750Y-102235000D02*
X270033750Y-105632250D01*
X211021420Y-109728000D02*
X198855710Y-97562290D01*
X265938000Y-109728000D02*
X211021420Y-109728000D01*
X289083750Y-83185000D02*
X287492760Y-83185000D01*
X287492760Y-83185000D02*
X286310149Y-84367611D01*
X286310149Y-84367611D02*
X286310149Y-99461399D01*
X287958751Y-101110001D02*
X289083750Y-102235000D01*
X286310149Y-99461399D02*
X287958751Y-101110001D01*
X285446249Y-46209999D02*
X285446249Y-48821301D01*
X285446249Y-48821301D02*
X297180000Y-60555052D01*
X284321250Y-45085000D02*
X285446249Y-46209999D01*
X297180000Y-60555052D02*
X297180000Y-75088750D01*
X297180000Y-75088750D02*
X289083750Y-83185000D01*
X289083750Y-26035000D02*
X287492760Y-26035000D01*
X284321250Y-29206510D02*
X284321250Y-43494010D01*
X287492760Y-26035000D02*
X284321250Y-29206510D01*
X284321250Y-43494010D02*
X284321250Y-45085000D01*
X213715601Y-113639601D02*
X198882000Y-98806000D01*
X270617960Y-105874237D02*
X262852596Y-113639601D01*
X270617960Y-103842080D02*
X270617960Y-105874237D01*
X272225040Y-102235000D02*
X270617960Y-103842080D01*
X262852596Y-113639601D02*
X213715601Y-113639601D01*
X289083750Y-102235000D02*
X272225040Y-102235000D01*
X308133750Y-83185000D02*
X306542760Y-83185000D01*
X305360149Y-99461399D02*
X307008751Y-101110001D01*
X307008751Y-101110001D02*
X308133750Y-102235000D01*
X306542760Y-83185000D02*
X305360149Y-84367611D01*
X305360149Y-84367611D02*
X305360149Y-99461399D01*
X308133750Y-64135000D02*
X309258749Y-65259999D01*
X309258749Y-65259999D02*
X309258749Y-82060001D01*
X309258749Y-82060001D02*
X308133750Y-83185000D01*
X308133750Y-45085000D02*
X306542760Y-45085000D01*
X307008751Y-63010001D02*
X308133750Y-64135000D01*
X306542760Y-45085000D02*
X305360149Y-46267611D01*
X305360149Y-46267611D02*
X305360149Y-61361399D01*
X305360149Y-61361399D02*
X307008751Y-63010001D01*
X213231231Y-114223811D02*
X198855710Y-99848290D01*
X294553949Y-114223811D02*
X213231231Y-114223811D01*
X306542760Y-102235000D02*
X294553949Y-114223811D01*
X308133750Y-102235000D02*
X306542760Y-102235000D01*
D14*
X137585401Y-103671033D02*
X142240000Y-99016434D01*
X135972599Y-107359401D02*
X137232113Y-107359401D01*
X137585401Y-107006113D02*
X137585401Y-103671033D01*
X137232113Y-107359401D02*
X137585401Y-107006113D01*
X134620000Y-108712000D02*
X135972599Y-107359401D01*
X142240000Y-99016434D02*
X142240000Y-85852000D01*
X142240000Y-81900236D02*
X142240000Y-33020000D01*
X142850651Y-82510887D02*
X142240000Y-81900236D01*
X142850651Y-85241349D02*
X142850651Y-82510887D01*
X142240000Y-85852000D02*
X142850651Y-85241349D01*
X142982949Y-34055051D02*
X143002000Y-34036000D01*
X139002000Y-109156000D02*
X140036599Y-108121401D01*
X140036599Y-102543887D02*
X142982949Y-99597537D01*
X140036599Y-108121401D02*
X140036599Y-102543887D01*
X135466220Y-109156000D02*
X139002000Y-109156000D01*
X142982949Y-91362787D02*
X147828000Y-86517736D01*
X142982949Y-99597537D02*
X142982949Y-91362787D01*
X143002000Y-34601685D02*
X143002000Y-34036000D01*
X143002000Y-77929264D02*
X143002000Y-34601685D01*
X147828000Y-82755264D02*
X143002000Y-77929264D01*
X147828000Y-86517736D02*
X147828000Y-82755264D01*
M02*
