G04 #@! TF.GenerationSoftware,KiCad,Pcbnew,(5.1.5-0-10_14)*
G04 #@! TF.CreationDate,2020-02-17T19:49:38+00:00*
G04 #@! TF.ProjectId,pcb,7063622e-6b69-4636-9164-5f7063625858,rev?*
G04 #@! TF.SameCoordinates,Original*
G04 #@! TF.FileFunction,Paste,Bot*
G04 #@! TF.FilePolarity,Positive*
%FSLAX46Y46*%
G04 Gerber Fmt 4.6, Leading zero omitted, Abs format (unit mm)*
G04 Created by KiCad (PCBNEW (5.1.5-0-10_14)) date 2020-02-17 19:49:38*
%MOMM*%
%LPD*%
G04 APERTURE LIST*
%ADD10C,0.100000*%
%ADD11R,1.150000X1.450000*%
%ADD12R,1.750000X1.900000*%
%ADD13R,0.400000X1.400000*%
%ADD14R,1.300000X1.600000*%
%ADD15R,1.500000X0.550000*%
%ADD16R,0.550000X1.500000*%
%ADD17R,1.200000X0.900000*%
G04 APERTURE END LIST*
D10*
G36*
X38749504Y-22693204D02*
G01*
X38773773Y-22696804D01*
X38797571Y-22702765D01*
X38820671Y-22711030D01*
X38842849Y-22721520D01*
X38863893Y-22734133D01*
X38883598Y-22748747D01*
X38901777Y-22765223D01*
X38918253Y-22783402D01*
X38932867Y-22803107D01*
X38945480Y-22824151D01*
X38955970Y-22846329D01*
X38964235Y-22869429D01*
X38970196Y-22893227D01*
X38973796Y-22917496D01*
X38975000Y-22942000D01*
X38975000Y-23867000D01*
X38973796Y-23891504D01*
X38970196Y-23915773D01*
X38964235Y-23939571D01*
X38955970Y-23962671D01*
X38945480Y-23984849D01*
X38932867Y-24005893D01*
X38918253Y-24025598D01*
X38901777Y-24043777D01*
X38883598Y-24060253D01*
X38863893Y-24074867D01*
X38842849Y-24087480D01*
X38820671Y-24097970D01*
X38797571Y-24106235D01*
X38773773Y-24112196D01*
X38749504Y-24115796D01*
X38725000Y-24117000D01*
X37475000Y-24117000D01*
X37450496Y-24115796D01*
X37426227Y-24112196D01*
X37402429Y-24106235D01*
X37379329Y-24097970D01*
X37357151Y-24087480D01*
X37336107Y-24074867D01*
X37316402Y-24060253D01*
X37298223Y-24043777D01*
X37281747Y-24025598D01*
X37267133Y-24005893D01*
X37254520Y-23984849D01*
X37244030Y-23962671D01*
X37235765Y-23939571D01*
X37229804Y-23915773D01*
X37226204Y-23891504D01*
X37225000Y-23867000D01*
X37225000Y-22942000D01*
X37226204Y-22917496D01*
X37229804Y-22893227D01*
X37235765Y-22869429D01*
X37244030Y-22846329D01*
X37254520Y-22824151D01*
X37267133Y-22803107D01*
X37281747Y-22783402D01*
X37298223Y-22765223D01*
X37316402Y-22748747D01*
X37336107Y-22734133D01*
X37357151Y-22721520D01*
X37379329Y-22711030D01*
X37402429Y-22702765D01*
X37426227Y-22696804D01*
X37450496Y-22693204D01*
X37475000Y-22692000D01*
X38725000Y-22692000D01*
X38749504Y-22693204D01*
G37*
G36*
X38749504Y-25668204D02*
G01*
X38773773Y-25671804D01*
X38797571Y-25677765D01*
X38820671Y-25686030D01*
X38842849Y-25696520D01*
X38863893Y-25709133D01*
X38883598Y-25723747D01*
X38901777Y-25740223D01*
X38918253Y-25758402D01*
X38932867Y-25778107D01*
X38945480Y-25799151D01*
X38955970Y-25821329D01*
X38964235Y-25844429D01*
X38970196Y-25868227D01*
X38973796Y-25892496D01*
X38975000Y-25917000D01*
X38975000Y-26842000D01*
X38973796Y-26866504D01*
X38970196Y-26890773D01*
X38964235Y-26914571D01*
X38955970Y-26937671D01*
X38945480Y-26959849D01*
X38932867Y-26980893D01*
X38918253Y-27000598D01*
X38901777Y-27018777D01*
X38883598Y-27035253D01*
X38863893Y-27049867D01*
X38842849Y-27062480D01*
X38820671Y-27072970D01*
X38797571Y-27081235D01*
X38773773Y-27087196D01*
X38749504Y-27090796D01*
X38725000Y-27092000D01*
X37475000Y-27092000D01*
X37450496Y-27090796D01*
X37426227Y-27087196D01*
X37402429Y-27081235D01*
X37379329Y-27072970D01*
X37357151Y-27062480D01*
X37336107Y-27049867D01*
X37316402Y-27035253D01*
X37298223Y-27018777D01*
X37281747Y-27000598D01*
X37267133Y-26980893D01*
X37254520Y-26959849D01*
X37244030Y-26937671D01*
X37235765Y-26914571D01*
X37229804Y-26890773D01*
X37226204Y-26866504D01*
X37225000Y-26842000D01*
X37225000Y-25917000D01*
X37226204Y-25892496D01*
X37229804Y-25868227D01*
X37235765Y-25844429D01*
X37244030Y-25821329D01*
X37254520Y-25799151D01*
X37267133Y-25778107D01*
X37281747Y-25758402D01*
X37298223Y-25740223D01*
X37316402Y-25723747D01*
X37336107Y-25709133D01*
X37357151Y-25696520D01*
X37379329Y-25686030D01*
X37402429Y-25677765D01*
X37426227Y-25671804D01*
X37450496Y-25668204D01*
X37475000Y-25667000D01*
X38725000Y-25667000D01*
X38749504Y-25668204D01*
G37*
D11*
X34510000Y-20334000D03*
X39150000Y-20334000D03*
D12*
X35705000Y-18104000D03*
D13*
X36830000Y-20754000D03*
X37480000Y-20754000D03*
X38130000Y-20754000D03*
X35530000Y-20754000D03*
X36180000Y-20754000D03*
D12*
X37955000Y-18104000D03*
D14*
X120158000Y-105538000D03*
X120158000Y-108838000D03*
X122158000Y-108838000D03*
X122158000Y-105538000D03*
D15*
X138542000Y-109156000D03*
X138542000Y-108356000D03*
X138542000Y-107556000D03*
X138542000Y-106756000D03*
X138542000Y-105956000D03*
X138542000Y-105156000D03*
X138542000Y-104356000D03*
X138542000Y-103556000D03*
X138542000Y-102756000D03*
X138542000Y-101956000D03*
X138542000Y-101156000D03*
D16*
X136842000Y-99456000D03*
X136042000Y-99456000D03*
X135242000Y-99456000D03*
X134442000Y-99456000D03*
X133642000Y-99456000D03*
X132842000Y-99456000D03*
X132042000Y-99456000D03*
X131242000Y-99456000D03*
X130442000Y-99456000D03*
X129642000Y-99456000D03*
X128842000Y-99456000D03*
D15*
X127142000Y-101156000D03*
X127142000Y-101956000D03*
X127142000Y-102756000D03*
X127142000Y-103556000D03*
X127142000Y-104356000D03*
X127142000Y-105156000D03*
X127142000Y-105956000D03*
X127142000Y-106756000D03*
X127142000Y-107556000D03*
X127142000Y-108356000D03*
X127142000Y-109156000D03*
D16*
X128842000Y-110856000D03*
X129642000Y-110856000D03*
X130442000Y-110856000D03*
X131242000Y-110856000D03*
X132042000Y-110856000D03*
X132842000Y-110856000D03*
X133642000Y-110856000D03*
X134442000Y-110856000D03*
X135242000Y-110856000D03*
X136042000Y-110856000D03*
X136842000Y-110856000D03*
D10*
G36*
X35955504Y-25668204D02*
G01*
X35979773Y-25671804D01*
X36003571Y-25677765D01*
X36026671Y-25686030D01*
X36048849Y-25696520D01*
X36069893Y-25709133D01*
X36089598Y-25723747D01*
X36107777Y-25740223D01*
X36124253Y-25758402D01*
X36138867Y-25778107D01*
X36151480Y-25799151D01*
X36161970Y-25821329D01*
X36170235Y-25844429D01*
X36176196Y-25868227D01*
X36179796Y-25892496D01*
X36181000Y-25917000D01*
X36181000Y-26842000D01*
X36179796Y-26866504D01*
X36176196Y-26890773D01*
X36170235Y-26914571D01*
X36161970Y-26937671D01*
X36151480Y-26959849D01*
X36138867Y-26980893D01*
X36124253Y-27000598D01*
X36107777Y-27018777D01*
X36089598Y-27035253D01*
X36069893Y-27049867D01*
X36048849Y-27062480D01*
X36026671Y-27072970D01*
X36003571Y-27081235D01*
X35979773Y-27087196D01*
X35955504Y-27090796D01*
X35931000Y-27092000D01*
X34681000Y-27092000D01*
X34656496Y-27090796D01*
X34632227Y-27087196D01*
X34608429Y-27081235D01*
X34585329Y-27072970D01*
X34563151Y-27062480D01*
X34542107Y-27049867D01*
X34522402Y-27035253D01*
X34504223Y-27018777D01*
X34487747Y-27000598D01*
X34473133Y-26980893D01*
X34460520Y-26959849D01*
X34450030Y-26937671D01*
X34441765Y-26914571D01*
X34435804Y-26890773D01*
X34432204Y-26866504D01*
X34431000Y-26842000D01*
X34431000Y-25917000D01*
X34432204Y-25892496D01*
X34435804Y-25868227D01*
X34441765Y-25844429D01*
X34450030Y-25821329D01*
X34460520Y-25799151D01*
X34473133Y-25778107D01*
X34487747Y-25758402D01*
X34504223Y-25740223D01*
X34522402Y-25723747D01*
X34542107Y-25709133D01*
X34563151Y-25696520D01*
X34585329Y-25686030D01*
X34608429Y-25677765D01*
X34632227Y-25671804D01*
X34656496Y-25668204D01*
X34681000Y-25667000D01*
X35931000Y-25667000D01*
X35955504Y-25668204D01*
G37*
G36*
X35955504Y-22693204D02*
G01*
X35979773Y-22696804D01*
X36003571Y-22702765D01*
X36026671Y-22711030D01*
X36048849Y-22721520D01*
X36069893Y-22734133D01*
X36089598Y-22748747D01*
X36107777Y-22765223D01*
X36124253Y-22783402D01*
X36138867Y-22803107D01*
X36151480Y-22824151D01*
X36161970Y-22846329D01*
X36170235Y-22869429D01*
X36176196Y-22893227D01*
X36179796Y-22917496D01*
X36181000Y-22942000D01*
X36181000Y-23867000D01*
X36179796Y-23891504D01*
X36176196Y-23915773D01*
X36170235Y-23939571D01*
X36161970Y-23962671D01*
X36151480Y-23984849D01*
X36138867Y-24005893D01*
X36124253Y-24025598D01*
X36107777Y-24043777D01*
X36089598Y-24060253D01*
X36069893Y-24074867D01*
X36048849Y-24087480D01*
X36026671Y-24097970D01*
X36003571Y-24106235D01*
X35979773Y-24112196D01*
X35955504Y-24115796D01*
X35931000Y-24117000D01*
X34681000Y-24117000D01*
X34656496Y-24115796D01*
X34632227Y-24112196D01*
X34608429Y-24106235D01*
X34585329Y-24097970D01*
X34563151Y-24087480D01*
X34542107Y-24074867D01*
X34522402Y-24060253D01*
X34504223Y-24043777D01*
X34487747Y-24025598D01*
X34473133Y-24005893D01*
X34460520Y-23984849D01*
X34450030Y-23962671D01*
X34441765Y-23939571D01*
X34435804Y-23915773D01*
X34432204Y-23891504D01*
X34431000Y-23867000D01*
X34431000Y-22942000D01*
X34432204Y-22917496D01*
X34435804Y-22893227D01*
X34441765Y-22869429D01*
X34450030Y-22846329D01*
X34460520Y-22824151D01*
X34473133Y-22803107D01*
X34487747Y-22783402D01*
X34504223Y-22765223D01*
X34522402Y-22748747D01*
X34542107Y-22734133D01*
X34563151Y-22721520D01*
X34585329Y-22711030D01*
X34608429Y-22702765D01*
X34632227Y-22696804D01*
X34656496Y-22693204D01*
X34681000Y-22692000D01*
X35931000Y-22692000D01*
X35955504Y-22693204D01*
G37*
G36*
X147715504Y-101941204D02*
G01*
X147739773Y-101944804D01*
X147763571Y-101950765D01*
X147786671Y-101959030D01*
X147808849Y-101969520D01*
X147829893Y-101982133D01*
X147849598Y-101996747D01*
X147867777Y-102013223D01*
X147884253Y-102031402D01*
X147898867Y-102051107D01*
X147911480Y-102072151D01*
X147921970Y-102094329D01*
X147930235Y-102117429D01*
X147936196Y-102141227D01*
X147939796Y-102165496D01*
X147941000Y-102190000D01*
X147941000Y-103115000D01*
X147939796Y-103139504D01*
X147936196Y-103163773D01*
X147930235Y-103187571D01*
X147921970Y-103210671D01*
X147911480Y-103232849D01*
X147898867Y-103253893D01*
X147884253Y-103273598D01*
X147867777Y-103291777D01*
X147849598Y-103308253D01*
X147829893Y-103322867D01*
X147808849Y-103335480D01*
X147786671Y-103345970D01*
X147763571Y-103354235D01*
X147739773Y-103360196D01*
X147715504Y-103363796D01*
X147691000Y-103365000D01*
X146441000Y-103365000D01*
X146416496Y-103363796D01*
X146392227Y-103360196D01*
X146368429Y-103354235D01*
X146345329Y-103345970D01*
X146323151Y-103335480D01*
X146302107Y-103322867D01*
X146282402Y-103308253D01*
X146264223Y-103291777D01*
X146247747Y-103273598D01*
X146233133Y-103253893D01*
X146220520Y-103232849D01*
X146210030Y-103210671D01*
X146201765Y-103187571D01*
X146195804Y-103163773D01*
X146192204Y-103139504D01*
X146191000Y-103115000D01*
X146191000Y-102190000D01*
X146192204Y-102165496D01*
X146195804Y-102141227D01*
X146201765Y-102117429D01*
X146210030Y-102094329D01*
X146220520Y-102072151D01*
X146233133Y-102051107D01*
X146247747Y-102031402D01*
X146264223Y-102013223D01*
X146282402Y-101996747D01*
X146302107Y-101982133D01*
X146323151Y-101969520D01*
X146345329Y-101959030D01*
X146368429Y-101950765D01*
X146392227Y-101944804D01*
X146416496Y-101941204D01*
X146441000Y-101940000D01*
X147691000Y-101940000D01*
X147715504Y-101941204D01*
G37*
G36*
X147715504Y-104916204D02*
G01*
X147739773Y-104919804D01*
X147763571Y-104925765D01*
X147786671Y-104934030D01*
X147808849Y-104944520D01*
X147829893Y-104957133D01*
X147849598Y-104971747D01*
X147867777Y-104988223D01*
X147884253Y-105006402D01*
X147898867Y-105026107D01*
X147911480Y-105047151D01*
X147921970Y-105069329D01*
X147930235Y-105092429D01*
X147936196Y-105116227D01*
X147939796Y-105140496D01*
X147941000Y-105165000D01*
X147941000Y-106090000D01*
X147939796Y-106114504D01*
X147936196Y-106138773D01*
X147930235Y-106162571D01*
X147921970Y-106185671D01*
X147911480Y-106207849D01*
X147898867Y-106228893D01*
X147884253Y-106248598D01*
X147867777Y-106266777D01*
X147849598Y-106283253D01*
X147829893Y-106297867D01*
X147808849Y-106310480D01*
X147786671Y-106320970D01*
X147763571Y-106329235D01*
X147739773Y-106335196D01*
X147715504Y-106338796D01*
X147691000Y-106340000D01*
X146441000Y-106340000D01*
X146416496Y-106338796D01*
X146392227Y-106335196D01*
X146368429Y-106329235D01*
X146345329Y-106320970D01*
X146323151Y-106310480D01*
X146302107Y-106297867D01*
X146282402Y-106283253D01*
X146264223Y-106266777D01*
X146247747Y-106248598D01*
X146233133Y-106228893D01*
X146220520Y-106207849D01*
X146210030Y-106185671D01*
X146201765Y-106162571D01*
X146195804Y-106138773D01*
X146192204Y-106114504D01*
X146191000Y-106090000D01*
X146191000Y-105165000D01*
X146192204Y-105140496D01*
X146195804Y-105116227D01*
X146201765Y-105092429D01*
X146210030Y-105069329D01*
X146220520Y-105047151D01*
X146233133Y-105026107D01*
X146247747Y-105006402D01*
X146264223Y-104988223D01*
X146282402Y-104971747D01*
X146302107Y-104957133D01*
X146323151Y-104944520D01*
X146345329Y-104934030D01*
X146368429Y-104925765D01*
X146392227Y-104919804D01*
X146416496Y-104916204D01*
X146441000Y-104915000D01*
X147691000Y-104915000D01*
X147715504Y-104916204D01*
G37*
G36*
X128539504Y-113934204D02*
G01*
X128563773Y-113937804D01*
X128587571Y-113943765D01*
X128610671Y-113952030D01*
X128632849Y-113962520D01*
X128653893Y-113975133D01*
X128673598Y-113989747D01*
X128691777Y-114006223D01*
X128708253Y-114024402D01*
X128722867Y-114044107D01*
X128735480Y-114065151D01*
X128745970Y-114087329D01*
X128754235Y-114110429D01*
X128760196Y-114134227D01*
X128763796Y-114158496D01*
X128765000Y-114183000D01*
X128765000Y-115433000D01*
X128763796Y-115457504D01*
X128760196Y-115481773D01*
X128754235Y-115505571D01*
X128745970Y-115528671D01*
X128735480Y-115550849D01*
X128722867Y-115571893D01*
X128708253Y-115591598D01*
X128691777Y-115609777D01*
X128673598Y-115626253D01*
X128653893Y-115640867D01*
X128632849Y-115653480D01*
X128610671Y-115663970D01*
X128587571Y-115672235D01*
X128563773Y-115678196D01*
X128539504Y-115681796D01*
X128515000Y-115683000D01*
X127590000Y-115683000D01*
X127565496Y-115681796D01*
X127541227Y-115678196D01*
X127517429Y-115672235D01*
X127494329Y-115663970D01*
X127472151Y-115653480D01*
X127451107Y-115640867D01*
X127431402Y-115626253D01*
X127413223Y-115609777D01*
X127396747Y-115591598D01*
X127382133Y-115571893D01*
X127369520Y-115550849D01*
X127359030Y-115528671D01*
X127350765Y-115505571D01*
X127344804Y-115481773D01*
X127341204Y-115457504D01*
X127340000Y-115433000D01*
X127340000Y-114183000D01*
X127341204Y-114158496D01*
X127344804Y-114134227D01*
X127350765Y-114110429D01*
X127359030Y-114087329D01*
X127369520Y-114065151D01*
X127382133Y-114044107D01*
X127396747Y-114024402D01*
X127413223Y-114006223D01*
X127431402Y-113989747D01*
X127451107Y-113975133D01*
X127472151Y-113962520D01*
X127494329Y-113952030D01*
X127517429Y-113943765D01*
X127541227Y-113937804D01*
X127565496Y-113934204D01*
X127590000Y-113933000D01*
X128515000Y-113933000D01*
X128539504Y-113934204D01*
G37*
G36*
X131514504Y-113934204D02*
G01*
X131538773Y-113937804D01*
X131562571Y-113943765D01*
X131585671Y-113952030D01*
X131607849Y-113962520D01*
X131628893Y-113975133D01*
X131648598Y-113989747D01*
X131666777Y-114006223D01*
X131683253Y-114024402D01*
X131697867Y-114044107D01*
X131710480Y-114065151D01*
X131720970Y-114087329D01*
X131729235Y-114110429D01*
X131735196Y-114134227D01*
X131738796Y-114158496D01*
X131740000Y-114183000D01*
X131740000Y-115433000D01*
X131738796Y-115457504D01*
X131735196Y-115481773D01*
X131729235Y-115505571D01*
X131720970Y-115528671D01*
X131710480Y-115550849D01*
X131697867Y-115571893D01*
X131683253Y-115591598D01*
X131666777Y-115609777D01*
X131648598Y-115626253D01*
X131628893Y-115640867D01*
X131607849Y-115653480D01*
X131585671Y-115663970D01*
X131562571Y-115672235D01*
X131538773Y-115678196D01*
X131514504Y-115681796D01*
X131490000Y-115683000D01*
X130565000Y-115683000D01*
X130540496Y-115681796D01*
X130516227Y-115678196D01*
X130492429Y-115672235D01*
X130469329Y-115663970D01*
X130447151Y-115653480D01*
X130426107Y-115640867D01*
X130406402Y-115626253D01*
X130388223Y-115609777D01*
X130371747Y-115591598D01*
X130357133Y-115571893D01*
X130344520Y-115550849D01*
X130334030Y-115528671D01*
X130325765Y-115505571D01*
X130319804Y-115481773D01*
X130316204Y-115457504D01*
X130315000Y-115433000D01*
X130315000Y-114183000D01*
X130316204Y-114158496D01*
X130319804Y-114134227D01*
X130325765Y-114110429D01*
X130334030Y-114087329D01*
X130344520Y-114065151D01*
X130357133Y-114044107D01*
X130371747Y-114024402D01*
X130388223Y-114006223D01*
X130406402Y-113989747D01*
X130426107Y-113975133D01*
X130447151Y-113962520D01*
X130469329Y-113952030D01*
X130492429Y-113943765D01*
X130516227Y-113937804D01*
X130540496Y-113934204D01*
X130565000Y-113933000D01*
X131490000Y-113933000D01*
X131514504Y-113934204D01*
G37*
G36*
X114061504Y-112918204D02*
G01*
X114085773Y-112921804D01*
X114109571Y-112927765D01*
X114132671Y-112936030D01*
X114154849Y-112946520D01*
X114175893Y-112959133D01*
X114195598Y-112973747D01*
X114213777Y-112990223D01*
X114230253Y-113008402D01*
X114244867Y-113028107D01*
X114257480Y-113049151D01*
X114267970Y-113071329D01*
X114276235Y-113094429D01*
X114282196Y-113118227D01*
X114285796Y-113142496D01*
X114287000Y-113167000D01*
X114287000Y-114417000D01*
X114285796Y-114441504D01*
X114282196Y-114465773D01*
X114276235Y-114489571D01*
X114267970Y-114512671D01*
X114257480Y-114534849D01*
X114244867Y-114555893D01*
X114230253Y-114575598D01*
X114213777Y-114593777D01*
X114195598Y-114610253D01*
X114175893Y-114624867D01*
X114154849Y-114637480D01*
X114132671Y-114647970D01*
X114109571Y-114656235D01*
X114085773Y-114662196D01*
X114061504Y-114665796D01*
X114037000Y-114667000D01*
X113112000Y-114667000D01*
X113087496Y-114665796D01*
X113063227Y-114662196D01*
X113039429Y-114656235D01*
X113016329Y-114647970D01*
X112994151Y-114637480D01*
X112973107Y-114624867D01*
X112953402Y-114610253D01*
X112935223Y-114593777D01*
X112918747Y-114575598D01*
X112904133Y-114555893D01*
X112891520Y-114534849D01*
X112881030Y-114512671D01*
X112872765Y-114489571D01*
X112866804Y-114465773D01*
X112863204Y-114441504D01*
X112862000Y-114417000D01*
X112862000Y-113167000D01*
X112863204Y-113142496D01*
X112866804Y-113118227D01*
X112872765Y-113094429D01*
X112881030Y-113071329D01*
X112891520Y-113049151D01*
X112904133Y-113028107D01*
X112918747Y-113008402D01*
X112935223Y-112990223D01*
X112953402Y-112973747D01*
X112973107Y-112959133D01*
X112994151Y-112946520D01*
X113016329Y-112936030D01*
X113039429Y-112927765D01*
X113063227Y-112921804D01*
X113087496Y-112918204D01*
X113112000Y-112917000D01*
X114037000Y-112917000D01*
X114061504Y-112918204D01*
G37*
G36*
X117036504Y-112918204D02*
G01*
X117060773Y-112921804D01*
X117084571Y-112927765D01*
X117107671Y-112936030D01*
X117129849Y-112946520D01*
X117150893Y-112959133D01*
X117170598Y-112973747D01*
X117188777Y-112990223D01*
X117205253Y-113008402D01*
X117219867Y-113028107D01*
X117232480Y-113049151D01*
X117242970Y-113071329D01*
X117251235Y-113094429D01*
X117257196Y-113118227D01*
X117260796Y-113142496D01*
X117262000Y-113167000D01*
X117262000Y-114417000D01*
X117260796Y-114441504D01*
X117257196Y-114465773D01*
X117251235Y-114489571D01*
X117242970Y-114512671D01*
X117232480Y-114534849D01*
X117219867Y-114555893D01*
X117205253Y-114575598D01*
X117188777Y-114593777D01*
X117170598Y-114610253D01*
X117150893Y-114624867D01*
X117129849Y-114637480D01*
X117107671Y-114647970D01*
X117084571Y-114656235D01*
X117060773Y-114662196D01*
X117036504Y-114665796D01*
X117012000Y-114667000D01*
X116087000Y-114667000D01*
X116062496Y-114665796D01*
X116038227Y-114662196D01*
X116014429Y-114656235D01*
X115991329Y-114647970D01*
X115969151Y-114637480D01*
X115948107Y-114624867D01*
X115928402Y-114610253D01*
X115910223Y-114593777D01*
X115893747Y-114575598D01*
X115879133Y-114555893D01*
X115866520Y-114534849D01*
X115856030Y-114512671D01*
X115847765Y-114489571D01*
X115841804Y-114465773D01*
X115838204Y-114441504D01*
X115837000Y-114417000D01*
X115837000Y-113167000D01*
X115838204Y-113142496D01*
X115841804Y-113118227D01*
X115847765Y-113094429D01*
X115856030Y-113071329D01*
X115866520Y-113049151D01*
X115879133Y-113028107D01*
X115893747Y-113008402D01*
X115910223Y-112990223D01*
X115928402Y-112973747D01*
X115948107Y-112959133D01*
X115969151Y-112946520D01*
X115991329Y-112936030D01*
X116014429Y-112927765D01*
X116038227Y-112921804D01*
X116062496Y-112918204D01*
X116087000Y-112917000D01*
X117012000Y-112917000D01*
X117036504Y-112918204D01*
G37*
D17*
X320040000Y-107570000D03*
X320040000Y-110870000D03*
X320040000Y-88520000D03*
X320040000Y-91820000D03*
X320040000Y-69470000D03*
X320040000Y-72770000D03*
X320040000Y-50420000D03*
X320040000Y-53720000D03*
X300990000Y-107570000D03*
X300990000Y-110870000D03*
X300990000Y-88520000D03*
X300990000Y-91820000D03*
X296545000Y-50294000D03*
X296545000Y-53594000D03*
X300990000Y-31687500D03*
X300990000Y-34987500D03*
X281940000Y-107570000D03*
X281940000Y-110870000D03*
X274955000Y-88394000D03*
X274955000Y-91694000D03*
X287655000Y-69470000D03*
X287655000Y-72770000D03*
X272415000Y-50420000D03*
X272415000Y-53720000D03*
X281940000Y-31687500D03*
X281940000Y-34987500D03*
X258445000Y-69470000D03*
X258445000Y-72770000D03*
X253365000Y-50420000D03*
X253365000Y-53720000D03*
X262890000Y-31687500D03*
X262890000Y-34987500D03*
X248920000Y-107570000D03*
X248920000Y-110870000D03*
X248920000Y-88520000D03*
X248920000Y-91820000D03*
X239395000Y-69470000D03*
X239395000Y-72770000D03*
X234315000Y-50420000D03*
X234315000Y-53720000D03*
X243840000Y-31687500D03*
X243840000Y-34987500D03*
X229870000Y-88520000D03*
X229870000Y-91820000D03*
X220345000Y-69470000D03*
X220345000Y-72770000D03*
X215265000Y-50420000D03*
X215265000Y-53720000D03*
X224790000Y-31687500D03*
X224790000Y-34987500D03*
X210820000Y-88520000D03*
X210820000Y-91820000D03*
X201295000Y-69470000D03*
X201295000Y-72770000D03*
X196215000Y-50420000D03*
X196215000Y-53720000D03*
X205740000Y-31687500D03*
X205740000Y-34987500D03*
X191770000Y-88520000D03*
X191770000Y-91820000D03*
X182245000Y-69470000D03*
X182245000Y-72770000D03*
X177165000Y-50420000D03*
X177165000Y-53720000D03*
X186690000Y-31687500D03*
X186690000Y-34987500D03*
X168275000Y-107570000D03*
X168275000Y-110870000D03*
X172720000Y-88520000D03*
X172720000Y-91820000D03*
X163195000Y-69470000D03*
X163195000Y-72770000D03*
X158115000Y-50420000D03*
X158115000Y-53720000D03*
X167640000Y-31687500D03*
X167640000Y-34987500D03*
X153670000Y-88520000D03*
X153670000Y-91820000D03*
X144145000Y-69470000D03*
X144145000Y-72770000D03*
X139065000Y-50420000D03*
X139065000Y-53720000D03*
X148590000Y-31687500D03*
X148590000Y-34987500D03*
X134620000Y-88520000D03*
X134620000Y-91820000D03*
X125095000Y-69470000D03*
X125095000Y-72770000D03*
X120015000Y-50420000D03*
X120015000Y-53720000D03*
X129540000Y-31687500D03*
X129540000Y-34987500D03*
X115570000Y-88520000D03*
X115570000Y-91820000D03*
X106045000Y-69470000D03*
X106045000Y-72770000D03*
X100965000Y-50420000D03*
X100965000Y-53720000D03*
X110490000Y-31687500D03*
X110490000Y-34987500D03*
X86995000Y-107570000D03*
X86995000Y-110870000D03*
X96520000Y-88520000D03*
X96520000Y-91820000D03*
X86995000Y-69470000D03*
X86995000Y-72770000D03*
X81915000Y-50420000D03*
X81915000Y-53720000D03*
X91440000Y-31687500D03*
X91440000Y-34987500D03*
X77470000Y-88520000D03*
X77470000Y-91820000D03*
X67945000Y-69470000D03*
X67945000Y-72770000D03*
X62865000Y-50420000D03*
X62865000Y-53720000D03*
X72390000Y-31687500D03*
X72390000Y-34987500D03*
X45085000Y-88520000D03*
X45085000Y-91820000D03*
X53340000Y-31687500D03*
X53340000Y-34987500D03*
X39370000Y-107570000D03*
X39370000Y-110870000D03*
X41910000Y-69470000D03*
X41910000Y-72770000D03*
X38735000Y-50420000D03*
X38735000Y-53720000D03*
X34290000Y-31687500D03*
X34290000Y-34987500D03*
D10*
G36*
X143476505Y-107875204D02*
G01*
X143500773Y-107878804D01*
X143524572Y-107884765D01*
X143547671Y-107893030D01*
X143569850Y-107903520D01*
X143590893Y-107916132D01*
X143610599Y-107930747D01*
X143628777Y-107947223D01*
X143645253Y-107965401D01*
X143659868Y-107985107D01*
X143672480Y-108006150D01*
X143682970Y-108028329D01*
X143691235Y-108051428D01*
X143697196Y-108075227D01*
X143700796Y-108099495D01*
X143702000Y-108123999D01*
X143702000Y-108774001D01*
X143700796Y-108798505D01*
X143697196Y-108822773D01*
X143691235Y-108846572D01*
X143682970Y-108869671D01*
X143672480Y-108891850D01*
X143659868Y-108912893D01*
X143645253Y-108932599D01*
X143628777Y-108950777D01*
X143610599Y-108967253D01*
X143590893Y-108981868D01*
X143569850Y-108994480D01*
X143547671Y-109004970D01*
X143524572Y-109013235D01*
X143500773Y-109019196D01*
X143476505Y-109022796D01*
X143452001Y-109024000D01*
X142551999Y-109024000D01*
X142527495Y-109022796D01*
X142503227Y-109019196D01*
X142479428Y-109013235D01*
X142456329Y-109004970D01*
X142434150Y-108994480D01*
X142413107Y-108981868D01*
X142393401Y-108967253D01*
X142375223Y-108950777D01*
X142358747Y-108932599D01*
X142344132Y-108912893D01*
X142331520Y-108891850D01*
X142321030Y-108869671D01*
X142312765Y-108846572D01*
X142306804Y-108822773D01*
X142303204Y-108798505D01*
X142302000Y-108774001D01*
X142302000Y-108123999D01*
X142303204Y-108099495D01*
X142306804Y-108075227D01*
X142312765Y-108051428D01*
X142321030Y-108028329D01*
X142331520Y-108006150D01*
X142344132Y-107985107D01*
X142358747Y-107965401D01*
X142375223Y-107947223D01*
X142393401Y-107930747D01*
X142413107Y-107916132D01*
X142434150Y-107903520D01*
X142456329Y-107893030D01*
X142479428Y-107884765D01*
X142503227Y-107878804D01*
X142527495Y-107875204D01*
X142551999Y-107874000D01*
X143452001Y-107874000D01*
X143476505Y-107875204D01*
G37*
G36*
X143476505Y-109925204D02*
G01*
X143500773Y-109928804D01*
X143524572Y-109934765D01*
X143547671Y-109943030D01*
X143569850Y-109953520D01*
X143590893Y-109966132D01*
X143610599Y-109980747D01*
X143628777Y-109997223D01*
X143645253Y-110015401D01*
X143659868Y-110035107D01*
X143672480Y-110056150D01*
X143682970Y-110078329D01*
X143691235Y-110101428D01*
X143697196Y-110125227D01*
X143700796Y-110149495D01*
X143702000Y-110173999D01*
X143702000Y-110824001D01*
X143700796Y-110848505D01*
X143697196Y-110872773D01*
X143691235Y-110896572D01*
X143682970Y-110919671D01*
X143672480Y-110941850D01*
X143659868Y-110962893D01*
X143645253Y-110982599D01*
X143628777Y-111000777D01*
X143610599Y-111017253D01*
X143590893Y-111031868D01*
X143569850Y-111044480D01*
X143547671Y-111054970D01*
X143524572Y-111063235D01*
X143500773Y-111069196D01*
X143476505Y-111072796D01*
X143452001Y-111074000D01*
X142551999Y-111074000D01*
X142527495Y-111072796D01*
X142503227Y-111069196D01*
X142479428Y-111063235D01*
X142456329Y-111054970D01*
X142434150Y-111044480D01*
X142413107Y-111031868D01*
X142393401Y-111017253D01*
X142375223Y-111000777D01*
X142358747Y-110982599D01*
X142344132Y-110962893D01*
X142331520Y-110941850D01*
X142321030Y-110919671D01*
X142312765Y-110896572D01*
X142306804Y-110872773D01*
X142303204Y-110848505D01*
X142302000Y-110824001D01*
X142302000Y-110173999D01*
X142303204Y-110149495D01*
X142306804Y-110125227D01*
X142312765Y-110101428D01*
X142321030Y-110078329D01*
X142331520Y-110056150D01*
X142344132Y-110035107D01*
X142358747Y-110015401D01*
X142375223Y-109997223D01*
X142393401Y-109980747D01*
X142413107Y-109966132D01*
X142434150Y-109953520D01*
X142456329Y-109943030D01*
X142479428Y-109934765D01*
X142503227Y-109928804D01*
X142527495Y-109925204D01*
X142551999Y-109924000D01*
X143452001Y-109924000D01*
X143476505Y-109925204D01*
G37*
G36*
X120362505Y-100527204D02*
G01*
X120386773Y-100530804D01*
X120410572Y-100536765D01*
X120433671Y-100545030D01*
X120455850Y-100555520D01*
X120476893Y-100568132D01*
X120496599Y-100582747D01*
X120514777Y-100599223D01*
X120531253Y-100617401D01*
X120545868Y-100637107D01*
X120558480Y-100658150D01*
X120568970Y-100680329D01*
X120577235Y-100703428D01*
X120583196Y-100727227D01*
X120586796Y-100751495D01*
X120588000Y-100775999D01*
X120588000Y-101426001D01*
X120586796Y-101450505D01*
X120583196Y-101474773D01*
X120577235Y-101498572D01*
X120568970Y-101521671D01*
X120558480Y-101543850D01*
X120545868Y-101564893D01*
X120531253Y-101584599D01*
X120514777Y-101602777D01*
X120496599Y-101619253D01*
X120476893Y-101633868D01*
X120455850Y-101646480D01*
X120433671Y-101656970D01*
X120410572Y-101665235D01*
X120386773Y-101671196D01*
X120362505Y-101674796D01*
X120338001Y-101676000D01*
X119437999Y-101676000D01*
X119413495Y-101674796D01*
X119389227Y-101671196D01*
X119365428Y-101665235D01*
X119342329Y-101656970D01*
X119320150Y-101646480D01*
X119299107Y-101633868D01*
X119279401Y-101619253D01*
X119261223Y-101602777D01*
X119244747Y-101584599D01*
X119230132Y-101564893D01*
X119217520Y-101543850D01*
X119207030Y-101521671D01*
X119198765Y-101498572D01*
X119192804Y-101474773D01*
X119189204Y-101450505D01*
X119188000Y-101426001D01*
X119188000Y-100775999D01*
X119189204Y-100751495D01*
X119192804Y-100727227D01*
X119198765Y-100703428D01*
X119207030Y-100680329D01*
X119217520Y-100658150D01*
X119230132Y-100637107D01*
X119244747Y-100617401D01*
X119261223Y-100599223D01*
X119279401Y-100582747D01*
X119299107Y-100568132D01*
X119320150Y-100555520D01*
X119342329Y-100545030D01*
X119365428Y-100536765D01*
X119389227Y-100530804D01*
X119413495Y-100527204D01*
X119437999Y-100526000D01*
X120338001Y-100526000D01*
X120362505Y-100527204D01*
G37*
G36*
X120362505Y-98477204D02*
G01*
X120386773Y-98480804D01*
X120410572Y-98486765D01*
X120433671Y-98495030D01*
X120455850Y-98505520D01*
X120476893Y-98518132D01*
X120496599Y-98532747D01*
X120514777Y-98549223D01*
X120531253Y-98567401D01*
X120545868Y-98587107D01*
X120558480Y-98608150D01*
X120568970Y-98630329D01*
X120577235Y-98653428D01*
X120583196Y-98677227D01*
X120586796Y-98701495D01*
X120588000Y-98725999D01*
X120588000Y-99376001D01*
X120586796Y-99400505D01*
X120583196Y-99424773D01*
X120577235Y-99448572D01*
X120568970Y-99471671D01*
X120558480Y-99493850D01*
X120545868Y-99514893D01*
X120531253Y-99534599D01*
X120514777Y-99552777D01*
X120496599Y-99569253D01*
X120476893Y-99583868D01*
X120455850Y-99596480D01*
X120433671Y-99606970D01*
X120410572Y-99615235D01*
X120386773Y-99621196D01*
X120362505Y-99624796D01*
X120338001Y-99626000D01*
X119437999Y-99626000D01*
X119413495Y-99624796D01*
X119389227Y-99621196D01*
X119365428Y-99615235D01*
X119342329Y-99606970D01*
X119320150Y-99596480D01*
X119299107Y-99583868D01*
X119279401Y-99569253D01*
X119261223Y-99552777D01*
X119244747Y-99534599D01*
X119230132Y-99514893D01*
X119217520Y-99493850D01*
X119207030Y-99471671D01*
X119198765Y-99448572D01*
X119192804Y-99424773D01*
X119189204Y-99400505D01*
X119188000Y-99376001D01*
X119188000Y-98725999D01*
X119189204Y-98701495D01*
X119192804Y-98677227D01*
X119198765Y-98653428D01*
X119207030Y-98630329D01*
X119217520Y-98608150D01*
X119230132Y-98587107D01*
X119244747Y-98567401D01*
X119261223Y-98549223D01*
X119279401Y-98532747D01*
X119299107Y-98518132D01*
X119320150Y-98505520D01*
X119342329Y-98495030D01*
X119365428Y-98486765D01*
X119389227Y-98480804D01*
X119413495Y-98477204D01*
X119437999Y-98476000D01*
X120338001Y-98476000D01*
X120362505Y-98477204D01*
G37*
G36*
X117568505Y-100527204D02*
G01*
X117592773Y-100530804D01*
X117616572Y-100536765D01*
X117639671Y-100545030D01*
X117661850Y-100555520D01*
X117682893Y-100568132D01*
X117702599Y-100582747D01*
X117720777Y-100599223D01*
X117737253Y-100617401D01*
X117751868Y-100637107D01*
X117764480Y-100658150D01*
X117774970Y-100680329D01*
X117783235Y-100703428D01*
X117789196Y-100727227D01*
X117792796Y-100751495D01*
X117794000Y-100775999D01*
X117794000Y-101426001D01*
X117792796Y-101450505D01*
X117789196Y-101474773D01*
X117783235Y-101498572D01*
X117774970Y-101521671D01*
X117764480Y-101543850D01*
X117751868Y-101564893D01*
X117737253Y-101584599D01*
X117720777Y-101602777D01*
X117702599Y-101619253D01*
X117682893Y-101633868D01*
X117661850Y-101646480D01*
X117639671Y-101656970D01*
X117616572Y-101665235D01*
X117592773Y-101671196D01*
X117568505Y-101674796D01*
X117544001Y-101676000D01*
X116643999Y-101676000D01*
X116619495Y-101674796D01*
X116595227Y-101671196D01*
X116571428Y-101665235D01*
X116548329Y-101656970D01*
X116526150Y-101646480D01*
X116505107Y-101633868D01*
X116485401Y-101619253D01*
X116467223Y-101602777D01*
X116450747Y-101584599D01*
X116436132Y-101564893D01*
X116423520Y-101543850D01*
X116413030Y-101521671D01*
X116404765Y-101498572D01*
X116398804Y-101474773D01*
X116395204Y-101450505D01*
X116394000Y-101426001D01*
X116394000Y-100775999D01*
X116395204Y-100751495D01*
X116398804Y-100727227D01*
X116404765Y-100703428D01*
X116413030Y-100680329D01*
X116423520Y-100658150D01*
X116436132Y-100637107D01*
X116450747Y-100617401D01*
X116467223Y-100599223D01*
X116485401Y-100582747D01*
X116505107Y-100568132D01*
X116526150Y-100555520D01*
X116548329Y-100545030D01*
X116571428Y-100536765D01*
X116595227Y-100530804D01*
X116619495Y-100527204D01*
X116643999Y-100526000D01*
X117544001Y-100526000D01*
X117568505Y-100527204D01*
G37*
G36*
X117568505Y-98477204D02*
G01*
X117592773Y-98480804D01*
X117616572Y-98486765D01*
X117639671Y-98495030D01*
X117661850Y-98505520D01*
X117682893Y-98518132D01*
X117702599Y-98532747D01*
X117720777Y-98549223D01*
X117737253Y-98567401D01*
X117751868Y-98587107D01*
X117764480Y-98608150D01*
X117774970Y-98630329D01*
X117783235Y-98653428D01*
X117789196Y-98677227D01*
X117792796Y-98701495D01*
X117794000Y-98725999D01*
X117794000Y-99376001D01*
X117792796Y-99400505D01*
X117789196Y-99424773D01*
X117783235Y-99448572D01*
X117774970Y-99471671D01*
X117764480Y-99493850D01*
X117751868Y-99514893D01*
X117737253Y-99534599D01*
X117720777Y-99552777D01*
X117702599Y-99569253D01*
X117682893Y-99583868D01*
X117661850Y-99596480D01*
X117639671Y-99606970D01*
X117616572Y-99615235D01*
X117592773Y-99621196D01*
X117568505Y-99624796D01*
X117544001Y-99626000D01*
X116643999Y-99626000D01*
X116619495Y-99624796D01*
X116595227Y-99621196D01*
X116571428Y-99615235D01*
X116548329Y-99606970D01*
X116526150Y-99596480D01*
X116505107Y-99583868D01*
X116485401Y-99569253D01*
X116467223Y-99552777D01*
X116450747Y-99534599D01*
X116436132Y-99514893D01*
X116423520Y-99493850D01*
X116413030Y-99471671D01*
X116404765Y-99448572D01*
X116398804Y-99424773D01*
X116395204Y-99400505D01*
X116394000Y-99376001D01*
X116394000Y-98725999D01*
X116395204Y-98701495D01*
X116398804Y-98677227D01*
X116404765Y-98653428D01*
X116413030Y-98630329D01*
X116423520Y-98608150D01*
X116436132Y-98587107D01*
X116450747Y-98567401D01*
X116467223Y-98549223D01*
X116485401Y-98532747D01*
X116505107Y-98518132D01*
X116526150Y-98505520D01*
X116548329Y-98495030D01*
X116571428Y-98486765D01*
X116595227Y-98480804D01*
X116619495Y-98477204D01*
X116643999Y-98476000D01*
X117544001Y-98476000D01*
X117568505Y-98477204D01*
G37*
G36*
X114774505Y-100527204D02*
G01*
X114798773Y-100530804D01*
X114822572Y-100536765D01*
X114845671Y-100545030D01*
X114867850Y-100555520D01*
X114888893Y-100568132D01*
X114908599Y-100582747D01*
X114926777Y-100599223D01*
X114943253Y-100617401D01*
X114957868Y-100637107D01*
X114970480Y-100658150D01*
X114980970Y-100680329D01*
X114989235Y-100703428D01*
X114995196Y-100727227D01*
X114998796Y-100751495D01*
X115000000Y-100775999D01*
X115000000Y-101426001D01*
X114998796Y-101450505D01*
X114995196Y-101474773D01*
X114989235Y-101498572D01*
X114980970Y-101521671D01*
X114970480Y-101543850D01*
X114957868Y-101564893D01*
X114943253Y-101584599D01*
X114926777Y-101602777D01*
X114908599Y-101619253D01*
X114888893Y-101633868D01*
X114867850Y-101646480D01*
X114845671Y-101656970D01*
X114822572Y-101665235D01*
X114798773Y-101671196D01*
X114774505Y-101674796D01*
X114750001Y-101676000D01*
X113849999Y-101676000D01*
X113825495Y-101674796D01*
X113801227Y-101671196D01*
X113777428Y-101665235D01*
X113754329Y-101656970D01*
X113732150Y-101646480D01*
X113711107Y-101633868D01*
X113691401Y-101619253D01*
X113673223Y-101602777D01*
X113656747Y-101584599D01*
X113642132Y-101564893D01*
X113629520Y-101543850D01*
X113619030Y-101521671D01*
X113610765Y-101498572D01*
X113604804Y-101474773D01*
X113601204Y-101450505D01*
X113600000Y-101426001D01*
X113600000Y-100775999D01*
X113601204Y-100751495D01*
X113604804Y-100727227D01*
X113610765Y-100703428D01*
X113619030Y-100680329D01*
X113629520Y-100658150D01*
X113642132Y-100637107D01*
X113656747Y-100617401D01*
X113673223Y-100599223D01*
X113691401Y-100582747D01*
X113711107Y-100568132D01*
X113732150Y-100555520D01*
X113754329Y-100545030D01*
X113777428Y-100536765D01*
X113801227Y-100530804D01*
X113825495Y-100527204D01*
X113849999Y-100526000D01*
X114750001Y-100526000D01*
X114774505Y-100527204D01*
G37*
G36*
X114774505Y-98477204D02*
G01*
X114798773Y-98480804D01*
X114822572Y-98486765D01*
X114845671Y-98495030D01*
X114867850Y-98505520D01*
X114888893Y-98518132D01*
X114908599Y-98532747D01*
X114926777Y-98549223D01*
X114943253Y-98567401D01*
X114957868Y-98587107D01*
X114970480Y-98608150D01*
X114980970Y-98630329D01*
X114989235Y-98653428D01*
X114995196Y-98677227D01*
X114998796Y-98701495D01*
X115000000Y-98725999D01*
X115000000Y-99376001D01*
X114998796Y-99400505D01*
X114995196Y-99424773D01*
X114989235Y-99448572D01*
X114980970Y-99471671D01*
X114970480Y-99493850D01*
X114957868Y-99514893D01*
X114943253Y-99534599D01*
X114926777Y-99552777D01*
X114908599Y-99569253D01*
X114888893Y-99583868D01*
X114867850Y-99596480D01*
X114845671Y-99606970D01*
X114822572Y-99615235D01*
X114798773Y-99621196D01*
X114774505Y-99624796D01*
X114750001Y-99626000D01*
X113849999Y-99626000D01*
X113825495Y-99624796D01*
X113801227Y-99621196D01*
X113777428Y-99615235D01*
X113754329Y-99606970D01*
X113732150Y-99596480D01*
X113711107Y-99583868D01*
X113691401Y-99569253D01*
X113673223Y-99552777D01*
X113656747Y-99534599D01*
X113642132Y-99514893D01*
X113629520Y-99493850D01*
X113619030Y-99471671D01*
X113610765Y-99448572D01*
X113604804Y-99424773D01*
X113601204Y-99400505D01*
X113600000Y-99376001D01*
X113600000Y-98725999D01*
X113601204Y-98701495D01*
X113604804Y-98677227D01*
X113610765Y-98653428D01*
X113619030Y-98630329D01*
X113629520Y-98608150D01*
X113642132Y-98587107D01*
X113656747Y-98567401D01*
X113673223Y-98549223D01*
X113691401Y-98532747D01*
X113711107Y-98518132D01*
X113732150Y-98505520D01*
X113754329Y-98495030D01*
X113777428Y-98486765D01*
X113801227Y-98480804D01*
X113825495Y-98477204D01*
X113849999Y-98476000D01*
X114750001Y-98476000D01*
X114774505Y-98477204D01*
G37*
G36*
X122278505Y-110553204D02*
G01*
X122302773Y-110556804D01*
X122326572Y-110562765D01*
X122349671Y-110571030D01*
X122371850Y-110581520D01*
X122392893Y-110594132D01*
X122412599Y-110608747D01*
X122430777Y-110625223D01*
X122447253Y-110643401D01*
X122461868Y-110663107D01*
X122474480Y-110684150D01*
X122484970Y-110706329D01*
X122493235Y-110729428D01*
X122499196Y-110753227D01*
X122502796Y-110777495D01*
X122504000Y-110801999D01*
X122504000Y-111702001D01*
X122502796Y-111726505D01*
X122499196Y-111750773D01*
X122493235Y-111774572D01*
X122484970Y-111797671D01*
X122474480Y-111819850D01*
X122461868Y-111840893D01*
X122447253Y-111860599D01*
X122430777Y-111878777D01*
X122412599Y-111895253D01*
X122392893Y-111909868D01*
X122371850Y-111922480D01*
X122349671Y-111932970D01*
X122326572Y-111941235D01*
X122302773Y-111947196D01*
X122278505Y-111950796D01*
X122254001Y-111952000D01*
X121603999Y-111952000D01*
X121579495Y-111950796D01*
X121555227Y-111947196D01*
X121531428Y-111941235D01*
X121508329Y-111932970D01*
X121486150Y-111922480D01*
X121465107Y-111909868D01*
X121445401Y-111895253D01*
X121427223Y-111878777D01*
X121410747Y-111860599D01*
X121396132Y-111840893D01*
X121383520Y-111819850D01*
X121373030Y-111797671D01*
X121364765Y-111774572D01*
X121358804Y-111750773D01*
X121355204Y-111726505D01*
X121354000Y-111702001D01*
X121354000Y-110801999D01*
X121355204Y-110777495D01*
X121358804Y-110753227D01*
X121364765Y-110729428D01*
X121373030Y-110706329D01*
X121383520Y-110684150D01*
X121396132Y-110663107D01*
X121410747Y-110643401D01*
X121427223Y-110625223D01*
X121445401Y-110608747D01*
X121465107Y-110594132D01*
X121486150Y-110581520D01*
X121508329Y-110571030D01*
X121531428Y-110562765D01*
X121555227Y-110556804D01*
X121579495Y-110553204D01*
X121603999Y-110552000D01*
X122254001Y-110552000D01*
X122278505Y-110553204D01*
G37*
G36*
X120228505Y-110553204D02*
G01*
X120252773Y-110556804D01*
X120276572Y-110562765D01*
X120299671Y-110571030D01*
X120321850Y-110581520D01*
X120342893Y-110594132D01*
X120362599Y-110608747D01*
X120380777Y-110625223D01*
X120397253Y-110643401D01*
X120411868Y-110663107D01*
X120424480Y-110684150D01*
X120434970Y-110706329D01*
X120443235Y-110729428D01*
X120449196Y-110753227D01*
X120452796Y-110777495D01*
X120454000Y-110801999D01*
X120454000Y-111702001D01*
X120452796Y-111726505D01*
X120449196Y-111750773D01*
X120443235Y-111774572D01*
X120434970Y-111797671D01*
X120424480Y-111819850D01*
X120411868Y-111840893D01*
X120397253Y-111860599D01*
X120380777Y-111878777D01*
X120362599Y-111895253D01*
X120342893Y-111909868D01*
X120321850Y-111922480D01*
X120299671Y-111932970D01*
X120276572Y-111941235D01*
X120252773Y-111947196D01*
X120228505Y-111950796D01*
X120204001Y-111952000D01*
X119553999Y-111952000D01*
X119529495Y-111950796D01*
X119505227Y-111947196D01*
X119481428Y-111941235D01*
X119458329Y-111932970D01*
X119436150Y-111922480D01*
X119415107Y-111909868D01*
X119395401Y-111895253D01*
X119377223Y-111878777D01*
X119360747Y-111860599D01*
X119346132Y-111840893D01*
X119333520Y-111819850D01*
X119323030Y-111797671D01*
X119314765Y-111774572D01*
X119308804Y-111750773D01*
X119305204Y-111726505D01*
X119304000Y-111702001D01*
X119304000Y-110801999D01*
X119305204Y-110777495D01*
X119308804Y-110753227D01*
X119314765Y-110729428D01*
X119323030Y-110706329D01*
X119333520Y-110684150D01*
X119346132Y-110663107D01*
X119360747Y-110643401D01*
X119377223Y-110625223D01*
X119395401Y-110608747D01*
X119415107Y-110594132D01*
X119436150Y-110581520D01*
X119458329Y-110571030D01*
X119481428Y-110562765D01*
X119505227Y-110556804D01*
X119529495Y-110553204D01*
X119553999Y-110552000D01*
X120204001Y-110552000D01*
X120228505Y-110553204D01*
G37*
G36*
X116044505Y-108401204D02*
G01*
X116068773Y-108404804D01*
X116092572Y-108410765D01*
X116115671Y-108419030D01*
X116137850Y-108429520D01*
X116158893Y-108442132D01*
X116178599Y-108456747D01*
X116196777Y-108473223D01*
X116213253Y-108491401D01*
X116227868Y-108511107D01*
X116240480Y-108532150D01*
X116250970Y-108554329D01*
X116259235Y-108577428D01*
X116265196Y-108601227D01*
X116268796Y-108625495D01*
X116270000Y-108649999D01*
X116270000Y-109300001D01*
X116268796Y-109324505D01*
X116265196Y-109348773D01*
X116259235Y-109372572D01*
X116250970Y-109395671D01*
X116240480Y-109417850D01*
X116227868Y-109438893D01*
X116213253Y-109458599D01*
X116196777Y-109476777D01*
X116178599Y-109493253D01*
X116158893Y-109507868D01*
X116137850Y-109520480D01*
X116115671Y-109530970D01*
X116092572Y-109539235D01*
X116068773Y-109545196D01*
X116044505Y-109548796D01*
X116020001Y-109550000D01*
X115119999Y-109550000D01*
X115095495Y-109548796D01*
X115071227Y-109545196D01*
X115047428Y-109539235D01*
X115024329Y-109530970D01*
X115002150Y-109520480D01*
X114981107Y-109507868D01*
X114961401Y-109493253D01*
X114943223Y-109476777D01*
X114926747Y-109458599D01*
X114912132Y-109438893D01*
X114899520Y-109417850D01*
X114889030Y-109395671D01*
X114880765Y-109372572D01*
X114874804Y-109348773D01*
X114871204Y-109324505D01*
X114870000Y-109300001D01*
X114870000Y-108649999D01*
X114871204Y-108625495D01*
X114874804Y-108601227D01*
X114880765Y-108577428D01*
X114889030Y-108554329D01*
X114899520Y-108532150D01*
X114912132Y-108511107D01*
X114926747Y-108491401D01*
X114943223Y-108473223D01*
X114961401Y-108456747D01*
X114981107Y-108442132D01*
X115002150Y-108429520D01*
X115024329Y-108419030D01*
X115047428Y-108410765D01*
X115071227Y-108404804D01*
X115095495Y-108401204D01*
X115119999Y-108400000D01*
X116020001Y-108400000D01*
X116044505Y-108401204D01*
G37*
G36*
X116044505Y-106351204D02*
G01*
X116068773Y-106354804D01*
X116092572Y-106360765D01*
X116115671Y-106369030D01*
X116137850Y-106379520D01*
X116158893Y-106392132D01*
X116178599Y-106406747D01*
X116196777Y-106423223D01*
X116213253Y-106441401D01*
X116227868Y-106461107D01*
X116240480Y-106482150D01*
X116250970Y-106504329D01*
X116259235Y-106527428D01*
X116265196Y-106551227D01*
X116268796Y-106575495D01*
X116270000Y-106599999D01*
X116270000Y-107250001D01*
X116268796Y-107274505D01*
X116265196Y-107298773D01*
X116259235Y-107322572D01*
X116250970Y-107345671D01*
X116240480Y-107367850D01*
X116227868Y-107388893D01*
X116213253Y-107408599D01*
X116196777Y-107426777D01*
X116178599Y-107443253D01*
X116158893Y-107457868D01*
X116137850Y-107470480D01*
X116115671Y-107480970D01*
X116092572Y-107489235D01*
X116068773Y-107495196D01*
X116044505Y-107498796D01*
X116020001Y-107500000D01*
X115119999Y-107500000D01*
X115095495Y-107498796D01*
X115071227Y-107495196D01*
X115047428Y-107489235D01*
X115024329Y-107480970D01*
X115002150Y-107470480D01*
X114981107Y-107457868D01*
X114961401Y-107443253D01*
X114943223Y-107426777D01*
X114926747Y-107408599D01*
X114912132Y-107388893D01*
X114899520Y-107367850D01*
X114889030Y-107345671D01*
X114880765Y-107322572D01*
X114874804Y-107298773D01*
X114871204Y-107274505D01*
X114870000Y-107250001D01*
X114870000Y-106599999D01*
X114871204Y-106575495D01*
X114874804Y-106551227D01*
X114880765Y-106527428D01*
X114889030Y-106504329D01*
X114899520Y-106482150D01*
X114912132Y-106461107D01*
X114926747Y-106441401D01*
X114943223Y-106423223D01*
X114961401Y-106406747D01*
X114981107Y-106392132D01*
X115002150Y-106379520D01*
X115024329Y-106369030D01*
X115047428Y-106360765D01*
X115071227Y-106354804D01*
X115095495Y-106351204D01*
X115119999Y-106350000D01*
X116020001Y-106350000D01*
X116044505Y-106351204D01*
G37*
G36*
X123156505Y-100527204D02*
G01*
X123180773Y-100530804D01*
X123204572Y-100536765D01*
X123227671Y-100545030D01*
X123249850Y-100555520D01*
X123270893Y-100568132D01*
X123290599Y-100582747D01*
X123308777Y-100599223D01*
X123325253Y-100617401D01*
X123339868Y-100637107D01*
X123352480Y-100658150D01*
X123362970Y-100680329D01*
X123371235Y-100703428D01*
X123377196Y-100727227D01*
X123380796Y-100751495D01*
X123382000Y-100775999D01*
X123382000Y-101426001D01*
X123380796Y-101450505D01*
X123377196Y-101474773D01*
X123371235Y-101498572D01*
X123362970Y-101521671D01*
X123352480Y-101543850D01*
X123339868Y-101564893D01*
X123325253Y-101584599D01*
X123308777Y-101602777D01*
X123290599Y-101619253D01*
X123270893Y-101633868D01*
X123249850Y-101646480D01*
X123227671Y-101656970D01*
X123204572Y-101665235D01*
X123180773Y-101671196D01*
X123156505Y-101674796D01*
X123132001Y-101676000D01*
X122231999Y-101676000D01*
X122207495Y-101674796D01*
X122183227Y-101671196D01*
X122159428Y-101665235D01*
X122136329Y-101656970D01*
X122114150Y-101646480D01*
X122093107Y-101633868D01*
X122073401Y-101619253D01*
X122055223Y-101602777D01*
X122038747Y-101584599D01*
X122024132Y-101564893D01*
X122011520Y-101543850D01*
X122001030Y-101521671D01*
X121992765Y-101498572D01*
X121986804Y-101474773D01*
X121983204Y-101450505D01*
X121982000Y-101426001D01*
X121982000Y-100775999D01*
X121983204Y-100751495D01*
X121986804Y-100727227D01*
X121992765Y-100703428D01*
X122001030Y-100680329D01*
X122011520Y-100658150D01*
X122024132Y-100637107D01*
X122038747Y-100617401D01*
X122055223Y-100599223D01*
X122073401Y-100582747D01*
X122093107Y-100568132D01*
X122114150Y-100555520D01*
X122136329Y-100545030D01*
X122159428Y-100536765D01*
X122183227Y-100530804D01*
X122207495Y-100527204D01*
X122231999Y-100526000D01*
X123132001Y-100526000D01*
X123156505Y-100527204D01*
G37*
G36*
X123156505Y-98477204D02*
G01*
X123180773Y-98480804D01*
X123204572Y-98486765D01*
X123227671Y-98495030D01*
X123249850Y-98505520D01*
X123270893Y-98518132D01*
X123290599Y-98532747D01*
X123308777Y-98549223D01*
X123325253Y-98567401D01*
X123339868Y-98587107D01*
X123352480Y-98608150D01*
X123362970Y-98630329D01*
X123371235Y-98653428D01*
X123377196Y-98677227D01*
X123380796Y-98701495D01*
X123382000Y-98725999D01*
X123382000Y-99376001D01*
X123380796Y-99400505D01*
X123377196Y-99424773D01*
X123371235Y-99448572D01*
X123362970Y-99471671D01*
X123352480Y-99493850D01*
X123339868Y-99514893D01*
X123325253Y-99534599D01*
X123308777Y-99552777D01*
X123290599Y-99569253D01*
X123270893Y-99583868D01*
X123249850Y-99596480D01*
X123227671Y-99606970D01*
X123204572Y-99615235D01*
X123180773Y-99621196D01*
X123156505Y-99624796D01*
X123132001Y-99626000D01*
X122231999Y-99626000D01*
X122207495Y-99624796D01*
X122183227Y-99621196D01*
X122159428Y-99615235D01*
X122136329Y-99606970D01*
X122114150Y-99596480D01*
X122093107Y-99583868D01*
X122073401Y-99569253D01*
X122055223Y-99552777D01*
X122038747Y-99534599D01*
X122024132Y-99514893D01*
X122011520Y-99493850D01*
X122001030Y-99471671D01*
X121992765Y-99448572D01*
X121986804Y-99424773D01*
X121983204Y-99400505D01*
X121982000Y-99376001D01*
X121982000Y-98725999D01*
X121983204Y-98701495D01*
X121986804Y-98677227D01*
X121992765Y-98653428D01*
X122001030Y-98630329D01*
X122011520Y-98608150D01*
X122024132Y-98587107D01*
X122038747Y-98567401D01*
X122055223Y-98549223D01*
X122073401Y-98532747D01*
X122093107Y-98518132D01*
X122114150Y-98505520D01*
X122136329Y-98495030D01*
X122159428Y-98486765D01*
X122183227Y-98480804D01*
X122207495Y-98477204D01*
X122231999Y-98476000D01*
X123132001Y-98476000D01*
X123156505Y-98477204D01*
G37*
G36*
X136756505Y-113855204D02*
G01*
X136780773Y-113858804D01*
X136804572Y-113864765D01*
X136827671Y-113873030D01*
X136849850Y-113883520D01*
X136870893Y-113896132D01*
X136890599Y-113910747D01*
X136908777Y-113927223D01*
X136925253Y-113945401D01*
X136939868Y-113965107D01*
X136952480Y-113986150D01*
X136962970Y-114008329D01*
X136971235Y-114031428D01*
X136977196Y-114055227D01*
X136980796Y-114079495D01*
X136982000Y-114103999D01*
X136982000Y-115004001D01*
X136980796Y-115028505D01*
X136977196Y-115052773D01*
X136971235Y-115076572D01*
X136962970Y-115099671D01*
X136952480Y-115121850D01*
X136939868Y-115142893D01*
X136925253Y-115162599D01*
X136908777Y-115180777D01*
X136890599Y-115197253D01*
X136870893Y-115211868D01*
X136849850Y-115224480D01*
X136827671Y-115234970D01*
X136804572Y-115243235D01*
X136780773Y-115249196D01*
X136756505Y-115252796D01*
X136732001Y-115254000D01*
X136081999Y-115254000D01*
X136057495Y-115252796D01*
X136033227Y-115249196D01*
X136009428Y-115243235D01*
X135986329Y-115234970D01*
X135964150Y-115224480D01*
X135943107Y-115211868D01*
X135923401Y-115197253D01*
X135905223Y-115180777D01*
X135888747Y-115162599D01*
X135874132Y-115142893D01*
X135861520Y-115121850D01*
X135851030Y-115099671D01*
X135842765Y-115076572D01*
X135836804Y-115052773D01*
X135833204Y-115028505D01*
X135832000Y-115004001D01*
X135832000Y-114103999D01*
X135833204Y-114079495D01*
X135836804Y-114055227D01*
X135842765Y-114031428D01*
X135851030Y-114008329D01*
X135861520Y-113986150D01*
X135874132Y-113965107D01*
X135888747Y-113945401D01*
X135905223Y-113927223D01*
X135923401Y-113910747D01*
X135943107Y-113896132D01*
X135964150Y-113883520D01*
X135986329Y-113873030D01*
X136009428Y-113864765D01*
X136033227Y-113858804D01*
X136057495Y-113855204D01*
X136081999Y-113854000D01*
X136732001Y-113854000D01*
X136756505Y-113855204D01*
G37*
G36*
X134706505Y-113855204D02*
G01*
X134730773Y-113858804D01*
X134754572Y-113864765D01*
X134777671Y-113873030D01*
X134799850Y-113883520D01*
X134820893Y-113896132D01*
X134840599Y-113910747D01*
X134858777Y-113927223D01*
X134875253Y-113945401D01*
X134889868Y-113965107D01*
X134902480Y-113986150D01*
X134912970Y-114008329D01*
X134921235Y-114031428D01*
X134927196Y-114055227D01*
X134930796Y-114079495D01*
X134932000Y-114103999D01*
X134932000Y-115004001D01*
X134930796Y-115028505D01*
X134927196Y-115052773D01*
X134921235Y-115076572D01*
X134912970Y-115099671D01*
X134902480Y-115121850D01*
X134889868Y-115142893D01*
X134875253Y-115162599D01*
X134858777Y-115180777D01*
X134840599Y-115197253D01*
X134820893Y-115211868D01*
X134799850Y-115224480D01*
X134777671Y-115234970D01*
X134754572Y-115243235D01*
X134730773Y-115249196D01*
X134706505Y-115252796D01*
X134682001Y-115254000D01*
X134031999Y-115254000D01*
X134007495Y-115252796D01*
X133983227Y-115249196D01*
X133959428Y-115243235D01*
X133936329Y-115234970D01*
X133914150Y-115224480D01*
X133893107Y-115211868D01*
X133873401Y-115197253D01*
X133855223Y-115180777D01*
X133838747Y-115162599D01*
X133824132Y-115142893D01*
X133811520Y-115121850D01*
X133801030Y-115099671D01*
X133792765Y-115076572D01*
X133786804Y-115052773D01*
X133783204Y-115028505D01*
X133782000Y-115004001D01*
X133782000Y-114103999D01*
X133783204Y-114079495D01*
X133786804Y-114055227D01*
X133792765Y-114031428D01*
X133801030Y-114008329D01*
X133811520Y-113986150D01*
X133824132Y-113965107D01*
X133838747Y-113945401D01*
X133855223Y-113927223D01*
X133873401Y-113910747D01*
X133893107Y-113896132D01*
X133914150Y-113883520D01*
X133936329Y-113873030D01*
X133959428Y-113864765D01*
X133983227Y-113858804D01*
X134007495Y-113855204D01*
X134031999Y-113854000D01*
X134682001Y-113854000D01*
X134706505Y-113855204D01*
G37*
G36*
X126088505Y-113093204D02*
G01*
X126112773Y-113096804D01*
X126136572Y-113102765D01*
X126159671Y-113111030D01*
X126181850Y-113121520D01*
X126202893Y-113134132D01*
X126222599Y-113148747D01*
X126240777Y-113165223D01*
X126257253Y-113183401D01*
X126271868Y-113203107D01*
X126284480Y-113224150D01*
X126294970Y-113246329D01*
X126303235Y-113269428D01*
X126309196Y-113293227D01*
X126312796Y-113317495D01*
X126314000Y-113341999D01*
X126314000Y-114242001D01*
X126312796Y-114266505D01*
X126309196Y-114290773D01*
X126303235Y-114314572D01*
X126294970Y-114337671D01*
X126284480Y-114359850D01*
X126271868Y-114380893D01*
X126257253Y-114400599D01*
X126240777Y-114418777D01*
X126222599Y-114435253D01*
X126202893Y-114449868D01*
X126181850Y-114462480D01*
X126159671Y-114472970D01*
X126136572Y-114481235D01*
X126112773Y-114487196D01*
X126088505Y-114490796D01*
X126064001Y-114492000D01*
X125413999Y-114492000D01*
X125389495Y-114490796D01*
X125365227Y-114487196D01*
X125341428Y-114481235D01*
X125318329Y-114472970D01*
X125296150Y-114462480D01*
X125275107Y-114449868D01*
X125255401Y-114435253D01*
X125237223Y-114418777D01*
X125220747Y-114400599D01*
X125206132Y-114380893D01*
X125193520Y-114359850D01*
X125183030Y-114337671D01*
X125174765Y-114314572D01*
X125168804Y-114290773D01*
X125165204Y-114266505D01*
X125164000Y-114242001D01*
X125164000Y-113341999D01*
X125165204Y-113317495D01*
X125168804Y-113293227D01*
X125174765Y-113269428D01*
X125183030Y-113246329D01*
X125193520Y-113224150D01*
X125206132Y-113203107D01*
X125220747Y-113183401D01*
X125237223Y-113165223D01*
X125255401Y-113148747D01*
X125275107Y-113134132D01*
X125296150Y-113121520D01*
X125318329Y-113111030D01*
X125341428Y-113102765D01*
X125365227Y-113096804D01*
X125389495Y-113093204D01*
X125413999Y-113092000D01*
X126064001Y-113092000D01*
X126088505Y-113093204D01*
G37*
G36*
X124038505Y-113093204D02*
G01*
X124062773Y-113096804D01*
X124086572Y-113102765D01*
X124109671Y-113111030D01*
X124131850Y-113121520D01*
X124152893Y-113134132D01*
X124172599Y-113148747D01*
X124190777Y-113165223D01*
X124207253Y-113183401D01*
X124221868Y-113203107D01*
X124234480Y-113224150D01*
X124244970Y-113246329D01*
X124253235Y-113269428D01*
X124259196Y-113293227D01*
X124262796Y-113317495D01*
X124264000Y-113341999D01*
X124264000Y-114242001D01*
X124262796Y-114266505D01*
X124259196Y-114290773D01*
X124253235Y-114314572D01*
X124244970Y-114337671D01*
X124234480Y-114359850D01*
X124221868Y-114380893D01*
X124207253Y-114400599D01*
X124190777Y-114418777D01*
X124172599Y-114435253D01*
X124152893Y-114449868D01*
X124131850Y-114462480D01*
X124109671Y-114472970D01*
X124086572Y-114481235D01*
X124062773Y-114487196D01*
X124038505Y-114490796D01*
X124014001Y-114492000D01*
X123363999Y-114492000D01*
X123339495Y-114490796D01*
X123315227Y-114487196D01*
X123291428Y-114481235D01*
X123268329Y-114472970D01*
X123246150Y-114462480D01*
X123225107Y-114449868D01*
X123205401Y-114435253D01*
X123187223Y-114418777D01*
X123170747Y-114400599D01*
X123156132Y-114380893D01*
X123143520Y-114359850D01*
X123133030Y-114337671D01*
X123124765Y-114314572D01*
X123118804Y-114290773D01*
X123115204Y-114266505D01*
X123114000Y-114242001D01*
X123114000Y-113341999D01*
X123115204Y-113317495D01*
X123118804Y-113293227D01*
X123124765Y-113269428D01*
X123133030Y-113246329D01*
X123143520Y-113224150D01*
X123156132Y-113203107D01*
X123170747Y-113183401D01*
X123187223Y-113165223D01*
X123205401Y-113148747D01*
X123225107Y-113134132D01*
X123246150Y-113121520D01*
X123268329Y-113111030D01*
X123291428Y-113102765D01*
X123315227Y-113096804D01*
X123339495Y-113093204D01*
X123363999Y-113092000D01*
X124014001Y-113092000D01*
X124038505Y-113093204D01*
G37*
M02*
