M48
; DRILL file {KiCad (5.1.5)-3} date 18/02/2020 19:32:14
; FORMAT={-:-/ absolute / inch / decimal}
; #@! TF.CreationDate,2020-02-18T19:32:14+00:00
; #@! TF.GenerationSoftware,Kicad,Pcbnew,(5.1.5)-3
FMAT,2
INCH
T1C0.0157
T2C0.0177
T3C0.0579
T4C0.0689
T5C0.1200
T6C0.1570
%
G90
G05
T1
X6.78Y-4.32
X7.26Y-3.69
X7.3Y-4.1117
X7.3Y-4.4
X7.35Y-4.37
X7.39Y-4.34
X7.44Y-4.31
X7.5Y-3.92
X7.51Y-3.55
X7.57Y-3.73
X7.57Y-4.31
X7.61Y-3.92
X7.66Y-3.86
X7.68Y-3.68
X7.71Y-3.71
X7.72Y-3.9
X7.72Y-3.96
X7.72Y-4.02
X7.72Y-4.08
X7.73Y-4.31
X7.73Y-4.31
X7.75Y-3.93
X7.75Y-3.99
X7.75Y-4.05
X8.15Y-3.92
X8.19Y-4.07
X8.19Y-4.07
X8.23Y-3.77
X8.23Y-3.96
X8.28Y-4.33
X11.43Y-3.6873
X11.51Y-3.72
X11.51Y-3.77
X11.81Y-1.45
X11.87Y-1.45
X11.93Y-1.45
T3
X1.6312Y-1.025
X1.8812Y-0.925
X12.1312Y-2.525
X12.3812Y-2.425
X4.6312Y-1.025
X4.8812Y-0.925
X3.3188Y-3.275
X3.5688Y-3.175
X2.7563Y-1.775
X3.0063Y-1.675
X9.1312Y-1.025
X9.3812Y-0.925
X6.5062Y-1.775
X6.7562Y-1.675
X1.0687Y-4.025
X1.3187Y-3.925
X9.3187Y-4.025
X9.5687Y-3.925
X2.3813Y-1.025
X2.6313Y-0.925
X12.1312Y-3.275
X12.3812Y-3.175
X9.6937Y-2.525
X9.9437Y-2.425
X4.2562Y-1.775
X4.5062Y-1.675
X3.5063Y-1.775
X3.7563Y-1.675
X2.9438Y-4.025
X3.1938Y-3.925
X8.1937Y-2.525
X8.4437Y-2.425
X8.7562Y-1.775
X9.0062Y-1.675
X3.8813Y-1.025
X4.1312Y-0.925
X2.0063Y-1.775
X2.2563Y-1.675
X1.35Y-3.275
X1.6Y-3.175
X10.9125Y-2.525
X11.1625Y-2.425
X12.1312Y-1.775
X12.3812Y-1.675
X10.6312Y-4.025
X10.8812Y-3.925
X5.1937Y-2.525
X5.4437Y-2.425
X5.5687Y-3.275
X5.8187Y-3.175
X4.4437Y-2.525
X4.6937Y-2.425
X5.9437Y-2.525
X6.1937Y-2.425
X7.6312Y-1.025
X7.8812Y-0.925
X7.0687Y-3.275
X7.3187Y-3.175
X6.1312Y-4.025
X6.3812Y-3.925
X2.1938Y-2.525
X2.4438Y-2.425
X10.35Y-3.275
X10.6Y-3.175
X9.5062Y-1.775
X9.7562Y-1.675
X10.2562Y-1.775
X10.5062Y-1.675
X4.8187Y-3.275
X5.0687Y-3.175
X5.3812Y-1.025
X5.6312Y-0.925
X3.6938Y-2.525
X3.9438Y-2.425
X6.3187Y-3.275
X6.5687Y-3.175
X9.3187Y-3.275
X9.5687Y-3.175
X8.3812Y-1.025
X8.6312Y-0.925
X0.8812Y-1.025
X1.1312Y-0.925
X7.8187Y-3.275
X8.0687Y-3.175
X11.3812Y-1.025
X11.6312Y-0.925
X11.3812Y-4.025
X11.6312Y-3.925
X11.1937Y-1.775
X11.4437Y-1.675
X6.1312Y-1.025
X6.3812Y-0.925
X3.1313Y-1.025
X3.3813Y-0.925
X6.8812Y-1.025
X7.1312Y-0.925
X7.4437Y-2.525
X7.6937Y-2.425
X6.6937Y-2.525
X6.9437Y-2.425
X1.0687Y-1.775
X1.3187Y-1.675
X12.1312Y-4.025
X12.3812Y-3.925
X9.8812Y-1.025
X10.1312Y-0.925
X4.0687Y-3.275
X4.3187Y-3.175
X5.0062Y-1.775
X5.2562Y-1.675
X7.2562Y-1.775
X7.5062Y-1.675
X8.0062Y-1.775
X8.2562Y-1.675
X5.7562Y-1.775
X6.0062Y-1.675
X1.1625Y-2.525
X1.4125Y-2.425
X11.3812Y-3.275
X11.6312Y-3.175
X10.6312Y-1.025
X10.8812Y-0.925
X2.9438Y-2.525
X3.1938Y-2.425
X2.5688Y-3.275
X2.8188Y-3.175
X8.9437Y-2.525
X9.1937Y-2.425
X8.5687Y-3.275
X8.8187Y-3.175
T4
X4.5812Y-1.125
X4.9813Y-1.125
X3.2687Y-3.375
X3.6687Y-3.375
X2.7062Y-1.875
X3.1062Y-1.875
X9.0812Y-1.125
X9.4812Y-1.125
X6.4562Y-1.875
X6.8563Y-1.875
X1.0188Y-4.125
X1.4187Y-4.125
X9.2687Y-4.125
X9.6687Y-4.125
X2.3312Y-1.125
X2.7312Y-1.125
X12.0812Y-3.375
X12.4812Y-3.375
X9.6437Y-2.625
X10.0437Y-2.625
X4.2062Y-1.875
X4.6063Y-1.875
X3.4562Y-1.875
X3.8562Y-1.875
X2.8937Y-4.125
X3.2937Y-4.125
X8.1437Y-2.625
X8.5437Y-2.625
X8.7062Y-1.875
X9.1062Y-1.875
X3.8312Y-1.125
X4.2313Y-1.125
X1.9563Y-1.875
X2.3562Y-1.875
X1.3Y-3.375
X1.7Y-3.375
X10.8625Y-2.625
X11.2625Y-2.625
X12.0812Y-1.875
X12.4812Y-1.875
X10.5812Y-4.125
X10.9812Y-4.125
X5.1437Y-2.625
X5.5438Y-2.625
X5.5187Y-3.375
X5.9188Y-3.375
X4.3937Y-2.625
X4.7938Y-2.625
X5.8937Y-2.625
X6.2938Y-2.625
X7.5812Y-1.125
X7.9813Y-1.125
X7.0187Y-3.375
X7.4188Y-3.375
X6.0812Y-4.125
X6.4813Y-4.125
X2.1437Y-2.625
X2.5437Y-2.625
X10.3Y-3.375
X10.7Y-3.375
X9.4562Y-1.875
X9.8562Y-1.875
X10.2062Y-1.875
X10.6062Y-1.875
X4.7687Y-3.375
X5.1688Y-3.375
X5.3312Y-1.125
X5.7313Y-1.125
X3.6437Y-2.625
X4.0438Y-2.625
X6.2687Y-3.375
X6.6688Y-3.375
X9.2687Y-3.375
X9.6687Y-3.375
X8.3312Y-1.125
X8.7312Y-1.125
X0.8312Y-1.125
X1.2312Y-1.125
X7.7687Y-3.375
X8.1687Y-3.375
X11.3312Y-1.125
X11.7312Y-1.125
X11.3312Y-4.125
X11.7312Y-4.125
X11.1437Y-1.875
X11.5437Y-1.875
X6.0812Y-1.125
X6.4813Y-1.125
X3.0812Y-1.125
X3.4812Y-1.125
X6.8312Y-1.125
X7.2313Y-1.125
X7.3937Y-2.625
X7.7938Y-2.625
X6.6437Y-2.625
X7.0438Y-2.625
X1.0188Y-1.875
X1.4187Y-1.875
X12.0812Y-4.125
X12.4812Y-4.125
X9.8312Y-1.125
X10.2312Y-1.125
X4.0187Y-3.375
X4.4188Y-3.375
X4.9562Y-1.875
X5.3563Y-1.875
X7.2062Y-1.875
X7.6063Y-1.875
X7.9562Y-1.875
X8.3562Y-1.875
X5.7062Y-1.875
X6.1063Y-1.875
X1.1125Y-2.625
X1.5125Y-2.625
X11.3312Y-3.375
X11.7312Y-3.375
X10.5812Y-1.125
X10.9812Y-1.125
X2.8937Y-2.625
X3.2937Y-2.625
X2.5187Y-3.375
X2.9187Y-3.375
X8.8937Y-2.625
X9.2937Y-2.625
X8.5187Y-3.375
X8.9187Y-3.375
X1.5813Y-1.125
X1.9812Y-1.125
X12.0812Y-2.625
X12.4812Y-2.625
T5
X1.0312Y-3.1
X1.9688Y-3.1
X10.5938Y-2.35
X11.5312Y-2.35
X4.0312Y-4.4
X8.5312Y-4.4
T6
X11.5312Y-3.375
X10.7812Y-1.125
X3.0938Y-2.625
X2.7188Y-3.375
X9.0938Y-2.625
X8.7188Y-3.375
X1.7812Y-1.125
X12.2812Y-2.625
X4.7812Y-1.125
X3.4688Y-3.375
X2.9062Y-1.875
X9.2812Y-1.125
X6.6562Y-1.875
X1.2188Y-4.125
X9.4688Y-4.125
X2.5312Y-1.125
X12.2812Y-3.375
X9.8438Y-2.625
X4.4062Y-1.875
X3.6562Y-1.875
X3.0938Y-4.125
X8.3438Y-2.625
X8.9062Y-1.875
X4.0312Y-1.125
X2.1562Y-1.875
X1.0312Y-3.7
X1.5Y-3.375
X1.9688Y-3.7
X10.5938Y-2.95
X11.0625Y-2.625
X11.5312Y-2.95
X12.2812Y-1.875
X10.7812Y-4.125
X5.3438Y-2.625
X5.7188Y-3.375
X4.5938Y-2.625
X6.0938Y-2.625
X7.7812Y-1.125
X7.2188Y-3.375
X4.0312Y-3.8
X6.2812Y-4.125
X8.5312Y-3.8
X2.3438Y-2.625
X10.5Y-3.375
X9.6562Y-1.875
X10.4062Y-1.875
X4.9688Y-3.375
X5.5312Y-1.125
X3.8438Y-2.625
X6.4688Y-3.375
X9.4688Y-3.375
X8.5312Y-1.125
X1.0312Y-1.125
X7.9688Y-3.375
X11.5312Y-1.125
X11.5312Y-4.125
X11.3438Y-1.875
X6.2812Y-1.125
X3.2812Y-1.125
X7.0312Y-1.125
X7.5938Y-2.625
X6.8438Y-2.625
X1.2188Y-1.875
X12.2812Y-4.125
X10.0312Y-1.125
X4.2188Y-3.375
X5.1562Y-1.875
X7.4062Y-1.875
X8.1562Y-1.875
X5.9062Y-1.875
X1.3125Y-2.625
T2
G00X12.1393Y-0.8235
M15
G01X12.1393Y-0.792
M16
G05
G00X12.4207Y-0.792
M15
G01X12.4207Y-0.8235
M16
G05
T0
M30
