G04 #@! TF.GenerationSoftware,KiCad,Pcbnew,(5.1.5-0-10_14)*
G04 #@! TF.CreationDate,2020-03-04T11:44:33+00:00*
G04 #@! TF.ProjectId,plate,706c6174-652e-46b6-9963-61645f706362,rev?*
G04 #@! TF.SameCoordinates,Original*
G04 #@! TF.FileFunction,Profile,NP*
%FSLAX46Y46*%
G04 Gerber Fmt 4.6, Leading zero omitted, Abs format (unit mm)*
G04 Created by KiCad (PCBNEW (5.1.5-0-10_14)) date 2020-03-04 11:44:33*
%MOMM*%
%LPD*%
G04 APERTURE LIST*
%ADD10C,0.200000*%
G04 APERTURE END LIST*
D10*
X251924239Y-39437150D02*
X237924939Y-39437150D01*
X251924239Y-53436550D02*
X251924239Y-39437150D01*
X237924939Y-53436550D02*
X251924239Y-53436550D01*
X45043439Y-72486650D02*
X59044439Y-72486650D01*
X45043439Y-58487350D02*
X45043439Y-72486650D01*
X59044439Y-58487350D02*
X45043439Y-58487350D01*
X59044439Y-72486650D02*
X59044439Y-58487350D01*
X43519439Y-71936950D02*
X43519439Y-57736250D01*
X35944439Y-71936950D02*
X43519439Y-71936950D01*
X35944439Y-57736250D02*
X35944439Y-71936950D01*
X43519439Y-57736250D02*
X35944439Y-57736250D01*
X119712439Y-35145241D02*
X119712439Y-20940483D01*
X112137439Y-35145241D02*
X119712439Y-35145241D01*
X112137439Y-20940483D02*
X112137439Y-35145241D01*
X119712439Y-20940483D02*
X112137439Y-20940483D01*
X180486439Y-96587350D02*
X166487439Y-96587350D01*
X180486439Y-110586650D02*
X180486439Y-96587350D01*
X166487439Y-110586650D02*
X180486439Y-110586650D01*
X166487439Y-96587350D02*
X166487439Y-110586650D01*
X234836739Y-35137650D02*
X234836739Y-20935560D01*
X227261539Y-35137650D02*
X234836739Y-35137650D01*
X227261539Y-20935560D02*
X227261539Y-35137650D01*
X234836739Y-20935560D02*
X227261539Y-20935560D01*
X309074279Y-34386650D02*
X309074279Y-20387190D01*
X295074739Y-34386650D02*
X309074279Y-34386650D01*
X295074739Y-20387190D02*
X295074739Y-34386650D01*
X309074279Y-20387190D02*
X295074739Y-20387190D01*
X180486439Y-34386650D02*
X180486439Y-20387190D01*
X166487439Y-34386650D02*
X180486439Y-34386650D01*
X166487439Y-20387190D02*
X166487439Y-34386650D01*
X180486439Y-20387190D02*
X166487439Y-20387190D01*
X156674439Y-53436550D02*
X156674439Y-39437150D01*
X142674439Y-53436550D02*
X156674439Y-53436550D01*
X142674439Y-39437150D02*
X142674439Y-53436550D01*
X156674439Y-39437150D02*
X142674439Y-39437150D01*
X233162439Y-91536650D02*
X247161739Y-91536650D01*
X233162439Y-77537350D02*
X233162439Y-91536650D01*
X247161739Y-77537350D02*
X233162439Y-77537350D01*
X247161739Y-91536650D02*
X247161739Y-77537350D01*
X280499239Y-58487350D02*
X266499939Y-58487350D01*
X280499239Y-72486650D02*
X280499239Y-58487350D01*
X266499939Y-72486650D02*
X280499239Y-72486650D01*
X266499939Y-58487350D02*
X266499939Y-72486650D01*
X232874239Y-53436550D02*
X232874239Y-39437150D01*
X218874939Y-53436550D02*
X232874239Y-53436550D01*
X218874939Y-39437150D02*
X218874939Y-53436550D01*
X232874239Y-39437150D02*
X218874939Y-39437150D01*
X228399939Y-58487350D02*
X228399939Y-72486650D01*
X242399239Y-58487350D02*
X228399939Y-58487350D01*
X242399239Y-72486650D02*
X242399239Y-58487350D01*
X228399939Y-72486650D02*
X242399239Y-72486650D01*
X28086439Y-91536650D02*
X28086439Y-77537350D01*
X14087439Y-91536650D02*
X28086439Y-91536650D01*
X14087439Y-77537350D02*
X14087439Y-91536650D01*
X28086439Y-77537350D02*
X14087439Y-77537350D01*
X61712439Y-77537350D02*
X61712439Y-91536650D01*
X75711439Y-77537350D02*
X61712439Y-77537350D01*
X75711439Y-91536650D02*
X75711439Y-77537350D01*
X61712439Y-91536650D02*
X75711439Y-91536650D01*
X113811439Y-91536650D02*
X113811439Y-77537350D01*
X99812439Y-91536650D02*
X113811439Y-91536650D01*
X99812439Y-77537350D02*
X99812439Y-91536650D01*
X113811439Y-77537350D02*
X99812439Y-77537350D01*
X37899439Y-91536650D02*
X51899439Y-91536650D01*
X37899439Y-77537350D02*
X37899439Y-91536650D01*
X51899439Y-77537350D02*
X37899439Y-77537350D01*
X51899439Y-91536650D02*
X51899439Y-77537350D01*
X90287439Y-96587350D02*
X90287439Y-110586650D01*
X104286439Y-96587350D02*
X90287439Y-96587350D01*
X104286439Y-110586650D02*
X104286439Y-96587350D01*
X90287439Y-110586650D02*
X104286439Y-110586650D01*
X28086439Y-20387190D02*
X14087439Y-20387190D01*
X28086439Y-34386650D02*
X28086439Y-20387190D01*
X14087439Y-34386650D02*
X28086439Y-34386650D01*
X14087439Y-20387190D02*
X14087439Y-34386650D01*
X228111739Y-91536650D02*
X228111739Y-77537350D01*
X214112439Y-91536650D02*
X228111739Y-91536650D01*
X214112439Y-77537350D02*
X214112439Y-91536650D01*
X228111739Y-77537350D02*
X214112439Y-77537350D01*
X33137439Y-20387190D02*
X33137439Y-34386650D01*
X47136439Y-20387190D02*
X33137439Y-20387190D01*
X47136439Y-34386650D02*
X47136439Y-20387190D01*
X33137439Y-34386650D02*
X47136439Y-34386650D01*
X313836789Y-110586650D02*
X313836789Y-96587350D01*
X299837239Y-110586650D02*
X313836789Y-110586650D01*
X299837239Y-96587350D02*
X299837239Y-110586650D01*
X313836789Y-96587350D02*
X299837239Y-96587350D01*
X237636739Y-110586650D02*
X237636739Y-96587350D01*
X223637439Y-110586650D02*
X237636739Y-110586650D01*
X223637439Y-96587350D02*
X223637439Y-110586650D01*
X237636739Y-96587350D02*
X223637439Y-96587350D01*
X199538439Y-96587350D02*
X185537439Y-96587350D01*
X199538439Y-110586650D02*
X199538439Y-96587350D01*
X185537439Y-110586650D02*
X199538439Y-110586650D01*
X185537439Y-96587350D02*
X185537439Y-110586650D01*
X151911439Y-91536650D02*
X151911439Y-77537350D01*
X137912439Y-91536650D02*
X151911439Y-91536650D01*
X137912439Y-77537350D02*
X137912439Y-91536650D01*
X151911439Y-77537350D02*
X137912439Y-77537350D01*
X223349239Y-58487350D02*
X209349439Y-58487350D01*
X223349239Y-72486650D02*
X223349239Y-58487350D01*
X209349439Y-72486650D02*
X223349239Y-72486650D01*
X209349439Y-58487350D02*
X209349439Y-72486650D01*
X33137439Y-110586650D02*
X47136439Y-110586650D01*
X33137439Y-96587350D02*
X33137439Y-110586650D01*
X47136439Y-96587350D02*
X33137439Y-96587350D01*
X47136439Y-110586650D02*
X47136439Y-96587350D01*
X109337439Y-110586650D02*
X123336439Y-110586650D01*
X109337439Y-96587350D02*
X109337439Y-110586650D01*
X123336439Y-96587350D02*
X109337439Y-96587350D01*
X123336439Y-110586650D02*
X123336439Y-96587350D01*
X14087439Y-72486650D02*
X28086439Y-72486650D01*
X14087439Y-58487350D02*
X14087439Y-72486650D01*
X28086439Y-58487350D02*
X14087439Y-58487350D01*
X28086439Y-72486650D02*
X28086439Y-58487350D01*
X33137439Y-39437150D02*
X33137439Y-53436550D01*
X47136439Y-39437150D02*
X33137439Y-39437150D01*
X47136439Y-53436550D02*
X47136439Y-39437150D01*
X33137439Y-53436550D02*
X47136439Y-53436550D01*
X140758065Y-25511920D02*
G75*
G02X145441813Y-25511920I2341874J-1875000D01*
G01*
X146222438Y-25886920D02*
G75*
G02X145441813Y-25511920I0J1000000D01*
G01*
X152099939Y-25886920D02*
X146222438Y-25886920D01*
X152099939Y-25886920D02*
G75*
G02X153099939Y-26886920I0J-1000000D01*
G01*
X153099939Y-27886920D02*
X153099939Y-26886920D01*
X153099939Y-27886920D02*
G75*
G02X152099939Y-28886920I-1000000J0D01*
G01*
X146222438Y-28886920D02*
X152099939Y-28886920D01*
X145441813Y-29261920D02*
G75*
G02X146222438Y-28886920I780625J-625000D01*
G01*
X145441813Y-29261920D02*
G75*
G02X140758065Y-29261920I-2341874J1875000D01*
G01*
X139977440Y-28886920D02*
G75*
G02X140758065Y-29261920I0J-1000000D01*
G01*
X134099939Y-28886920D02*
X139977440Y-28886920D01*
X134099939Y-28886920D02*
G75*
G02X133099939Y-27886920I0J1000000D01*
G01*
X133099939Y-26886920D02*
X133099939Y-27886920D01*
X133099939Y-26886920D02*
G75*
G02X134099939Y-25886920I1000000J0D01*
G01*
X139977440Y-25886920D02*
X134099939Y-25886920D01*
X140758065Y-25511920D02*
G75*
G02X139977440Y-25886920I-780625J625000D01*
G01*
X201532065Y-25511920D02*
G75*
G02X206215813Y-25511920I2341874J-1875000D01*
G01*
X206996438Y-25886920D02*
G75*
G02X206215813Y-25511920I0J1000000D01*
G01*
X212873939Y-25886920D02*
X206996438Y-25886920D01*
X212873939Y-25886920D02*
G75*
G02X213873939Y-26886920I0J-1000000D01*
G01*
X213873939Y-27886920D02*
X213873939Y-26886920D01*
X200751440Y-28886920D02*
G75*
G02X201532065Y-29261920I0J-1000000D01*
G01*
X194873939Y-28886920D02*
X200751440Y-28886920D01*
X194873939Y-28886920D02*
G75*
G02X193873939Y-27886920I0J1000000D01*
G01*
X180774439Y-53436550D02*
X194774439Y-53436550D01*
X180774439Y-39437150D02*
X180774439Y-53436550D01*
X237924939Y-39437150D02*
X237924939Y-53436550D01*
X204587439Y-110586650D02*
X218588139Y-110586650D01*
X194774439Y-39437150D02*
X180774439Y-39437150D01*
X194774439Y-53436550D02*
X194774439Y-39437150D01*
X204587439Y-96587350D02*
X204587439Y-110586650D01*
X218588139Y-96587350D02*
X204587439Y-96587350D01*
X218588139Y-110586650D02*
X218588139Y-96587350D01*
X99524439Y-34386650D02*
X99524439Y-20387190D01*
X85524439Y-34386650D02*
X99524439Y-34386650D01*
X85524439Y-20387190D02*
X85524439Y-34386650D01*
X99524439Y-20387190D02*
X85524439Y-20387190D01*
X71237439Y-96587350D02*
X71237439Y-110586650D01*
X85236439Y-96587350D02*
X71237439Y-96587350D01*
X85236439Y-110586650D02*
X85236439Y-96587350D01*
X71237439Y-110586650D02*
X85236439Y-110586650D01*
X213873939Y-27886920D02*
G75*
G02X212873939Y-28886920I-1000000J0D01*
G01*
X206996438Y-28886920D02*
X212873939Y-28886920D01*
X206215813Y-29261920D02*
G75*
G02X206996438Y-28886920I780625J-625000D01*
G01*
X206215813Y-29261920D02*
G75*
G02X201532065Y-29261920I-2341874J1875000D01*
G01*
X52187439Y-34386650D02*
X66186439Y-34386650D01*
X52187439Y-20387190D02*
X52187439Y-34386650D01*
X66186439Y-20387190D02*
X52187439Y-20387190D01*
X66186439Y-34386650D02*
X66186439Y-20387190D01*
X190011439Y-77537350D02*
X176012439Y-77537350D01*
X190011439Y-91536650D02*
X190011439Y-77537350D01*
X176012439Y-91536650D02*
X190011439Y-91536650D01*
X176012439Y-77537350D02*
X176012439Y-91536650D01*
X303456039Y-38686150D02*
X303456039Y-52888350D01*
X256686739Y-110586650D02*
X256686739Y-96587350D01*
X242687439Y-110586650D02*
X256686739Y-110586650D01*
X242687439Y-96587350D02*
X242687439Y-110586650D01*
X256686739Y-96587350D02*
X242687439Y-96587350D01*
X247449939Y-20387190D02*
X247449939Y-34386650D01*
X261449239Y-20387190D02*
X247449939Y-20387190D01*
X261449239Y-34386650D02*
X261449239Y-20387190D01*
X247449939Y-34386650D02*
X261449239Y-34386650D01*
X309074279Y-91536650D02*
X309074279Y-77537350D01*
X295074739Y-91536650D02*
X309074279Y-91536650D01*
X295074739Y-77537350D02*
X295074739Y-91536650D01*
X309074279Y-77537350D02*
X295074739Y-77537350D01*
X213824439Y-39437150D02*
X199824439Y-39437150D01*
X213824439Y-53436550D02*
X213824439Y-39437150D01*
X199824439Y-53436550D02*
X213824439Y-53436550D01*
X199824439Y-39437150D02*
X199824439Y-53436550D01*
X75999439Y-58487350D02*
X75999439Y-72486650D01*
X89999439Y-58487350D02*
X75999439Y-58487350D01*
X89999439Y-72486650D02*
X89999439Y-58487350D01*
X75999439Y-72486650D02*
X89999439Y-72486650D01*
X286405539Y-52888350D02*
X286405539Y-38686150D01*
X278830539Y-52888350D02*
X286405539Y-52888350D01*
X278830539Y-38686150D02*
X278830539Y-52888350D01*
X60568439Y-71936950D02*
X68143439Y-71936950D01*
X60568439Y-57736250D02*
X60568439Y-71936950D01*
X68143439Y-57736250D02*
X60568439Y-57736250D01*
X68143439Y-71936950D02*
X68143439Y-57736250D01*
X261737439Y-110586650D02*
X275736739Y-110586650D01*
X261737439Y-96587350D02*
X261737439Y-110586650D01*
X275736739Y-96587350D02*
X261737439Y-96587350D01*
X275736739Y-110586650D02*
X275736739Y-96587350D01*
X311031109Y-38686150D02*
X303456039Y-38686150D01*
X311031109Y-52888350D02*
X311031109Y-38686150D01*
X303456039Y-52888350D02*
X311031109Y-52888350D01*
X73330439Y-39437150D02*
X59331439Y-39437150D01*
X73330439Y-53436550D02*
X73330439Y-39437150D01*
X59331439Y-53436550D02*
X73330439Y-53436550D01*
X286405539Y-38686150D02*
X278830539Y-38686150D01*
X292693539Y-58487350D02*
X292693539Y-72486650D01*
X306694409Y-58487350D02*
X292693539Y-58487350D01*
X306694409Y-72486650D02*
X306694409Y-58487350D01*
X118862439Y-91536650D02*
X132861439Y-91536650D01*
X118862439Y-77537350D02*
X118862439Y-91536650D01*
X132861439Y-77537350D02*
X118862439Y-77537350D01*
X132861439Y-91536650D02*
X132861439Y-77537350D01*
X59331439Y-39437150D02*
X59331439Y-53436550D01*
X137624439Y-53436550D02*
X137624439Y-39437150D01*
X123624439Y-53436550D02*
X137624439Y-53436550D01*
X123624439Y-39437150D02*
X123624439Y-53436550D01*
X280787439Y-96587350D02*
X280787439Y-110586650D01*
X294786739Y-96587350D02*
X280787439Y-96587350D01*
X294786739Y-110586650D02*
X294786739Y-96587350D01*
X280787439Y-110586650D02*
X294786739Y-110586650D01*
X185249439Y-58487350D02*
X171249439Y-58487350D01*
X185249439Y-72486650D02*
X185249439Y-58487350D01*
X171249439Y-72486650D02*
X185249439Y-72486650D01*
X171249439Y-58487350D02*
X171249439Y-72486650D01*
X292693539Y-72486650D02*
X306694409Y-72486650D01*
X147149439Y-72486650D02*
X147149439Y-58487350D01*
X133149439Y-72486650D02*
X147149439Y-72486650D01*
X133149439Y-58487350D02*
X133149439Y-72486650D01*
X137624439Y-39437150D02*
X123624439Y-39437150D01*
X175724439Y-39437150D02*
X161724439Y-39437150D01*
X66186439Y-96587350D02*
X52187439Y-96587350D01*
X66186439Y-110586650D02*
X66186439Y-96587350D01*
X52187439Y-110586650D02*
X66186439Y-110586650D01*
X52187439Y-96587350D02*
X52187439Y-110586650D01*
X247449939Y-72486650D02*
X261449239Y-72486650D01*
X247449939Y-58487350D02*
X247449939Y-72486650D01*
X261449239Y-58487350D02*
X247449939Y-58487350D01*
X261449239Y-72486650D02*
X261449239Y-58487350D01*
X209061439Y-77537350D02*
X195062439Y-77537350D01*
X209061439Y-91536650D02*
X209061439Y-77537350D01*
X195062439Y-91536650D02*
X209061439Y-91536650D01*
X195062439Y-77537350D02*
X195062439Y-91536650D01*
X147149439Y-58487350D02*
X133149439Y-58487350D01*
X128099439Y-58487350D02*
X114099439Y-58487350D01*
X128099439Y-72486650D02*
X128099439Y-58487350D01*
X204299439Y-72486650D02*
X204299439Y-58487350D01*
X190299439Y-72486650D02*
X204299439Y-72486650D01*
X190299439Y-58487350D02*
X190299439Y-72486650D01*
X204299439Y-58487350D02*
X190299439Y-58487350D01*
X85524439Y-39437150D02*
X85524439Y-53436550D01*
X99524439Y-39437150D02*
X85524439Y-39437150D01*
X99524439Y-53436550D02*
X99524439Y-39437150D01*
X85524439Y-53436550D02*
X99524439Y-53436550D01*
X175724439Y-53436550D02*
X175724439Y-39437150D01*
X161724439Y-53436550D02*
X175724439Y-53436550D01*
X161724439Y-39437150D02*
X161724439Y-53436550D01*
X152199439Y-58487350D02*
X152199439Y-72486650D01*
X166199439Y-58487350D02*
X152199439Y-58487350D01*
X270974239Y-53436550D02*
X270974239Y-39437150D01*
X256974939Y-53436550D02*
X270974239Y-53436550D01*
X256974939Y-39437150D02*
X256974939Y-53436550D01*
X270974239Y-39437150D02*
X256974939Y-39437150D01*
X301930539Y-53436550D02*
X301930539Y-39437150D01*
X287931039Y-53436550D02*
X301930539Y-53436550D01*
X287931039Y-39437150D02*
X287931039Y-53436550D01*
X301930539Y-39437150D02*
X287931039Y-39437150D01*
X128387439Y-110586650D02*
X142386439Y-110586650D01*
X128387439Y-96587350D02*
X128387439Y-110586650D01*
X142386439Y-96587350D02*
X128387439Y-96587350D01*
X142386439Y-110586650D02*
X142386439Y-96587350D01*
X170961439Y-91536650D02*
X170961439Y-77537350D01*
X156962439Y-91536650D02*
X170961439Y-91536650D01*
X156962439Y-77537350D02*
X156962439Y-91536650D01*
X170961439Y-77537350D02*
X156962439Y-77537350D01*
X114099439Y-72486650D02*
X128099439Y-72486650D01*
X114099439Y-58487350D02*
X114099439Y-72486650D01*
X28086439Y-53436550D02*
X28086439Y-39437150D01*
X14087439Y-53436550D02*
X28086439Y-53436550D01*
X14087439Y-39437150D02*
X14087439Y-53436550D01*
X28086439Y-39437150D02*
X14087439Y-39437150D01*
X271262439Y-91536650D02*
X285261739Y-91536650D01*
X271262439Y-77537350D02*
X271262439Y-91536650D01*
X285261739Y-77537350D02*
X271262439Y-77537350D01*
X285261739Y-91536650D02*
X285261739Y-77537350D01*
X266211739Y-91536650D02*
X266211739Y-77537350D01*
X252212439Y-91536650D02*
X266211739Y-91536650D01*
X252212439Y-77537350D02*
X252212439Y-91536650D01*
X266211739Y-77537350D02*
X252212439Y-77537350D01*
X166199439Y-72486650D02*
X166199439Y-58487350D01*
X152199439Y-72486650D02*
X166199439Y-72486650D01*
X18586939Y-15861243D02*
X18586939Y-14386120D01*
X18586939Y-15861243D02*
G75*
G02X16586939Y-17861243I-2000000J0D01*
G01*
X12561439Y-17861243D02*
X16586939Y-17861243D01*
X11561439Y-18861243D02*
G75*
G02X12561439Y-17861243I1000000J0D01*
G01*
X11561439Y-112109120D02*
X11561439Y-18861243D01*
X12561439Y-113109120D02*
G75*
G02X11561439Y-112109120I0J1000000D01*
G01*
X16586939Y-113109120D02*
X12561439Y-113109120D01*
X16586939Y-113109120D02*
G75*
G02X18586939Y-115109120I0J-2000000D01*
G01*
X18586939Y-116584120D02*
X18586939Y-115109120D01*
X20586939Y-118584120D02*
G75*
G02X18586939Y-116584120I0J2000000D01*
G01*
X21586939Y-118584120D02*
X20586939Y-118584120D01*
X23586939Y-116584120D02*
G75*
G02X21586939Y-118584120I-2000000J0D01*
G01*
X23586939Y-115109120D02*
X23586939Y-116584120D01*
X23586939Y-115109120D02*
G75*
G02X25586939Y-113109120I2000000J0D01*
G01*
X111836939Y-113109120D02*
X25586939Y-113109120D01*
X111836939Y-113109120D02*
G75*
G02X113836939Y-115109120I0J-2000000D01*
G01*
X113836939Y-116584120D02*
X113836939Y-115109120D01*
X115836939Y-118584120D02*
G75*
G02X113836939Y-116584120I0J2000000D01*
G01*
X116836939Y-118584120D02*
X115836939Y-118584120D01*
X118836939Y-116584120D02*
G75*
G02X116836939Y-118584120I-2000000J0D01*
G01*
X118836939Y-115109120D02*
X118836939Y-116584120D01*
X118836939Y-115109120D02*
G75*
G02X120836939Y-113109120I2000000J0D01*
G01*
X207086939Y-113109120D02*
X120836939Y-113109120D01*
X207086939Y-113109120D02*
G75*
G02X209086939Y-115109120I0J-2000000D01*
G01*
X209086939Y-116584120D02*
X209086939Y-115109120D01*
X211086939Y-118584120D02*
G75*
G02X209086939Y-116584120I0J2000000D01*
G01*
X212086939Y-118584120D02*
X211086939Y-118584120D01*
X214086939Y-116584120D02*
G75*
G02X212086939Y-118584120I-2000000J0D01*
G01*
X214086939Y-115109120D02*
X214086939Y-116584120D01*
X214086939Y-115109120D02*
G75*
G02X216086939Y-113109120I2000000J0D01*
G01*
X302336939Y-113109120D02*
X216086939Y-113109120D01*
X302336939Y-113109120D02*
G75*
G02X304336939Y-115109120I0J-2000000D01*
G01*
X304336939Y-116584120D02*
X304336939Y-115109120D01*
X306336939Y-118584120D02*
G75*
G02X304336939Y-116584120I0J2000000D01*
G01*
X307336939Y-118584120D02*
X306336939Y-118584120D01*
X309336939Y-116584120D02*
G75*
G02X307336939Y-118584120I-2000000J0D01*
G01*
X309336939Y-115109120D02*
X309336939Y-116584120D01*
X309336939Y-115109120D02*
G75*
G02X311336939Y-113109120I2000000J0D01*
G01*
X315361355Y-113109120D02*
X311336939Y-113109120D01*
X316361355Y-112109120D02*
G75*
G02X315361355Y-113109120I-1000000J0D01*
G01*
X316361354Y-18861243D02*
X316361354Y-112109120D01*
X315361355Y-17861244D02*
G75*
G02X316361354Y-18861243I0J-999999D01*
G01*
X311336939Y-17861243D02*
X315361354Y-17861243D01*
X311336939Y-17861243D02*
G75*
G02X309336939Y-15861243I0J2000000D01*
G01*
X309336939Y-14386120D02*
X309336939Y-15861243D01*
X307336939Y-12386120D02*
G75*
G02X309336939Y-14386120I0J-2000000D01*
G01*
X306336939Y-12386121D02*
X307336939Y-12386121D01*
X304336940Y-14386120D02*
G75*
G02X306336939Y-12386121I1999999J0D01*
G01*
X304336939Y-15861243D02*
X304336939Y-14386120D01*
X304336939Y-15861243D02*
G75*
G02X302336939Y-17861243I-2000000J0D01*
G01*
X168461939Y-17861243D02*
X302336939Y-17861243D01*
X168461939Y-17861243D02*
G75*
G02X166461939Y-15861243I0J2000000D01*
G01*
X166461939Y-14386120D02*
X166461939Y-15861243D01*
X164461939Y-12386120D02*
G75*
G02X166461939Y-14386120I0J-2000000D01*
G01*
X163461939Y-12386121D02*
X164461939Y-12386121D01*
X161461940Y-14386120D02*
G75*
G02X163461939Y-12386121I1999999J0D01*
G01*
X161461939Y-15861243D02*
X161461939Y-14386120D01*
X161461939Y-15861243D02*
G75*
G02X159461939Y-17861243I-2000000J0D01*
G01*
X25586939Y-17861243D02*
X159461939Y-17861243D01*
X25586939Y-17861243D02*
G75*
G02X23586939Y-15861243I0J2000000D01*
G01*
X23586939Y-14386120D02*
X23586939Y-15861243D01*
X21586939Y-12386120D02*
G75*
G02X23586939Y-14386120I0J-2000000D01*
G01*
X20586939Y-12386121D02*
X21586939Y-12386121D01*
X18586940Y-14386120D02*
G75*
G02X20586939Y-12386121I1999999J0D01*
G01*
X109049439Y-58487350D02*
X95049439Y-58487350D01*
X109049439Y-72486650D02*
X109049439Y-58487350D01*
X95049439Y-72486650D02*
X109049439Y-72486650D01*
X95049439Y-58487350D02*
X95049439Y-72486650D01*
X94761439Y-91536650D02*
X94761439Y-77537350D01*
X80762439Y-91536650D02*
X94761439Y-91536650D01*
X80762439Y-77537350D02*
X80762439Y-91536650D01*
X94761439Y-77537350D02*
X80762439Y-77537350D01*
X104574439Y-53436550D02*
X118574439Y-53436550D01*
X104574439Y-39437150D02*
X104574439Y-53436550D01*
X118574439Y-39437150D02*
X104574439Y-39437150D01*
X118574439Y-53436550D02*
X118574439Y-39437150D01*
X161436439Y-110586650D02*
X161436439Y-96587350D01*
X147437439Y-110586650D02*
X161436439Y-110586650D01*
X147437439Y-96587350D02*
X147437439Y-110586650D01*
X161436439Y-96587350D02*
X147437439Y-96587350D01*
X193873939Y-26886920D02*
X193873939Y-27886920D01*
X193873939Y-26886920D02*
G75*
G02X194873939Y-25886920I1000000J0D01*
G01*
X200751440Y-25886920D02*
X194873939Y-25886920D01*
X201532065Y-25511920D02*
G75*
G02X200751440Y-25886920I-780625J625000D01*
G01*
M02*
