G04 #@! TF.GenerationSoftware,KiCad,Pcbnew,(5.1.5-0-10_14)*
G04 #@! TF.CreationDate,2020-03-04T11:44:33+00:00*
G04 #@! TF.ProjectId,plate,706c6174-652e-46b6-9963-61645f706362,rev?*
G04 #@! TF.SameCoordinates,Original*
G04 #@! TF.FileFunction,Soldermask,Bot*
G04 #@! TF.FilePolarity,Negative*
%FSLAX46Y46*%
G04 Gerber Fmt 4.6, Leading zero omitted, Abs format (unit mm)*
G04 Created by KiCad (PCBNEW (5.1.5-0-10_14)) date 2020-03-04 11:44:33*
%MOMM*%
%LPD*%
G04 APERTURE LIST*
%ADD10C,0.100000*%
G04 APERTURE END LIST*
D10*
G36*
X211802739Y-114958532D02*
G01*
X211930434Y-114983932D01*
X212139903Y-115070697D01*
X212328420Y-115196660D01*
X212488740Y-115356980D01*
X212614703Y-115545497D01*
X212614704Y-115545499D01*
X212701468Y-115754967D01*
X212740648Y-115951935D01*
X212745700Y-115977336D01*
X212745700Y-116204064D01*
X212701468Y-116426434D01*
X212614703Y-116635903D01*
X212488740Y-116824420D01*
X212328420Y-116984740D01*
X212139903Y-117110703D01*
X211930434Y-117197468D01*
X211835759Y-117216300D01*
X211708065Y-117241700D01*
X211481335Y-117241700D01*
X211353641Y-117216300D01*
X211258966Y-117197468D01*
X211049497Y-117110703D01*
X210860980Y-116984740D01*
X210700660Y-116824420D01*
X210574697Y-116635903D01*
X210487932Y-116426434D01*
X210443700Y-116204064D01*
X210443700Y-115977336D01*
X210448753Y-115951935D01*
X210487932Y-115754967D01*
X210574696Y-115545499D01*
X210574697Y-115545497D01*
X210700660Y-115356980D01*
X210860980Y-115196660D01*
X211049497Y-115070697D01*
X211258966Y-114983932D01*
X211386661Y-114958532D01*
X211481335Y-114939700D01*
X211708065Y-114939700D01*
X211802739Y-114958532D01*
G37*
G36*
X21302739Y-114958532D02*
G01*
X21430434Y-114983932D01*
X21639903Y-115070697D01*
X21828420Y-115196660D01*
X21988740Y-115356980D01*
X22114703Y-115545497D01*
X22114704Y-115545499D01*
X22201468Y-115754967D01*
X22240648Y-115951935D01*
X22245700Y-115977336D01*
X22245700Y-116204064D01*
X22201468Y-116426434D01*
X22114703Y-116635903D01*
X21988740Y-116824420D01*
X21828420Y-116984740D01*
X21639903Y-117110703D01*
X21430434Y-117197468D01*
X21335759Y-117216300D01*
X21208065Y-117241700D01*
X20981335Y-117241700D01*
X20853641Y-117216300D01*
X20758966Y-117197468D01*
X20549497Y-117110703D01*
X20360980Y-116984740D01*
X20200660Y-116824420D01*
X20074697Y-116635903D01*
X19987932Y-116426434D01*
X19943700Y-116204064D01*
X19943700Y-115977336D01*
X19948753Y-115951935D01*
X19987932Y-115754967D01*
X20074696Y-115545499D01*
X20074697Y-115545497D01*
X20200660Y-115356980D01*
X20360980Y-115196660D01*
X20549497Y-115070697D01*
X20758966Y-114983932D01*
X20886661Y-114958532D01*
X20981335Y-114939700D01*
X21208065Y-114939700D01*
X21302739Y-114958532D01*
G37*
G36*
X307056549Y-114936416D02*
G01*
X307167734Y-114958532D01*
X307377203Y-115045297D01*
X307565720Y-115171260D01*
X307726040Y-115331580D01*
X307852003Y-115520097D01*
X307938768Y-115729566D01*
X307960884Y-115840751D01*
X307983000Y-115951935D01*
X307983000Y-116178665D01*
X307960884Y-116289849D01*
X307938768Y-116401034D01*
X307852003Y-116610503D01*
X307726040Y-116799020D01*
X307565720Y-116959340D01*
X307377203Y-117085303D01*
X307167734Y-117172068D01*
X307056549Y-117194184D01*
X306945365Y-117216300D01*
X306718635Y-117216300D01*
X306607451Y-117194184D01*
X306496266Y-117172068D01*
X306286797Y-117085303D01*
X306098280Y-116959340D01*
X305937960Y-116799020D01*
X305811997Y-116610503D01*
X305725232Y-116401034D01*
X305703116Y-116289849D01*
X305681000Y-116178665D01*
X305681000Y-115951935D01*
X305703116Y-115840751D01*
X305725232Y-115729566D01*
X305811997Y-115520097D01*
X305937960Y-115331580D01*
X306098280Y-115171260D01*
X306286797Y-115045297D01*
X306496266Y-114958532D01*
X306607451Y-114936416D01*
X306718635Y-114914300D01*
X306945365Y-114914300D01*
X307056549Y-114936416D01*
G37*
G36*
X116607349Y-114936416D02*
G01*
X116718534Y-114958532D01*
X116928003Y-115045297D01*
X117116520Y-115171260D01*
X117276840Y-115331580D01*
X117402803Y-115520097D01*
X117489568Y-115729566D01*
X117511684Y-115840751D01*
X117533800Y-115951935D01*
X117533800Y-116178665D01*
X117511684Y-116289849D01*
X117489568Y-116401034D01*
X117402803Y-116610503D01*
X117276840Y-116799020D01*
X117116520Y-116959340D01*
X116928003Y-117085303D01*
X116718534Y-117172068D01*
X116607349Y-117194184D01*
X116496165Y-117216300D01*
X116269435Y-117216300D01*
X116158251Y-117194184D01*
X116047066Y-117172068D01*
X115837597Y-117085303D01*
X115649080Y-116959340D01*
X115488760Y-116799020D01*
X115362797Y-116610503D01*
X115276032Y-116401034D01*
X115253916Y-116289849D01*
X115231800Y-116178665D01*
X115231800Y-115951935D01*
X115253916Y-115840751D01*
X115276032Y-115729566D01*
X115362797Y-115520097D01*
X115488760Y-115331580D01*
X115649080Y-115171260D01*
X115837597Y-115045297D01*
X116047066Y-114958532D01*
X116158251Y-114936416D01*
X116269435Y-114914300D01*
X116496165Y-114914300D01*
X116607349Y-114936416D01*
G37*
G36*
X306988892Y-13739532D02*
G01*
X307180434Y-13777632D01*
X307389903Y-13864397D01*
X307578420Y-13990360D01*
X307738740Y-14150680D01*
X307864703Y-14339197D01*
X307864704Y-14339199D01*
X307951468Y-14548667D01*
X307988122Y-14732936D01*
X307995700Y-14771036D01*
X307995700Y-14997764D01*
X307951468Y-15220134D01*
X307864703Y-15429603D01*
X307738740Y-15618120D01*
X307578420Y-15778440D01*
X307389903Y-15904403D01*
X307180434Y-15991168D01*
X307149606Y-15997300D01*
X306958065Y-16035400D01*
X306731335Y-16035400D01*
X306539794Y-15997300D01*
X306508966Y-15991168D01*
X306299497Y-15904403D01*
X306110980Y-15778440D01*
X305950660Y-15618120D01*
X305824697Y-15429603D01*
X305737932Y-15220134D01*
X305693700Y-14997764D01*
X305693700Y-14771036D01*
X305701279Y-14732936D01*
X305737932Y-14548667D01*
X305824696Y-14339199D01*
X305824697Y-14339197D01*
X305950660Y-14150680D01*
X306110980Y-13990360D01*
X306299497Y-13864397D01*
X306508966Y-13777632D01*
X306700508Y-13739532D01*
X306731335Y-13733400D01*
X306958065Y-13733400D01*
X306988892Y-13739532D01*
G37*
G36*
X164075792Y-13739532D02*
G01*
X164267334Y-13777632D01*
X164476803Y-13864397D01*
X164665320Y-13990360D01*
X164825640Y-14150680D01*
X164951603Y-14339197D01*
X164951604Y-14339199D01*
X165038368Y-14548667D01*
X165075022Y-14732936D01*
X165082600Y-14771036D01*
X165082600Y-14997764D01*
X165038368Y-15220134D01*
X164951603Y-15429603D01*
X164825640Y-15618120D01*
X164665320Y-15778440D01*
X164476803Y-15904403D01*
X164267334Y-15991168D01*
X164236506Y-15997300D01*
X164044965Y-16035400D01*
X163818235Y-16035400D01*
X163626694Y-15997300D01*
X163595866Y-15991168D01*
X163386397Y-15904403D01*
X163197880Y-15778440D01*
X163037560Y-15618120D01*
X162911597Y-15429603D01*
X162824832Y-15220134D01*
X162780600Y-14997764D01*
X162780600Y-14771036D01*
X162788179Y-14732936D01*
X162824832Y-14548667D01*
X162911596Y-14339199D01*
X162911597Y-14339197D01*
X163037560Y-14150680D01*
X163197880Y-13990360D01*
X163386397Y-13864397D01*
X163595866Y-13777632D01*
X163787408Y-13739532D01*
X163818235Y-13733400D01*
X164044965Y-13733400D01*
X164075792Y-13739532D01*
G37*
G36*
X21319249Y-13717416D02*
G01*
X21430434Y-13739532D01*
X21639903Y-13826297D01*
X21828420Y-13952260D01*
X21988740Y-14112580D01*
X22114703Y-14301097D01*
X22201468Y-14510566D01*
X22209047Y-14548667D01*
X22245700Y-14732935D01*
X22245700Y-14959665D01*
X22238121Y-14997765D01*
X22201468Y-15182034D01*
X22114703Y-15391503D01*
X21988740Y-15580020D01*
X21828420Y-15740340D01*
X21639903Y-15866303D01*
X21430434Y-15953068D01*
X21319249Y-15975184D01*
X21208065Y-15997300D01*
X20981335Y-15997300D01*
X20870151Y-15975184D01*
X20758966Y-15953068D01*
X20549497Y-15866303D01*
X20360980Y-15740340D01*
X20200660Y-15580020D01*
X20074697Y-15391503D01*
X19987932Y-15182034D01*
X19951279Y-14997765D01*
X19943700Y-14959665D01*
X19943700Y-14732935D01*
X19980353Y-14548667D01*
X19987932Y-14510566D01*
X20074697Y-14301097D01*
X20200660Y-14112580D01*
X20360980Y-13952260D01*
X20549497Y-13826297D01*
X20758966Y-13739532D01*
X20870151Y-13717416D01*
X20981335Y-13695300D01*
X21208065Y-13695300D01*
X21319249Y-13717416D01*
G37*
M02*
